<?xml version="1.0" encoding="UTF-8"?><svg id="Layer_1" xmlns="http://www.w3.org/2000/svg" viewBox="0 0 500 500"><defs><style>.cls-1,.cls-2{fill:#a75cd2;}.cls-3{fill:#bf89df;}.cls-2{font-family:Calibre-Medium, Calibre;font-size:110px;}</style></defs><g><text class="cls-2" transform="translate(136.04 455.23)"><tspan x="0" y="0">mamas</tspan></text><path class="cls-1" d="M130.36,441.6c.06-4.94-.15-9.88-.63-14.8-.36-3.32-1.47-7.57-5-8.44,.46,.12,.94,.1,1.38-.05,4.11-2.18,3.79-7.56,2.34-11.45-1.9-5.1-6.44-8.71-10.93-11.1-16.12-8.62-37.7-7.89-53.33,1.92-4.06,2.55-8.75,7.52-6.69,13.07,.56,1.37,1.38,2.62,2.43,3.68,.46,.49,1.55,1.64,1.55,1.64-2.09,2.89-3.63,5.49-4.61,9-2.96,10.55-2.47,17.33-1.66,25.82,.5,5.25,2.21,13.05,8.16,13.92h0c4.85,.68,10.09-.94,14.94-1.52,5.34-.64,10.73-1.64,16.12-1.5,7.61,.2,15.16,2.04,22.77,2.11,4.02,.04,10.71,.43,11.91-4.95,1.14-5.12,1.19-10.46,1.19-15.69,.07-.56,.07-1.12,.07-1.67Zm-8.7,8.86c-1.89,4.34-7.25,3.85-10.98,3.53-5.59-.48-11.09-1.85-16.71-2.02-4.97-.15-9.89,.81-14.74,1.89-3.63,.81-8.68,2.93-11.96,.09-3.63-3.13-4.28-8.49-4.33-12.98,.07-4.07,.47-8.12,1.19-12.13,.45-2.47,1.16-4.89,2.13-7.21,1.31-3.36,3.22-5.38,3.32-5.27-.98-1.03-2.15-1.57-2.81-2.97-2.48-5.28,3.72-9.74,7.12-11.27,11.87-5.39,28.48-4.86,39.7,2.07,3.5,2.15,10.28,9.58,3.94,13.28,3.91,1.88,4.9,7.54,5.34,11.57,.68,6.46,.48,12.98-.59,19.38-.12,.7-.33,1.39-.62,2.05Z"/></g><path class="cls-1" d="M482.96,89.35c-19.22-8.47-38.43-16.94-57.65-25.41-.53-.23-1.04-.52-1.5-.86-2.18-1.6-8.62-6.65-12.06-12.97-2.26-4.15-5.16-7.94-8.89-10.82-9.48-7.33-27.07-15.47-45.27,4.14-10.4,11.2-15.97,26.06-16.34,41.34-.06,2.34-1.05,9.75-.11,18.96,2.08,20.34,9.2,47.6,13.83,57.86,0,0,6.32,10.06-3.19,16.43-2.94,1.97-6.44,2.91-9.98,2.99-18.25,.4-107.9,4.68-187.94,49.51-.86,.48-1.79,.8-2.77,.94-7.8,1.09-44.93,6.75-58.85,16.96-7.06,5.18-12.73,10.57-16.83,14.91-3.88,4.12-2.45,10.79,2.69,12.99,.1-.9,.24-1.76,.43-2.55,1.26-5.1,4.47-8.41,5.79-9.6,3.59-3.22,8.46-4.99,13.71-4.99,3.12,0,6.25,.64,9.05,1.84,6.02,2.59,9.4,7.23,11.17,10.66,.37,.71,.96,1.33,1.7,1.77l11.87,7.09c1.15,.69,2.05,1.79,2.31,3.1,.54,2.75-1.33,5.17-3.85,5.55l-11.03,1.65c3.87,1.26,7.89,2.55,12.05,3.84,1.08-.55,2.18-1.08,3.36-1.57,7.54-3.12,17.37-4.98,29.27-5.55-.75-3.74-1.38-9.49-.25-14.08,1.26-5.11,4.47-8.42,5.79-9.6,3.58-3.21,8.45-4.99,13.71-4.99,3.12,0,6.25,.63,9.04,1.84,6.6,2.84,10,8.24,11.43,11.2,.17,.35,.45,.65,.81,.86l12.63,7.54c2.19,1.31,3.01,4.25,1.46,6.6-.74,1.12-1.99,1.79-3.31,1.99l-11.69,1.75c-.65,1.99-1.77,3.73-3.68,6.36-.17,.24-.35,.47-.53,.7,1.6,1.23,3.3,2.72,5.04,4.44,3.79,3.73,6.2,7.48,7.17,11.15,.15,.55,.26,1.11,.34,1.65,9.67,1.74,19.3,3.17,28.68,4.16,1.53,.16,2.53,1.68,2.06,3.15l-13.46,41.76c-.2,.61-.47,1.2-.84,1.73-2.26,3.25-8.77,18.2,66.73,14.12,0,0,20.62-5.56-30.13-10.37-3.73-.35-7.32-1.66-10.4-3.8l-3.64-2.53c-2.52-1.75-3.59-4.94-2.63-7.86l10.86-33.12c.33-1.02,1.3-1.69,2.37-1.66,6.74,.18,13.26,.07,19.47-.41,6.1-.47,12.14-1.09,18.08-1.84,.78-.1,1.58,.15,2.12,.73,.76,.81,1.56,1.33,1.91,1.54,21.03,18.8,42.06,37.6,63.09,56.4,1.43,1.28,3.29,1.99,5.21,1.99h57.89s16.68-8.08-31.44-9.83c-.39-.01-1.03-.09-1.41-.14-3.18-.4-8.33,.1-11.88-.82-2.34-.61-3.44-.97-4.95-1.5-2.05-.73-3.95-1.84-5.58-3.28l-51.33-45.01c-1.5-1.32-.85-3.78,1.1-4.19,53.09-10.98,95.36-35.24,107.3-77.28,3.19-11.24,3.37-23.13,.9-34.56-4.41-20.39-16.82-57.28-50.93-81.28-1.07-.75-2.22-1.37-3.36-2.02-1.89-1.07-4.64-4.77,9.78-16.1,18.46-14.5,34.28-11.87,34.28-11.87,0,0,40.93,3.91,61.22,2.07,1.19-.11,1.82-.18,2.11-.74,.39-.77-.29-2.3-2.11-3.13Z"/><path class="cls-3" d="M132.89,373.94c-3.15-1.23-5.09-1.23-5.51-1.24-3.92-.06-5.6,.59-12.58-.48-1.51-.23-6.25-.95-8.38-1.4-.59-.13-1.09-.53-1.33-1.09-3.86-9.04-6.7-18.34-9.96-27.53-.09-.25,.04-.54,.3-.63,2.39-.89,4.24-1.4,4.24-1.4,21.57-5.56,23.31-20.77,23.31-20.77,1.2-5.28-2.41-10.45-6.33-14.3-2.63-2.59-5.07-4.56-7.05-5.77-.53-.32-.61-1.04-.17-1.47,.76-.76,1.55-1.65,2.31-2.69,2.26-3.11,2.91-4.18,3.3-5.88,.2-.87,1.06-1.7,1.95-1.83l12.71-1.91c.88-.13,1.11-1.29,.34-1.75l-12.01-7.17c-1.31-.78-2.39-1.89-3.09-3.25-1.32-2.56-4.13-6.72-9.34-8.96-5.98-2.57-13.78-2.04-18.84,2.51-.52,.47-3.57,3.28-4.67,7.74-.24,.96-.38,1.99-.45,3.04-.38,5.42,1.1,11.51,1.46,12.25,.03,.06,.12,.27,.1,.54-.05,.49-.44,.91-.99,.93-27.62,.73-38.99,7.91-44.18,14.64-3.53,4.58-4.99,9.99-12.29,15.79-6.84,5.43-12.86,9.46-11.99,12.56,.44,1.57,2.55,2.2,3.99,2.67,10.04,3.31,9.07,6.34,19.63,10.57,5.09,2.04,11.01,3.2,17.08,3.68,.26,.02,.45,.23,.45,.49v14.49c0,.79,.05,1.58,.13,2.36,.09,.89,.14,2,.07,3.27-.1,1.75-.34,2.25-.11,2.87,.88,2.37,7.09,2.13,8,2.1,6.67-.25,13.13-.2,28.1-.02,.88,.01,1.78-.13,2.58-.49,1.13-.49,1.67-.95,1.65-1.37-.06-1.02-3.48-1.84-10.26-2.46-4.75-.16-4.82-.33-9.14-.49-.44-.02-.89-.07-1.32-.14-3.3-.59-5.94-.98-7.79-1.22-1.85-.24-2.88-.35-3.83-1.14-1.93-1.61-1.86-4.69-1.77-6.28,.22-3.75,.44-7.49,.66-11.24,.02-.26,.23-.46,.49-.46,4.51-.05,8.94-.42,13.01-1.05,4.55-.7,8.79-2.59,12.55-5.24,.01,0,.03-.02,.04-.03,.25-.18,.61-.07,.73,.21,6.09,13.45,10.42,22.52,11.18,25.33,.17,.63,.73,2.96,2.71,4.64,.97,.83,1.97,1.23,2.6,1.44h26.05c.38-.03,3.02-.29,3.19-1.26,.11-.66-.83-1.44-1.51-1.7Z"/><path class="cls-3" d="M218.02,373.66c-3.43-.91-5.2-.79-5.62-.8-3.92-.06-5.49,.15-12.47-.92-1.51-.23-6.26-.95-8.39-1.4-.59-.12-1.08-.53-1.32-1.09-3.86-9.04-6.7-18.35-9.96-27.54-.09-.25,.04-.53,.29-.62,2.4-.89,4.25-1.4,4.25-1.4,21.57-5.56,23.31-20.77,23.31-20.77,.37-1.63,.28-3.26-.13-4.83-.93-3.52-3.49-6.81-6.19-9.47-2.63-2.59-5.08-4.56-7.06-5.78-.52-.32-.6-1.03-.17-1.46,.77-.76,1.56-1.66,2.32-2.7,2.18-3,2.94-4.38,3.34-5.99,.22-.9,.95-1.58,1.87-1.72l12.75-1.91c.88-.13,1.11-1.29,.34-1.75l-12.63-7.54c-.96-.58-1.75-1.41-2.24-2.42-1.21-2.5-4.04-7.04-9.57-9.42-5.98-2.57-13.78-2.04-18.84,2.51-.52,.47-3.57,3.28-4.67,7.74-1.45,5.89,.58,14.41,1.01,15.29,.03,.06,.12,.27,.1,.54-.05,.49-.44,.91-.99,.93-14.35,.38-24.31,2.5-31.3,5.39-6.87,2.84-10.87,6.43-13.34,9.86h0c4.29,5.71,4.6,10.45,3.91,13.67-.28,1.85-2.53,13.08-16.39,20.12,3.37,2.16,5.34,4.41,12.27,7.19,5.09,2.04,11.01,3.2,17.08,3.68,.25,.02,.44,.23,.44,.48v14.53c0,.77,.05,1.53,.13,2.3,.09,.9,.15,2.02,.08,3.3-.1,1.75-.34,2.25-.11,2.87,.88,2.37,7.09,2.13,8,2.1,6.73-.25,13.23-.2,28.48-.01,.63,0,1.28-.11,1.87-.35,1.35-.55,2.02-1.05,1.99-1.51-.06-1.02-3.48-1.84-10.26-2.46-4.98-.17-4.82-.34-9.8-.51-3.6-.66-6.48-1.08-8.44-1.34-1.85-.24-2.88-.35-3.83-1.14-1.93-1.61-1.86-4.69-1.77-6.28,.22-3.75,.44-7.5,.66-11.25,.01-.25,.22-.45,.48-.45,4.5-.05,8.93-.42,13-1.05,4.56-.7,8.81-2.6,12.58-5.25,.01,0,.03-.02,.04-.03,.25-.17,.59-.07,.72,.21,6.09,13.45,10.43,22.53,11.19,25.34,.17,.63,.73,2.96,2.71,4.64,.67,.57,1.36,.95,1.93,1.19,.41,.17,.85,.25,1.29,.25h25.42c.38-.03,3.02-.29,3.19-1.26,.11-.66-.65-1.47-1.51-1.7Z"/></svg>