<?xml version="1.0" encoding="UTF-8"?><svg id="Layer_1" xmlns="http://www.w3.org/2000/svg" viewBox="0 0 500 500"><defs><style>.cls-1,.cls-2{fill:#ff4c00;}.cls-3{fill:#fff;}.cls-4{fill:#fed900;}.cls-5{fill:#231f20;}.cls-2{font-family:Calibre-Medium, Calibre;font-size:107.91px;}</style></defs><g><path class="cls-4" d="M27.57,227.03c8.16-4.05,23.08-1.7,37.14,.51,5.72,.9,7.34,1.53,11.99,1.85,16.02,1.1,28.2-4.21,30.81-5.22,3.37-1.3,8.67-2.32,16.79-2.82,1.01-.06,1.47-1.28,.78-2.03-10.06-10.99-16.1-24.97-16.1-40.19,0-35.4,32.55-64.09,72.71-64.09,40.15,0,72.71,28.69,72.71,64.09,0,6.91,2.95,15.19,.66,21.42l-5.74,17.17s-5.49,.24-6.76,7.84c-.39,2.35,.61,4.74,2.62,6,7.6,4.79,25.9,18.51,31.32,43.55,4.8,22.18-2.19,45.53-18.14,62.31-2.41,2.53-5.3,4.58-8.44,6.1-10.73,5.21-14.34,5.5-24.68,7.98-13.4,3.22-24.36,4.36-34.63,4.77-29.23,.48-57.99,5.1-98.99-3.26-13.93-2.84-25.58-6.6-36.43-10.61-6.38-3.51-17.3-10.53-26.26-23.01-23.39-32.6-19.63-83.3-1.36-92.36Z"/><path class="cls-1" d="M253.35,168.34c.85,1.35,1.77,2.7,2.78,4.04,8.86,11.76,20.82,18.13,30.83,21.67,1.75,.62,2.16,2.91,.72,4.07-3.76,3.03-8.23,6.21-13.45,9.23-9.34,5.39-18.07,8.51-24.92,10.38-.65-2.53-1.62-6.3-2.77-10.91-.89-3.57-1.65-6.7-1.75-7.14-.91-3.88-.69-12.18,8.56-31.34Z"/><g><ellipse class="cls-5" cx="224.62" cy="163.37" rx="7.47" ry="10.38" transform="translate(-31.82 56.67) rotate(-13.44)"/><ellipse class="cls-3" cx="227.41" cy="165.54" rx="2.52" ry="3.63" transform="translate(-32.31 57.53) rotate(-13.47)"/></g></g><g><path class="cls-4" d="M476.72,263.23c-5.74-2.85-16.22-1.2-26.11,.36-4.02,.63-5.16,1.08-8.43,1.3-11.27,.77-19.83-2.96-21.66-3.67-2.37-.91-6.09-1.63-11.8-1.98-.71-.04-1.03-.9-.55-1.42,7.07-7.73,11.32-17.55,11.32-28.26,0-24.88-22.88-45.06-51.11-45.06s-51.11,20.17-51.11,45.06c0,4.86-2.07,10.68-.46,15.06l4.04,12.07s3.86,.17,4.75,5.51c.28,1.65-.43,3.33-1.84,4.22-5.35,3.36-18.21,13.01-22.01,30.61-3.37,15.6,1.54,32.01,12.76,43.8,1.69,1.78,3.73,3.22,5.93,4.29,7.54,3.66,10.08,3.87,17.35,5.61,9.42,2.26,17.13,3.06,24.34,3.35,20.55,.34,40.77,3.58,69.59-2.29,9.79-2,17.98-4.64,25.61-7.46,4.48-2.46,12.16-7.4,18.46-16.18,16.44-22.92,13.8-58.56,.96-64.93Z"/><path class="cls-1" d="M317.99,221.97c-.6,.95-1.24,1.9-1.95,2.84-6.23,8.27-14.64,12.74-21.67,15.23-1.23,.43-1.52,2.05-.51,2.86,2.64,2.13,5.78,4.37,9.45,6.49,6.56,3.79,12.7,5.99,17.52,7.3,.46-1.78,1.14-4.43,1.95-7.67,.62-2.51,1.16-4.71,1.23-5.02,.64-2.73,.48-8.56-6.02-22.03Z"/><g><ellipse class="cls-5" cx="338.98" cy="217.42" rx="8.36" ry="6.02" transform="translate(25.96 470.79) rotate(-71.66)"/><ellipse class="cls-3" cx="338.02" cy="215.19" rx="2.61" ry="1.81" transform="translate(27.22 468.11) rotate(-71.62)"/></g></g><g><text class="cls-2" transform="translate(145.6 455.23)"><tspan x="0" y="0">mamas</tspan></text><path class="cls-1" d="M139.92,441.6c.06-4.94-.15-9.88-.63-14.8-.36-3.32-1.47-7.57-5-8.44,.46,.12,.94,.1,1.38-.05,4.11-2.18,3.79-7.56,2.34-11.45-1.9-5.1-6.44-8.71-10.93-11.1-16.12-8.62-37.7-7.89-53.33,1.92-4.06,2.55-8.75,7.52-6.69,13.07,.56,1.37,1.38,2.62,2.43,3.68,.46,.49,1.55,1.64,1.55,1.64-2.09,2.89-3.63,5.49-4.61,9-2.96,10.55-2.47,17.33-1.66,25.82,.5,5.25,2.21,13.05,8.16,13.92h0c4.85,.68,10.09-.94,14.94-1.52,5.34-.64,10.73-1.64,16.12-1.5,7.61,.2,15.16,2.04,22.77,2.11,4.02,.04,10.71,.43,11.91-4.95,1.14-5.12,1.19-10.46,1.19-15.69,.07-.56,.07-1.12,.07-1.67Zm-8.7,8.86c-1.89,4.34-7.25,3.85-10.98,3.53-5.59-.48-11.09-1.85-16.71-2.02-4.97-.15-9.89,.81-14.74,1.89-3.63,.81-8.68,2.93-11.96,.09-3.63-3.13-4.28-8.49-4.33-12.98,.07-4.07,.47-8.12,1.19-12.13,.45-2.47,1.16-4.89,2.13-7.21,1.31-3.36,3.22-5.38,3.32-5.27-.98-1.03-2.15-1.57-2.81-2.97-2.48-5.28,3.72-9.74,7.12-11.27,11.87-5.39,28.48-4.86,39.7,2.07,3.5,2.15,10.28,9.58,3.94,13.28,3.91,1.88,4.9,7.54,5.34,11.57,.68,6.46,.48,12.98-.59,19.38-.12,.7-.33,1.39-.62,2.05Z"/></g></svg>