<?xml version="1.0" encoding="UTF-8"?><svg id="Layer_1" xmlns="http://www.w3.org/2000/svg" viewBox="0 0 500 500"><defs><style>.cls-1,.cls-2{fill:#ff4c00;}.cls-3{fill:#663902;}.cls-4{fill:#995700;}.cls-5{fill:#231f20;}.cls-2{font-family:Calibre-Medium, Calibre;font-size:110px;}.cls-6{fill:none;stroke:#231f20;stroke-linecap:round;stroke-miterlimit:10;}.cls-7{letter-spacing:0em;}.cls-8{letter-spacing:-.02em;}</style></defs><path class="cls-1" d="M418.97,275.72c.26-22.17-.69-44.33-2.85-66.39-1.6-14.91-6.6-33.97-22.44-37.85,2.05,.52,4.2,.45,6.2-.21,18.42-9.8,17.01-33.91,10.49-51.35-8.55-22.87-28.91-39.05-49.04-49.81-72.33-38.65-169.12-35.41-239.24,8.63-18.24,11.45-39.27,33.73-30.03,58.62,2.51,6.16,6.21,11.77,10.89,16.5,2.05,2.21,6.95,7.35,6.95,7.37-9.4,12.96-16.27,24.62-20.68,40.38-13.28,47.33-11.07,77.76-7.43,115.83,2.26,23.53,9.93,58.57,36.6,62.45h0c21.75,3.06,45.26-4.23,67.03-6.81,23.96-2.88,48.13-7.35,72.3-6.71,34.13,.88,67.99,9.13,102.17,9.45,18.05,.19,48.05,1.92,53.43-22.23,5.11-22.97,5.32-46.93,5.32-70.39,.29-2.5,.32-5,.32-7.48Zm-39.03,39.74c-8.49,19.46-32.53,17.28-49.27,15.84-25.08-2.16-49.75-8.31-74.96-9.08-22.31-.67-44.38,3.62-66.13,8.47-16.27,3.65-38.95,13.15-53.64,.43-16.29-14.06-19.22-38.07-19.43-58.22,.32-18.25,2.1-36.45,5.32-54.41,2.01-11.09,5.22-21.94,9.56-32.34,5.86-15.07,14.46-24.12,14.91-23.64-4.39-4.61-9.64-7.05-12.59-13.31-11.13-23.69,16.69-43.71,31.94-50.58,53.24-24.2,127.78-21.8,178.09,9.26,15.68,9.66,46.13,42.99,17.68,59.58,17.54,8.41,21.99,33.83,23.96,51.88,3.07,28.97,2.18,58.22-2.66,86.94-.55,3.16-1.48,6.25-2.77,9.18Z"/><g><path class="cls-3" d="M159.79,137.65c.01,5.16-1.66,9.38-2.16,10.59-1.59,3.9-2.83,4.47-3.57,7.61-.99,4.23,.12,8.03,.63,9.33,2.6,6.56,14.39,10.83,28.39,7.68-2.94-5.38-6.98-14.4-8.26-26.23-1.7-15.72,2.35-28.12,4.84-34.26-1.57-1.51-11.11-11.01-10.65-25.9,.4-12.93,8.08-21.17,9.92-23.04,1.79-1.72,10.9-10.11,25.09-10,13.74,.1,22.62,8.14,24.58,10,6.83-1.01,20.5-2.1,36.31,3.37,14.37,4.97,23.86,13.06,28.7,17.82,1.4-.14,21.86-1.81,34.16,14.08,8.44,10.9,7.7,23.16,7.42,26.27-.11,10.45-5.35,19.86-13.85,24.44-7.49,4.04-14.93,2.93-17.5,2.42-1.71,4.96-5.33,13.38-12.98,21.48-6.46,6.84-13.23,10.73-17.7,12.85,12.01-.54,20.17,2.3,25.59,5.27,5.19,2.84,7.2,5.43,13.42,9.76,8.34,5.8,16.31,9.2,22.35,11.27,1.59-.33,17.53-3.38,29.7,7.95,2.1,1.95,3.77,4.04,5.1,6.13,6.37,10,6.43,23.06-.91,32.37-.77,.97-1.63,1.93-2.6,2.85-10.92,10.4-25.72,7.22-26.91,6.94-14.61-3.9-29.22-7.79-43.83-11.69,.11,4.02,.06,8.41-.26,13.11-.27,3.92-.69,7.6-1.2,11,7.3,1.46,14.61,2.92,21.91,4.38,2.31-1.7,19.22-13.75,36.25-7.9,22.07,7.58,29.2,40.73,19.86,60.19-2.81,5.87-6.55,9.29-7.49,10.12-18.67,16.6-50.18,3.94-52.48,2.98-17.96-4.44-37.15-9.22-55.11-13.66-.7,2.89-2.01,7.08-4.62,11.64-1.81,3.17-4.95,8.67-11,12.66-6.74,4.45-13.61,4.72-18.8,4.86-9.81,.26-16.98-2.43-24.94-5.5-7.63-2.95-18.2-7.15-28.56-17-3.98-3.78-9.06-9.62-13.8-18.54-2.93-5.51-4.4-11.66-4.42-17.9l-.09-34.27c1.26-17.07,2.51-34.15,3.77-51.22-3.53-.51-27.86-4.46-42.01-27.16-10.1-16.21-8.53-38.45-7.93-41.4,.06-.27,.29-1.66,.27-3.52-.04-3.49-.99-6.06-1.21-6.7-1.34-3.99-1.45-14.8,3.49-21.92,7.1-10.26,22.34-9.51,24.67-9.42,1.04,.04,17.87,.94,24.96,13.31,3.43,5.99,3.45,12.52,3.45,12.52Z"/><ellipse class="cls-4" cx="222.77" cy="325.39" rx="28.29" ry="33.55"/><ellipse class="cls-4" cx="342.25" cy="317.08" rx="28.29" ry="33.55"/><ellipse class="cls-4" cx="351.08" cy="240.49" rx="18.53" ry="21.98" transform="translate(-63.11 142.82) rotate(-21.14)"/><ellipse class="cls-4" cx="131.45" cy="136.15" rx="18.53" ry="21.98" transform="translate(-18.22 251.98) rotate(-83.74)"/><path class="cls-4" d="M300.21,106.25c.82,8.56,1.63,17.11,2.45,25.67,.54,1.51,1.33,2.9,2.51,3.12,3.67,.69,11.59-9.8,9.62-19.29-1.64-7.94-10.02-14.27-13.02-12.81-1.01,.5-1.41,1.89-1.56,3.31Z"/><path class="cls-4" d="M194.41,95.54c6.33-6.23,12.67-12.46,19-18.69,.61-1.18,.98-2.48,.46-3.46-1.96-3.71-16.84-3.5-22.89,4.82-4.56,6.26-3.69,16.55-.3,18.04,1.14,.5,2.53,0,3.74-.7Z"/><circle class="cls-5" cx="225.43" cy="117.25" r="6.23"/><circle class="cls-5" cx="264.55" cy="125.4" r="6.23"/><ellipse class="cls-4" cx="237.07" cy="158.94" rx="23.13" ry="36.1" transform="translate(31.71 357.16) rotate(-77.83)"/><ellipse class="cls-5" cx="238.75" cy="155.19" rx="9.22" ry="12.18" transform="translate(26.44 344.95) rotate(-74.81)"/><line class="cls-6" x1="234.21" y1="171.28" x2="236.33" y2="162.99"/><path class="cls-6" d="M218.97,160.61c.24,1.2,.88,3.59,2.81,5.9,2.27,2.72,4.96,3.71,5.55,3.91,2.49,.87,2.92,.07,6.37,.86,3.19,.73,3.1,1.47,6.05,2.11,1.62,.36,4.37,.92,7.55,0,2.64-.77,4.51-2.25,5.66-3.4"/></g><text class="cls-2" transform="translate(89.57 455.96)"><tspan x="0" y="0">pa</tspan><tspan class="cls-8" x="106.92" y="0">r</tspan><tspan x="142.67" y="0">en</tspan><tspan class="cls-7" x="247.94" y="0">t</tspan><tspan x="284.24" y="0">s</tspan></text></svg>