<?xml version="1.0" encoding="UTF-8"?><svg id="Layer_1" xmlns="http://www.w3.org/2000/svg" viewBox="0 0 600 600"><defs><style>.cls-1{stroke-linecap:round;}.cls-1,.cls-2{fill:none;}.cls-1,.cls-2,.cls-3{stroke:#f05024;}.cls-1,.cls-2,.cls-3,.cls-4{stroke-miterlimit:10;stroke-width:3px;}.cls-3,.cls-4{fill:#f69269;}.cls-4{stroke:#f04f23;}</style></defs><g><path class="cls-1" d="M331.42,438.25s-5.26,49.32-13.6,60.08"/><path class="cls-1" d="M277.34,485.54s23.76-24.21,27.43-54.03"/><ellipse class="cls-3" cx="304.77" cy="496.86" rx="13.06" ry="6.42"/><ellipse class="cls-3" cx="265.91" cy="482.57" rx="13.06" ry="6.42"/><path class="cls-1" d="M416.96,387.95l-6.63-17.26c-.83-2.33-.65-3.76,.75-5.81"/><path class="cls-1" d="M528.64,317.61s18.76-32.6,41.25-29.71"/><path class="cls-1" d="M510.98,306.92s21.59-50.96,47.47-46.46"/><circle class="cls-2" cx="567.57" cy="258.33" r="8.57"/><circle class="cls-2" cx="578.46" cy="287.71" r="8.57"/><path class="cls-1" d="M412.4,413.59s-9,77.28,4.14,81.13"/><path class="cls-1" d="M426.11,414.8s10.02,60.91,26.37,63.97"/><ellipse class="cls-3" cx="426.11" cy="490.36" rx="13.06" ry="6.42"/><ellipse class="cls-3" cx="458.79" cy="473.15" rx="13.06" ry="6.42"/><path class="cls-1" d="M409.39,391.67l-29.51-27.83c-1.95-1.75-2.56-4.56-1.49-6.95l9.97-22.38c1.47-3.31-.95-7.04-4.57-7.04h-10.63"/><ellipse class="cls-3" cx="370.82" cy="314.97" rx="6.42" ry="13.06" transform="translate(-83.84 141.78) rotate(-19.49)"/><path class="cls-3" d="M553.16,343.64c0-4.42-.68-8.69-1.91-12.73-5.83-20.13-24.39-34.86-46.4-34.86-9.41,0-18.19,2.7-25.62,7.36-14.96,7.96-25.06,22.99-25.06,40.23,0,6.5,1.44,12.77,4.03,18.51-.4-.02-.8-.06-1.21-.06-12.67,0-23.13,9.35-24.92,21.52-3.56-2.24-7.75-3.55-12.27-3.55-7.82,0-14.71,3.89-18.89,9.83-12.1-11.27-34.29-18.83-59.66-18.83-38.32,0-69.39,17.23-69.39,38.48s31.07,38.48,69.39,38.48c30.31,0,56.07-10.78,65.52-25.81,3.71,2.54,8.2,4.03,13.03,4.03,11.14,0,20.43-7.88,22.61-18.37,4.12,2.93,9.14,4.67,14.58,4.67,13.93,0,25.23-11.29,25.23-25.23,0-.09,0-.18-.01-.28,6.76,3.59,14.46,5.64,22.65,5.64,26.68,0,48.31-21.63,48.31-48.31,0-.15,0-.29-.01-.43,0-.1,.01-.19,.01-.29Z"/></g><g><path class="cls-1" d="M84.02,456.58s-3.66,34.36-9.47,41.86"/><path class="cls-1" d="M46.34,489.54s16.55-16.87,19.11-37.65"/><ellipse class="cls-3" cx="65.45" cy="497.43" rx="9.1" ry="4.47"/><ellipse class="cls-3" cx="38.37" cy="487.46" rx="9.1" ry="4.47"/><path class="cls-1" d="M143.62,421.54l-2.18-13.11c-.58-1.62,.91-6.3,1.88-7.72"/><path class="cls-1" d="M221.43,372.53s13.07-22.71,28.74-20.7"/><path class="cls-1" d="M209.13,365.08s15.04-35.51,33.07-32.37"/><circle class="cls-2" cx="248.56" cy="331.22" r="5.97"/><circle class="cls-2" cx="256.14" cy="351.7" r="5.97"/><path class="cls-1" d="M140.44,439.4s-6.27,53.84,2.88,56.53"/><path class="cls-1" d="M149.99,440.25s6.98,42.44,18.37,44.57"/><ellipse class="cls-3" cx="149.99" cy="492.9" rx="9.1" ry="4.47"/><ellipse class="cls-3" cx="172.76" cy="480.9" rx="9.1" ry="4.47"/><path class="cls-1" d="M138.34,424.13l-20.56-19.39c-1.36-1.22-1.78-3.18-1.04-4.85l6.94-15.59c1.03-2.3-.66-4.9-3.18-4.9h-7.41"/><ellipse class="cls-3" cx="111.47" cy="370.69" rx="4.47" ry="9.1" transform="translate(-117.3 58.44) rotate(-19.49)"/><path class="cls-3" d="M238.52,390.67c0-3.08-.47-6.05-1.33-8.87-4.06-14.03-16.99-24.29-32.33-24.29-6.56,0-12.67,1.88-17.85,5.13-10.42,5.55-17.46,16.02-17.46,28.03,0,4.53,1,8.9,2.81,12.9-.28-.01-.56-.04-.84-.04-8.83,0-16.11,6.51-17.37,14.99-2.48-1.56-5.4-2.48-8.55-2.48-5.45,0-10.25,2.71-13.16,6.85-8.43-7.86-23.89-13.12-41.57-13.12-26.7,0-48.35,12-48.35,26.81s21.65,26.81,48.35,26.81c21.12,0,39.07-7.51,45.65-17.98,2.59,1.77,5.71,2.81,9.08,2.81,7.76,0,14.23-5.49,15.75-12.8,2.87,2.04,6.37,3.25,10.16,3.25,9.71,0,17.58-7.87,17.58-17.58,0-.07,0-.13,0-.19,4.71,2.5,10.08,3.93,15.78,3.93,18.59,0,33.66-15.07,33.66-33.66,0-.1,0-.2,0-.3,0-.07,0-.13,0-.2Z"/></g><g><path class="cls-1" d="M257.41,258.54s-26.38,59.78,45.38,85.34l110.27,19.6c1.22,.48,7.17,2.71,13.83-.06,5.73-2.39,8.37-6.98,9.09-8.33,1.77-2.62,5.24-8.54,5.7-16.8,.33-5.97-1.04-10.73-2.09-13.51-17.08-35.87-34.17-71.74-51.25-107.61,0,0-12.25-24.46-36.7-29.1-22.37-4.24-38.88,8.47-41.27,10.38"/><path class="cls-4" d="M324.48,205.7c1.1-.66,.63-2.35-.65-2.34l-27.02,8.48c-.98,0-1.59-1.05-1.1-1.89l13.38-23.06c.72-1.24-.85-2.52-1.92-1.58l-28.55,25.14c-.5,.44-1.25,.42-1.72-.05l-27.03-26.72c-.5-.49-1.29-.49-1.78,.01l-9.03,9.15c-.54,.55-.47,1.46,.16,1.91l31.43,22.68c.58,.42,.7,1.23,.26,1.79l-31.53,41.05c-.91,1.18,.63,2.68,1.79,1.75l21.35-16.05c.75-.6,1.87-.18,2.03,.77l-.71,31.79c.23,1.37,2.18,1.41,2.48,.06l13.76-40.7c.21-1.17,1.48-1.82,2.55-1.32l21.29,10.03c1.41,.67,2.85-.88,2.07-2.24l-11.99-21.05c-.57-1-.07-2.27,1.03-2.62l29.46-14.99Z"/><path class="cls-4" d="M279.74,302.75c-.32-.35-.9-.16-.96,.31-.51,4.01-1.82,16.99,3.43,12.8s-.33-10.77-2.48-13.11Z"/><path class="cls-4" d="M348.84,287.5c-.47-.06-.78,.46-.53,.86,2.22,3.38,9.66,14.09,10.93,7.49s-7.25-7.97-10.4-8.35Z"/><path class="cls-4" d="M333.98,327.35c-.46-.11-.84,.36-.63,.79,1.77,3.63,7.82,15.2,9.91,8.8,2.01-6.15-6.2-8.81-9.28-9.59Z"/><path class="cls-4" d="M299.3,273.13c-.46-.11-.84,.36-.63,.79,1.77,3.63,7.82,15.2,9.91,8.8,2.01-6.15-6.2-8.81-9.28-9.59Z"/><path class="cls-4" d="M388.62,269.53c-.47,.04-.68,.61-.35,.95,2.84,2.88,12.25,11.92,12.19,5.19-.06-6.47-8.68-6.39-11.84-6.14Z"/><path class="cls-4" d="M399.6,337.16c-.45-.13-.85,.34-.65,.77,1.67,3.68,7.37,15.42,9.64,9.09s-5.93-8.99-8.99-9.86Z"/><path class="cls-4" d="M417.79,317.95c-.47-.02-.75,.52-.46,.9,2.46,3.2,10.71,13.32,11.47,6.64,.73-6.43-7.84-7.39-11.01-7.53Z"/><path class="cls-4" d="M349.44,244.12c-.44,.17-.47,.78-.06,1.01,3.54,1.94,15.16,7.88,13.17,1.46-1.92-6.18-10.15-3.61-13.11-2.46Z"/><path class="cls-4" d="M347.23,201.93c-.46,.1-.6,.69-.23,.98,3.18,2.5,13.65,10.29,12.75,3.62-.87-6.41-9.41-5.24-12.52-4.6Z"/></g><g><path class="cls-1" d="M51.92,276.94s-36.71,33.67,5.58,73.48l71.01,47.43c.7,.71,4.17,4.09,9.68,4.19,4.73,.09,7.98-2.31,8.89-3.03,2.04-1.29,6.27-4.36,9.12-9.98,2.06-4.07,2.56-7.81,2.67-10.08-.95-30.28-1.91-60.55-2.86-90.83,0,0-1.07-20.83-16.72-31.55-14.32-9.8-29.74-5.98-31.99-5.38"/><path class="cls-4" d="M115.01,260.03c.97-.12,1.16-1.45,.26-1.84l-21.47-2.35c-.68-.29-.79-1.22-.19-1.66l16.4-12.01c.88-.64,.18-2.02-.86-1.69l-27.63,8.82c-.48,.15-1-.09-1.19-.56l-10.7-26.93c-.2-.49-.76-.73-1.25-.54l-9.11,3.63c-.55,.22-.77,.87-.47,1.38l15.01,25.45c.28,.47,.11,1.07-.36,1.33l-34.58,19.02c-1,.55-.38,2.07,.71,1.77l19.82-4.68c.71-.19,1.36,.45,1.18,1.16l-10.22,21.98c-.26,1.03,1.09,1.65,1.71,.8l22.06-24.21c.51-.75,1.59-.82,2.19-.14l11.8,13.52c.78,.9,2.26,.26,2.13-.93l-1.93-18.37c-.09-.87,.64-1.61,1.52-1.52l25.16-1.45Z"/><path class="cls-4" d="M52.53,316.59c-.12-.34-.57-.38-.76-.08-1.57,2.62-6.42,11.22-1.51,9.91s3.04-7.56,2.26-9.83Z"/><path class="cls-4" d="M105.98,323.88c-.31-.18-.68,.08-.63,.44,.51,3.01,2.42,12.7,5.3,8.5,2.77-4.03-2.61-7.72-4.67-8.94Z"/><path class="cls-4" d="M83.59,346.98c-.28-.22-.69,0-.67,.35,.13,3.05,.8,12.9,4.19,9.1s-1.62-7.99-3.52-9.46Z"/><path class="cls-4" d="M76.02,298.89c-.28-.22-.69,0-.67,.35,.13,3.05,.8,12.9,4.19,9.1,3.26-3.65-1.62-7.99-3.52-9.46Z"/><path class="cls-4" d="M138.99,323.52c-.34-.12-.65,.22-.53,.55,1.09,2.85,4.87,11.97,6.87,7.3,1.92-4.5-4.08-7.06-6.34-7.85Z"/><path class="cls-4" d="M122.08,357.88c-.28-.23-.69-.02-.68,.33,.04,3.05,.42,12.92,3.92,9.22,3.36-3.55-1.38-8.03-3.23-9.56Z"/><path class="cls-4" d="M144.5,365.91c-.32-.16-.68,.13-.59,.48,.74,2.97,3.37,12.48,5.93,8.08,2.46-4.23-3.19-7.5-5.34-8.56Z"/><path class="cls-4" d="M119.57,294.02c-.36-.02-.56,.4-.35,.68,1.87,2.42,8.11,10.06,8.68,5.01s-5.94-5.58-8.33-5.69Z"/><path class="cls-4" d="M128.8,262.17c-.35-.07-.62,.3-.45,.61,1.44,2.69,6.33,11.27,7.73,6.38s-4.93-6.49-7.28-6.99Z"/></g></svg>