<?xml version="1.0" encoding="UTF-8"?><svg id="Layer_1" xmlns="http://www.w3.org/2000/svg" viewBox="0 0 600 542.11"><defs><style>.cls-1{fill:none;}.cls-1,.cls-2{stroke:#f05024;stroke-miterlimit:10;stroke-width:3px;}.cls-3{fill:#f04f23;}.cls-2{fill:#f69269;}</style></defs><path class="cls-1" d="M201.8,9.94c3.04,24.27,19.01,112.93,88.81,94.24,12.35-3.31,21.68-13.57,23.63-26.21,3.56-23.08-8.18-59.17-107.13-73.24-3.05-.43-5.68,2.15-5.3,5.2Z"/><path class="cls-3" d="M298.3,91.93c-13.54-9.66-26.09-20.47-38.4-31.59-12.23-11.21-24.17-22.69-35.04-35.28,13.55,9.65,26.1,20.46,38.4,31.59,12.22,11.22,24.16,22.7,35.04,35.28h0Z"/><path class="cls-2" d="M498.73,143.82c3.2,2.64,6.18,5.5,9.1,8.41,6.55,6.52,6.6,17.23-.12,23.58-6.09,5.76-10.83,12.7-14.34,20.6-2.01,4.51-5.98,3.94-9.26,4.38-28.7,3.91-49.42,35.98-37.31,65.81,1.21,2.99,.9,4.52-1.8,6.53-14.95,11.09-21.5,26.2-20.06,44.65,.87,11.08,5.51,20.78,13.57,28.25,4.83,4.48,5.34,8.72,4.51,14.88-1.99,14.73-.67,29.18,10.36,40.64,5.96,6.19,13.57,10.1,21.75,12.77,3.05,1,7,1.19,8.87,3.26,1.84,2.04-.73,5.68-.96,8.68-1.4,18.93,5.45,34.07,20.82,45.23,1.99,1.45,1.87,2.19,.39,4-11.8,14.48-24.79,27.71-40.25,38.31-17.49,11.99-36.53,20.75-57.6,23.54-16.82,2.23-32.85-1.59-47.54-10.56-8.87-5.41-18.12-10.19-27.04-15.53-15.54-9.3-30.13-7.26-44.84,2.35-11.38,7.43-23.23,14.29-35.87,19.41-19.06,7.72-38.2,5.6-56.99-1.19-17.05-6.15-32.73-14.92-46.73-26.48-13.05-10.77-24.17-23.33-33.97-37.12-21.38-30.11-34.1-63.83-41.87-99.63-3.22-14.82-5.73-29.73-7.26-44.85-1.12-11.09-1.72-22.15-1.58-32.38-.61-26.99,3.09-52.51,11.68-77.14,5.72-16.39,14.15-31.5,25.02-45.14,10.54-13.23,22.48-25.01,36.43-34.65,16.81-11.62,35.07-19.76,55.31-23.46,0,0,77.54-15.18,97.07,35.98,1.82,4.77,6.53,7.79,11.62,7.44l19.88-1.37c1.17-.08,2.29-.55,3.17-1.32,.09-.07,.17-.15,.25-.22,.93-.81,1.72-1.77,2.3-2.86,1.77-3.33,4.01-6.39,6.85-8.89,13.67-12.02,51.09-38.9,105.23-30.87,0,0,25.77,1.98,61.2,34.95Z"/><path class="cls-1" d="M389.62,44.64c-2.2-8.63-13.49-16.14-23.99-16.16-1.16,0-2.33-.05-3.49,.01-5.75,.33-9.35,3.25-10.11,9-1.47,11.15-6.09,20.88-12.46,29.96-8.37,11.93-16.85,23.79-24.89,35.94-8.18,12.37-14.4,25.75-18.62,40.02-.52,1.77-1.56,3.28,1.54,3.96,6.46,1.43,12.82,.93,19.21-.17,2.23-.38,3.14-1.64,3.47-4.06,1.41-10.4,3.99-20.49,9.35-29.65,8.46-14.46,18.13-28.11,28.33-41.38,7.38-9.6,16.47-16.63,28.56-19.4,4.55-1.04,3.95-4.79,3.11-8.07Zm-9.26,5.54c-.22,0-.44-.02-.66-.04-4.42-.33-7.92-1.85-10.24-3.15-6.42-3.45-9.88-7.63-9.05-10.15,.16-.48,.79-1.84,4.06-2.59,1.71-.12,4.28-.09,7.24,.81,2.27,.69,4.06,1.67,5.31,2.49,1.01,.62,5.5,3.5,6.4,8.86,.01,.08,.03,.16,.04,.24,.28,1.91-1.24,3.62-3.1,3.53Z"/></svg>