<?xml version="1.0" encoding="UTF-8"?><svg id="Layer_1" xmlns="http://www.w3.org/2000/svg" viewBox="0 0 600 600"><defs><style>.cls-1{fill:none;}.cls-1,.cls-2{stroke:#f05024;stroke-miterlimit:10;stroke-width:3px;}.cls-3{fill:#f04f23;}.cls-2{fill:#f69269;}</style></defs><path class="cls-1" d="M211.55,62.97c2.7,21.52,16.85,100.11,78.73,83.54,10.95-2.93,19.22-12.03,20.95-23.23,3.16-20.46-7.25-52.46-94.98-64.93-2.7-.38-5.04,1.9-4.7,4.61Z"/><path class="cls-3" d="M297.1,135.66c-6.13-4.17-11.9-8.73-17.6-13.37-5.67-4.67-11.21-9.48-16.64-14.42-5.43-4.94-10.74-10-15.92-15.21-5.16-5.23-10.23-10.56-14.95-16.27,6.13,4.17,11.91,8.72,17.6,13.37,5.67,4.67,11.21,9.48,16.64,14.43,5.42,4.94,10.73,10.01,15.91,15.22,5.16,5.23,10.23,10.56,14.96,16.27Z"/><path class="cls-2" d="M474.78,181.66c2.84,2.34,5.48,4.88,8.07,7.46,5.81,5.78,5.85,15.27-.1,20.9-5.4,5.11-9.6,11.26-12.71,18.26-1.78,4-5.3,3.49-8.21,3.89-25.45,3.46-43.82,31.9-33.07,58.34,1.08,2.65,.8,4.01-1.59,5.79-13.25,9.84-19.06,23.22-17.78,39.58,.77,9.82,4.88,18.43,12.03,25.04,4.28,3.97,4.73,7.73,3.99,13.19-1.76,13.06-.59,25.87,9.19,36.03,5.28,5.49,12.03,8.95,19.28,11.32,2.7,.88,6.21,1.06,7.86,2.89,1.63,1.81-.65,5.03-.85,7.69-1.24,16.78,4.83,30.2,18.46,40.1,1.77,1.28,1.66,1.94,.34,3.55-10.46,12.83-21.97,24.57-35.68,33.96-15.5,10.63-32.38,18.39-51.06,20.87-14.91,1.98-29.12-1.41-42.15-9.36-7.86-4.8-16.06-9.04-23.97-13.76-13.78-8.24-26.71-6.44-39.75,2.08-10.09,6.59-20.6,12.67-31.8,17.2-16.89,6.84-33.86,4.97-50.53-1.05-15.11-5.46-29.02-13.22-41.43-23.47-11.57-9.55-21.43-20.68-30.11-32.91-18.95-26.69-30.23-56.59-37.12-88.33-2.85-13.13-5.08-26.36-6.44-39.76-.99-9.83-1.53-19.64-1.4-28.71-.54-23.93,2.74-46.56,10.36-68.38,5.07-14.53,12.54-27.92,22.18-40.02,9.35-11.73,19.93-22.17,32.29-30.72,14.9-10.3,31.09-17.52,49.03-20.8,0,0,68.74-13.45,86.05,31.89,1.61,4.23,5.79,6.91,10.3,6.6l17.62-1.21c1.04-.07,2.03-.48,2.81-1.17,.08-.07,.15-.13,.22-.19,.83-.72,1.52-1.57,2.04-2.54,1.57-2.96,3.55-5.67,6.07-7.88,12.12-10.65,45.29-34.49,93.29-27.37,0,0,22.85,1.76,54.26,30.98Z"/><path class="cls-1" d="M378.06,93.73c-1.95-7.65-11.95-14.31-21.27-14.33-1.03,0-2.07-.05-3.1,.01-5.1,.29-8.29,2.88-8.96,7.98-1.3,9.88-5.4,18.51-11.05,26.56-7.42,10.58-14.94,21.09-22.06,31.86-7.25,10.97-12.77,22.83-16.51,35.48-.46,1.57-1.38,2.9,1.37,3.51,5.73,1.27,11.36,.82,17.03-.15,1.98-.34,2.79-1.45,3.08-3.6,1.25-9.22,3.54-18.17,8.29-26.29,7.5-12.82,16.07-24.92,25.11-36.68,6.54-8.51,14.6-14.74,25.32-17.2,4.03-.92,3.5-4.24,2.76-7.15Zm-8.21,4.91c-.19,0-.39-.02-.58-.04-3.92-.29-7.02-1.64-9.08-2.8-5.69-3.06-8.76-6.77-8.03-9,.14-.43,.7-1.63,3.6-2.29,1.51-.11,3.8-.08,6.42,.72,2.02,.61,3.6,1.48,4.71,2.21,.9,.55,4.88,3.1,5.67,7.86,.01,.07,.02,.14,.03,.21,.25,1.7-1.1,3.21-2.75,3.13Z"/></svg>