<?xml version="1.0" encoding="UTF-8"?><svg id="Layer_1" xmlns="http://www.w3.org/2000/svg" viewBox="0 0 600 600"><defs><style>.cls-1{fill:none;}.cls-1,.cls-2,.cls-3{stroke-miterlimit:10;stroke-width:3px;}.cls-1,.cls-3{stroke:#f04f23;}.cls-2{stroke:#f05024;}.cls-2,.cls-3{fill:#f69269;}</style></defs><g><circle class="cls-2" cx="345.03" cy="506.12" r="18.76"/><circle class="cls-2" cx="357.56" cy="449.17" r="18.76"/><circle class="cls-2" cx="386.09" cy="410.92" r="18.76"/><circle class="cls-2" cx="421.5" cy="475.14" r="18.76"/><circle class="cls-2" cx="334.28" cy="386.84" r="18.76"/></g><g><path class="cls-2" d="M305.7,197.83c-9.08-4.98-20.48-1.66-25.47,7.43s-1.66,20.48,7.43,25.47c9.08,4.98,20.48,1.66,25.47-7.43s1.66-20.48-7.43-25.47Zm-2.99,19.75c-1.83,3.33-6,4.55-9.33,2.72-3.33-1.83-4.55-6-2.72-9.33s6-4.55,9.33-2.72,4.55,6,2.72,9.33Z"/><path class="cls-2" d="M330.07,129.58c-8.27-6.24-20.03-4.6-26.27,3.66s-4.6,20.03,3.66,26.27c8.27,6.24,20.03,4.6,26.27-3.66,6.24-8.27,4.6-20.03-3.66-26.27Zm-5.82,19.11c-2.29,3.03-6.6,3.63-9.63,1.34-3.03-2.29-3.63-6.6-1.34-9.63s6.6-3.63,9.63-1.34c3.03,2.29,3.63,6.6,1.34,9.63Z"/><path class="cls-2" d="M261.82,85.49c-9.08-4.98-20.48-1.66-25.47,7.43s-1.66,20.48,7.43,25.47c9.08,4.98,20.48,1.66,25.47-7.43s1.66-20.48-7.43-25.47Zm-2.99,19.75c-1.83,3.33-6,4.55-9.33,2.72-3.33-1.83-4.55-6-2.72-9.33s6-4.55,9.33-2.72,4.55,6,2.72,9.33Z"/><path class="cls-2" d="M329.49,66.73c-9.08-4.98-20.48-1.66-25.47,7.43s-1.66,20.48,7.43,25.47c9.08,4.98,20.48,1.66,25.47-7.43,4.98-9.08,1.66-20.48-7.43-25.47Zm-2.99,19.75c-1.83,3.33-6,4.55-9.33,2.72-3.33-1.83-4.55-6-2.72-9.33s6-4.55,9.33-2.72,4.55,6,2.72,9.33Z"/><path class="cls-2" d="M283.06,151.87c-9.08-4.98-20.48-1.66-25.47,7.43s-1.66,20.48,7.43,25.47c9.08,4.98,20.48,1.66,25.47-7.43s1.66-20.48-7.43-25.47Zm-2.99,19.75c-1.83,3.33-6,4.55-9.33,2.72-3.33-1.83-4.55-6-2.72-9.33s6-4.55,9.33-2.72,4.55,6,2.72,9.33Z"/></g><g><g><path class="cls-2" d="M91.45,351.97c5.72,9.8,14.35,15.41,19.29,12.53,4.94-2.88,4.31-13.16-1.41-22.96s-21.76-20.48-19.29-12.53c2.02,6.52-4.31,13.16,1.41,22.96Z"/><line class="cls-2" x1="110.74" y1="363.5" x2="115.42" y2="370.3"/></g><g><path class="cls-2" d="M171.52,341.12c-8.32-7.71-18.22-10.56-22.11-6.36-3.89,4.19-.29,13.85,8.04,21.56,8.32,7.71,26.78,13.25,22.11,6.36-3.83-5.65,.29-13.85-8.04-21.56Z"/><line class="cls-2" x1="149.71" y1="335.71" x2="143.25" y2="330.57"/></g><g><path class="cls-2" d="M140.78,289.71c-11.31-.95-20.86,2.9-21.34,8.6-.48,5.7,8.3,11.09,19.61,12.04,11.31,.95,29.26-6.05,21.34-8.6-6.49-2.09-8.3-11.09-19.61-12.04Z"/><line class="cls-2" x1="120.26" y1="298.88" x2="112.01" y2="298.81"/></g><g><path class="cls-2" d="M217.1,323.07c-8.63-7.37-18.63-9.82-22.34-5.48-3.71,4.35,.27,13.85,8.89,21.22s27.29,12.17,22.34,5.48c-4.05-5.49-.27-13.85-8.89-21.22Z"/><line class="cls-2" x1="195.08" y1="318.54" x2="188.42" y2="313.66"/></g><g><path class="cls-2" d="M121.49,396.1c-10.97-2.91-21.05-.79-22.51,4.73-1.47,5.53,6.23,12.37,17.2,15.28,10.97,2.91,29.87-.83,22.51-4.73-6.03-3.19-6.23-12.37-17.2-15.28Z"/><line class="cls-2" x1="99.68" y1="401.54" x2="91.57" y2="400.03"/></g><g><path class="cls-2" d="M70.56,294.22c-7.12,8.84-9.28,18.91-4.82,22.49,4.45,3.59,13.83-.67,20.95-9.51s11.37-27.63,4.82-22.49c-5.37,4.21-13.83,.67-20.95,9.51Z"/><line class="cls-2" x1="66.67" y1="316.35" x2="61.99" y2="323.15"/></g></g><g><path class="cls-2" d="M237.03,446.74c.13-.87,.68-1.62,1.49-1.98,5.15-2.31,24.47-9.83,34.02,2.16,11.09,13.91,5.62,12.94,5.62,12.94l-2.18,.75c-1.16,.4-2.44-.07-3.08-1.12l-4.28-7.14c-.27-.45-.68-.82-1.16-1.03l-10.52-4.73c-.58-.26-1.23-.3-1.83-.11l-11.02,3.4c-.87,.27-1.54,.97-1.76,1.85l-1.84,7.37c-.02,.07-.03,.15-.05,.23l-.2,1.25c-.34,2.19-3.08,2.97-4.53,1.3h0c-.5-.57-.72-1.33-.61-2.08l1.92-13.05Z"/><g><path class="cls-2" d="M190.79,469.82c.08-.88,.6-1.66,1.38-2.06,5.02-2.57,23.92-11.09,34.09,.4,11.79,13.32,6.29,12.63,6.29,12.63l-2.14,.87c-1.14,.46-2.44,.06-3.13-.96l-4.65-6.91c-.3-.44-.72-.78-1.21-.97l-10.75-4.18c-.59-.23-1.24-.24-1.83-.02l-10.83,3.96c-.85,.31-1.48,1.05-1.66,1.94l-1.45,7.46c-.01,.08-.03,.15-.03,.23l-.13,1.26c-.23,2.2-2.93,3.13-4.46,1.53h0c-.52-.55-.78-1.29-.71-2.05l1.24-13.13Z"/><path class="cls-2" d="M234.68,432.25c-.88-.03-1.69-.5-2.13-1.26-2.85-4.87-12.44-23.25-1.55-34.06,12.62-12.54,12.25-7,12.25-7l.99,2.09c.52,1.11,.2,2.44-.78,3.18l-6.63,5.04c-.42,.32-.74,.76-.9,1.27l-3.56,10.97c-.2,.6-.16,1.25,.09,1.83l4.57,10.59c.36,.84,1.13,1.42,2.03,1.54l7.53,1.03c.08,.01,.15,.02,.23,.02l1.27,.06c2.21,.1,3.29,2.74,1.78,4.36h0c-.51,.55-1.25,.86-2,.83l-13.18-.49Z"/><path class="cls-2" d="M259.11,366.4c.84-.27,1.76-.1,2.44,.47,4.33,3.62,19.57,17.68,12.98,31.53-7.64,16.07-9.16,10.73-9.16,10.73l-1.64-1.63c-.87-.87-1.01-2.23-.34-3.26l4.54-6.98c.29-.44,.44-.97,.42-1.5l-.36-11.53c-.02-.63-.27-1.23-.7-1.7l-7.89-8.42c-.62-.66-1.55-.95-2.44-.77l-7.43,1.58c-.08,.02-.15,.04-.22,.06l-1.21,.37c-2.11,.65-4.02-1.47-3.16-3.5h0c.3-.7,.88-1.23,1.6-1.46l12.57-4Z"/><path class="cls-2" d="M172.37,426.05c-.1-.88,.25-1.74,.94-2.3,4.39-3.54,21.17-15.72,33.46-6.55,14.26,10.64,8.73,11.08,8.73,11.08l-1.92,1.28c-1.02,.68-2.38,.56-3.26-.3l-5.96-5.82c-.38-.37-.86-.62-1.39-.7l-11.38-1.91c-.62-.1-1.26,.02-1.8,.36l-9.8,6.08c-.77,.48-1.24,1.33-1.23,2.24l.09,7.6c0,.08,0,.15,.01,.23l.13,1.26c.22,2.2-2.23,3.66-4.05,2.41h0c-.62-.43-1.03-1.11-1.12-1.86l-1.46-13.11Z"/><path class="cls-2" d="M159.68,449.93c.87-.15,1.76,.14,2.35,.79,3.81,4.16,17.03,20.14,8.64,32.98-9.72,14.9-10.51,9.41-10.51,9.41l-1.4-1.84c-.75-.98-.71-2.34,.1-3.27l5.43-6.31c.35-.4,.56-.9,.62-1.43l1.19-11.48c.06-.63-.1-1.26-.47-1.77l-6.69-9.4c-.53-.74-1.41-1.15-2.31-1.08l-7.58,.57c-.08,0-.15,.02-.23,.03l-1.25,.21c-2.18,.36-3.79-1.99-2.66-3.89h0c.39-.65,1.04-1.1,1.78-1.23l12.99-2.28Z"/><path class="cls-2" d="M219.6,506.39c.44-.77,1.22-1.27,2.1-1.31,5.63-.29,26.37-.34,30.95,14.3,5.32,16.98,.58,14.09,.58,14.09l-2.31-.09c-1.23-.05-2.26-.94-2.46-2.15l-1.42-8.21c-.09-.52-.34-1.01-.71-1.38l-8.1-8.21c-.44-.45-1.04-.72-1.67-.77l-11.51-.81c-.91-.06-1.78,.35-2.31,1.1l-4.38,6.21c-.04,.06-.09,.13-.12,.2l-.64,1.1c-1.11,1.91-3.95,1.66-4.7-.42h0c-.26-.71-.19-1.5,.18-2.16l6.5-11.48Z"/></g><path class="cls-2" d="M284.39,478.7c.71,.52,1.12,1.36,1.06,2.24-.35,5.63-2.67,26.23-17.73,29.12-17.47,3.35-14.07-1.04-14.07-1.04l.35-2.28c.19-1.21,1.2-2.13,2.42-2.2l8.31-.47c.53-.03,1.04-.22,1.45-.55l9.08-7.11c.5-.39,.84-.95,.95-1.57l2.12-11.34c.17-.89-.15-1.81-.83-2.42l-5.67-5.06c-.06-.05-.12-.1-.18-.15l-1.02-.76c-1.78-1.32-1.2-4.11,.96-4.62h0c.74-.17,1.51-.02,2.12,.43l10.66,7.77Z"/></g><g><path class="cls-1" d="M478.61,466.91q2.14-4.33-.64-7.55l-159.64-136.16c-3.53-3.05-9-.51-8.96,4.16,.78,77.31-2.78,133.53,1.34,210.74,.1,1.89,.16,2.91,.68,3.58,1.31,1.66,3.83,1.76,4.7,1.78,55.14,1.46,96.45-21.83,96.45-21.83,16.57-9.34,41.61-26.09,66.06-54.72Z"/><path class="cls-3" d="M305.05,561.55l.12-13.31c.03-3.11,2.71-5.53,5.81-5.23l.31,.03c15.73,1.62,57.36,2.42,101.26-21.4,37.07-20.12,61.67-46.85,70.06-60.57,.11-.19,.21-.38,.32-.57,1.48-2.63,4.85-3.49,7.41-1.9l7.5,4.65c2.52,1.56,3.27,4.87,1.68,7.36-11.16,17.45-32.1,44.59-67.07,65.98-50.07,30.63-99.65,31.57-122.38,30.31-2.83-.16-5.03-2.51-5.01-5.34Z"/></g><g><path class="cls-1" d="M537.08,265.11q-2.06-4.36-6.31-4.19l-205.88,40.44c-4.58,.87-5.99,6.74-2.31,9.6,61.05,47.44,102.88,85.17,165.92,129.92,1.54,1.09,2.37,1.69,3.23,1.69,2.12,0,3.76-1.91,4.32-2.57,35.41-42.3,42.85-89.13,42.85-89.13,2.98-18.79,5.43-48.81-1.81-85.76Z"/><path class="cls-3" d="M503.35,459.89l-10.35-8.36c-2.42-1.95-2.65-5.56-.49-7.8l.21-.22c11.05-11.32,37.55-43.44,46.17-92.63,7.28-41.55,1.62-77.43-3.91-92.52-.08-.2-.16-.4-.25-.6-1.14-2.79,.28-5.97,3.12-6.99l8.3-2.98c2.79-1,5.85,.46,6.81,3.26,6.73,19.59,14.98,52.86,10,93.54-7.12,58.26-37.2,97.69-52.32,114.71-1.88,2.12-5.09,2.39-7.3,.6Z"/></g><g><path class="cls-1" d="M417.41,91.97q-4.7-1.11-7.21,2.32l-96.82,186.14c-2.18,4.12,1.53,8.89,6.06,7.79,75.16-18.12,130.74-27.29,205.05-48.64,1.82-.52,2.8-.8,3.33-1.47,1.33-1.65,.86-4.13,.68-4.98-10.97-54.06-42.94-89.09-42.94-89.09-12.82-14.05-34.77-34.69-68.16-52.08Z"/><path class="cls-3" d="M548.61,239.83l-13,2.88c-3.04,.67-6-1.4-6.4-4.48l-.04-.31c-1.95-15.7-10.53-56.44-43.6-93.86-27.93-31.61-59.51-49.57-74.75-54.66-.21-.06-.42-.12-.62-.18-2.89-.85-4.49-3.94-3.52-6.8l2.85-8.35c.95-2.8,4.01-4.28,6.8-3.29,19.51,6.95,50.66,21.27,79.35,50.53,41.09,41.91,53.15,90.01,57.02,112.44,.48,2.79-1.31,5.47-4.08,6.08Z"/></g><g><path class="cls-1" d="M201.67,78.15q-3.75,3.04-2.58,7.12l88.01,190.47c1.93,4.24,7.97,4.23,9.87-.03,31.65-70.54,58.4-120.12,86.97-191.96,.7-1.76,1.08-2.7,.88-3.54-.49-2.06-2.74-3.2-3.52-3.59-49.47-24.4-96.74-20.54-96.74-20.54-18.96,1.55-48.71,6.28-82.9,22.05Z"/><path class="cls-3" d="M398.9,64.83l-5.68,12.04c-1.33,2.81-4.78,3.89-7.46,2.32l-.27-.16c-13.61-8.06-51.09-26.2-100.92-22.94-42.09,2.76-75.62,16.75-88.97,25.69-.18,.13-.35,.25-.53,.38-2.44,1.77-5.87,1.14-7.53-1.37l-4.86-7.36c-1.63-2.47-.93-5.79,1.56-7.39,17.44-11.18,47.82-27.06,88.52-31.86,58.29-6.86,103.72,13.03,123.83,23.69,2.51,1.33,3.52,4.38,2.31,6.95Z"/></g><g><path class="cls-1" d="M61.94,240.14q.18,4.82,4.16,6.33l205.24,43.61c4.56,1,8.16-3.85,5.89-7.92-37.53-67.59-61.2-118.71-101.62-184.62-.99-1.61-1.52-2.48-2.31-2.82-1.94-.84-4.21,.28-4.98,.67-49.17,25-74.39,65.16-74.39,65.16-10.12,16.11-24.15,42.77-31.99,79.59Z"/><path class="cls-3" d="M169.4,74.23l6.24,11.76c1.46,2.75,.25,6.15-2.61,7.37l-.29,.12c-14.6,6.07-51.58,25.22-78.82,67.08-23,35.35-31.88,70.58-32.72,86.63,0,.22,0,.43-.01,.65-.05,3.02-2.6,5.38-5.61,5.21l-8.81-.51c-2.95-.17-5.2-2.72-4.98-5.67,1.49-20.66,6.97-54.5,27.51-89.96,29.42-50.79,72.56-75.25,93.14-84.97,2.56-1.21,5.62-.2,6.95,2.31Z"/></g><g><path class="cls-1" d="M100.58,446.82q3.85,2.92,7.53,.8l163.87-131.03c3.66-2.89,2.2-8.75-2.39-9.58-76.06-13.85-130.6-27.96-207.19-38.51-1.87-.26-2.88-.4-3.65,0-1.88,.97-2.45,3.43-2.64,4.27-11.85,53.88,3.21,98.84,3.21,98.84,6.04,18.04,17.75,45.79,41.25,75.21Z"/><path class="cls-2" d="M40.44,258.51l13.05,2.63c3.05,.61,4.92,3.71,4.04,6.69l-.09,.3c-4.57,15.14-13.21,55.87,1.88,103.48,12.75,40.21,34.36,69.41,46.24,80.24,.17,.14,.33,.28,.5,.42,2.3,1.95,2.51,5.42,.47,7.64l-5.98,6.48c-2.01,2.18-5.4,2.29-7.55,.25-15.03-14.26-37.72-39.95-52.11-78.32-20.62-54.96-12.17-103.82-6.63-125.9,.69-2.75,3.41-4.47,6.19-3.91Z"/></g><g><path class="cls-1" d="M284.34,548.21q4.7-1.11,5.41-5.3l3.15-209.79c.1-4.66-5.35-7.26-8.91-4.25-59.07,49.88-104.66,82.98-161.52,135.37-1.39,1.28-2.14,1.97-2.32,2.81-.45,2.07,1.08,4.07,1.62,4.76,34.03,43.42,78.3,60.4,78.3,60.4,17.76,6.81,46.63,15.43,84.27,16.02Z"/><path class="cls-2" d="M100.79,474.82l10.33-8.39c2.41-1.96,5.99-1.43,7.73,1.14l.17,.26c8.78,13.16,34.71,45.74,81.04,64.38,39.13,15.74,75.41,17.65,91.32,15.37,.21-.04,.43-.08,.64-.12,2.97-.53,5.78,1.51,6.19,4.5l1.2,8.74c.4,2.93-1.67,5.62-4.61,5.98-20.56,2.52-54.82,3.69-93.58-9.62-55.52-19.05-87.85-56.66-101.36-74.97-1.68-2.28-1.28-5.48,.92-7.27Z"/></g><g><path class="cls-2" d="M470.51,338.6c3.14-10.12-1.83-21.05-11.57-25.22-.08-.03-.16-.07-.24-.1-3.78-1.6-10.69,.38-14.68,1.3-1.76,.41-3.11,1.66-2.39,3.32l2.8,6.45c.52,1.2-.03,2.6-1.23,3.13l-6.95,3.01c-1.2,.52-1.76,1.92-1.23,3.13l2.3,5.29,2.63,6.06c.52,1.2,1.92,1.76,3.13,1.23l6.95-3.01c1.2-.52,2.6,.03,3.13,1.23l2.3,5.31c.75,1.74,2.69,1.54,4.17,.35,3.02-2.43,9.48-6.96,10.83-11.3,.02-.06,.04-.12,.06-.19Z"/><path class="cls-2" d="M391.38,310.81c-9.24,5.18-13.17,16.53-8.97,26.25,.03,.08,.07,.16,.1,.24,1.64,3.76,8.02,7.09,11.55,9.16,1.56,.91,3.4,.93,4.02-.76l2.41-6.6c.45-1.23,1.81-1.87,3.05-1.42l7.11,2.6c1.23,.45,2.6-.19,3.05-1.42l1.98-5.42,2.26-6.21c.45-1.23-.19-2.6-1.42-3.05l-7.11-2.6c-1.23-.45-1.87-1.81-1.42-3.05l1.98-5.44c.65-1.78-.9-2.97-2.78-3.13-3.86-.32-11.67-1.48-15.64,.74-.06,.03-.11,.06-.17,.1Z"/><path class="cls-2" d="M524.21,300.03c.22-10.59-7.57-19.73-18.08-21.04-.09-.01-.17-.02-.26-.03-4.07-.49-10.17,3.32-13.75,5.31-1.58,.88-2.53,2.46-1.38,3.85l4.47,5.42c.83,1.01,.69,2.51-.32,3.35l-5.84,4.82c-1.01,.83-1.16,2.33-.32,3.35l3.67,4.45,4.2,5.1c.83,1.01,2.33,1.16,3.35,.32l5.84-4.82c1.01-.83,2.51-.69,3.35,.32l3.68,4.47c1.21,1.46,3.02,.74,4.11-.81,2.24-3.17,7.19-9.31,7.29-13.86,0-.07,0-.13,0-.2Z"/><path class="cls-2" d="M477.94,380.34c-8.03-6.91-20.04-6.7-27.74,.57-.06,.06-.13,.12-.19,.18-2.97,2.83-3.91,9.96-4.65,13.99-.32,1.77,.29,3.51,2.09,3.51h7.03c1.31,0,2.38,1.06,2.38,2.38v7.57c0,1.31,1.06,2.38,2.38,2.38h12.38c1.31,0,2.38-1.06,2.38-2.38v-7.57c0-1.31,1.06-2.38,2.38-2.38h5.79c1.9,0,2.48-1.86,1.99-3.69-1.02-3.74-2.61-11.47-6.06-14.44-.05-.04-.1-.09-.15-.13Z"/><path class="cls-2" d="M523.68,341.49c-8.03-6.91-20.04-6.7-27.74,.57-.06,.06-.13,.12-.19,.18-2.97,2.83-3.91,9.96-4.65,13.99-.32,1.77,.29,3.51,2.09,3.51h7.03c1.31,0,2.38,1.06,2.38,2.38v7.57c0,1.31,1.06,2.38,2.38,2.38h12.38c1.31,0,2.38-1.06,2.38-2.38v-7.57c0-1.31,1.06-2.38,2.38-2.38h5.79c1.9,0,2.48-1.86,1.99-3.69-1.02-3.74-2.61-11.47-6.06-14.44-.05-.04-.1-.09-.15-.13Z"/></g><g><path class="cls-2" d="M358.74,229.67l-6.56,28.62c-.65,2.85,1.49,5.56,4.38,5.56h17.13c2.48,0,4.5-2.03,4.5-4.54v-28.62c0-2.51-2.01-4.54-4.5-4.54h-10.57c-2.09,0-3.91,1.46-4.38,3.52Z"/><path class="cls-2" d="M381.64,174.26l16.22,24.47c1.61,2.43,5.06,2.75,7.05,.66l11.8-12.42c1.71-1.8,1.63-4.66-.19-6.39l-20.74-19.71c-1.82-1.73-4.68-1.67-6.39,.13l-7.28,7.66c-1.44,1.52-1.64,3.84-.47,5.6Z"/><path class="cls-2" d="M423.11,240.87l27.14-11.21c2.7-1.11,3.68-4.43,2-6.79l-9.91-13.97c-1.44-2.03-4.26-2.49-6.3-1.04l-23.34,16.56c-2.04,1.45-2.54,4.27-1.1,6.3l6.12,8.62c1.21,1.71,3.45,2.35,5.4,1.54Z"/><path class="cls-2" d="M455.99,192.25l27.14-11.21c2.7-1.11,3.68-4.43,2-6.79l-9.91-13.97c-1.44-2.03-4.26-2.49-6.3-1.04l-23.34,16.56c-2.04,1.45-2.54,4.27-1.1,6.3l6.12,8.62c1.21,1.71,3.45,2.35,5.4,1.54Z"/><path class="cls-2" d="M491.67,237.76l16.12-24.54c1.6-2.44,.54-5.73-2.17-6.74l-16.06-5.97c-2.33-.87-4.92,.34-5.8,2.69l-9.97,26.82c-.87,2.35,.31,4.96,2.63,5.82l9.91,3.68c1.96,.73,4.17,0,5.33-1.77Z"/><path class="cls-2" d="M420.02,144.44l28.67-6.32c2.85-.63,4.39-3.73,3.15-6.34l-7.33-15.48c-1.06-2.25-3.76-3.2-6.03-2.12l-25.86,12.25c-2.27,1.07-3.24,3.76-2.18,6.01l4.52,9.55c.9,1.89,2.99,2.91,5.05,2.46Z"/></g><g><path class="cls-2" d="M214.13,250.6l7.28-14.88c.98-2.01,3.23-3.07,5.41-2.56l13.03,3.09c.93,.22,1.76,.71,2.41,1.41l5.65,6.11c.54,.59,.93,1.3,1.13,2.07l1.56,6.14c.59,2.32-.62,4.72-2.84,5.62l-10.14,4.12c-.34,.14-.67,.32-.97,.53l-6.83,4.85c-1.36,.97-3.13,1.15-4.66,.5l-4.68-2.01c-1.08-.46-1.96-1.31-2.46-2.38l-3.95-8.49c-.61-1.31-.59-2.83,.04-4.13Z"/><path class="cls-2" d="M163.89,176.44l14.5-8.01c1.96-1.08,4.41-.66,5.9,1.01l8.9,10.01c.63,.71,1.04,1.59,1.17,2.54l1.12,8.25c.11,.79,.02,1.6-.27,2.34l-2.24,5.92c-.85,2.24-3.22,3.51-5.55,2.97l-10.67-2.44c-.36-.08-.73-.12-1.1-.12l-8.37,.05c-1.67,.01-3.22-.85-4.1-2.27l-2.68-4.33c-.62-1-.85-2.2-.64-3.36l1.64-9.21c.25-1.42,1.14-2.66,2.4-3.36Z"/><path class="cls-2" d="M103.49,223.74l-10.45-12.86c-1.41-1.74-1.43-4.22-.05-5.98l8.28-10.53c.59-.75,1.38-1.3,2.29-1.6l7.92-2.57c.76-.25,1.57-.3,2.36-.15l6.23,1.16c2.35,.44,4.02,2.55,3.91,4.94l-.52,10.93c-.02,.37,0,.74,.08,1.1l1.53,8.23c.31,1.64-.26,3.32-1.51,4.44l-3.79,3.41c-.88,.79-2.02,1.23-3.2,1.23l-9.36,.02c-1.45,0-2.82-.65-3.73-1.77Z"/><path class="cls-2" d="M120.84,143.64l7.28-14.88c.98-2.01,3.23-3.07,5.41-2.56l13.03,3.09c.93,.22,1.76,.71,2.41,1.41l5.65,6.11c.54,.59,.93,1.3,1.13,2.07l1.56,6.14c.59,2.32-.62,4.72-2.84,5.62l-10.14,4.12c-.34,.14-.67,.32-.97,.53l-6.83,4.85c-1.36,.97-3.13,1.15-4.66,.5l-4.68-2.01c-1.08-.46-1.96-1.31-2.46-2.38l-3.95-8.49c-.61-1.31-.59-2.83,.04-4.13Z"/><path class="cls-2" d="M155.87,239.9l7.28-14.88c.98-2.01,3.23-3.07,5.41-2.56l13.03,3.09c.93,.22,1.76,.71,2.41,1.41l5.65,6.11c.54,.59,.93,1.3,1.13,2.07l1.56,6.14c.59,2.32-.62,4.72-2.84,5.62l-10.14,4.12c-.34,.14-.67,.32-.97,.53l-6.83,4.85c-1.36,.97-3.13,1.15-4.66,.5l-4.68-2.01c-1.08-.46-1.96-1.31-2.46-2.38l-3.95-8.49c-.61-1.31-.59-2.83,.04-4.13Z"/></g></svg>