<?xml version="1.0" encoding="utf-8"?>
<!-- Generator: Adobe Illustrator 26.5.0, SVG Export Plug-In . SVG Version: 6.00 Build 0)  -->
<svg version="1.1" id="Layer_1" xmlns="http://www.w3.org/2000/svg" xmlns:xlink="http://www.w3.org/1999/xlink" x="0px" y="0px"
	 viewBox="0 0 600 542.1" style="enable-background:new 0 0 600 542.1;" xml:space="preserve">
<style type="text/css">
	.st0{fill:#FFFFFF;stroke:#F04F23;stroke-width:3;stroke-miterlimit:10;}
	.st1{fill:#F69269;stroke:#F04F23;stroke-width:3;stroke-miterlimit:10;}
	.st2{fill:#F69269;stroke:#F05024;stroke-width:3;stroke-miterlimit:10;}
	.st3{fill:none;stroke:#F05024;stroke-width:3;stroke-miterlimit:10;}
</style>
<g>
	<path class="st0" d="M478.6,437.3c1.4-2.9,1.2-5.4-0.6-7.5L318.3,293.6c-3.5-3-9-0.5-9,4.2c0.8,77.3-2.8,133.5,1.3,210.7
		c0.1,1.9,0.2,2.9,0.7,3.6c1.3,1.7,3.8,1.8,4.7,1.8c55.1,1.5,96.5-21.8,96.5-21.8C429.1,482.7,454.1,466,478.6,437.3L478.6,437.3z"
		/>
	<path class="st1" d="M305,532l0.1-13.3c0-3.1,2.7-5.5,5.8-5.2l0.3,0c15.7,1.6,57.4,2.4,101.3-21.4c37.1-20.1,61.7-46.9,70.1-60.6
		c0.1-0.2,0.2-0.4,0.3-0.6c1.5-2.6,4.9-3.5,7.4-1.9l7.5,4.6c2.5,1.6,3.3,4.9,1.7,7.4c-11.2,17.5-32.1,44.6-67.1,66
		c-50.1,30.6-99.6,31.6-122.4,30.3C307.2,537.2,305,534.8,305,532L305,532z"/>
</g>
<g>
	<path class="st0" d="M201.7,48.6c-2.5,2-3.4,4.4-2.6,7.1l88,190.5c1.9,4.2,8,4.2,9.9,0c31.6-70.5,58.4-120.1,87-192
		c0.7-1.8,1.1-2.7,0.9-3.5c-0.5-2.1-2.7-3.2-3.5-3.6c-49.5-24.4-96.7-20.5-96.7-20.5C265.6,28.1,235.9,32.8,201.7,48.6L201.7,48.6z"
		/>
	<path class="st1" d="M398.9,35.3l-5.7,12c-1.3,2.8-4.8,3.9-7.5,2.3l-0.3-0.2c-13.6-8.1-51.1-26.2-100.9-22.9
		c-42.1,2.8-75.6,16.7-89,25.7c-0.2,0.1-0.4,0.2-0.5,0.4c-2.4,1.8-5.9,1.1-7.5-1.4l-4.9-7.4c-1.6-2.5-0.9-5.8,1.6-7.4
		c17.4-11.2,47.8-27.1,88.5-31.9c58.3-6.9,103.7,13,123.8,23.7C399.1,29.6,400.1,32.7,398.9,35.3L398.9,35.3z"/>
</g>
<g>
	<circle class="st2" cx="345" cy="476.5" r="18.8"/>
	<circle class="st2" cx="357.6" cy="419.6" r="18.8"/>
	<circle class="st2" cx="386.1" cy="381.4" r="18.8"/>
	<circle class="st2" cx="421.5" cy="445.6" r="18.8"/>
	<circle class="st2" cx="334.3" cy="357.3" r="18.8"/>
</g>
<g>
	<path class="st2" d="M305.7,168.2c-9.1-5-20.5-1.7-25.5,7.4s-1.7,20.5,7.4,25.5c9.1,5,20.5,1.7,25.5-7.4S314.8,173.2,305.7,168.2z
		 M302.7,188c-1.8,3.3-6,4.6-9.3,2.7s-4.5-6-2.7-9.3s6-4.6,9.3-2.7S304.5,184.7,302.7,188z"/>
	<path class="st2" d="M330.1,100c-8.3-6.2-20-4.6-26.3,3.7s-4.6,20,3.7,26.3c8.3,6.2,20,4.6,26.3-3.7C340,118,338.3,106.2,330.1,100
		z M324.2,119.1c-2.3,3-6.6,3.6-9.6,1.3s-3.6-6.6-1.3-9.6s6.6-3.6,9.6-1.3S326.5,116.1,324.2,119.1z"/>
	<path class="st2" d="M261.8,55.9c-9.1-5-20.5-1.7-25.5,7.4c-5,9.1-1.7,20.5,7.4,25.5c9.1,5,20.5,1.7,25.5-7.4
		S270.9,60.9,261.8,55.9z M258.8,75.7c-1.8,3.3-6,4.6-9.3,2.7s-4.6-6-2.7-9.3s6-4.6,9.3-2.7C259.4,68.2,260.7,72.3,258.8,75.7z"/>
	<path class="st2" d="M329.5,37.2c-9.1-5-20.5-1.7-25.5,7.4s-1.7,20.5,7.4,25.5c9.1,5,20.5,1.7,25.5-7.4
		C341.9,53.5,338.6,42.1,329.5,37.2z M326.5,56.9c-1.8,3.3-6,4.5-9.3,2.7c-3.3-1.8-4.5-6-2.7-9.3s6-4.5,9.3-2.7
		C327.1,49.4,328.3,53.6,326.5,56.9z"/>
	<path class="st2" d="M283.1,122.3c-9.1-5-20.5-1.7-25.5,7.4s-1.7,20.5,7.4,25.5c9.1,5,20.5,1.7,25.5-7.4S292.1,127.3,283.1,122.3z
		 M280.1,142.1c-1.8,3.3-6,4.6-9.3,2.7s-4.5-6-2.7-9.3s6-4.6,9.3-2.7S281.9,138.7,280.1,142.1z"/>
</g>
<g>
	<path class="st0" d="M100.6,417.2c2.6,1.9,5.1,2.2,7.5,0.8L272,287c3.7-2.9,2.2-8.8-2.4-9.6c-76.1-13.9-130.6-28-207.2-38.5
		c-1.9-0.3-2.9-0.4-3.7,0c-1.9,1-2.5,3.4-2.6,4.3c-11.8,53.9,3.2,98.8,3.2,98.8C65.4,360.1,77.1,387.8,100.6,417.2L100.6,417.2z"/>
	<path class="st2" d="M40.4,228.9l13,2.6c3,0.6,4.9,3.7,4,6.7l-0.1,0.3c-4.6,15.1-13.2,55.9,1.9,103.5
		c12.8,40.2,34.4,69.4,46.2,80.2c0.2,0.1,0.3,0.3,0.5,0.4c2.3,2,2.5,5.4,0.5,7.6l-6,6.5c-2,2.2-5.4,2.3-7.6,0.2
		c-15-14.3-37.7-40-52.1-78.3c-20.6-55-12.2-103.8-6.6-125.9C34.9,230.1,37.7,228.4,40.4,228.9L40.4,228.9z"/>
</g>
<g>
	<g>
		<path class="st2" d="M91.4,322.4c5.7,9.8,14.3,15.4,19.3,12.5s4.3-13.2-1.4-23S87.6,291.5,90,299.4
			C92.1,306,85.7,312.6,91.4,322.4z"/>
		<line class="st3" x1="110.7" y1="333.9" x2="115.4" y2="340.7"/>
	</g>
	<g>
		<path class="st2" d="M171.5,311.5c-8.3-7.7-18.2-10.6-22.1-6.4c-3.9,4.2-0.3,13.9,8,21.6s26.8,13.2,22.1,6.4
			C175.7,327.5,179.8,319.3,171.5,311.5z"/>
		<line class="st3" x1="149.7" y1="306.1" x2="143.2" y2="301"/>
	</g>
	<g>
		<path class="st2" d="M140.8,260.1c-11.3-1-20.9,2.9-21.3,8.6c-0.5,5.7,8.3,11.1,19.6,12s29.3-6,21.3-8.6
			C153.9,270.1,152.1,261.1,140.8,260.1z"/>
		<line class="st3" x1="120.3" y1="269.3" x2="112" y2="269.2"/>
	</g>
	<g>
		<path class="st2" d="M217.1,293.5c-8.6-7.4-18.6-9.8-22.3-5.5c-3.7,4.4,0.3,13.9,8.9,21.2c8.6,7.4,27.3,12.2,22.3,5.5
			C221.9,309.2,225.7,300.9,217.1,293.5z"/>
		<line class="st3" x1="195.1" y1="289" x2="188.4" y2="284.1"/>
	</g>
	<g>
		<path class="st2" d="M121.5,366.5c-11-2.9-21-0.8-22.5,4.7c-1.5,5.5,6.2,12.4,17.2,15.3s29.9-0.8,22.5-4.7
			C132.7,378.6,132.5,369.4,121.5,366.5z"/>
		<line class="st3" x1="99.7" y1="372" x2="91.6" y2="370.5"/>
	</g>
	<g>
		<path class="st2" d="M70.6,264.6c-7.1,8.8-9.3,18.9-4.8,22.5c4.4,3.6,13.8-0.7,21-9.5s11.4-27.6,4.8-22.5
			C86.1,259.3,77.7,255.8,70.6,264.6L70.6,264.6z"/>
		<line class="st3" x1="66.7" y1="286.8" x2="62" y2="293.6"/>
	</g>
</g>
<g>
	<path class="st0" d="M284.3,518.6c3.1-0.7,4.9-2.5,5.4-5.3l3.1-209.8c0.1-4.7-5.4-7.3-8.9-4.2c-59.1,49.9-104.7,83-161.5,135.4
		c-1.4,1.3-2.1,2-2.3,2.8c-0.4,2.1,1.1,4.1,1.6,4.8c34,43.4,78.3,60.4,78.3,60.4C217.8,509.5,246.7,518.1,284.3,518.6L284.3,518.6z"
		/>
	<path class="st2" d="M100.8,445.2l10.3-8.4c2.4-2,6-1.4,7.7,1.1l0.2,0.3c8.8,13.2,34.7,45.7,81,64.4c39.1,15.7,75.4,17.7,91.3,15.4
		c0.2,0,0.4-0.1,0.6-0.1c3-0.5,5.8,1.5,6.2,4.5l1.2,8.7c0.4,2.9-1.7,5.6-4.6,6c-20.6,2.5-54.8,3.7-93.6-9.6
		c-55.5-19-87.8-56.7-101.4-75C98.2,450.2,98.6,447,100.8,445.2L100.8,445.2z"/>
</g>
<g>
	<path class="st2" d="M237,417.2c0.1-0.9,0.7-1.6,1.5-2c5.1-2.3,24.5-9.8,34,2.2c11.1,13.9,5.6,12.9,5.6,12.9L276,431
		c-1.2,0.4-2.4-0.1-3.1-1.1l-4.3-7.1c-0.3-0.5-0.7-0.8-1.2-1l-10.5-4.7c-0.6-0.3-1.2-0.3-1.8-0.1l-11,3.4c-0.9,0.3-1.5,1-1.8,1.9
		l-1.8,7.4c0,0.1,0,0.1-0.1,0.2l-0.2,1.2c-0.3,2.2-3.1,3-4.5,1.3l0,0c-0.5-0.6-0.7-1.3-0.6-2.1L237,417.2L237,417.2z"/>
	<g>
		<path class="st2" d="M190.8,440.2c0.1-0.9,0.6-1.7,1.4-2.1c5-2.6,23.9-11.1,34.1,0.4c11.8,13.3,6.3,12.6,6.3,12.6l-2.1,0.9
			c-1.1,0.5-2.4,0.1-3.1-1l-4.6-6.9c-0.3-0.4-0.7-0.8-1.2-1l-10.8-4.2c-0.6-0.2-1.2-0.2-1.8,0l-10.8,4c-0.9,0.3-1.5,1-1.7,1.9
			l-1.4,7.5c0,0.1,0,0.1,0,0.2l-0.1,1.3c-0.2,2.2-2.9,3.1-4.5,1.5l0,0c-0.5-0.5-0.8-1.3-0.7-2L190.8,440.2L190.8,440.2z"/>
		<path class="st2" d="M234.7,402.7c-0.9,0-1.7-0.5-2.1-1.3c-2.9-4.9-12.4-23.2-1.6-34.1c12.6-12.5,12.2-7,12.2-7l1,2.1
			c0.5,1.1,0.2,2.4-0.8,3.2l-6.6,5c-0.4,0.3-0.7,0.8-0.9,1.3l-3.6,11c-0.2,0.6-0.2,1.2,0.1,1.8l4.6,10.6c0.4,0.8,1.1,1.4,2,1.5
			l7.5,1c0.1,0,0.1,0,0.2,0l1.3,0.1c2.2,0.1,3.3,2.7,1.8,4.4l0,0c-0.5,0.5-1.2,0.9-2,0.8L234.7,402.7L234.7,402.7z"/>
		<path class="st2" d="M259.1,336.8c0.8-0.3,1.8-0.1,2.4,0.5c4.3,3.6,19.6,17.7,13,31.5c-7.6,16.1-9.2,10.7-9.2,10.7l-1.6-1.6
			c-0.9-0.9-1-2.2-0.3-3.3l4.5-7c0.3-0.4,0.4-1,0.4-1.5l-0.4-11.5c0-0.6-0.3-1.2-0.7-1.7l-7.9-8.4c-0.6-0.7-1.5-1-2.4-0.8l-7.4,1.6
			c-0.1,0-0.1,0-0.2,0.1l-1.2,0.4c-2.1,0.6-4-1.5-3.2-3.5l0,0c0.3-0.7,0.9-1.2,1.6-1.5L259.1,336.8L259.1,336.8z"/>
		<path class="st2" d="M172.4,396.5c-0.1-0.9,0.2-1.7,0.9-2.3c4.4-3.5,21.2-15.7,33.5-6.5c14.3,10.6,8.7,11.1,8.7,11.1l-1.9,1.3
			c-1,0.7-2.4,0.6-3.3-0.3l-6-5.8c-0.4-0.4-0.9-0.6-1.4-0.7l-11.4-1.9c-0.6-0.1-1.3,0-1.8,0.4l-9.8,6.1c-0.8,0.5-1.2,1.3-1.2,2.2
			l0.1,7.6c0,0.1,0,0.1,0,0.2l0.1,1.3c0.2,2.2-2.2,3.7-4.1,2.4l0,0c-0.6-0.4-1-1.1-1.1-1.9L172.4,396.5L172.4,396.5z"/>
		<path class="st2" d="M159.7,420.4c0.9-0.1,1.8,0.1,2.4,0.8c3.8,4.2,17,20.1,8.6,33c-9.7,14.9-10.5,9.4-10.5,9.4l-1.4-1.8
			c-0.8-1-0.7-2.3,0.1-3.3l5.4-6.3c0.4-0.4,0.6-0.9,0.6-1.4l1.2-11.5c0.1-0.6-0.1-1.3-0.5-1.8l-6.7-9.4c-0.5-0.7-1.4-1.1-2.3-1.1
			l-7.6,0.6c-0.1,0-0.1,0-0.2,0l-1.2,0.2c-2.2,0.4-3.8-2-2.7-3.9l0,0c0.4-0.6,1-1.1,1.8-1.2L159.7,420.4L159.7,420.4z"/>
		<path class="st2" d="M219.6,476.8c0.4-0.8,1.2-1.3,2.1-1.3c5.6-0.3,26.4-0.3,30.9,14.3c5.3,17,0.6,14.1,0.6,14.1l-2.3-0.1
			c-1.2,0-2.3-0.9-2.5-2.1l-1.4-8.2c-0.1-0.5-0.3-1-0.7-1.4l-8.1-8.2c-0.4-0.5-1-0.7-1.7-0.8l-11.5-0.8c-0.9-0.1-1.8,0.4-2.3,1.1
			l-4.4,6.2c0,0.1-0.1,0.1-0.1,0.2l-0.6,1.1c-1.1,1.9-3.9,1.7-4.7-0.4l0,0c-0.3-0.7-0.2-1.5,0.2-2.2L219.6,476.8L219.6,476.8z"/>
	</g>
	<path class="st2" d="M284.4,449.1c0.7,0.5,1.1,1.4,1.1,2.2c-0.4,5.6-2.7,26.2-17.7,29.1c-17.5,3.4-14.1-1-14.1-1l0.4-2.3
		c0.2-1.2,1.2-2.1,2.4-2.2l8.3-0.5c0.5,0,1-0.2,1.5-0.5l9.1-7.1c0.5-0.4,0.8-1,1-1.6l2.1-11.3c0.2-0.9-0.1-1.8-0.8-2.4l-5.7-5.1
		c-0.1,0-0.1-0.1-0.2-0.1l-1-0.8c-1.8-1.3-1.2-4.1,1-4.6l0,0c0.7-0.2,1.5,0,2.1,0.4L284.4,449.1L284.4,449.1z"/>
</g>
<g>
	<path class="st0" d="M537.1,235.5c-1.4-2.9-3.5-4.3-6.3-4.2l-205.9,40.4c-4.6,0.9-6,6.7-2.3,9.6c61,47.4,102.9,85.2,165.9,129.9
		c1.5,1.1,2.4,1.7,3.2,1.7c2.1,0,3.8-1.9,4.3-2.6c35.4-42.3,42.9-89.1,42.9-89.1C541.9,302.5,544.3,272.5,537.1,235.5L537.1,235.5z"
		/>
	<path class="st1" d="M503.4,430.3L493,422c-2.4-2-2.6-5.6-0.5-7.8l0.2-0.2c11-11.3,37.6-43.4,46.2-92.6c7.3-41.5,1.6-77.4-3.9-92.5
		c-0.1-0.2-0.2-0.4-0.2-0.6c-1.1-2.8,0.3-6,3.1-7l8.3-3c2.8-1,5.8,0.5,6.8,3.3c6.7,19.6,15,52.9,10,93.5
		c-7.1,58.3-37.2,97.7-52.3,114.7C508.8,431.8,505.6,432.1,503.4,430.3L503.4,430.3z"/>
</g>
<g>
	<path class="st0" d="M417.4,62.4c-3.1-0.7-5.5,0-7.2,2.3l-96.8,186.1c-2.2,4.1,1.5,8.9,6.1,7.8c75.2-18.1,130.7-27.3,205-48.6
		c1.8-0.5,2.8-0.8,3.3-1.5c1.3-1.6,0.9-4.1,0.7-5c-11-54.1-42.9-89.1-42.9-89.1C472.7,100.4,450.8,79.8,417.4,62.4L417.4,62.4z"/>
	<path class="st1" d="M548.6,210.3l-13,2.9c-3,0.7-6-1.4-6.4-4.5l0-0.3c-2-15.7-10.5-56.4-43.6-93.9c-27.9-31.6-59.5-49.6-74.8-54.7
		c-0.2-0.1-0.4-0.1-0.6-0.2c-2.9-0.8-4.5-3.9-3.5-6.8l2.9-8.3c1-2.8,4-4.3,6.8-3.3c19.5,7,50.7,21.3,79.4,50.5
		c41.1,41.9,53.2,90,57,112.4C553.2,207,551.4,209.7,548.6,210.3L548.6,210.3z"/>
</g>
<g>
	<path class="st0" d="M61.9,210.6c0.1,3.2,1.5,5.3,4.2,6.3l205.2,43.6c4.6,1,8.2-3.9,5.9-7.9C239.7,185,216,133.9,175.6,68
		c-1-1.6-1.5-2.5-2.3-2.8c-1.9-0.8-4.2,0.3-5,0.7c-49.2,25-74.4,65.2-74.4,65.2C83.8,147.1,69.8,173.8,61.9,210.6L61.9,210.6z"/>
	<path class="st1" d="M169.4,44.7l6.2,11.8c1.5,2.8,0.2,6.2-2.6,7.4l-0.3,0.1C158.1,70,121.2,89.1,93.9,131
		c-23,35.4-31.9,70.6-32.7,86.6c0,0.2,0,0.4,0,0.6c0,3-2.6,5.4-5.6,5.2l-8.8-0.5c-3-0.2-5.2-2.7-5-5.7c1.5-20.7,7-54.5,27.5-90
		c29.4-50.8,72.6-75.2,93.1-85C165,41.2,168.1,42.2,169.4,44.7L169.4,44.7z"/>
</g>
<g>
	<path class="st2" d="M470.5,309c3.1-10.1-1.8-21-11.6-25.2c-0.1,0-0.2-0.1-0.2-0.1c-3.8-1.6-10.7,0.4-14.7,1.3
		c-1.8,0.4-3.1,1.7-2.4,3.3l2.8,6.5c0.5,1.2,0,2.6-1.2,3.1l-7,3c-1.2,0.5-1.8,1.9-1.2,3.1l2.3,5.3l2.6,6.1c0.5,1.2,1.9,1.8,3.1,1.2
		l7-3c1.2-0.5,2.6,0,3.1,1.2l2.3,5.3c0.8,1.7,2.7,1.5,4.2,0.4c3-2.4,9.5-7,10.8-11.3C470.5,309.2,470.5,309.1,470.5,309L470.5,309z"
		/>
	<path class="st2" d="M391.4,281.2c-9.2,5.2-13.2,16.5-9,26.2c0,0.1,0.1,0.2,0.1,0.2c1.6,3.8,8,7.1,11.5,9.2c1.6,0.9,3.4,0.9,4-0.8
		l2.4-6.6c0.5-1.2,1.8-1.9,3-1.4l7.1,2.6c1.2,0.5,2.6-0.2,3-1.4l2-5.4l2.3-6.2c0.5-1.2-0.2-2.6-1.4-3l-7.1-2.6
		c-1.2-0.5-1.9-1.8-1.4-3l2-5.4c0.6-1.8-0.9-3-2.8-3.1c-3.9-0.3-11.7-1.5-15.6,0.7C391.5,281.2,391.4,281.2,391.4,281.2L391.4,281.2
		z"/>
	<path class="st2" d="M524.2,270.5c0.2-10.6-7.6-19.7-18.1-21c-0.1,0-0.2,0-0.3,0c-4.1-0.5-10.2,3.3-13.8,5.3
		c-1.6,0.9-2.5,2.5-1.4,3.9l4.5,5.4c0.8,1,0.7,2.5-0.3,3.4l-5.8,4.8c-1,0.8-1.2,2.3-0.3,3.4l3.7,4.5l4.2,5.1c0.8,1,2.3,1.2,3.4,0.3
		l5.8-4.8c1-0.8,2.5-0.7,3.4,0.3l3.7,4.5c1.2,1.5,3,0.7,4.1-0.8c2.2-3.2,7.2-9.3,7.3-13.9C524.2,270.6,524.2,270.5,524.2,270.5
		L524.2,270.5z"/>
	<path class="st2" d="M477.9,350.8c-8-6.9-20-6.7-27.7,0.6c-0.1,0.1-0.1,0.1-0.2,0.2c-3,2.8-3.9,10-4.6,14c-0.3,1.8,0.3,3.5,2.1,3.5
		h7c1.3,0,2.4,1.1,2.4,2.4v7.6c0,1.3,1.1,2.4,2.4,2.4h12.4c1.3,0,2.4-1.1,2.4-2.4v-7.6c0-1.3,1.1-2.4,2.4-2.4h5.8
		c1.9,0,2.5-1.9,2-3.7c-1-3.7-2.6-11.5-6.1-14.4C478.1,350.8,478,350.8,477.9,350.8L477.9,350.8z"/>
	<path class="st2" d="M523.7,311.9c-8-6.9-20-6.7-27.7,0.6c-0.1,0.1-0.1,0.1-0.2,0.2c-3,2.8-3.9,10-4.6,14c-0.3,1.8,0.3,3.5,2.1,3.5
		h7c1.3,0,2.4,1.1,2.4,2.4v7.6c0,1.3,1.1,2.4,2.4,2.4h12.4c1.3,0,2.4-1.1,2.4-2.4v-7.6c0-1.3,1.1-2.4,2.4-2.4h5.8
		c1.9,0,2.5-1.9,2-3.7c-1-3.7-2.6-11.5-6.1-14.4C523.8,312,523.7,311.9,523.7,311.9L523.7,311.9z"/>
</g>
<g>
	<path class="st2" d="M358.7,200.1l-6.6,28.6c-0.6,2.9,1.5,5.6,4.4,5.6h17.1c2.5,0,4.5-2,4.5-4.5v-28.6c0-2.5-2-4.5-4.5-4.5h-10.6
		C361,196.6,359.2,198,358.7,200.1L358.7,200.1z"/>
	<path class="st2" d="M381.6,144.7l16.2,24.5c1.6,2.4,5.1,2.8,7,0.7l11.8-12.4c1.7-1.8,1.6-4.7-0.2-6.4l-20.7-19.7
		c-1.8-1.7-4.7-1.7-6.4,0.1l-7.3,7.7C380.7,140.6,380.5,142.9,381.6,144.7L381.6,144.7z"/>
	<path class="st2" d="M423.1,211.3l27.1-11.2c2.7-1.1,3.7-4.4,2-6.8l-9.9-14c-1.4-2-4.3-2.5-6.3-1l-23.3,16.6
		c-2,1.4-2.5,4.3-1.1,6.3l6.1,8.6C418.9,211.5,421.2,212.1,423.1,211.3L423.1,211.3z"/>
	<path class="st2" d="M456,162.7l27.1-11.2c2.7-1.1,3.7-4.4,2-6.8l-9.9-14c-1.4-2-4.3-2.5-6.3-1l-23.3,16.6c-2,1.4-2.5,4.3-1.1,6.3
		l6.1,8.6C451.8,162.9,454.1,163.5,456,162.7L456,162.7z"/>
	<path class="st2" d="M491.7,208.2l16.1-24.5c1.6-2.4,0.5-5.7-2.2-6.7l-16.1-6c-2.3-0.9-4.9,0.3-5.8,2.7l-10,26.8
		c-0.9,2.4,0.3,5,2.6,5.8l9.9,3.7C488.3,210.7,490.5,209.9,491.7,208.2L491.7,208.2z"/>
	<path class="st2" d="M420,114.9l28.7-6.3c2.9-0.6,4.4-3.7,3.1-6.3l-7.3-15.5c-1.1-2.2-3.8-3.2-6-2.1l-25.9,12.2
		c-2.3,1.1-3.2,3.8-2.2,6l4.5,9.6C415.9,114.3,417.9,115.3,420,114.9L420,114.9z"/>
</g>
<g>
	<path class="st2" d="M214.1,221l7.3-14.9c1-2,3.2-3.1,5.4-2.6l13,3.1c0.9,0.2,1.8,0.7,2.4,1.4l5.6,6.1c0.5,0.6,0.9,1.3,1.1,2.1
		l1.6,6.1c0.6,2.3-0.6,4.7-2.8,5.6l-10.1,4.1c-0.3,0.1-0.7,0.3-1,0.5l-6.8,4.9c-1.4,1-3.1,1.1-4.7,0.5l-4.7-2
		c-1.1-0.5-2-1.3-2.5-2.4l-3.9-8.5C213.5,223.8,213.5,222.3,214.1,221L214.1,221z"/>
	<path class="st2" d="M178.4,138.9c2-1.1,4.4-0.7,5.9,1l8.9,10c0.6,0.7,1,1.6,1.2,2.5l1.1,8.2c0.1,0.8,0,1.6-0.3,2.3l-2.2,5.9
		c-0.9,2.2-3.2,3.5-5.6,3l-10.7-2.4c-0.4-0.1-0.7-0.1-1.1-0.1l-8.4,0.1c-1.7,0-3.2-0.9-4.1-2.3l-2.7-4.3c-0.6-1-0.9-2.2-0.6-3.4
		l1.6-9.2c0.2-1.4,1.1-2.7,2.4-3.4L178.4,138.9z"/>
	<path class="st2" d="M103.5,194.2L93,181.3c-1.4-1.7-1.4-4.2-0.1-6l8.3-10.5c0.6-0.8,1.4-1.3,2.3-1.6l7.9-2.6
		c0.8-0.2,1.6-0.3,2.4-0.1l6.2,1.2c2.3,0.4,4,2.6,3.9,4.9l-0.5,10.9c0,0.4,0,0.7,0.1,1.1l1.5,8.2c0.3,1.6-0.3,3.3-1.5,4.4l-3.8,3.4
		c-0.9,0.8-2,1.2-3.2,1.2l-9.4,0C105.8,195.9,104.4,195.3,103.5,194.2L103.5,194.2z"/>
	<path class="st2" d="M120.8,114.1l7.3-14.9c1-2,3.2-3.1,5.4-2.6l13,3.1c0.9,0.2,1.8,0.7,2.4,1.4l5.6,6.1c0.5,0.6,0.9,1.3,1.1,2.1
		l1.6,6.1c0.6,2.3-0.6,4.7-2.8,5.6l-10.1,4.1c-0.3,0.1-0.7,0.3-1,0.5l-6.8,4.8c-1.4,1-3.1,1.1-4.7,0.5l-4.7-2
		c-1.1-0.5-2-1.3-2.5-2.4l-3.9-8.5C120.2,116.9,120.2,115.4,120.8,114.1L120.8,114.1z"/>
	<path class="st2" d="M155.9,210.3l7.3-14.9c1-2,3.2-3.1,5.4-2.6l13,3.1c0.9,0.2,1.8,0.7,2.4,1.4l5.6,6.1c0.5,0.6,0.9,1.3,1.1,2.1
		l1.6,6.1c0.6,2.3-0.6,4.7-2.8,5.6l-10.1,4.1c-0.3,0.1-0.7,0.3-1,0.5l-6.8,4.9c-1.4,1-3.1,1.1-4.7,0.5l-4.7-2
		c-1.1-0.5-2-1.3-2.5-2.4l-3.9-8.5C155.2,213.1,155.2,211.6,155.9,210.3L155.9,210.3z"/>
</g>
</svg>
