<?xml version="1.0" encoding="UTF-8"?><svg id="Layer_1" xmlns="http://www.w3.org/2000/svg" viewBox="0 0 600 600"><defs><style>.cls-1{fill:#f3b56a;}.cls-2{fill:#efad3c;}.cls-3{fill:#e88834;}.cls-4{fill:#fff;}.cls-5{fill:#ece9ba;}.cls-6{fill:#231f20;}.cls-7,.cls-8{stroke-linecap:round;}.cls-7,.cls-8,.cls-9,.cls-10{fill:none;stroke:#231f20;stroke-miterlimit:10;}.cls-7,.cls-10{stroke-width:7px;}.cls-8,.cls-9{stroke-width:2px;}</style></defs><g><path class="cls-7" d="M410.26,409.31s-5.08,32.36-12.49,37.29"/><path class="cls-7" d="M370.85,436.23s15.62-13.28,18.03-29.64"/><ellipse class="cls-6" cx="391.7" cy="447.19" rx="9.2" ry="4.52"/><ellipse class="cls-6" cx="364.7" cy="436.98" rx="9.2" ry="4.52"/><g><path class="cls-7" d="M471.32,370.17l-4.74-13.28c-.59-1.64-.35-3.46,.63-4.9l11.72-17.19c.73-1.07,.93-2.42,.54-3.66l-6.6-20.93"/><ellipse class="cls-6" cx="529.43" cy="338.94" rx="34.88" ry="32.6"/><circle class="cls-6" cx="498.53" cy="372.73" r="17.78"/><circle class="cls-6" cx="471.32" cy="383.89" r="16.28"/><ellipse class="cls-6" cx="414.96" cy="385.39" rx="48.9" ry="27.12"/><path class="cls-10" d="M550.03,320.6s13.22-22.97,29.07-20.94"/><path class="cls-10" d="M536.37,312.36s9.33-32.63,28.06-34.85"/><circle class="cls-6" cx="582.32" cy="298.52" r="6.65"/><circle class="cls-6" cx="569.03" cy="276.13" r="6.65"/><path class="cls-7" d="M462.74,391.18s-2.98,53.44,6.28,56.16"/><path class="cls-7" d="M471.32,394.31s10.05,41.3,22.27,41.43"/><ellipse class="cls-6" cx="473.77" cy="447.1" rx="9.2" ry="4.52"/><ellipse class="cls-6" cx="496.8" cy="435.74" rx="9.2" ry="4.52"/><g><path class="cls-3" d="M536.96,129.81c3.28-1.14,6.9,.65,8.05,3.97,9.05,26.25,35.29,132.34-106.84,187.81,0,0-162.55,61.46-228.05-70.06-1.74-3.49-.04-7.67,3.59-8.94l323.25-112.78Z"/><g><path class="cls-1" d="M552.42,212.59l-38.94-30.22c-.14-.11-.29-.18-.46-.23l-37.36-10.43c-.26-.07-.54-.06-.79,.03l-23.59,8.78c-.29,.11-.62,.11-.92-.01l-21.71-8.51c-.27-.11-.56-.12-.84-.04l-19.06,5.65c-1.33,.39-1.13,2.35,.25,2.55l22.86,3.22c.09,.01,.17,.03,.25,.06l21.35,7.49c.31,.11,.65,.1,.94-.03l19.16-8.5c.18-.08,.39-.12,.59-.11l17.97,1.11c.31,.02,.6,.15,.82,.36l16.73,15.67c.14,.13,.3,.23,.47,.29l11.39,4c.06,.02,.12,.05,.18,.08l16.37,8.6c.12,.06,.25,.11,.38,.13l12.97,2.38c1.34,.24,2.05-1.47,.97-2.31Z"/><path class="cls-1" d="M364.89,201.56l-35.76,35.67c-.13,.13-.23,.27-.29,.44l-15.1,37.17c-.11,.26-.13,.55-.06,.83l-14.08,20.55c.08,.32,.04,.66-.12,.95l-8.28,24.06c-.14,.26-.19,.57-.14,.86l3.65,20.71c.25,1.44,2.3,1.55,2.67,.14l5.96-23.25c.02-.09,.05-.17,.09-.25l7.19-23.85c.15-.31,.17-.66,.07-.99l13.87-15.9c.14-.17-.04-.63-.04-.63l3.22-18.51c.05-.31,.22-.6,.47-.8l18.15-14.9c.15-.12,.27-.27,.35-.44l5.45-11.2c.03-.06,.06-.12,.1-.17l10.79-15.64c.08-.11,.14-.24,.18-.37l3.95-13.11c.41-1.35-1.28-2.37-2.28-1.38Z"/><path class="cls-1" d="M410.59,185.75l34.19,33.53c.12,.12,.26,.21,.42,.28l35.09,14.36c.25,.1,.52,.12,.77,.06l19.54,13.26c.3-.07,.62-.03,.89,.12l22.67,7.92c.25,.13,.53,.18,.81,.13l19.26-3.19c1.34-.22,1.4-2.12,.07-2.47l-21.86-5.75c-.08-.02-.16-.05-.24-.09l-22.45-6.9c-.29-.14-.62-.17-.92-.08l-15.19-13.02c-.16-.13-.59,.03-.59,.03l-17.37-3.16c-.29-.05-.56-.21-.76-.44l-14.36-16.99c-.12-.14-.26-.25-.42-.33l-10.59-5.17c-.06-.03-.11-.06-.16-.09l-14.87-10.16c-.11-.07-.23-.13-.35-.17l-12.34-3.79c-1.27-.39-2.18,1.17-1.23,2.1Z"/><path class="cls-1" d="M408.56,178.72l47.41,1.78c.17,0,.33-.02,.49-.08l35.02-13.15c.25-.09,.46-.26,.6-.48l23.08-3.39c.17-.26,.42-.44,.72-.52l21.7-9.51c.27-.07,.51-.23,.67-.45l11.69-15.48c.81-1.08-.44-2.54-1.63-1.89l-19.65,10.58c-.07,.04-.15,.07-.23,.1l-20.85,10.12c-.3,.09-.56,.3-.72,.57l-19.79,.61c-.21,.01-.4,.42-.4,.42l-14.65,9.46c-.25,.16-.55,.23-.84,.19l-21.88-2.92c-.18-.02-.36,0-.53,.04l-11.14,3.35c-.06,.02-.12,.03-.18,.04l-17.61,2.53c-.13,.02-.25,.06-.37,.11l-11.46,5.56c-1.18,.57-.77,2.36,.55,2.41Z"/><path class="cls-1" d="M383.14,207.03l13.85,51.25c.05,.18,.07,.36,.05,.52l-3.31,36.03c-.02,.25-.13,.46-.3,.58l-15.84,11.88c-.2,.15-.3,.4-.3,.71l.26,22.67c0,.28-.08,.52-.25,.67l-11.5,10.62c-.8,.74-2.49-.79-2.19-2l4.86-19.81c.02-.07,.03-.15,.03-.24l.53-21.67c0-.32,.13-.57,.35-.7l14.09-8.69c.14-.08,.24-.21,.29-.38l5.09-14.57c.09-.25,.07-.56-.04-.89l-8.36-23.92c-.07-.19-.1-.39-.1-.56l.28-11.56c0-.06,0-.13,0-.19l-2.15-18.64c-.02-.14-.01-.26,.01-.38l2.27-11.63c.23-1.2,2.01-.54,2.4,.89Z"/><path class="cls-1" d="M391.62,189.92l35.06,32.61c.12,.11,.22,.25,.29,.4l15.98,34.41c.11,.24,.15,.51,.1,.77l-4.53,24.32c-.06,.3,0,.62,.16,.89l11.61,19.58c.14,.24,.2,.53,.17,.8l-2.28,19.41c-.16,1.35-2.05,1.5-2.46,.19l-6.77-21.59c-.03-.08-.06-.16-.1-.23l-10.59-19.41c-.15-.28-.2-.61-.12-.92l4.97-19.99c.05-.19,.05-.4,0-.59l-3.97-17.22c-.07-.29-.24-.55-.47-.74l-17.62-13.56c-.14-.11-.26-.25-.35-.41l-5.65-10.35c-.03-.06-.06-.11-.1-.16l-10.83-14.4c-.08-.1-.14-.22-.18-.34l-4.36-12.16c-.45-1.25,1.07-2.24,2.04-1.33Z"/><path class="cls-1" d="M353.35,200l-34.04,39.57c-.12,.14-.27,.25-.43,.33l-37.23,18.4c-.26,.13-.56,.17-.85,.12l-27.31-4.58c-.34-.06-.69,.01-.97,.19l-21.03,13.27c-.26,.16-.57,.24-.88,.21l-21.7-2.17c-1.51-.15-1.79-2.25-.36-2.74l23.56-7.92c.09-.03,.17-.07,.25-.11l20.9-12.12c.3-.18,.67-.23,1.01-.15l22.52,5.15c.22,.05,.44,.05,.66,0l18.88-4.73c.32-.08,.6-.27,.79-.54l13.96-19.84c.11-.16,.26-.3,.43-.4l11.15-6.47c.06-.03,.12-.07,.17-.12l15.32-12.31c.11-.09,.24-.16,.37-.21l13.24-5.07c1.36-.52,2.55,1.14,1.6,2.24Z"/><path class="cls-5" d="M425.97,168.68l-88.36,30.83,10.68,.14c4.64,.06,7.4,5.31,4.78,9.09l-.83,1.19c-1.37,1.98,.85,4.54,3.01,3.45l15.52-7.8c1.78-.9,3.92-.79,5.64,.29l14.41,9.02c1.73,1.08,3.89-.37,3.51-2.37l-2.06-10.82c-.62-3.26,1.62-6.32,4.89-6.68l21.2-2.38c2.36-.26,2.8-3.48,.61-4.46l-4.31-1.91c-4.27-1.9-4.75-7.77-.82-10.17l12.13-7.42Z"/></g><path class="cls-1" d="M536.98,133.37l-2.3,31.71c-.28,1.36-.09,2.79,.53,4.04l4.52,19.04c.48,.95,.69,1.99,.66,3.01-.12,3.47,.25,6.94,1.66,10.14l2.6,5.93c-1.31,1.69-1.62,3.95-.84,5.97l-4.39,16.05c1.24,3.2-.32,6.74-3.49,7.92h0c-1.83,.68-3.21,2.2-3.71,4.09l-8.61,18.27-.02,.02-15.32,11.08c-2.59,1.83-3.06,2.51-4.44,5.12l-7.56,11.61c-.81,.8-1.67,1.56-2.56,2.27l-16.74,13.29c-.36,.17-.73,.31-1.11,.41l-49.65,12.8c-1.53,.39-3.15,.18-4.55-.59l-2.17-1.2c-1.17-.65-2.51-.9-3.82-.73l-19.06,2.48c-.68,.09-1.34,.29-1.95,.6l-25.48,12.87c-.87,.44-1.83,.66-2.81,.65l-38.9-.43c-.39,0-.78,.03-1.16,.1l-23.5-2.92c-2.22-.81,0,0-5.16-1.41l-33-19.99c-.36-.31-.76-.58-1.18-.8l-14.19-7.39c-1.36-.71-2.42-1.89-2.98-3.32l-2.66-6.84c-.3-.76-.74-1.46-1.31-2.06l-8.37-8.82c-.95-1-1.54-2.27-1.69-3.63l-.89-7.9c-.15-1.31-.71-2.54-1.6-3.53l-13.58-14.95c-1.72-1.9-4.42-2.57-6.78-1.69l-5.94,2.21c-3.17,1.18-4.73,4.73-3.49,7.92l3.56,9.16c.29,.76,.73,1.45,1.29,2.04l55.67,59.14c.78,.83,1.77,1.43,2.86,1.74l76.37,21.96c.73,.21,1.49,.28,2.24,.22l63.06-5.43c.55-.05,1.09-.17,1.6-.36l60.29-22.44c.41-.15,.79-.35,1.16-.58l35.86-23.07c.18-.11,.35-.24,.51-.37l28.54-22.9c.61-.49,1.13-1.1,1.51-1.8l16.26-29.67c.18-.33,.33-.67,.44-1.02l11.44-34.91c.23-.71,.33-1.45,.3-2.2l-1.88-39.49c-.02-.35-.06-.7-.14-1.04l-6.77-30.66c-.18-.8-.51-1.57-.99-2.25l-.78-1.11c-1.61-2.31-4.55-3.28-7.17-2.37l-4.34,1.51c-2,.7-3.47,2.38-3.91,4.46Z"/><path class="cls-2" d="M193.47,250.13l19.89-6.94c-3.27,1.47-4.75,5.38-3.09,8.71,65.5,131.52,228.05,70.06,228.05,70.06,142.13-55.47,115.88-161.57,106.84-187.81-1.08-3.14-4.36-4.87-7.48-4.11l16.41-5.73c3.66-1.28,7.7,.72,8.98,4.43,10.09,29.28,39.37,147.64-119.19,209.53,0,0-181.34,68.57-254.42-78.16-1.94-3.9-.05-8.56,4.01-9.98Z"/></g><path class="cls-7" d="M463.86,369.88l-18.67-16.7c-1.38-1.23-1.8-3.21-1.05-4.9l7.02-15.77c1.04-2.33-.67-4.96-3.22-4.96h-7.49"/><ellipse class="cls-6" cx="438.18" cy="322.36" rx="4.52" ry="9.2" transform="translate(-82.45 164.68) rotate(-19.49)"/><g><circle class="cls-4" cx="529.43" cy="330.58" r="7.15"/><circle class="cls-6" cx="531.41" cy="332.77" r="3.58"/></g><path class="cls-4" d="M569.78,350.41c1.49,0,2.34,1.71,1.41,2.88-1.37,1.73-3.08,3.55-5.15,5.09-4.23,3.15-8.04,3.69-10.35,3.7-2.51,.29-7.17,.22-12.3-3.7-2.01-1.53-3.67-3.34-5.01-5.08-.91-1.18-.09-2.89,1.4-2.89h29.99Z"/></g></g><g><path class="cls-8" d="M285.81,440.57s-1.83,11.65-4.5,13.42"/><path class="cls-8" d="M271.63,450.26s5.62-4.78,6.49-10.67"/><ellipse class="cls-6" cx="279.36" cy="453.74" rx="3.31" ry="1.63"/><ellipse class="cls-6" cx="269.44" cy="450.19" rx="3.27" ry="1.63"/><g><path class="cls-8" d="M307.79,426.48l-1.71-4.78c-.21-.59-.13-1.25,.23-1.76l4.22-6.19c.26-.39,.33-.87,.19-1.32l-2.38-7.53"/><ellipse class="cls-6" cx="328.7" cy="415.24" rx="12.55" ry="11.73"/><circle class="cls-6" cx="317.58" cy="427.4" r="6.4"/><circle class="cls-6" cx="307.79" cy="431.42" r="5.86"/><ellipse class="cls-6" cx="287.51" cy="431.96" rx="17.6" ry="9.76"/><path class="cls-9" d="M336.12,408.64s4.76-8.27,10.46-7.54"/><path class="cls-9" d="M331.2,405.67s3.36-11.75,10.1-12.54"/><circle class="cls-6" cx="347.74" cy="400.69" r="2.39"/><circle class="cls-6" cx="342.96" cy="392.64" r="2.39"/><path class="cls-8" d="M304.7,434.04s-1.07,19.24,2.26,20.21"/><path class="cls-8" d="M307.79,435.17s3.62,14.87,8.02,14.91"/><ellipse class="cls-6" cx="308.67" cy="453.86" rx="3.31" ry="1.63"/><ellipse class="cls-6" cx="316.96" cy="449.71" rx="3.31" ry="1.63"/><g><path class="cls-3" d="M322.76,384.82c.94,.29,1.47,1.3,1.17,2.25-2.33,7.5-14.1,36.11-55.83,24.98,0,0-47.39-13.19-40.32-54.17,.19-1.09,1.28-1.76,2.32-1.44l92.66,28.38Z"/><g><path class="cls-1" d="M312.42,406.3l-3.83-13.42s-.04-.09-.07-.13l-6.78-8.63c-.05-.06-.11-.1-.19-.13l-6.85-1.95c-.09-.02-.16-.08-.21-.16l-3.53-5.58c-.04-.07-.11-.12-.18-.15l-5.3-1.9c-.37-.13-.65,.35-.37,.62l4.68,4.56s.03,.04,.05,.06l3.62,5.28c.05,.08,.13,.13,.22,.15l5.8,1.27c.06,.01,.11,.04,.15,.07l3.92,3.26c.07,.06,.11,.13,.13,.22l1.19,6.38c0,.05,.03,.1,.06,.14l1.93,2.82s.02,.03,.03,.05l2.3,4.7s.04,.07,.06,.09l2.56,2.71c.26,.28,.72,0,.61-.37Z"/><path class="cls-1" d="M271.47,372.39l-14.13,2.15s-.1,.03-.14,.05l-9.67,5.96c-.07,.04-.12,.1-.15,.18l-6.65,2.33c-.04,.09-.1,.16-.19,.2l-5.92,4.1c-.08,.04-.14,.1-.18,.17l-2.63,5.34c-.18,.37,.27,.74,.58,.48l5.25-4.31s.04-.03,.06-.04l5.63-4.24c.09-.04,.15-.12,.18-.21l5.83-1.31c.06-.02,.1-.15,.1-.15l3.83-3.69c.07-.06,.15-.1,.24-.1l6.64-.36c.05,0,.11-.02,.15-.04l3.12-1.64s.03-.02,.05-.02l5.08-1.76s.07-.03,.1-.05l3.1-2.33c.32-.24,.1-.76-.29-.7Z"/><path class="cls-1" d="M284.55,376.43l2.19,13.38s.02,.09,.05,.13l5.6,9.15c.04,.06,.1,.11,.17,.14l2.24,6.3c.08,.03,.15,.1,.18,.18l3.85,5.6c.03,.07,.09,.13,.16,.17l4.93,2.5c.34,.17,.67-.25,.43-.55l-4.03-4.97s-.03-.04-.04-.06l-3.97-5.33c-.04-.08-.11-.14-.2-.17l-1.29-5.52c-.02-.06-.14-.09-.14-.09l-3.43-3.63c-.06-.06-.09-.14-.1-.23l-.43-6.28c0-.05-.02-.1-.04-.15l-1.55-2.95s-.02-.03-.02-.05l-1.69-4.81s-.03-.07-.05-.1l-2.18-2.93c-.22-.3-.69-.1-.63,.27Z"/><path class="cls-1" d="M285.26,374.49l10.52,8.34s.08,.05,.12,.06l10.19,2.86c.07,.02,.15,.02,.22,0l5.84,3.09c.08-.03,.17-.03,.25,0l6.55,1.46c.07,.03,.15,.03,.23,.01l5.26-1.58c.37-.11,.32-.65-.06-.71l-6.26-.88s-.05,0-.07-.02l-6.45-1.18c-.08-.03-.18-.03-.26,.01l-4.62-3.17s-.16,.03-.16,.03l-4.93-.29c-.08,0-.16-.04-.22-.1l-4.51-4.33s-.08-.06-.13-.08l-3.1-1.1s-.03-.01-.05-.02l-4.44-2.37s-.07-.03-.1-.04l-3.55-.65c-.37-.07-.57,.41-.28,.64Z"/><path class="cls-1" d="M274.72,376.69l-5.42,14.02s-.04,.09-.07,.13l-6.79,7.67c-.05,.05-.11,.08-.17,.08l-5.61,.06c-.07,0-.14,.04-.19,.11l-3.73,5.22c-.05,.06-.11,.1-.17,.11l-4.4,.5c-.31,.03-.44-.6-.17-.82l4.43-3.71s.03-.03,.05-.05l3.75-4.86c.05-.07,.12-.11,.2-.1l4.67,.38s.09,0,.13-.04l3.6-2.47c.06-.04,.11-.12,.14-.21l2.1-6.86c.02-.06,.04-.11,.07-.14l2-2.59s.02-.03,.03-.05l2.63-4.61s.04-.06,.07-.09l2.46-2.27c.25-.23,.55,.21,.4,.6Z"/><path class="cls-1" d="M279.52,374.21l2.54,13.31s0,.09,0,.14l-2.12,10.53c-.01,.07-.05,.14-.11,.19l-5.11,4.79c-.06,.06-.1,.14-.11,.23l-.63,6.41c0,.08-.04,.15-.1,.21l-3.77,4.05c-.26,.28-.72,0-.59-.37l2.07-6.06s.01-.05,.02-.07l.83-6.2c.01-.09,.06-.17,.13-.23l4.48-3.73s.08-.08,.1-.13l1.98-4.59c.03-.08,.04-.17,.02-.25l-1.75-6.05s-.02-.1-.01-.15l.44-3.31s0-.04,0-.05l-.06-5.1s0-.07,.02-.11l1.04-3.51c.11-.36,.62-.33,.69,.04Z"/><path class="cls-1" d="M269.1,370.1l-14.39,3.33c-.05,.01-.1,.01-.15,0l-11.58-2.03c-.08-.01-.16-.05-.21-.11l-5.47-5.62c-.07-.07-.16-.11-.25-.12l-7.02-.49c-.09,0-.17-.04-.24-.1l-4.59-4.13c-.32-.29-.03-.81,.38-.68l6.7,2.14s.05,.01,.08,.02l6.8,.73c.1,.01,.19,.06,.26,.14l4.28,4.95s.09,.08,.15,.11l5.1,2.08c.09,.04,.18,.04,.27,0l6.51-2.19c.05-.02,.11-.02,.16-.02l3.63,.39s.04,0,.06,0l5.56-.25s.08,0,.12,.01l3.87,1.06c.4,.11,.39,.69,0,.78Z"/><path class="cls-5" d="M290.92,375.11l-25.33-7.76,2.41,1.82c1.05,.79,.8,2.45-.43,2.87l-.39,.13c-.65,.22-.56,1.18,.11,1.29l4.85,.82c.56,.09,1.03,.48,1.24,1.01l1.78,4.47c.21,.54,.95,.57,1.2,.05l1.34-2.81c.4-.85,1.43-1.17,2.24-.71l5.24,3.01c.58,.33,1.22-.33,.89-.92l-.66-1.16c-.66-1.15,.22-2.57,1.51-2.46l4.01,.34Z"/></g><path class="cls-1" d="M322.16,385.64l-5.83,6.85c-.29,.26-.49,.62-.56,1.01l-2.16,5.1c-.05,.3-.17,.57-.35,.8-.61,.77-1.1,1.63-1.32,2.59l-.4,1.79c-.58,.17-1.03,.63-1.19,1.22l-3.69,2.93c-.25,.94-1.2,1.49-2.12,1.22h0c-.53-.15-1.1-.04-1.53,.31l-5.02,2.73h0s-5.35-.03-5.35-.03c-.9-.02-1.12,.06-1.87,.43l-3.67,1.39c-.32,.05-.64,.08-.97,.09l-6.05,.23c-.11-.02-.22-.05-.32-.09l-13.47-5.39c-.41-.17-.75-.49-.94-.9l-.29-.64c-.16-.34-.42-.63-.75-.81l-4.76-2.62c-.17-.09-.35-.16-.55-.19l-7.97-1.33c-.27-.05-.53-.16-.75-.32l-8.81-6.61c-.09-.07-.18-.12-.28-.17l-4.87-4.6c-.37-.56,0,0-.94-1.18l-4.19-10.09c-.03-.13-.08-.26-.14-.38l-2-4.06c-.19-.39-.24-.84-.12-1.26l.54-2.01c.06-.22,.08-.46,.05-.69l-.43-3.41c-.05-.39,.03-.78,.22-1.11l1.12-1.95c.19-.32,.26-.7,.23-1.07l-.6-5.69c-.08-.72-.58-1.33-1.26-1.52l-1.73-.49c-.92-.26-1.87,.29-2.12,1.22l-.72,2.69c-.06,.22-.08,.45-.05,.68l2.81,22.82c.04,.32,.16,.62,.36,.88l13.75,17.8c.13,.17,.29,.31,.48,.43l15.3,9.32c.13,.08,.28,.14,.43,.19l17.52,4.97c.12,.03,.24,.05,.36,.06l12.05,.74c.06,0,.12,0,.18,0l10.35-.45c.22,0,.44-.06,.64-.16l8.68-4.05c.1-.04,.19-.1,.27-.16l8.45-6.05c.17-.12,.32-.28,.44-.45l6.18-9.33c.05-.08,.1-.17,.14-.26l3.59-8.13c.09-.21,.15-.44,.15-.68v-.38c.03-.8-.48-1.51-1.23-1.74l-1.24-.38c-.57-.18-1.19-.04-1.64,.36Z"/><path class="cls-2" d="M224.21,354.78l5.7,1.75c-.99-.21-1.99,.43-2.16,1.47-7.07,40.98,40.32,54.17,40.32,54.17,41.73,11.13,53.5-17.47,55.83-24.98,.28-.9-.18-1.84-1.02-2.19l4.7,1.44c1.05,.32,1.64,1.45,1.31,2.51-2.6,8.37-15.73,40.29-62.28,27.87,0,0-52.87-14.71-44.98-60.43,.21-1.21,1.42-1.96,2.58-1.61Z"/></g><path class="cls-8" d="M305.11,426.38l-6.72-6.01c-.5-.44-.65-1.16-.38-1.76l2.53-5.68c.37-.84-.24-1.78-1.16-1.78h-2.7"/><ellipse class="cls-6" cx="295.86" cy="408.91" rx="1.63" ry="3.31" transform="translate(-119.48 122.15) rotate(-19.49)"/><g><circle class="cls-4" cx="328.7" cy="412.23" r="2.57"/><circle class="cls-6" cx="329.42" cy="413.02" r="1.29"/></g><path class="cls-4" d="M343.53,419.37c.4,0,.64,.46,.4,.78-.52,.7-1.2,1.46-2.05,2.08-1.52,1.13-2.89,1.33-3.72,1.33-.9,.1-2.58,.08-4.43-1.33-.82-.63-1.49-1.39-2-2.09-.24-.32,0-.78,.4-.78h11.39Z"/></g></g><g><path class="cls-8" d="M112.17,429.22s-2.88,18.37-7.09,21.16"/><path class="cls-8" d="M89.8,444.49s8.86-7.54,10.23-16.82"/><ellipse class="cls-6" cx="101.25" cy="449.86" rx="5.22" ry="2.57"/><ellipse class="cls-6" cx="85.76" cy="444.09" rx="5.22" ry="2.57"/><g><path class="cls-8" d="M146.82,407.01l-2.69-7.53c-.33-.93-.2-1.96,.36-2.78l6.65-9.75c.41-.61,.53-1.37,.31-2.08l-3.75-11.88"/><ellipse class="cls-6" cx="179.79" cy="389.28" rx="19.79" ry="18.5"/><circle class="cls-6" cx="162.26" cy="408.46" r="10.09"/><circle class="cls-6" cx="146.82" cy="414.79" r="9.24"/><ellipse class="cls-6" cx="114.84" cy="415.64" rx="27.75" ry="15.39"/><path class="cls-9" d="M191.48,378.88s7.5-13.04,16.5-11.88"/><path class="cls-9" d="M183.73,374.2s5.3-18.52,15.93-19.77"/><circle class="cls-6" cx="209.81" cy="366.35" r="3.77"/><circle class="cls-6" cx="202.27" cy="353.64" r="3.77"/><path class="cls-8" d="M141.95,418.93s-1.69,30.33,3.56,31.87"/><path class="cls-8" d="M146.82,420.7s5.7,23.44,12.64,23.51"/><ellipse class="cls-6" cx="148.82" cy="449.97" rx="5.22" ry="2.57"/><ellipse class="cls-6" cx="161.28" cy="443.12" rx="5.22" ry="2.57"/><g><path class="cls-3" d="M169.67,317.04c1.47-.24,2.86,.78,3.1,2.27,1.89,11.74,5.16,58.42-58.87,71.37,0,0-73.08,13.98-91.05-46.31-.48-1.6,.55-3.24,2.17-3.51l144.64-23.82Z"/><g><path class="cls-1" d="M170.11,353.09l-14.21-15.61c-.05-.05-.11-.1-.18-.13l-14.99-7.14c-.11-.05-.22-.07-.34-.04l-10.6,1.97c-.13,.02-.27,0-.39-.07l-8.53-5.18c-.11-.06-.23-.09-.35-.08l-8.45,.98c-.59,.07-.65,.91-.08,1.09l9.41,3.04s.07,.03,.1,.04l8.45,4.73c.12,.07,.27,.09,.4,.05l8.71-2.18c.08-.02,.17-.02,.26,0l7.5,1.79c.13,.03,.24,.11,.32,.21l5.91,7.84c.05,.06,.11,.12,.18,.16l4.51,2.52s.05,.03,.07,.05l6.27,4.83s.1,.06,.15,.08l5.3,1.96c.55,.2,.97-.47,.58-.9Z"/><path class="cls-1" d="M91.81,334.66l-17.7,12.42c-.06,.04-.12,.1-.16,.16l-9.1,14.57c-.06,.1-.09,.22-.09,.34l-7.45,7.63c0,.14-.03,.28-.12,.39l-5.26,9.54c-.08,.1-.12,.23-.12,.35l.02,9c0,.63,.86,.83,1.11,.26l4.22-9.37s.03-.07,.06-.1l4.78-9.53c.09-.12,.12-.26,.1-.41l7.02-5.69c.07-.06,.03-.27,.03-.27l2.72-7.57c.05-.13,.14-.24,.26-.3l8.75-4.95c.07-.04,.13-.1,.18-.16l3.12-4.32s.04-.04,.06-.07l5.7-5.81s.08-.09,.1-.14l2.63-5.24c.27-.54-.37-1.09-.86-.75Z"/><path class="cls-1" d="M112.26,331.35l11.96,16.66c.04,.06,.1,.11,.16,.15l13.75,8.64c.1,.06,.21,.09,.32,.08l7.27,7.03c.13,0,.26,.03,.37,.12l8.98,5.01c.1,.07,.21,.12,.33,.12l8.36,.07c.58,0,.75-.79,.21-1.04l-8.8-4.03s-.06-.03-.09-.05l-8.96-4.56c-.11-.08-.25-.12-.38-.1l-5.45-6.61c-.06-.07-.25-.03-.25-.03l-7.09-2.61c-.12-.04-.22-.13-.29-.24l-4.81-8.22c-.04-.07-.09-.12-.15-.17l-4.09-2.96s-.04-.03-.06-.05l-5.53-5.38s-.09-.07-.14-.1l-4.93-2.51c-.51-.26-1.01,.33-.67,.8Z"/><path class="cls-1" d="M111.92,328.23l19.87,4.23c.07,.01,.14,.02,.21,0l15.74-2.97c.11-.02,.21-.08,.29-.16l9.99,.27c.09-.1,.21-.15,.34-.17l9.85-2.42c.12,0,.23-.06,.32-.14l6.07-5.67c.42-.4,0-1.1-.55-.92l-9.07,3.02s-.07,.02-.1,.02l-9.54,2.74c-.13,.02-.26,.08-.34,.19l-8.39-1.2c-.09,0-.2,.15-.2,.15l-6.87,2.91c-.12,.05-.25,.06-.37,.02l-9.02-2.84c-.07-.02-.15-.03-.23-.02l-4.94,.59s-.05,0-.08,0l-7.62-.23c-.06,0-.11,0-.16,.02l-5.24,1.5c-.54,.15-.5,.94,.05,1.06Z"/><path class="cls-1" d="M99.11,338.31l2.08,22.63c0,.08,0,.15-.02,.22l-4.05,14.96c-.03,.11-.09,.18-.17,.22l-7.56,3.85c-.09,.05-.16,.15-.18,.28l-1.55,9.58c-.02,.12-.07,.21-.15,.26l-5.63,3.64c-.39,.25-.99-.52-.78-1l3.51-8s.02-.06,.03-.1l1.81-9.1c.03-.13,.1-.23,.2-.27l6.58-2.63c.06-.03,.12-.07,.15-.14l3.22-5.77c.05-.1,.07-.23,.05-.38l-1.77-10.7c-.01-.09-.01-.17,0-.25l.97-4.86s0-.05,.01-.08l.46-8.02c0-.06,.01-.11,.03-.16l1.81-4.74c.19-.49,.89-.08,.95,.55Z"/><path class="cls-1" d="M103.95,331.72l12.39,16.33c.04,.06,.08,.12,.09,.19l4.21,15.69c.03,.11,.02,.23-.02,.33l-3.7,9.93c-.05,.12-.05,.26,0,.39l3.46,9.11c.04,.11,.05,.24,.01,.35l-2.39,8.02c-.17,.56-.98,.48-1.05-.1l-1.27-9.6s-.01-.07-.02-.11l-3.04-8.96c-.04-.13-.04-.27,.02-.4l3.57-8.07c.03-.08,.05-.16,.05-.25l-.41-7.55c0-.13-.06-.25-.15-.35l-6.44-7.01c-.05-.06-.09-.12-.12-.2l-1.62-4.78s-.02-.05-.03-.07l-3.51-6.87s-.04-.1-.05-.16l-.95-5.45c-.1-.56,.61-.87,.96-.41Z"/><path class="cls-1" d="M87.07,333.15l-17.26,14.19c-.06,.05-.13,.09-.21,.11l-17.06,5.02c-.12,.04-.25,.03-.37-.01l-11.18-3.94c-.14-.05-.29-.05-.43,.01l-9.85,4.05c-.12,.05-.26,.06-.39,.02l-8.99-2.51c-.63-.18-.59-1.08,.05-1.18l10.52-1.61s.08-.02,.11-.03l9.71-3.58c.14-.05,.3-.05,.44,.01l9.12,3.83c.09,.04,.18,.05,.28,.05l8.31-.61c.14-.01,.27-.07,.37-.17l7.35-7.34c.06-.06,.13-.11,.21-.14l5.18-1.91s.05-.02,.08-.04l7.36-4.07c.05-.03,.11-.05,.17-.06l5.96-1.17c.61-.12,.99,.67,.51,1.06Z"/><path class="cls-5" d="M120,325.28l-39.54,6.51,4.49,.85c1.95,.37,2.73,2.78,1.35,4.18l-.44,.44c-.73,.74,.03,1.98,1.02,1.68l7.12-2.15c.82-.25,1.71-.04,2.36,.54l5.42,4.86c.65,.58,1.67,.13,1.65-.74l-.08-4.72c-.02-1.42,1.15-2.55,2.56-2.46l9.12,.56c1.02,.06,1.44-1.26,.58-1.84l-1.68-1.12c-1.66-1.11-1.43-3.63,.4-4.35l5.66-2.24Z"/></g><path class="cls-1" d="M169.42,318.54l-3.3,13.21c-.22,.55-.24,1.17-.07,1.74l.51,8.36c.13,.44,.15,.89,.06,1.32-.31,1.45-.4,2.95-.05,4.4l.66,2.69c-.67,.62-.97,1.55-.79,2.46l-3.03,6.45c.29,1.44-.63,2.82-2.05,3.09h0c-.82,.15-1.51,.69-1.87,1.45l-4.97,7.08h0s-7.27,3.55-7.27,3.55c-1.23,.58-1.48,.83-2.25,1.83l-4.04,4.34c-.4,.28-.82,.54-1.25,.77l-8.04,4.38c-.16,.05-.33,.08-.5,.09l-21.88,1.75c-.67,.05-1.34-.16-1.88-.58l-.83-.66c-.45-.36-.99-.56-1.56-.59l-8.22-.35c-.29-.01-.59,.02-.87,.11l-11.7,3.55c-.4,.12-.82,.14-1.23,.07l-16.38-3.04c-.16-.03-.33-.05-.5-.04l-9.7-2.96c-.88-.5,0,0-2.07-.97l-12.45-10.86c-.13-.16-.28-.3-.44-.42l-5.44-4.16c-.52-.4-.88-.98-1.01-1.62l-.62-3.08c-.07-.34-.21-.67-.4-.97l-2.88-4.34c-.33-.49-.48-1.07-.45-1.66l.2-3.4c.03-.56-.11-1.13-.42-1.61l-4.63-7.3c-.59-.93-1.67-1.41-2.74-1.21l-2.67,.5c-1.42,.26-2.34,1.65-2.05,3.09l.83,4.13c.07,.34,.2,.67,.39,.96l19.14,29.04c.27,.41,.64,.73,1.08,.95l30.6,14.87c.29,.14,.61,.23,.93,.26l27,2.34c.24,.02,.47,0,.7-.03l27.08-5.04c.18-.03,.36-.09,.53-.16l16.82-7.1c.08-.03,.16-.07,.24-.12l13.72-7.56c.3-.16,.56-.38,.77-.65l9.04-11.32c.1-.12,.19-.26,.26-.4l7.39-13.88c.15-.28,.25-.59,.29-.91l2.11-16.79c.02-.15,.02-.3,.02-.45l-.6-13.43c-.02-.35-.1-.7-.25-1.02l-.25-.53c-.51-1.09-1.68-1.72-2.85-1.52l-1.94,.32c-.89,.15-1.64,.75-1.98,1.59Z"/><path class="cls-2" d="M15.94,342.55l8.9-1.47c-1.49,.38-2.4,1.92-1.94,3.45,17.97,60.29,91.05,46.31,91.05,46.31,64.03-12.96,60.75-59.64,58.87-71.37-.23-1.4-1.48-2.38-2.85-2.28l7.34-1.21c1.64-.27,3.2,.87,3.46,2.53,2.11,13.09,5.76,65.17-65.67,79.62,0,0-81.53,15.6-101.57-51.66-.53-1.79,.61-3.62,2.42-3.91Z"/></g><path class="cls-8" d="M142.59,406.84l-10.6-9.48c-.78-.7-1.02-1.82-.6-2.78l3.99-8.95c.59-1.32-.38-2.81-1.83-2.81h-4.25"/><ellipse class="cls-6" cx="128.01" cy="378.85" rx="2.57" ry="5.22" transform="translate(-119.07 64.42) rotate(-19.49)"/><g><circle class="cls-4" cx="179.79" cy="384.54" r="4.06"/><circle class="cls-6" cx="180.92" cy="385.78" r="2.03"/></g><path class="cls-4" d="M203.16,395.79c.64,0,1.01,.73,.63,1.23-.82,1.1-1.89,2.3-3.23,3.29-2.4,1.79-4.56,2.09-5.87,2.1-1.42,.16-4.07,.12-6.98-2.1-1.3-.99-2.34-2.19-3.15-3.29-.37-.51,0-1.23,.64-1.23h17.96Z"/></g></g></svg>