<?xml version="1.0" encoding="UTF-8"?><svg id="Layer_1" xmlns="http://www.w3.org/2000/svg" viewBox="0 0 600 600"><defs><style>.cls-1{fill:#006838;}.cls-2{fill:#009444;}.cls-3{fill:#b79184;}.cls-4{fill:#c82127;}.cls-5{fill:#834037;}</style></defs><path class="cls-2" d="M225.55,62.97c2.7,21.52,16.85,100.11,78.73,83.54,10.95-2.93,19.22-12.03,20.95-23.23,3.16-20.46-7.25-52.46-94.98-64.93-2.7-.38-5.04,1.9-4.7,4.61Z"/><path class="cls-1" d="M311.1,134.66c-6.54-3.71-12.55-8.02-18.39-12.5-5.82-4.51-11.43-9.24-16.86-14.18-5.43-4.94-10.67-10.08-15.7-15.45-5.01-5.4-9.86-10.97-14.16-17.15,6.55,3.71,12.55,8.01,18.39,12.49,5.82,4.51,11.43,9.24,16.85,14.19,5.42,4.94,10.66,10.09,15.69,15.46,5.01,5.4,9.86,10.97,14.17,17.14Z"/><g><path class="cls-5" d="M355.79,78.4c9.31,.02,19.32,6.68,21.27,14.33,.74,2.91,1.28,6.23-2.76,7.15-10.71,2.46-18.77,8.69-25.32,17.2-9.04,11.77-17.62,23.86-25.11,36.68-4.75,8.12-7.04,17.07-8.29,26.29-.29,2.15-1.1,3.26-3.08,3.6-5.66,.98-11.3,1.42-17.03,.16-2.75-.61-1.83-1.94-1.37-3.51,3.74-12.65,9.26-24.51,16.51-35.48,7.12-10.77,14.64-21.29,22.06-31.86,5.65-8.05,9.75-16.67,11.05-26.56,.67-5.1,3.86-7.69,8.96-7.98,1.03-.06,2.06,0,3.1-.01Z"/><path class="cls-4" d="M88.25,312.46c-.54-23.93,2.74-46.56,10.36-68.38,5.07-14.53,12.54-27.92,22.18-40.02,9.35-11.73,19.93-22.17,32.29-30.72,14.9-10.3,31.09-17.52,49.03-20.8,15.93-2.91,31.44-1.55,46.76,3.27,7.91,2.49,14.59,7.29,21.6,11.48,10.77,6.45,22.4,9.76,35,10.41,18.82,.97,35.08-5.51,50.23-15.86,9.16-6.26,19.72-8.42,30.39-9.93,16.35-2.32,32.32-.17,47.77,5.43,15.15,5.49,28.51,14.08,40.9,24.31,5.8,4.79,10.78,10.39,16.21,15.54,2.26,2.15,1.93,5.2-.69,6.9-9.19,5.96-15.82,14.21-20.26,24.19-1.78,4-5.3,3.49-8.21,3.89-25.45,3.46-43.82,31.9-33.07,58.34,1.08,2.65,.8,4.01-1.59,5.79-13.25,9.84-19.06,23.22-17.78,39.58,.77,9.82,4.88,18.43,12.03,25.04,4.28,3.97,4.73,7.73,3.99,13.19-1.76,13.06-.59,25.87,9.19,36.03,5.28,5.49,12.03,8.95,19.28,11.32,2.7,.88,6.21,1.06,7.86,2.89,1.63,1.81-.65,5.03-.85,7.69-1.24,16.78,4.83,30.2,18.46,40.1,1.77,1.28,1.66,1.94,.34,3.55-10.46,12.83-21.97,24.57-35.68,33.96-15.5,10.63-32.38,18.39-51.06,20.87-14.91,1.98-29.12-1.41-42.15-9.36-7.86-4.8-16.06-9.04-23.97-13.76-13.78-8.24-26.71-6.44-39.75,2.08-10.09,6.59-20.6,12.67-31.8,17.2-16.89,6.84-33.86,4.97-50.53-1.05-15.11-5.46-29.02-13.22-41.43-23.47-11.57-9.55-21.43-20.68-30.11-32.91-18.95-26.69-30.23-56.59-37.12-88.33-2.85-13.13-5.08-26.36-6.44-39.76-.99-9.83-1.53-19.64-1.4-28.71Z"/><path class="cls-3" d="M354.33,81.52c1.75-.12,4.39-.09,7.42,.83,2.33,.7,4.16,1.71,5.44,2.56,1.04,.63,5.64,3.58,6.56,9.08,.01,.08,.03,.16,.04,.24,.28,1.96-1.27,3.71-3.17,3.62-.22-.01-.45-.02-.68-.04-4.53-.34-8.12-1.89-10.5-3.23-6.58-3.54-10.13-7.82-9.28-10.4,.16-.49,.8-1.88,4.16-2.65Z"/></g></svg>