<?xml version="1.0" encoding="UTF-8"?><svg id="Layer_1" xmlns="http://www.w3.org/2000/svg" viewBox="0 0 600 600"><defs><style>.cls-1{fill:#fedb02;}.cls-2{fill:#f0c076;}.cls-3{fill:#93796f;}.cls-4{fill:#d8942f;}.cls-5{fill:#e2d6c4;}.cls-6{fill:#445e45;}.cls-7{fill:#a51e22;}.cls-8{fill:#352a35;}.cls-9{stroke:#314230;}.cls-9,.cls-10{fill:none;stroke-linecap:round;stroke-miterlimit:10;}.cls-10{stroke:#fff3c8;stroke-width:2px;}</style></defs><g><path class="cls-2" d="M312.79,309.59l189.48,134.39c2.4,1.7,3.02,5.02,1.36,7.45-11.79,17.22-32.67,42.69-65.99,63.86-40.94,26.01-80.64,32.82-103.15,34.77-2.95,.26-5.55-1.89-5.87-4.83-8.12-76.88-16.24-153.77-24.36-230.65-.49-4.64,4.72-7.68,8.52-4.99Z"/><path class="cls-4" d="M326.3,533.71c-.2-1.94,1.14-3.67,3.05-4,22.16-3.76,55.62-7.65,91.04-27.68,35.28-19.96,51.87-49.14,66.54-66.16,1.24-1.44,3.35-1.71,4.89-.61,1.76,1.26,11.51,8.25,13.3,9.53,1.62,1.16,2.04,3.38,.92,5.04-11.8,17.6-34,45.51-70.57,68.14-41.67,25.78-81.6,32.45-103.59,34.21-1.98,.16-3.71-1.3-3.91-3.28-.32-3.14-1.35-12.07-1.67-15.18Z"/></g><g><path class="cls-2" d="M298.44,314.67l17.68,231.63c.22,2.94-1.93,5.53-4.87,5.8-20.77,1.93-53.71,2.14-91.29-9.96-46.17-14.87-76.77-41.07-92.65-57.14-2.08-2.11-2.1-5.48-.03-7.6,53.96-55.37,107.92-110.73,161.88-166.1,3.25-3.34,8.93-1.28,9.28,3.37Z"/><path class="cls-4" d="M134.88,468.14c1.34-1.39,3.53-1.45,5.02-.18,17.22,14.77,41.85,38.19,80.05,52.86,38.04,14.61,70.98,8.88,93.43,9.4,1.9,.04,3.47,1.5,3.63,3.4,.19,2.16,1.18,14.16,1.37,16.36,.17,1.99-1.25,3.73-3.23,3.92-21.04,2.07-56.64,2.65-97.55-11.26-46.6-15.85-77.56-42.52-93.14-58.42-1.41-1.43-1.42-3.7-.04-5.12,2.18-2.25,8.3-8.73,10.46-10.96Z"/></g><g><path class="cls-2" d="M317.46,297.37l223.7-62.62c2.84-.79,5.8,.82,6.64,3.64,5.96,19.99,12.6,52.26,8.07,91.47-5.56,48.19-25.27,83.32-37.92,102.04-1.66,2.45-4.96,3.13-7.44,1.52-64.85-42.09-129.7-84.19-194.54-126.28-3.91-2.54-3-8.5,1.49-9.76Z"/><path class="cls-4" d="M498.96,428.57c-1.64-1.06-2.14-3.22-1.18-4.93,11.15-19.84,29.37-48.65,36.23-89.2,6.83-40.39-5.44-71.86-9.42-94.15-.34-1.88,.79-3.72,2.63-4.24,2.1-.6,13.76-3.87,15.9-4.47,1.93-.55,3.94,.53,4.53,2.45,6.26,20.4,13.96,55.49,8.4,98.58-6.34,49.09-26.51,84.77-39.11,103.2-1.14,1.66-3.37,2.1-5.05,1.01-2.66-1.73-10.29-6.54-12.93-8.25Z"/></g><g><path class="cls-2" d="M309.85,286.79l93.79-212.53c1.19-2.69,4.32-3.96,7.03-2.82,19.22,8.11,48.36,23.47,75.76,51.89,33.67,34.91,48.28,72.45,54.69,94.12,.84,2.84-.74,5.82-3.56,6.71-73.71,23.33-147.42,46.66-221.13,69.98-4.45,1.41-8.47-3.09-6.59-7.35Z"/><path class="cls-4" d="M526.16,230.46c-1.94,.56-3.95-.45-4.63-2.29-7.84-21.29-17.86-53.74-44.71-85.15-26.74-31.29-59.51-42.31-79.52-53.69-1.69-.96-2.35-3-1.51-4.74,.96-1.98,6.33-12.95,7.31-14.96,.89-1.82,3.08-2.65,4.97-1.85,20.09,8.43,52.58,25.25,82.27,57.32,33.83,36.53,47.86,74.91,53.63,96.38,.52,1.94-.65,3.92-2.64,4.49-3.14,.9-12.06,3.59-15.18,4.48Z"/></g><g><path class="cls-2" d="M294.39,289.17L190.17,81.56c-1.32-2.63-.31-5.85,2.3-7.22,18.49-9.67,48.89-22.36,88.24-25.41,48.36-3.75,86.61,8.88,107.4,17.72,2.72,1.16,4.02,4.27,2.91,7.02-28.92,71.7-57.85,143.4-86.77,215.1-1.74,4.32-7.77,4.57-9.87,.4Z"/><path class="cls-4" d="M388,83.52c-.78,1.84-2.8,2.78-4.61,2.17-21.07-7.06-51.99-19.32-92.56-17.93-40.41,1.39-69.14,19.95-90.23,28.41-1.78,.71-3.74-.03-4.54-1.75-.91-1.97-5.92-12.89-6.85-14.89-.84-1.81-.1-4.02,1.68-4.99,18.89-10.35,51.86-25.1,94.7-28.3,48.81-3.64,86.72,9.17,106.64,17.95,1.8,.79,2.58,2.92,1.78,4.81-1.26,2.99-4.76,11.55-6.01,14.51Z"/></g><g><path class="cls-2" d="M283.93,296.98L56.29,252.55c-2.87-.65-4.71-3.48-4.11-6.36,4.29-20.42,14.96-59.07,37.62-91.39,27.85-39.71,61.92-61.21,81.96-71.63,2.63-1.37,5.85-.39,7.27,2.21,36.95,67.91,73.9,135.82,110.85,203.73,2.23,4.1-1.41,8.91-5.96,7.87Z"/><path class="cls-4" d="M185.52,98.03c.94,1.78,.34,3.96-1.33,5-19.4,12-49.37,28.41-74.95,61.06-25.48,32.52-29.81,66.82-37.03,88.72-.61,1.85-2.49,2.91-4.36,2.44-2.14-.54-14.01-3.56-16.2-4.11-1.97-.49-3.22-2.48-2.82-4.49,4.3-21.37,14.39-56.57,40.06-92.15,29.24-40.53,64.23-62.06,84.23-72.07,1.8-.9,3.99-.16,4.95,1.67,1.52,2.89,5.94,11.07,7.44,13.94Z"/></g><g><path class="cls-2" d="M287.68,311.67L116.31,468.51c-2.17,1.99-5.55,1.89-7.57-.25-14.34-15.16-34.83-40.95-48.49-77.98-16.78-45.51-11.58-98.15-8.74-120.56,.37-2.94,3.02-5.03,5.96-4.71,76.87,8.3,150.26,29,227.13,37.29,4.64,.5,6.52,6.23,3.08,9.38Z"/><path class="cls-4" d="M70.33,265.84c2.19,.47,3.69,2.37,3.47,4.34-2.6,22.77-8.49,56.53,2.77,97.76,11.21,41.07,38.25,67.19,52.5,87.27,1.2,1.7,.87,3.83-.81,4.95-1.92,1.28-12.56,8.31-14.51,9.6-1.76,1.17-4.34,.81-5.82-.84-15.76-17.5-39.7-48.63-53.45-91.87-15.67-49.26-10.87-90.26-6.13-112.16,.43-1.98,2.55-3.15,4.8-2.66,3.55,.77,13.67,2.85,17.19,3.61Z"/></g><g><circle class="cls-7" cx="356.75" cy="489.14" r="18.76"/><circle class="cls-7" cx="363.81" cy="431.25" r="18.76"/><circle class="cls-7" cx="388.58" cy="390.47" r="18.76"/><circle class="cls-7" cx="429.93" cy="451.04" r="18.76"/><circle class="cls-7" cx="334.71" cy="371.42" r="18.76"/></g><g><g><path class="cls-10" d="M485.29,308.75l3.31,1.36c2.1,.86,3.87,2.37,5.07,4.3l.18,.3c.41,.67,.9,1.29,1.44,1.85l6.2,6.37"/><path class="cls-10" d="M491.45,329.39l9.05,1.34c.81,.12,1.62,.17,2.44,.16l4.54-.07c2.58-.04,4.96-1.39,6.32-3.58l2.06-3.32"/><path class="cls-10" d="M454.09,293.89l12.72-2.07c4.47-.73,9.06-.12,13.2,1.74l4.41,1.98"/><path class="cls-10" d="M481.72,326.53l-3.67-10.13c-1.29-3.56-1.51-7.43-.62-11.12l.95-3.93"/><path class="cls-10" d="M485.26,302.5l10.67-1.5c3.75-.53,7.58,.06,11,1.69l3.65,1.74"/></g><g><path class="cls-10" d="M475.54,358.7l3.4-1.12c2.16-.71,4.48-.72,6.65-.02l.33,.11c.75,.24,1.52,.4,2.3,.47l8.85,.81"/><path class="cls-10" d="M517.95,366.81v3.58c0,2.27-.71,4.48-2.05,6.32l-.2,.28c-.46,.64-.85,1.32-1.16,2.04l-3.53,8.15"/><path class="cls-10" d="M503.44,250.67l3.44,.98c2.18,.62,4.11,1.92,5.52,3.71l.21,.27c.48,.62,1.04,1.18,1.64,1.68l6.87,5.64"/><path class="cls-10" d="M493.64,370.38l7.75-4.87c.69-.43,1.35-.92,1.96-1.46l3.4-3c1.93-1.71,2.87-4.28,2.48-6.83l-.59-3.86"/><path class="cls-10" d="M442.18,367.69l8.32-9.84c2.93-3.46,6.81-5.98,11.16-7.26l4.64-1.36"/><path class="cls-10" d="M398.62,357.13l12.27,3.92c4.32,1.38,8.13,4,10.97,7.53l3.03,3.77"/><path class="cls-10" d="M484.39,374.53l-9.38-5.31c-3.3-1.87-5.97-4.67-7.69-8.05l-1.83-3.6"/><path class="cls-10" d="M497.5,342.15l10.58,2.03c3.72,.71,7.16,2.51,9.87,5.16l2.89,2.82"/><path class="cls-10" d="M471.46,353.97l7.14-8.08c2.51-2.84,5.8-4.88,9.46-5.87l3.9-1.05"/></g><g><path class="cls-10" d="M395.21,323.92l3.4-1.12c2.16-.71,4.48-.72,6.65-.02l.33,.11c.75,.24,1.52,.4,2.3,.47l8.85,.81"/><path class="cls-10" d="M368.07,338.31l3.4-1.12c2.16-.71,4.48-.72,6.65-.02l.33,.11c.75,.24,1.52,.4,2.3,.47l8.85,.81"/><path class="cls-10" d="M413.31,335.6l7.75-4.87c.69-.43,1.35-.92,1.96-1.46l3.4-3c1.93-1.71,2.87-4.28,2.48-6.83l-.59-3.86"/><path class="cls-10" d="M404.07,339.75l-9.38-5.31c-3.3-1.87-5.97-4.67-7.69-8.05l-1.83-3.6"/><path class="cls-10" d="M391.13,319.19l7.14-8.08c2.51-2.84,5.8-4.88,9.46-5.87l3.9-1.05"/></g><g><path class="cls-10" d="M418.52,287.38l3.4-1.12c2.16-.71,4.48-.72,6.65-.02l.33,.11c.75,.24,1.52,.4,2.3,.47l8.85,.81"/><path class="cls-10" d="M436.62,299.06l7.75-4.87c.69-.43,1.35-.92,1.96-1.46l3.4-3c1.93-1.71,2.87-4.28,2.48-6.83l-.59-3.86"/><path class="cls-10" d="M385.16,296.37l8.32-9.84c2.93-3.46,6.81-5.98,11.16-7.26l4.64-1.36"/><path class="cls-10" d="M427.38,303.21l-9.38-5.31c-3.3-1.87-5.97-4.67-7.69-8.05l-1.83-3.6"/><path class="cls-10" d="M414.44,282.65l7.14-8.08c2.51-2.84,5.8-4.88,9.46-5.87l3.9-1.05"/></g><g><path class="cls-10" d="M443.46,333.78l1.41-3.29c.89-2.09,2.43-3.84,4.38-5l.3-.18c.67-.4,1.3-.88,1.87-1.42l6.46-6.1"/><path class="cls-10" d="M468.32,285.91l1.41-3.29c.89-2.09,2.43-3.84,4.38-5l.3-.18c.67-.4,1.3-.88,1.87-1.42l6.46-6.1"/><path class="cls-10" d="M508.64,319.19l1.41-3.29c.89-2.09,2.43-3.84,4.38-5l.3-.18c.67-.4,1.3-.88,1.87-1.42l6.46-6.1"/><path class="cls-10" d="M525.48,345.14l-1.55-3.23c-.98-2.05-1.29-4.35-.88-6.59l.06-.34c.14-.77,.2-1.56,.17-2.34l-.33-8.88"/><path class="cls-10" d="M464.2,327.93l1.47-9.03c.13-.81,.2-1.62,.2-2.44v-4.54c0-2.58-1.31-4.98-3.49-6.37l-3.29-2.11"/><path class="cls-10" d="M428.14,364.74l-1.88-12.75c-.66-4.48,.01-9.06,1.94-13.17l2.05-4.38"/><path class="cls-10" d="M461.19,337.61l-10.19,3.52c-3.58,1.24-7.45,1.39-11.12,.45l-3.91-1.01"/><path class="cls-10" d="M416.15,344.87l-10.19,3.52c-3.58,1.24-7.45,1.39-11.12,.45l-3.91-1.01"/><path class="cls-10" d="M437.22,333.71l-1.34-10.69c-.47-3.76,.18-7.58,1.86-10.98l1.79-3.62"/></g><g><path class="cls-10" d="M354.94,304.89l3.57-.29c2.26-.18,4.53,.35,6.47,1.54l.3,.18c.67,.41,1.38,.74,2.13,1l8.41,2.87"/><path class="cls-10" d="M369.79,320.5l8.67-2.91c.77-.26,1.53-.58,2.25-.96l4.01-2.12c2.28-1.2,3.79-3.49,4.01-6.06l.33-3.89"/><path class="cls-10" d="M320.4,305.8l10.4-7.61c3.66-2.68,8.02-4.22,12.55-4.44l4.83-.23"/><path class="cls-10" d="M359.83,322.36l-7.87-7.37c-2.77-2.59-4.71-5.94-5.59-9.63l-.94-3.93"/><path class="cls-10" d="M352.09,299.34l8.83-6.17c3.11-2.17,6.79-3.38,10.58-3.48l4.04-.1"/></g><g><path class="cls-10" d="M495.98,273.92l3.32,1.33c2.11,.85,3.89,2.34,5.1,4.27l.18,.3c.42,.67,.91,1.28,1.46,1.84l6.24,6.33"/><path class="cls-10" d="M502.29,294.52l9.06,1.27c.81,.11,1.63,.16,2.44,.14l4.54-.1c2.58-.06,4.95-1.43,6.29-3.63l2.03-3.33"/><path class="cls-10" d="M464.68,259.29l12.7-2.16c4.47-.76,9.06-.19,13.21,1.64l4.42,1.95"/><path class="cls-10" d="M492.54,291.73l-3.74-10.11c-1.32-3.56-1.56-7.42-.7-11.11l.92-3.94"/><path class="cls-10" d="M441.93,271.5l10.75,.82c3.78,.29,7.39,1.68,10.39,4.01l3.19,2.48"/><path class="cls-10" d="M495.91,267.67l10.66-1.58c3.75-.55,7.58,0,11.02,1.61l3.66,1.71"/></g><g><path class="cls-10" d="M472.96,389.06l3.55,.42c2.26,.26,4.37,1.24,6.04,2.78l.26,.24c.58,.53,1.21,1,1.89,1.4l7.68,4.46"/><path class="cls-10" d="M485.29,411.37l8.93-2c.8-.18,1.58-.42,2.34-.73l4.21-1.69c2.39-.96,4.13-3.08,4.61-5.61l.73-3.83"/><path class="cls-10" d="M445.91,374.73l12.7-2.16c4.47-.76,9.06-.19,13.21,1.64l4.42,1.95"/><path class="cls-10" d="M472.11,403.14l-6.94-8.25c-2.44-2.9-3.98-6.46-4.41-10.22l-.47-4.02"/><path class="cls-10" d="M477.14,383.11l10.66-1.58c3.75-.55,7.58,0,11.02,1.61l3.66,1.71"/></g></g><g><path class="cls-5" d="M336.93,258.45c1.7,2.56-.35,7.67-1.7,10.45-.55,1.14-.02,2.51,1.15,3,.89,.37,2.01,.74,3.29,.96,3.18,.54,2.04,.58,2.55-3.27,.31-2.35,2.28-4.43,3.76-5.69,.87-.74,2.16-.66,2.98,.13,5.1,4.95,8.44-.47,8.44-.47,5.67-8.78-9.05-15.76-9.05-15.76-9.68-5.64-15-2.71-15.93-1.87-.08,.07-.16,.15-.23,.24-8.79,10.62,2.22,10.2,2.22,10.2,0,0,.79-.5,2.51,2.08Z"/><path class="cls-3" d="M337.51,250.4c-.2-.07-.42-.09-.62-.06-1.16,.18-5.04,.95-4.59,3.47,.42,2.34,1.68,.86,2.2,.14,.17-.24,.4-.4,.68-.49,.93-.28,2.98-.66,3.31,1.1,.43,2.26,4.16-2.27-.98-4.17Z"/><path class="cls-3" d="M352.01,258.86c-.05-.2-.16-.4-.3-.55-.8-.86-3.64-3.62-5.46-1.82-1.69,1.67,.24,1.88,1.13,1.89,.29,0,.56,.1,.79,.29,.75,.61,2.23,2.08,.96,3.36-1.62,1.63,4.22,2.15,2.88-3.16Z"/></g><g><g><path class="cls-5" d="M393.51,178.9c-1.77-2.51,.13-7.68,1.39-10.5,.52-1.16-.05-2.51-1.24-2.96-.9-.34-2.04-.68-3.31-.86-3.2-.45-2.06-.52-2.46,3.34-.25,2.36-2.15,4.49-3.59,5.8-.85,.77-2.14,.73-2.98-.05-5.24-4.8-8.43,.72-8.43,.72-5.41,8.94,9.5,15.49,9.5,15.49,9.84,5.35,15.07,2.27,15.97,1.4,.08-.08,.15-.16,.22-.24,8.48-10.87-2.51-10.13-2.51-10.13,0,0-.78,.53-2.57-2Z"/><path class="cls-3" d="M393.17,186.96c.2,.07,.42,.08,.63,.04,1.16-.21,5.01-1.1,4.48-3.6-.49-2.32-1.71-.81-2.2-.08-.16,.24-.39,.42-.67,.51-.92,.3-2.96,.75-3.34-1.01-.5-2.25-4.09,2.39,1.1,4.14Z"/><path class="cls-3" d="M378.42,178.93c.06,.2,.17,.39,.32,.54,.83,.84,3.74,3.51,5.51,1.66,1.64-1.72-.3-1.87-1.18-1.86-.29,0-.57-.09-.8-.26-.77-.59-2.29-2.01-1.06-3.33,1.57-1.68-4.28-2.02-2.79,3.25Z"/></g><g><path class="cls-5" d="M465.33,168.82c1.92-2.4,7.42-2.01,10.47-1.57,1.26,.18,2.4-.75,2.5-2.01,.08-.96,.09-2.14-.09-3.42-.45-3.2-.07-2.12-3.89-1.44-2.33,.42-4.91-.82-6.56-1.84-.97-.6-1.29-1.85-.78-2.87,3.16-6.37-3.02-7.9-3.02-7.9-10.09-2.73-12.25,13.42-12.25,13.42-2.42,10.94,1.99,15.11,3.08,15.74,.1,.06,.19,.1,.29,.14,12.8,5.13,9.04-5.22,9.04-5.22,0,0-.72-.6,1.21-3.02Z"/><path class="cls-3" d="M457.49,170.73c0,.21,.04,.42,.13,.61,.52,1.06,2.45,4.51,4.71,3.31,2.1-1.12,.31-1.87-.54-2.13-.28-.09-.51-.26-.67-.5-.55-.8-1.54-2.63,.04-3.49,2.02-1.1-3.42-3.27-3.67,2.2Z"/><path class="cls-3" d="M461.12,154.33c-.18,.11-.33,.27-.43,.46-.57,1.03-2.34,4.57-.07,5.75,2.11,1.1,1.71-.8,1.46-1.65-.08-.28-.07-.57,.03-.84,.35-.91,1.3-2.76,2.9-1.94,2.05,1.04,.76-4.67-3.89-1.78Z"/></g><g><path class="cls-5" d="M420.53,189.39c2,2.33,.59,7.66-.41,10.58-.41,1.2,.29,2.49,1.51,2.83,.93,.26,2.09,.49,3.38,.55,3.23,.15,2.09,.33,2.14-3.56,.03-2.37,1.72-4.67,3.04-6.1,.77-.84,2.06-.92,2.97-.23,5.67,4.29,8.32-1.5,8.32-1.5,4.56-9.4-10.9-14.54-10.9-14.54-10.3-4.42-15.21-.87-16.04,.09-.07,.08-.14,.17-.2,.26-7.43,11.62,3.44,9.86,3.44,9.86,0,0,.73-.6,2.74,1.76Z"/><path class="cls-3" d="M420.12,181.33c-.21-.05-.42-.04-.63,.01-1.13,.32-4.89,1.56-4.13,4.01,.7,2.27,1.78,.65,2.2-.13,.14-.25,.35-.45,.62-.57,.89-.39,2.87-1.02,3.42,.69,.7,2.19,3.85-2.75-1.48-4.02Z"/><path class="cls-3" d="M435.55,187.95c-.08-.2-.21-.37-.37-.51-.9-.76-4.05-3.15-5.64-1.14-1.47,1.86,.47,1.83,1.35,1.74,.29-.03,.57,.03,.82,.19,.82,.52,2.47,1.79,1.37,3.21-1.41,1.82,4.45,1.62,2.48-3.49Z"/></g><g><path class="cls-5" d="M412.66,128.54c-.26-3.06,3.99-6.56,6.51-8.35,1.03-.74,1.22-2.19,.43-3.18-.6-.75-1.41-1.62-2.42-2.42-2.53-2.01-1.51-1.49-3.81,1.64-1.4,1.91-4.12,2.79-6.03,3.19-1.12,.23-2.21-.45-2.55-1.54-2.1-6.79-7.63-3.64-7.63-3.64-9.19,4.98,.37,18.17,.37,18.17,5.79,9.59,11.85,9.58,13.07,9.28,.11-.03,.21-.06,.31-.1,12.81-5.1,2.95-10.01,2.95-10.01,0,0-.94,.06-1.2-3.03Z"/><path class="cls-3" d="M408.29,135.32c.14,.16,.32,.28,.52,.35,1.11,.4,4.88,1.58,5.69-.84,.75-2.25-1.06-1.57-1.86-1.18-.26,.13-.55,.16-.83,.1-.95-.21-2.93-.85-2.38-2.56,.71-2.19-4.73,0-1.14,4.12Z"/><path class="cls-3" d="M399.62,120.94c-.05,.2-.05,.42,0,.63,.29,1.14,1.46,4.92,3.92,4.22,2.28-.66,.69-1.76-.08-2.2-.25-.14-.44-.36-.55-.63-.37-.9-.96-2.89,.76-3.41,2.2-.65-2.67-3.91-4.05,1.39Z"/></g><g><path class="cls-5" d="M470.99,206.55c-2.58,1.67-7.67-.45-10.43-1.83-1.14-.57-2.51-.05-3.01,1.12-.38,.89-.77,2.01-1,3.28-.58,3.18-.61,2.03,3.24,2.6,2.35,.34,4.4,2.33,5.64,3.83,.73,.88,.64,2.16-.17,2.97-5.02,5.04,.37,8.45,.37,8.45,8.71,5.78,15.87-8.85,15.87-8.85,5.76-9.61,2.9-14.96,2.06-15.9-.07-.08-.15-.16-.23-.23-10.51-8.92-10.23,2.09-10.23,2.09,0,0,.49,.8-2.11,2.48Z"/><path class="cls-3" d="M479.03,207.23c.08-.2,.1-.41,.07-.62-.16-1.17-.89-5.05-3.42-4.63-2.34,.39-.88,1.67-.17,2.19,.23,.17,.4,.41,.48,.69,.26,.94,.63,2.98-1.14,3.3-2.26,.4,2.21,4.18,4.18-.93Z"/><path class="cls-3" d="M470.4,221.63c.21-.05,.4-.15,.55-.3,.87-.79,3.66-3.59,1.89-5.44-1.65-1.71-1.88,.22-1.9,1.1,0,.29-.11,.56-.3,.78-.62,.75-2.11,2.2-3.37,.92-1.61-1.64-2.2,4.19,3.13,2.92Z"/></g><g><path class="cls-5" d="M400.26,230.24c.23,3.06-4.07,6.52-6.61,8.27-1.04,.72-1.25,2.18-.46,3.18,.6,.76,1.39,1.63,2.39,2.45,2.51,2.04,1.49,1.51,3.83-1.6,1.43-1.89,4.15-2.74,6.07-3.11,1.12-.22,2.2,.48,2.53,1.57,2.02,6.82,7.59,3.73,7.59,3.73,9.25-4.87-.16-18.17-.16-18.17-5.67-9.66-11.74-9.72-12.96-9.44-.11,.02-.21,.06-.31,.1-12.87,4.95-3.07,9.98-3.07,9.98,0,0,.94-.05,1.17,3.04Z"/><path class="cls-3" d="M404.71,223.51c-.14-.16-.32-.29-.51-.36-1.1-.42-4.86-1.64-5.7,.78-.78,2.24,1.05,1.58,1.84,1.2,.26-.12,.55-.15,.83-.09,.95,.22,2.92,.88,2.35,2.59-.73,2.18,4.73,.06,1.19-4.11Z"/><path class="cls-3" d="M413.21,237.99c.06-.2,.06-.42,0-.63-.28-1.14-1.4-4.94-3.87-4.26-2.29,.63-.71,1.75,.05,2.2,.25,.15,.44,.37,.55,.64,.36,.9,.92,2.91-.81,3.4-2.21,.63,2.62,3.94,4.06-1.34Z"/></g><g><path class="cls-5" d="M366.7,254.43c.23,3.06-4.07,6.52-6.61,8.27-1.04,.72-1.25,2.18-.46,3.18,.6,.76,1.39,1.63,2.39,2.45,2.51,2.04,1.49,1.51,3.83-1.6,1.43-1.89,4.15-2.74,6.07-3.11,1.12-.22,2.2,.48,2.53,1.57,2.02,6.82,7.59,3.73,7.59,3.73,9.25-4.87-.16-18.17-.16-18.17-5.67-9.66-11.74-9.72-12.96-9.44-.11,.02-.21,.06-.31,.1-12.87,4.95-3.07,9.98-3.07,9.98,0,0,.94-.05,1.17,3.04Z"/><path class="cls-3" d="M371.15,247.7c-.14-.16-.32-.29-.51-.36-1.1-.42-4.86-1.64-5.7,.78-.78,2.24,1.05,1.58,1.84,1.2,.26-.12,.55-.15,.83-.09,.95,.22,2.92,.88,2.35,2.59-.73,2.18,4.73,.06,1.19-4.11Z"/><path class="cls-3" d="M379.64,262.19c.06-.2,.06-.42,0-.63-.28-1.14-1.4-4.94-3.87-4.26-2.29,.63-.71,1.75,.05,2.2,.25,.15,.44,.37,.55,.64,.36,.9,.92,2.91-.81,3.4-2.21,.63,2.62,3.94,4.06-1.34Z"/></g><g><path class="cls-5" d="M362.62,211.99c-2.74,1.39-7.58-1.24-10.18-2.9-1.07-.68-2.49-.31-3.11,.8-.47,.84-.97,1.91-1.33,3.15-.91,3.1-.82,1.96,2.95,2.92,2.3,.59,4.13,2.78,5.21,4.4,.63,.95,.41,2.22-.48,2.94-5.51,4.49-.51,8.44-.51,8.44,8.06,6.66,16.7-7.15,16.7-7.15,6.73-8.96,4.44-14.58,3.71-15.6-.06-.09-.13-.17-.21-.25-9.53-9.97-10.39,1.01-10.39,1.01,0,0,.41,.85-2.36,2.25Z"/><path class="cls-3" d="M370.54,213.5c.1-.19,.14-.4,.13-.61-.04-1.18-.36-5.12-2.92-4.96-2.37,.15-1.05,1.57-.4,2.16,.22,.19,.36,.45,.4,.73,.17,.96,.31,3.03-1.48,3.16-2.29,.16,1.77,4.39,4.25-.49Z"/><path class="cls-3" d="M360.46,226.92c.21-.03,.41-.11,.58-.24,.95-.7,4.02-3.19,2.44-5.21-1.46-1.87-1.89,.02-2.01,.9-.04,.29-.17,.55-.38,.75-.7,.68-2.32,1.97-3.44,.57-1.43-1.8-2.62,3.94,2.81,3.23Z"/></g></g><g><path class="cls-6" d="M279.49,356.24c8.26-7.78,11.77-17.46,7.85-21.62-3.92-4.16-13.79-1.23-22.05,6.55s-15.04,25.82-7.85,21.62c5.89-3.44,13.79,1.23,22.05-6.55Z"/><path class="cls-9" d="M293.78,330.9s-35.93,27.56-37.49,30.63"/><path class="cls-9" d="M270.07,349.48s-5.74-1.28-7.06-.03"/><path class="cls-9" d="M276.15,344.64s3.38,6.59,1.31,8.65"/><path class="cls-9" d="M283.91,338.54s-6.33-2.7-8.45-.81"/></g><g><g><path class="cls-6" d="M205.77,446.79c5.72,9.8,14.35,15.41,19.29,12.53,4.94-2.88,4.31-13.16-1.41-22.96-5.72-9.8-21.76-20.48-19.29-12.53,2.02,6.52-4.31,13.16,1.41,22.96Z"/><path class="cls-9" d="M227.24,466.43s-18.74-41.22-21.38-43.44"/><path class="cls-9" d="M214.48,439.14s2.54-5.3,1.62-6.87"/><path class="cls-9" d="M217.83,446.15s-7.18,1.81-8.72-.67"/><path class="cls-9" d="M222.02,455.09s4.06-5.55,2.7-8.05"/></g><g><path class="cls-6" d="M262.17,431.21c10.51-4.28,17.27-12.05,15.12-17.34-2.16-5.29-12.43-6.11-22.93-1.83s-23.33,18.67-15.12,17.34c6.74-1.08,12.43,6.11,22.93,1.83Z"/><path class="cls-9" d="M284.62,412.71s-43.44,12.77-46.01,15.07"/><path class="cls-9" d="M255.82,421.51s-4.89-3.26-6.57-2.57"/><path class="cls-9" d="M263.23,419.18s.78,7.36-1.89,8.54"/><path class="cls-9" d="M272.67,416.29s-4.93-4.8-7.59-3.8"/></g><g><path class="cls-6" d="M286.72,453.57c8.11-7.94,11.43-17.69,7.43-21.77-4-4.08-13.82-.96-21.92,6.98-8.11,7.94-14.54,26.11-7.43,21.77,5.82-3.55,13.82,.96,21.92-6.98Z"/><path class="cls-9" d="M300.5,427.95s-35.38,28.25-36.88,31.36"/><path class="cls-9" d="M277.16,446.99s-5.76-1.16-7.06,.1"/><path class="cls-9" d="M283.14,442.03s3.51,6.52,1.48,8.62"/><path class="cls-9" d="M290.79,435.78s-6.38-2.58-8.46-.65"/></g><g><path class="cls-6" d="M310.47,491.41c-4.34-10.48-12.14-17.21-17.42-15.03s-6.05,12.46-1.71,22.94,18.79,23.24,17.42,15.03c-1.12-6.73,6.05-12.46,1.71-22.94Z"/><path class="cls-9" d="M291.85,469.05s12.99,43.37,15.31,45.93"/><path class="cls-9" d="M300.8,497.81s-3.23,4.91-2.54,6.58"/><path class="cls-9" d="M298.43,490.41s7.36-.82,8.55,1.85"/><path class="cls-9" d="M295.49,480.98s-4.78,4.95-3.76,7.61"/></g><g><path class="cls-6" d="M293.07,374.19c-3.02-10.94-9.93-18.57-15.44-17.05-5.51,1.52-7.54,11.62-4.52,22.56,3.02,10.94,15.79,25.37,15.44,17.05-.28-6.82,7.54-11.62,4.52-22.56Z"/><path class="cls-9" d="M277.34,349.71s7.56,44.64,9.54,47.46"/><path class="cls-9" d="M282.69,379.35s-3.81,4.47-3.33,6.22"/><path class="cls-9" d="M281.24,371.72s7.4,.09,8.25,2.88"/><path class="cls-9" d="M279.48,362s-5.35,4.33-4.67,7.09"/></g><g><path class="cls-6" d="M248.83,478.44c-11.36,8.62-17.04,20.25-12.7,25.98,4.35,5.72,17.07,3.37,28.43-5.25,11.36-8.62,22.24-30.26,12.7-25.98-7.82,3.51-17.07-3.37-28.43,5.25Z"/><path class="cls-9" d="M227.6,508.21s48.57-29.65,50.93-33.28"/><path class="cls-9" d="M259.7,488.14s7,2.36,8.81,.98"/><path class="cls-9" d="M251.46,493.39s-3.34-8.68-.48-10.98"/><path class="cls-9" d="M240.94,499.98s7.55,4.22,10.45,2.14"/></g><g><path class="cls-6" d="M200.77,463.73c-11.53-8.39-24.31-10.48-28.53-4.67-4.23,5.81,1.7,17.32,13.23,25.71,11.53,8.39,35.39,12.57,28.53,4.67-5.62-6.48-1.7-17.32-13.23-25.71Z"/><path class="cls-9" d="M166.14,451.99s42.4,37.95,46.56,39.17"/><path class="cls-9" d="M194.61,476.94s-.24,7.38,1.6,8.72"/><path class="cls-9" d="M187.21,470.57s7.35-5.71,10.37-3.63"/><path class="cls-9" d="M177.87,462.39s-1.87,8.44,.96,10.62"/></g><g><path class="cls-6" d="M233.11,378.14c-12,7.71-18.57,18.86-14.69,24.9,3.88,6.05,16.76,4.7,28.76-3.01,12-7.71,24.54-28.43,14.69-24.9-8.07,2.89-16.76-4.7-28.76,3.01Z"/><path class="cls-9" d="M209.62,406.16s50.74-25.76,53.38-29.2"/><path class="cls-9" d="M243.19,388.66s6.79,2.9,8.71,1.67"/><path class="cls-9" d="M234.57,393.25s-2.66-8.92,.37-10.98"/><path class="cls-9" d="M223.57,399s7.19,4.8,10.25,2.95"/></g></g><g><path class="cls-7" d="M163.04,360.57c.61-.64,1.49-.93,2.36-.76,5.53,1.09,25.65,6.11,26.52,21.42,1.01,17.76-2.88,13.81-2.88,13.81l-2.22-.65c-1.18-.34-1.96-1.47-1.86-2.69l.63-8.3c.04-.53-.08-1.06-.35-1.51l-5.85-9.94c-.32-.54-.83-.95-1.43-1.15l-10.96-3.6c-.86-.28-1.82-.09-2.51,.5l-5.76,4.96c-.06,.05-.11,.1-.17,.16l-.88,.91c-1.54,1.59-4.23,.64-4.45-1.56h0c-.07-.75,.18-1.5,.71-2.05l9.11-9.54Z"/><g><path class="cls-7" d="M118.74,359.22c-.67-.58-1.01-1.44-.88-2.32,.8-5.58,4.77-25.93,20.02-27.6,17.69-1.93,13.94,2.16,13.94,2.16l-.53,2.25c-.28,1.2-1.36,2.03-2.59,2l-8.32-.2c-.53-.01-1.05,.14-1.49,.43l-9.63,6.36c-.53,.35-.91,.88-1.08,1.49l-3.02,11.13c-.24,.88,0,1.82,.63,2.48l5.25,5.5c.05,.06,.11,.11,.17,.16l.95,.84c1.66,1.46,.86,4.19-1.32,4.52h0c-.75,.11-1.51-.11-2.08-.6l-10-8.6Z"/><path class="cls-7" d="M188.01,320.22c.61-.64,1.49-.93,2.36-.76,5.53,1.09,25.65,6.11,26.52,21.42,1.01,17.76-2.88,13.81-2.88,13.81l-2.22-.65c-1.18-.34-1.96-1.47-1.86-2.69l.63-8.3c.04-.53-.08-1.06-.35-1.51l-5.85-9.94c-.32-.54-.83-.95-1.43-1.15l-10.96-3.6c-.86-.28-1.82-.09-2.51,.5l-5.76,4.96c-.06,.05-.11,.1-.17,.16l-.88,.91c-1.54,1.59-4.23,.64-4.45-1.56h0c-.07-.75,.18-1.5,.71-2.05l9.11-9.54Z"/><path class="cls-7" d="M217.74,302.82c.61-.64,1.49-.93,2.36-.76,5.53,1.09,25.65,6.11,26.52,21.42,1.01,17.76-2.88,13.81-2.88,13.81l-2.22-.65c-1.18-.34-1.96-1.47-1.86-2.69l.63-8.3c.04-.53-.08-1.06-.35-1.51l-5.85-9.94c-.32-.54-.83-.95-1.43-1.15l-10.96-3.6c-.86-.28-1.82-.09-2.51,.5l-5.76,4.96c-.06,.05-.11,.1-.17,.16l-.88,.91c-1.54,1.59-4.23,.64-4.45-1.56h0c-.07-.75,.18-1.5,.71-2.05l9.11-9.54Z"/><path class="cls-7" d="M145.23,284.52c.61-.64,1.49-.93,2.36-.76,5.53,1.09,25.65,6.11,26.52,21.42,1.01,17.76-2.88,13.81-2.88,13.81l-2.22-.65c-1.18-.34-1.96-1.47-1.86-2.69l.63-8.3c.04-.53-.08-1.06-.35-1.51l-5.85-9.94c-.32-.54-.83-.95-1.43-1.15l-10.96-3.6c-.86-.28-1.82-.09-2.51,.5l-5.76,4.96c-.06,.05-.11,.1-.17,.16l-.88,.91c-1.54,1.59-4.23,.64-4.45-1.56h0c-.07-.75,.18-1.5,.71-2.05l9.11-9.54Z"/><path class="cls-7" d="M118.78,290.15c.68,.57,1.02,1.43,.91,2.31-.74,5.59-4.48,25.98-19.71,27.82-17.66,2.13-13.96-2.01-13.96-2.01l.51-2.25c.27-1.2,1.34-2.05,2.57-2.03l8.33,.11c.53,0,1.05-.15,1.49-.45l9.55-6.47c.52-.35,.9-.89,1.06-1.5l2.9-11.16c.23-.88-.02-1.82-.66-2.47l-5.31-5.44c-.05-.06-.11-.11-.17-.16l-.96-.83c-1.68-1.44-.91-4.18,1.27-4.54h0c.75-.12,1.51,.09,2.09,.58l10.1,8.49Z"/><path class="cls-7" d="M114.03,372.35c.87-.16,1.76,.12,2.36,.77,3.84,4.13,17.2,19.98,8.94,32.9-9.59,14.98-10.43,9.5-10.43,9.5l-1.42-1.82c-.75-.97-.73-2.33,.07-3.27l5.38-6.36c.34-.41,.55-.91,.6-1.43l1.08-11.49c.06-.63-.11-1.26-.48-1.77l-6.77-9.34c-.53-.74-1.42-1.14-2.32-1.06l-7.57,.64c-.08,0-.15,.02-.23,.03l-1.25,.22c-2.18,.38-3.81-1.96-2.69-3.87h0c.38-.65,1.03-1.11,1.77-1.25l12.97-2.39Z"/></g><path class="cls-7" d="M163.57,391.89c.66,.59,.98,1.46,.84,2.33-.9,5.57-5.23,25.84-20.5,27.24-17.72,1.62-13.9-2.41-13.9-2.41l.57-2.24c.3-1.19,1.4-2.01,2.63-1.96l8.32,.34c.53,.02,1.05-.12,1.5-.4l9.74-6.19c.53-.34,.92-.86,1.1-1.47l3.22-11.08c.25-.87,.03-1.82-.58-2.49l-5.15-5.59c-.05-.06-.11-.11-.16-.16l-.94-.85c-1.64-1.49-.79-4.21,1.4-4.5h0c.75-.1,1.51,.13,2.07,.64l9.85,8.78Z"/></g><path class="cls-8" d="M266.75,266.6c-5.78,0-10.46,4.68-10.46,10.46s4.68,10.46,10.46,10.46,10.46-4.68,10.46-10.46-4.68-10.46-10.46-10.46Zm0,16.05c-3.08,0-5.59-2.5-5.59-5.59s2.5-5.59,5.59-5.59,5.59,2.5,5.59,5.59-2.5,5.59-5.59,5.59Z"/><g><path class="cls-8" d="M144.06,203.12c-5.78,0-10.46,4.68-10.46,10.46s4.68,10.46,10.46,10.46,10.46-4.68,10.46-10.46-4.68-10.46-10.46-10.46Zm0,16.05c-3.08,0-5.59-2.5-5.59-5.59s2.5-5.59,5.59-5.59,5.59,2.5,5.59,5.59-2.5,5.59-5.59,5.59Z"/><path class="cls-8" d="M166.75,173.19c-5.78,0-10.46,4.68-10.46,10.46s4.68,10.46,10.46,10.46,10.46-4.68,10.46-10.46-4.68-10.46-10.46-10.46Zm0,16.05c-3.08,0-5.59-2.5-5.59-5.59s2.5-5.59,5.59-5.59,5.59,2.5,5.59,5.59-2.5,5.59-5.59,5.59Z"/><path class="cls-8" d="M117.36,178.07c-5.78,0-10.46,4.68-10.46,10.46s4.68,10.46,10.46,10.46,10.46-4.68,10.46-10.46-4.68-10.46-10.46-10.46Zm0,16.05c-3.08,0-5.59-2.5-5.59-5.59s2.5-5.59,5.59-5.59,5.59,2.5,5.59,5.59-2.5,5.59-5.59,5.59Z"/><path class="cls-8" d="M117.36,230.73c-5.78,0-10.46,4.68-10.46,10.46s4.68,10.46,10.46,10.46,10.46-4.68,10.46-10.46-4.68-10.46-10.46-10.46Zm0,16.05c-3.08,0-5.59-2.5-5.59-5.59s2.5-5.59,5.59-5.59,5.59,2.5,5.59,5.59-2.5,5.59-5.59,5.59Z"/><path class="cls-8" d="M200.05,249.03c-5.78,0-10.46,4.68-10.46,10.46s4.68,10.46,10.46,10.46,10.46-4.68,10.46-10.46-4.68-10.46-10.46-10.46Zm0,16.05c-3.08,0-5.59-2.5-5.59-5.59s2.5-5.59,5.59-5.59,5.59,2.5,5.59,5.59-2.5,5.59-5.59,5.59Z"/><path class="cls-8" d="M215.67,194.12c-5.78,0-10.46,4.68-10.46,10.46s4.68,10.46,10.46,10.46,10.46-4.68,10.46-10.46-4.68-10.46-10.46-10.46Zm0,16.05c-3.08,0-5.59-2.5-5.59-5.59s2.5-5.59,5.59-5.59,5.59,2.5,5.59,5.59-2.5,5.59-5.59,5.59Z"/><path class="cls-8" d="M233.72,232.63c-5.78,0-10.46,4.68-10.46,10.46s4.68,10.46,10.46,10.46,10.46-4.68,10.46-10.46-4.68-10.46-10.46-10.46Zm0,16.05c-3.08,0-5.59-2.5-5.59-5.59s2.5-5.59,5.59-5.59,5.59,2.5,5.59,5.59-2.5,5.59-5.59,5.59Z"/><path class="cls-8" d="M185.96,213.58c-5.78,0-10.46,4.68-10.46,10.46s4.68,10.46,10.46,10.46,10.46-4.68,10.46-10.46-4.68-10.46-10.46-10.46Zm0,16.05c-3.08,0-5.59-2.5-5.59-5.59s2.5-5.59,5.59-5.59,5.59,2.5,5.59,5.59-2.5,5.59-5.59,5.59Z"/><path class="cls-8" d="M163.67,229.63c-5.78,0-10.46,4.68-10.46,10.46s4.68,10.46,10.46,10.46,10.46-4.68,10.46-10.46-4.68-10.46-10.46-10.46Zm0,16.05c-3.08,0-5.59-2.5-5.59-5.59s2.5-5.59,5.59-5.59,5.59,2.5,5.59,5.59-2.5,5.59-5.59,5.59Z"/><path class="cls-8" d="M166.75,137.99c-5.78,0-10.46,4.68-10.46,10.46s4.68,10.46,10.46,10.46,10.46-4.68,10.46-10.46-4.68-10.46-10.46-10.46Zm0,16.05c-3.08,0-5.59-2.5-5.59-5.59s2.5-5.59,5.59-5.59,5.59,2.5,5.59,5.59-2.5,5.59-5.59,5.59Z"/></g><path class="cls-1" d="M295.13,251.5l2.59,14.64c.15,.84,.91,1.42,1.69,1.28l6.05-1.07c.68-.12,1.17-.74,1.18-1.47l.2-18.94c.01-1.21-1.21-2-2.18-1.41l-8.85,5.36c-.53,.32-.8,.96-.69,1.61Z"/><g><path class="cls-1" d="M272.33,182.57v14.87c0,.86,.65,1.55,1.44,1.55h6.15c.69,0,1.28-.52,1.42-1.25l3.5-18.61c.22-1.19-.85-2.18-1.9-1.77l-9.65,3.74c-.57,.22-.95,.81-.95,1.46Z"/><path class="cls-1" d="M300.34,162.34l10.68-10.35c.62-.6,.67-1.55,.11-2.12l-4.28-4.41c-.48-.49-1.26-.56-1.88-.15l-15.8,10.44c-1.01,.67-.98,2.12,.05,2.6l9.4,4.33c.56,.26,1.24,.12,1.71-.33Z"/><path class="cls-1" d="M212.63,116.89l13.61,5.99c.79,.35,1.68,.03,2-.7l2.47-5.63c.28-.63,.04-1.38-.57-1.8l-15.63-10.69c-1-.68-2.34-.1-2.39,1.03l-.46,10.33c-.03,.61,.35,1.2,.95,1.46Z"/><path class="cls-1" d="M272.77,117.68l-14.32-4.02c-.83-.23-1.67,.2-1.89,.97l-1.66,5.92c-.19,.66,.16,1.37,.82,1.7l16.97,8.4c1.08,.54,2.33-.22,2.22-1.36l-.99-10.3c-.06-.61-.52-1.14-1.15-1.31Z"/><path class="cls-1" d="M313.78,101.48l-7.08,13.08c-.41,.75-.17,1.67,.53,2.05l5.41,2.93c.6,.33,1.37,.15,1.84-.42l11.94-14.7c.76-.94,.29-2.32-.83-2.46l-10.26-1.31c-.61-.08-1.22,.25-1.54,.83Z"/><path class="cls-1" d="M293.5,76.29l-7.08,13.08c-.41,.75-.17,1.67,.53,2.05l5.41,2.93c.6,.33,1.37,.15,1.84-.42l11.94-14.7c.76-.94,.29-2.32-.83-2.46l-10.26-1.31c-.61-.08-1.22,.25-1.54,.83Z"/><path class="cls-1" d="M349.42,96.17l9.38,11.54c.54,.67,1.48,.8,2.1,.29l4.77-3.88c.53-.43,.66-1.21,.31-1.86l-9.03-16.65c-.58-1.06-2.03-1.16-2.59-.17l-5.12,8.99c-.3,.53-.23,1.23,.18,1.74Z"/><path class="cls-1" d="M328.82,136.58l2.59,14.64c.15,.84,.91,1.42,1.69,1.28l6.05-1.07c.68-.12,1.17-.74,1.18-1.47l.2-18.94c.01-1.21-1.21-2-2.18-1.41l-8.85,5.36c-.53,.32-.8,.96-.69,1.61Z"/><path class="cls-1" d="M247.71,151.63l-3.92,14.35c-.23,.83,.21,1.67,.98,1.88l5.93,1.62c.66,.18,1.37-.17,1.69-.83l8.28-17.03c.53-1.09-.24-2.33-1.37-2.21l-10.29,1.06c-.61,.06-1.13,.53-1.31,1.16Z"/><path class="cls-1" d="M337.5,174.81l-12.7-7.73c-.73-.45-1.66-.26-2.08,.43l-3.2,5.25c-.36,.59-.22,1.36,.33,1.86l14.08,12.66c.9,.81,2.3,.41,2.5-.71l1.82-10.18c.11-.6-.19-1.23-.75-1.58Z"/><path class="cls-1" d="M308.53,209.19l2.59,14.64c.15,.84,.91,1.42,1.69,1.28l6.05-1.07c.68-.12,1.17-.74,1.18-1.47l.2-18.94c.01-1.21-1.21-2-2.18-1.41l-8.85,5.36c-.53,.32-.8,.96-.69,1.61Z"/><path class="cls-1" d="M276.76,212.08l-7.95,12.57c-.46,.73-.28,1.66,.39,2.08l5.19,3.29c.58,.37,1.36,.24,1.86-.3l12.91-13.86c.82-.88,.45-2.29-.66-2.51l-10.15-2c-.6-.12-1.24,.17-1.59,.72Z"/></g></svg>