<?xml version="1.0" encoding="utf-8"?>
<!-- Generator: Adobe Illustrator 26.5.0, SVG Export Plug-In . SVG Version: 6.00 Build 0)  -->
<svg version="1.1" id="Layer_1" xmlns="http://www.w3.org/2000/svg" xmlns:xlink="http://www.w3.org/1999/xlink" x="0px" y="0px"
	 viewBox="0 0 360 360" style="enable-background:new 0 0 360 360;" xml:space="preserve">
<style type="text/css">
	.st0{fill:#FFFFFF;stroke:#000000;stroke-width:2;stroke-miterlimit:10;}
</style>
<g>
	<g>
		<path class="st0" d="M24.7,56.9h310.5c4,0,7.3,3.3,7.3,7.3V274c0,0.8-0.7,1.5-1.5,1.5H19.1c-0.8,0-1.5-0.7-1.5-1.5V64.2
			C17.4,60.2,20.7,56.9,24.7,56.9z"/>
	</g>
	<path class="st0" d="M350.3,282.2H213c-0.6,0-1.1,0.5-1.1,1.1v1.8c0,2.7-2.2,4.9-4.9,4.9h-53.7c-2.7,0-4.9-2.2-4.9-4.9v-1.8
		c0-0.6-0.5-1.1-1.1-1.1H9.7c-1.6,0-2.7,1.3-2.7,2.7v9.6c0,4.8,3.9,8.5,8.5,8.5h328.9c4.8,0,8.5-3.9,8.5-8.5v-9.6
		C353,283.5,351.7,282.2,350.3,282.2L350.3,282.2z"/>
</g>
</svg>
