<?xml version="1.0" encoding="UTF-8"?><svg id="Layer_1" xmlns="http://www.w3.org/2000/svg" viewBox="0 0 324.56 574.08"><defs><style>.cls-1{fill:#fff;stroke:#000;stroke-miterlimit:10;stroke-width:2px;}</style></defs><path class="cls-1" d="M294.14,3.66H34.25c-14.04,0-25.41,11.35-25.41,25.34v44.47c-2.39,.66-4.16,2.83-4.16,5.42v27.88c0,2.58,1.78,4.76,4.16,5.42v.45c-2.39,.66-4.16,2.83-4.16,5.42v27.88c0,2.58,1.78,4.76,4.16,5.42v393.31c0,13.17,10.67,23.84,23.84,23.84H295.71c13.17,0,23.84-10.67,23.84-23.84V29c0-14-11.38-25.34-25.41-25.34Z"/><rect class="cls-1" x="130.93" y="30.09" width="62.37" height="6.55" rx="2.1" ry="2.1"/><ellipse class="cls-1" cx="162.11" cy="17.95" rx="3.77" ry="3.71"/><path class="cls-1" d="M113.06,39.36c-3.36,0-6.09-2.68-6.09-6,0-3.31,2.72-6,6.09-6s6.09,2.68,6.09,6-2.72,6-6.09,6Z"/></svg>