<?xml version="1.0" encoding="UTF-8"?><svg id="Layer_1" xmlns="http://www.w3.org/2000/svg" viewBox="0 0 360 360"><defs><style>.cls-1{fill:#fff;}</style></defs><path class="cls-1" d="M24.7,56.9H335.2c4,0,7.3,3.3,7.3,7.3v209.8c0,.8-.7,1.5-1.5,1.5H19.1c-.8,0-1.5-.7-1.5-1.5V64.2c-.2-4,3.1-7.3,7.1-7.3Z"/><path class="cls-1" d="M350.3,282.2H213c-.6,0-1.1,.5-1.1,1.1v1.8c0,2.7-2.2,4.9-4.9,4.9h-53.7c-2.7,0-4.9-2.2-4.9-4.9v-1.8c0-.6-.5-1.1-1.1-1.1H9.7c-1.6,0-2.7,1.3-2.7,2.7v9.6c0,4.8,3.9,8.5,8.5,8.5H344.4c4.8,0,8.5-3.9,8.5-8.5v-9.6c.1-1.4-1.2-2.7-2.6-2.7h0Z"/></svg>