<?xml version="1.0" encoding="UTF-8"?><svg id="Layer_1" xmlns="http://www.w3.org/2000/svg" viewBox="0 0 628.579 608.648"><defs><style>.cls-1{letter-spacing:-.092em;}.cls-2{fill:#e6e6e6;}.cls-3,.cls-4{fill:#fff;}.cls-5{fill:#b744d3;}.cls-6{fill:#b3b3b3;}.cls-7{fill:#d35353;}.cls-8{fill:#6363d3;}.cls-9{fill:#4d4d4d;}.cls-10{letter-spacing:-.018em;}.cls-11,.cls-12,.cls-13{fill:none;stroke:#000;stroke-miterlimit:10;stroke-width:5px;}.cls-14{letter-spacing:-.055em;}.cls-15{letter-spacing:-.028em;}.cls-16{letter-spacing:-.111em;}.cls-12{stroke-dasharray:0 0 12.148 12.148;}.cls-17{font-family:HelveticaNeue, 'Helvetica Neue';font-size:15px;}.cls-13{stroke-dasharray:0 0 11.765 11.765;}.cls-4{font-family:HelveticaNeue-CondensedBold, 'Helvetica Neue';font-size:72px;}</style></defs><g><path class="cls-11" d="M569.701,423.812c-.079,1.787-.25,3.81-.597,5.966"/><path class="cls-13" d="M565.615,440.967c-1.043,2.096-2.345,4.162-3.969,6.12-12.274,14.799-29.706,6.751-55.086,21.297-14.49,8.305-12.613,12.446-32.748,25.425-6.465,4.167-19.656,12.67-35.337,17.952-39.08,13.164-76.375,.515-93.342-5.491-20.818-7.368-30.289-14.889-43.377-21.963-24.668-13.333-62.741-25.38-121.616-19.505"/><path class="cls-11" d="M174.285,465.439c-1.962,.23-3.946,.48-5.953,.75"/></g><rect class="cls-9" x="2.814" y="4.152" width="267.498" height="162.507" rx="9.348" ry="9.348"/><rect class="cls-2" x="18.055" y="17.319" width="237.165" height="137.396" rx="9.348" ry="9.348"/><path class="cls-8" d="M23.372,112.447c-2.982,0-5.365-2.491-5.212-5.469,.697-13.513,5.715-47.391,38.509-47.391s38.942,33.57,40.154,47.206c.27,3.042-2.145,5.655-5.199,5.655H23.372Z"/><circle class="cls-8" cx="56.669" cy="45.738" r="28.419"/><path class="cls-8" d="M102.427,112.447c-2.982,0-5.365-2.491-5.212-5.469,.697-13.513,5.715-47.391,38.509-47.391s38.942,33.57,40.154,47.206c.27,3.042-2.145,5.655-5.199,5.655H102.427Z"/><circle class="cls-8" cx="135.724" cy="45.738" r="28.419"/><path class="cls-8" d="M181.482,112.447c-2.982,0-5.365-2.491-5.212-5.469,.697-13.513,5.715-47.391,38.509-47.391s38.942,33.57,40.154,47.206c.27,3.042-2.145,5.655-5.199,5.655h-68.252Z"/><circle class="cls-8" cx="214.779" cy="45.738" r="28.419"/><path class="cls-7" d="M62.899,154.715c-2.982,0-5.365-2.491-5.212-5.469,.697-13.513,5.715-47.391,38.509-47.391s38.942,33.57,40.154,47.206c.27,3.042-2.145,5.655-5.199,5.655H62.899Z"/><circle class="cls-7" cx="96.196" cy="88.006" r="28.419"/><path class="cls-5" d="M523.487,400.238c-4.225,0-7.601-3.529-7.384-7.748,.987-19.145,8.096-67.142,54.558-67.142s55.172,47.561,56.888,66.879c.383,4.31-3.039,8.012-7.365,8.012h-96.697Z"/><circle class="cls-5" cx="570.662" cy="305.727" r="40.264"/><path class="cls-7" d="M140.954,154.715c-2.982,0-5.365-2.491-5.212-5.469,.697-13.513,5.715-47.391,38.509-47.391s38.942,33.57,40.154,47.206c.27,3.042-2.145,5.655-5.199,5.655h-68.252Z"/><circle class="cls-7" cx="174.251" cy="88.006" r="28.419"/><path class="cls-9" d="M112.818,166.659l-11.574,21.015c-1.158,2.103,.363,4.678,2.764,4.678h66.966c2.366,0,3.89-2.508,2.801-4.608l-10.936-21.084h-50.021Z"/><path class="cls-7" d="M472.557,196.239l-34.5,78.03-29.39,.01c-7.36,0-13.33-5.96-13.33-13.32v-51.22c0-7.34,5.94-13.29,13.28-13.31l63.94-.19Z"/><path class="cls-8" d="M522.547,293.279l-24-16.35c-2.57-1.75-5.6-2.68-8.71-2.68l-51.78,.02,34.5-78.03,29.25-.09c7.37-.02,13.36,5.95,13.36,13.32v58.45c0,4.15,1.01,8.25,2.95,11.92l6.24,11.81c.62,1.16-.73,2.36-1.81,1.63Z"/><text class="cls-4" transform="translate(436.527 258.949)"><tspan x="0" y="0">?</tspan></text><rect class="cls-9" x="2.516" y="347.562" width="142.522" height="256.214" rx="12" ry="12"/><rect class="cls-6" x="52.483" y="356.354" width="42.341" height="5.132" rx="2.566" ry="2.566"/><rect class="cls-3" x="14.435" y="368.907" width="118.684" height="219.104"/><text class="cls-17" transform="translate(294.072 15.011)"><tspan x="0" y="0">Election day is app</tspan><tspan class="cls-10" x="127.241" y="0">r</tspan><tspan x="131.967" y="0">oaching and you </tspan><tspan x="0" y="18">haven</tspan><tspan class="cls-10" x="40.289" y="18">’</tspan><tspan x="44.189" y="18">t had time to keep up with the back </tspan><tspan x="0" y="36">and forth of the p</tspan><tspan class="cls-10" x="116.14" y="36">r</tspan><tspan x="120.865" y="36">esidential candidates, </tspan><tspan x="0" y="54">let alone the local and state races. </tspan><tspan class="cls-16" x="233.362" y="54">Y</tspan><tspan x="241.417" y="54">ou </tspan><tspan x="0" y="72">know your vote is important, so you want </tspan><tspan x="0" y="90">to cast it for the right people!</tspan></text><text class="cls-17" transform="translate(192.359 310.433)"><tspan class="cls-16" x="0" y="0">Y</tspan><tspan x="8.055" y="0">ou want to do the </tspan><tspan class="cls-10" x="130.3" y="0">r</tspan><tspan x="135.026" y="0">esea</tspan><tspan class="cls-10" x="166.69" y="0">r</tspan><tspan x="171.416" y="0">ch to find out which </tspan><tspan x="0" y="18">candidates align most with your beliefs on </tspan><tspan x="0" y="36">the issues, but you don</tspan><tspan class="cls-10" x="156.446" y="36">’</tspan><tspan x="160.346" y="36">t have time to do it </tspan><tspan x="0" y="54">for every race. </tspan><tspan class="cls-16" x="99.988" y="54">Y</tspan><tspan x="108.042" y="54">ou also want to take into </tspan><tspan x="0" y="72">account the endorsements of the politicians </tspan><tspan x="0" y="90">or o</tspan><tspan class="cls-15" x="26.384" y="90">r</tspan><tspan x="30.959" y="90">ganizations that you trust.</tspan></text><text class="cls-17" transform="translate(170.332 549.354)"><tspan x="0" y="0">After downloading </tspan><tspan class="cls-14" x="126.656" y="0">V</tspan><tspan x="134.996" y="0">ote</tspan><tspan class="cls-1" x="156.384" y="0">r</tspan><tspan x="160" y="0">, you a</tspan><tspan class="cls-10" x="205.013" y="0">r</tspan><tspan x="209.739" y="0">e able to plan out </tspan><tspan x="0" y="18">your ballot for the upcoming election with all of the </tspan><tspan x="0" y="36">necessary information at your fingertips. Enjoy </tspan><tspan x="0" y="54">election day knowing you did your civic duty!</tspan></text><g><path class="cls-11" d="M147.784,217.433c.479,1.393,1.207,3.321,2.283,5.544"/><path class="cls-12" d="M156.678,233.132c2.146,2.506,4.746,4.981,7.889,7.203,11.344,8.021,23.289,8.179,27.792,8.178,31.757-.013,37.584-28.602,67.277-31.037,18.047-1.48,20.872,8.672,49.884,14.17,16.842,3.192,32.021,2.827,44.208,1.35"/><path class="cls-11" d="M359.746,232.147c2.083-.335,4.054-.694,5.902-1.062"/></g><g><g><path class="cls-8" d="M30.635,480.805h.116l4.097-20.407h5.759l-6.339,27.596h-7.15l-6.339-27.596h5.952l3.904,20.407Z"/><path class="cls-8" d="M86.835,464.959h-6.03v23.036h-5.566v-23.036h-6.029v-4.561h17.624v4.561Z"/><path class="cls-8" d="M104.652,464.959h-9.856v6.493h9.276v4.561h-9.276v7.421h10.242v4.561h-15.808v-27.596h15.422v4.561Z"/><path class="cls-8" d="M118.102,460.398c2.319,0,4.122,.586,5.411,1.759,1.288,1.173,1.932,2.957,1.932,5.353,0,1.855-.374,3.369-1.121,4.541-.748,1.173-1.907,1.926-3.478,2.261v.077c1.391,.207,2.409,.657,3.053,1.353,.644,.696,1.044,1.817,1.198,3.363,.051,.516,.09,1.076,.116,1.681,.025,.606,.051,1.282,.077,2.029,.051,1.469,.129,2.59,.232,3.363,.155,.773,.489,1.301,1.005,1.585v.232h-6.03c-.284-.386-.464-.831-.541-1.334-.077-.502-.129-1.024-.155-1.565l-.155-5.295c-.052-1.082-.322-1.933-.812-2.551-.49-.618-1.314-.928-2.474-.928h-2.976v11.672h-5.566v-27.596h10.281Zm-2.396,12.059c1.339,0,2.37-.315,3.092-.947,.721-.631,1.082-1.694,1.082-3.189,0-2.551-1.289-3.826-3.865-3.826h-2.628v7.962h2.319Z"/></g><path class="cls-8" d="M54.964,460.362c-7.61,0-13.779,6.169-13.779,13.779s6.169,13.779,13.779,13.779,13.779-6.169,13.779-13.779-6.169-13.779-13.779-13.779Zm0,22.464c-4.767,0-8.631-3.864-8.631-8.631s3.864-8.631,8.631-8.631,8.631,3.864,8.631,8.631-3.864,8.631-8.631,8.631Z"/><path class="cls-7" d="M42.729,472.331c-.57,.365-.944,.813-.31,1.07,1.644,.665,3.464,1.586,5.298,2.87,4.744,3.32,7.261,7.445,8.548,10.218,.235,.507,1.028,.418,1.133-.126,.555-2.89,1.552-6.096,3.73-12.575,2.22-6.604,6.563-13.665,9.257-16.079,.19-.171,.623-.489,.463-.799-.05-.097-.209-.247-.244-.267-.395-.227-.991,.071-1.295,.227-1.347,.693-3.86,2.866-4.221,3.179-3.654,3.304-5.564,6.739-6.759,9.212-.919,1.902-2.031,4.65-2.735,8.131-.089,.437-.663,.606-1,.292-1.336-1.243-4.624-4.816-7.69-5.992-1.929-.74-3.027-.095-4.174,.639Z"/></g></svg>