<?xml version="1.0" encoding="utf-8"?>
<!-- Generator: Adobe Illustrator 26.4.1, SVG Export Plug-In . SVG Version: 6.00 Build 0)  -->
<svg version="1.1" id="Layer_1" xmlns="http://www.w3.org/2000/svg" xmlns:xlink="http://www.w3.org/1999/xlink" x="0px" y="0px"
	 viewBox="0 0 628.6 608.6" style="enable-background:new 0 0 628.6 608.6;" xml:space="preserve">
<style type="text/css">
	.st0{fill:none;stroke:#000000;stroke-width:5;stroke-miterlimit:10;stroke-dasharray:0,0,11.765,11.765;}
	.st1{fill:none;stroke:#000000;stroke-width:5;stroke-miterlimit:10;}
	.st2{fill:#E6E6E6;}
	.st3{fill:#6363D3;}
	.st4{fill:#D35353;}
	.st5{fill:#B744D3;}
	.st6{fill:#4D4D4D;}
	.st7{fill:#FFFFFF;}
	.st8{font-family:'HelveticaNeue-CondensedBold';}
	.st9{font-size:72px;}
	.st10{fill:#B3B3B3;}
	.st11{font-family:'HelveticaNeue';}
	.st12{font-size:15px;}
	.st13{letter-spacing:-1;}
	.st14{fill:none;stroke:#000000;stroke-width:5;stroke-miterlimit:10;stroke-dasharray:0,0,12.148,12.148;}
</style>
<g>
	<path class="st0" d="M565.6,441c-1,2.1-2.3,4.2-4,6.1c-12.3,14.8-29.7,6.8-55.1,21.3c-14.5,8.3-12.6,12.4-32.7,25.4
		c-6.5,4.2-19.7,12.7-35.3,18c-39.1,13.2-76.4,0.5-93.3-5.5c-20.8-7.4-30.3-14.9-43.4-22c-24.7-13.3-62.7-25.4-121.6-19.5"/>
	<path class="st1" d="M174.3,465.4c-2,0.2-3.9,0.5-6,0.8"/>
</g>
<path class="st2" d="M27.4,17.3h218.5c5.2,0,9.3,4.2,9.3,9.3v118.7c0,5.2-4.2,9.3-9.3,9.3H27.4c-5.2,0-9.3-4.2-9.3-9.3V26.7
	C18.1,21.5,22.2,17.3,27.4,17.3z"/>
<path class="st3" d="M11.7,107.6c0,0-2-47.3,32.5-47.3s34.1,47.3,34.1,47.3H11.7z"/>
<circle class="st3" cx="44.7" cy="46.7" r="24.2"/>
<path class="st3" d="M193.8,107.6c0,0-2-47.3,32.5-47.3s34.1,47.3,34.1,47.3H193.8L193.8,107.6z"/>
<circle class="st3" cx="226.8" cy="46.7" r="24.2"/>
<path class="st3" d="M102.6,107.6c0,0-2-47.3,32.5-47.3s34.1,47.3,34.1,47.3H102.6z"/>
<circle class="st3" cx="135.9" cy="46.7" r="24.2"/>
<path class="st4" d="M57.4,159.4c0,0-2-47.3,32.5-47.3s34.1,47.3,34.1,47.3H57.4z"/>
<circle class="st4" cx="90.5" cy="98.6" r="24.2"/>
<path class="st5" d="M521.7,409.4c-1.2,0-2.2-1.2-2.1-2.6c0-14.2,2.6-81.4,50-81.4s51.9,66.9,52.3,81.3c0,1.5-0.9,2.7-2.1,2.7H521.7
	L521.7,409.4z"/>
<circle class="st5" cx="570.7" cy="305.7" r="40.3"/>
<path class="st4" d="M148.3,159.4c0,0-2-47.3,32.5-47.3s34.1,47.3,34.1,47.3H148.3z"/>
<circle class="st4" cx="181.6" cy="98.6" r="24.2"/>
<path class="st6" d="M261,4.2H12.2c-5.1,0-9.3,4.2-9.3,9.3v143.8c0,5.1,4.2,9.3,9.3,9.3H261c5.1,0,9.3-4.2,9.3-9.3V13.5
	C270.3,8.4,266.1,4.2,261,4.2L261,4.2z M255.2,145.4c0,5.1-4.2,9.3-9.3,9.3H27.4c-5.1,0-9.3-4.2-9.3-9.3V26.7c0-5.1,4.2-9.3,9.3-9.3
	h218.5c5.1,0,9.3,4.2,9.3,9.3L255.2,145.4L255.2,145.4z"/>
<path class="st6" d="M112.8,166.7l-11.6,21c-1.2,2.1,0.4,4.7,2.8,4.7h67c2.4,0,3.9-2.5,2.8-4.6l-10.9-21.1L112.8,166.7L112.8,166.7z
	"/>
<path class="st4" d="M472.6,196.2l-34.5,78l-29.4,0c-7.4,0-13.3-6-13.3-13.3v-51.2c0-7.3,5.9-13.3,13.3-13.3L472.6,196.2
	L472.6,196.2z"/>
<path class="st3" d="M522.5,293.3l-24-16.4c-2.6-1.8-5.6-2.7-8.7-2.7l-51.8,0l34.5-78l29.2-0.1c7.4,0,13.4,5.9,13.4,13.3v58.5
	c0,4.1,1,8.2,3,11.9l6.2,11.8C525,292.8,523.6,294,522.5,293.3L522.5,293.3z"/>
<text transform="matrix(1 0 0 1 436.527 258.949)" class="st7 st8 st9">?</text>
<path class="st6" d="M14.5,347.6H133c6.6,0,12,5.4,12,12v232.2c0,6.6-5.4,12-12,12H14.5c-6.6,0-12-5.4-12-12V359.6
	C2.5,352.9,7.9,347.6,14.5,347.6z"/>
<path class="st10" d="M55,356.4h37.2c1.4,0,2.6,1.1,2.6,2.6v0c0,1.4-1.1,2.6-2.6,2.6H55c-1.4,0-2.6-1.1-2.6-2.6v0
	C52.5,357.5,53.6,356.4,55,356.4z"/>
<rect x="14.4" y="368.9" class="st7" width="118.7" height="219.1"/>
<text transform="matrix(1 0 0 1 294.072 15.011)" class="st11 st12">Election day is app</text>
<text transform="matrix(1 0 0 1 421.313 15.011)" class="st11 st12">r</text>
<text transform="matrix(1 0 0 1 426.039 15.011)" class="st11 st12">oaching and you </text>
<text transform="matrix(1 0 0 1 294.072 33.011)" class="st11 st12">haven</text>
<text transform="matrix(1 0 0 1 334.361 33.011)" class="st11 st12">’</text>
<text transform="matrix(1 0 0 1 338.261 33.011)" class="st11 st12">t had time to keep up with the back </text>
<text transform="matrix(1 0 0 1 294.072 51.011)" class="st11 st12">and forth of the p</text>
<text transform="matrix(1 0 0 1 410.212 51.011)" class="st11 st12">r</text>
<text transform="matrix(1 0 0 1 414.937 51.011)" class="st11 st12">esidential candidates, </text>
<text transform="matrix(1 0 0 1 294.072 69.011)" class="st11 st12">let alone the local and state races. </text>
<text transform="matrix(1 0 0 1 527.434 69.011)" class="st11 st12 st13">Y</text>
<text transform="matrix(1 0 0 1 535.489 69.011)" class="st11 st12">ou </text>
<text transform="matrix(1 0 0 1 294.072 87.011)" class="st11 st12">know your vote is important, so you want </text>
<text transform="matrix(1 0 0 1 294.072 105.011)" class="st11 st12">to cast it for the right people!</text>
<text transform="matrix(1 0 0 1 192.359 310.433)" class="st11 st12 st13">Y</text>
<text transform="matrix(1 0 0 1 200.414 310.433)" class="st11 st12">ou want to do the </text>
<text transform="matrix(1 0 0 1 322.659 310.433)" class="st11 st12">r</text>
<text transform="matrix(1 0 0 1 327.385 310.433)" class="st11 st12">esea</text>
<text transform="matrix(1 0 0 1 359.049 310.433)" class="st11 st12">r</text>
<text transform="matrix(1 0 0 1 363.775 310.433)" class="st11 st12">ch to find out which </text>
<text transform="matrix(1 0 0 1 192.359 328.433)" class="st11 st12">candidates align most with your beliefs on </text>
<text transform="matrix(1 0 0 1 192.359 346.433)" class="st11 st12">the issues, but you don</text>
<text transform="matrix(1 0 0 1 348.805 346.433)" class="st11 st12">’</text>
<text transform="matrix(1 0 0 1 352.705 346.433)" class="st11 st12">t have time to do it </text>
<text transform="matrix(1 0 0 1 192.359 364.433)" class="st11 st12">for every race. </text>
<text transform="matrix(1 0 0 1 292.347 364.433)" class="st11 st12 st13">Y</text>
<text transform="matrix(1 0 0 1 300.401 364.433)" class="st11 st12">ou also want to take into </text>
<text transform="matrix(1 0 0 1 192.359 382.433)" class="st11 st12">account the endorsements of the politicians </text>
<text transform="matrix(1 0 0 1 192.359 400.433)" class="st11 st12">or o</text>
<text transform="matrix(1 0 0 1 218.743 400.433)" class="st11 st12">r</text>
<text transform="matrix(1 0 0 1 223.318 400.433)" class="st11 st12">ganizations that you trust.</text>
<text transform="matrix(1 0 0 1 170.332 549.354)" class="st11 st12">After downloading </text>
<text transform="matrix(1 0 0 1 296.988 549.354)" class="st11 st12">V</text>
<text transform="matrix(1 0 0 1 305.328 549.354)" class="st11 st12">ote</text>
<text transform="matrix(1 0 0 1 326.716 549.354)" class="st11 st12 st13">r</text>
<text transform="matrix(1 0 0 1 330.332 549.354)" class="st11 st12">, you a</text>
<text transform="matrix(1 0 0 1 375.345 549.354)" class="st11 st12">r</text>
<text transform="matrix(1 0 0 1 380.071 549.354)" class="st11 st12">e able to plan out </text>
<text transform="matrix(1 0 0 1 170.332 567.354)" class="st11 st12">your ballot for the upcoming election with all of the </text>
<text transform="matrix(1 0 0 1 170.332 585.354)" class="st11 st12">necessary information at your fingertips. Enjoy </text>
<text transform="matrix(1 0 0 1 170.332 603.354)" class="st11 st12">election day knowing you did your civic duty!</text>
<g>
	<path class="st1" d="M147.8,217.4c0.5,1.4,1.2,3.3,2.3,5.5"/>
	<path class="st14" d="M156.7,233.1c2.1,2.5,4.7,5,7.9,7.2c11.3,8,23.3,8.2,27.8,8.2c31.8,0,37.6-28.6,67.3-31
		c3.5-0.3,6.4-0.1,9.1,0.3c18.7,3.3,31.6,9.3,40.8,13.8c8.3,4.1,20,8.7,32.6,11.4c7.5,1.7,18.6,3.2,32.6,2.1"/>
</g>
<g>
	<g>
		<path class="st3" d="M30.6,480.8h0.1l4.1-20.4h5.8L34.3,488h-7.1l-6.3-27.6h6C26.7,460.4,30.6,480.8,30.6,480.8z"/>
		<path class="st3" d="M86.8,465h-6v23h-5.6v-23h-6v-4.6h17.6L86.8,465L86.8,465z"/>
		<path class="st3" d="M104.7,465h-9.9v6.5h9.3v4.6h-9.3v7.4H105v4.6H89.2v-27.6h15.4L104.7,465L104.7,465z"/>
		<path class="st3" d="M118.1,460.4c2.3,0,4.1,0.6,5.4,1.8c1.3,1.2,1.9,3,1.9,5.4c0,1.9-0.4,3.4-1.1,4.5c-0.7,1.2-1.9,1.9-3.5,2.3
			v0.1c1.4,0.2,2.4,0.7,3.1,1.4c0.6,0.7,1,1.8,1.2,3.4c0.1,0.5,0.1,1.1,0.1,1.7c0,0.6,0.1,1.3,0.1,2c0.1,1.5,0.1,2.6,0.2,3.4
			c0.2,0.8,0.5,1.3,1,1.6v0.2h-6c-0.3-0.4-0.5-0.8-0.5-1.3c-0.1-0.5-0.1-1-0.2-1.6l-0.2-5.3c-0.1-1.1-0.3-1.9-0.8-2.6
			c-0.5-0.6-1.3-0.9-2.5-0.9h-3V488h-5.6v-27.6L118.1,460.4L118.1,460.4z M115.7,472.5c1.3,0,2.4-0.3,3.1-0.9
			c0.7-0.6,1.1-1.7,1.1-3.2c0-2.6-1.3-3.8-3.9-3.8h-2.6v8L115.7,472.5L115.7,472.5z"/>
	</g>
	<path class="st3" d="M55,460.4c-7.6,0-13.8,6.2-13.8,13.8s6.2,13.8,13.8,13.8s13.8-6.2,13.8-13.8S62.6,460.4,55,460.4z M55,482.8
		c-4.8,0-8.6-3.9-8.6-8.6s3.9-8.6,8.6-8.6s8.6,3.9,8.6,8.6S59.7,482.8,55,482.8z"/>
	<path class="st4" d="M42.7,472.3c-0.6,0.4-0.9,0.8-0.3,1.1c1.6,0.7,3.5,1.6,5.3,2.9c4.7,3.3,7.3,7.4,8.5,10.2
		c0.2,0.5,1,0.4,1.1-0.1c0.6-2.9,1.6-6.1,3.7-12.6c2.2-6.6,6.6-13.7,9.3-16.1c0.2-0.2,0.6-0.5,0.5-0.8c-0.1-0.1-0.2-0.2-0.2-0.3
		c-0.4-0.2-1,0.1-1.3,0.2c-1.3,0.7-3.9,2.9-4.2,3.2c-3.7,3.3-5.6,6.7-6.8,9.2c-0.9,1.9-2,4.6-2.7,8.1c-0.1,0.4-0.7,0.6-1,0.3
		c-1.3-1.2-4.6-4.8-7.7-6C45,471,43.9,471.6,42.7,472.3L42.7,472.3z"/>
</g>
</svg>
