<?xml version="1.0" encoding="UTF-8"?><svg id="Layer_1" xmlns="http://www.w3.org/2000/svg" viewBox="0 0 887.892 617.768"><defs><style>.cls-1{letter-spacing:-.037em;}.cls-2{letter-spacing:-.018em;}.cls-3,.cls-4{fill:#d55454;}.cls-5,.cls-6,.cls-7{fill:#231f20;}.cls-8{fill:#fff;}.cls-8,.cls-6{stroke:#231f20;stroke-width:4px;}.cls-8,.cls-6,.cls-9{stroke-miterlimit:10;}.cls-10,.cls-11{font-size:14px;}.cls-10,.cls-11,.cls-12,.cls-13,.cls-14,.cls-4{font-family:Helvetica-Bold, Helvetica;}.cls-10,.cls-12,.cls-15{fill:#d45454;}.cls-11,.cls-13,.cls-14,.cls-9,.cls-16{fill:#6264ad;}.cls-17{letter-spacing:.037em;}.cls-12,.cls-13{font-size:12px;}.cls-18{letter-spacing:-.074em;}.cls-19{letter-spacing:-.055em;}.cls-7{font-family:Helvetica, Helvetica;}.cls-20{font-size:10px;}.cls-9{stroke:#fff;stroke-width:6px;}.cls-15,.cls-16{opacity:.3;}</style></defs><path class="cls-8" d="M431.147,77.737c123.75,0,224.069,100.319,224.069,224.069s-100.319,224.069-224.069,224.069-224.069-100.319-224.069-224.069c0-102.605,65.966-189.103,160.071-215.666"/><text class="cls-20" transform="translate(338.306 9.091)"><tspan class="cls-4"><tspan x="0" y="0">The Hidden Problem</tspan></tspan><tspan class="cls-7"><tspan x="0" y="12">Anne used to stay more up to date with </tspan></tspan><tspan class="cls-7"><tspan x="0" y="24">politics and elections but, over the years, </tspan></tspan><tspan class="cls-7"><tspan x="0" y="36">growing partisanship and her busy work </tspan></tspan><tspan class="cls-7"><tspan x="0" y="48">schedule, as an echo technician, have </tspan></tspan><tspan class="cls-7"><tspan x="0" y="60">driven her awa</tspan><tspan class="cls-18" x="65.591" y="60">y</tspan><tspan x="69.854" y="60">.</tspan></tspan></text><text class="cls-20" transform="translate(547.517 60.944)"><tspan class="cls-4"><tspan x="0" y="0">Recognition of the Negative Emotion</tspan></tspan><tspan class="cls-7"><tspan x="0" y="12">Anne hears about the election on the radio and on </tspan></tspan><tspan class="cls-7"><tspan x="0" y="24">her Facebook feed but she just wants the facts so </tspan></tspan><tspan class="cls-7"><tspan x="0" y="36">she can quickly make informed decisions.</tspan></tspan></text><text class="cls-20" transform="translate(617.772 127.588)"><tspan class="cls-4"><tspan x="0" y="0">Rejection of the Problem</tspan></tspan><tspan class="cls-7"><tspan x="0" y="12">The constant fighting and dramatized </tspan></tspan><tspan class="cls-7"><tspan x="0" y="24">debates make choosing the right </tspan></tspan><tspan class="cls-7"><tspan x="0" y="36">candidate confusing and time consuming.</tspan></tspan></text><g><path class="cls-3" d="M667.192,189.037h-2.651l-.498,1.479h-1.572l2.568-7.197h1.699l2.549,7.197h-1.631l-.464-1.479Zm-.42-1.24l-.898-2.832-.928,2.832h1.826Z"/><path class="cls-3" d="M674.692,187.103h-1.426c-.025-.199-.093-.377-.2-.537-.156-.215-.398-.322-.728-.322-.469,0-.789,.233-.962,.698-.091,.248-.137,.576-.137,.986,0,.391,.046,.705,.137,.942,.166,.443,.479,.664,.938,.664,.326,0,.557-.088,.693-.264s.22-.404,.249-.684h1.421c-.032,.423-.186,.824-.459,1.201-.436,.609-1.082,.913-1.938,.913s-1.485-.254-1.89-.762c-.403-.508-.605-1.167-.605-1.978,0-.915,.224-1.626,.669-2.134,.446-.508,1.062-.762,1.846-.762,.668,0,1.214,.15,1.639,.449s.676,.829,.754,1.587Z"/><path class="cls-3" d="M680.254,187.103h-1.426c-.025-.199-.093-.377-.2-.537-.156-.215-.398-.322-.728-.322-.469,0-.789,.233-.962,.698-.091,.248-.137,.576-.137,.986,0,.391,.046,.705,.137,.942,.166,.443,.479,.664,.938,.664,.326,0,.557-.088,.693-.264s.22-.404,.249-.684h1.421c-.032,.423-.186,.824-.459,1.201-.436,.609-1.082,.913-1.938,.913s-1.485-.254-1.89-.762c-.403-.508-.605-1.167-.605-1.978,0-.915,.224-1.626,.669-2.134,.446-.508,1.062-.762,1.846-.762,.668,0,1.214,.15,1.639,.449s.676,.829,.754,1.587Z"/><path class="cls-3" d="M685.766,188.954c-.035,.316-.2,.636-.493,.962-.455,.518-1.094,.776-1.914,.776-.677,0-1.274-.218-1.792-.654s-.776-1.146-.776-2.129c0-.921,.233-1.627,.701-2.119,.467-.492,1.073-.737,1.818-.737,.443,0,.842,.083,1.196,.249,.355,.166,.648,.428,.879,.786,.209,.316,.344,.682,.405,1.099,.036,.244,.051,.596,.044,1.055h-3.643c.02,.534,.188,.908,.503,1.123,.192,.133,.424,.2,.693,.2,.287,0,.52-.082,.698-.244,.098-.088,.185-.21,.259-.366h1.421Zm-1.377-1.631c-.022-.368-.134-.647-.334-.837s-.448-.286-.745-.286c-.322,0-.572,.101-.749,.303-.178,.202-.289,.475-.335,.82h2.163Z"/><path class="cls-3" d="M691.23,185.765c.43,.459,.645,1.133,.645,2.021,0,.938-.211,1.652-.632,2.144-.422,.492-.965,.737-1.629,.737-.423,0-.774-.106-1.055-.317-.152-.117-.303-.288-.449-.513v2.773h-1.377v-7.417h1.333v.786c.15-.231,.31-.414,.479-.547,.31-.238,.678-.356,1.104-.356,.622,0,1.149,.229,1.582,.688Zm-.791,2.09c0-.41-.094-.773-.28-1.089-.188-.316-.491-.474-.911-.474-.504,0-.851,.239-1.04,.718-.098,.254-.146,.576-.146,.967,0,.619,.165,1.053,.493,1.304,.195,.146,.427,.22,.693,.22,.388,0,.683-.15,.887-.449,.203-.299,.305-.698,.305-1.196Z"/><path class="cls-3" d="M695.317,189.525v1.04l-.659,.024c-.657,.023-1.106-.091-1.348-.342-.156-.16-.234-.405-.234-.737v-3.276h-.742v-.991h.742v-1.484h1.377v1.484h.864v.991h-.864v2.812c0,.218,.028,.354,.083,.408,.056,.054,.225,.081,.508,.081,.043,0,.087,0,.135-.002,.047-.001,.094-.004,.139-.007Z"/><path class="cls-3" d="M696.411,185.77c.368-.469,1-.703,1.895-.703,.583,0,1.101,.116,1.553,.347,.453,.231,.679,.667,.679,1.309v2.441c0,.169,.004,.375,.01,.615,.01,.182,.038,.306,.083,.371,.046,.065,.114,.119,.205,.161v.205h-1.514c-.042-.107-.071-.208-.088-.303-.016-.094-.029-.202-.039-.322-.191,.208-.413,.386-.664,.532-.299,.172-.638,.259-1.016,.259-.481,0-.88-.138-1.193-.413-.314-.275-.472-.665-.472-1.169,0-.654,.253-1.128,.757-1.421,.277-.16,.684-.273,1.221-.342l.474-.059c.258-.033,.441-.073,.552-.122,.199-.084,.298-.216,.298-.396,0-.218-.075-.369-.227-.452s-.374-.125-.667-.125c-.328,0-.562,.082-.698,.244-.098,.121-.162,.283-.195,.488h-1.343c.029-.465,.16-.848,.391-1.147Zm1.035,3.74c.131,.107,.29,.161,.479,.161,.3,0,.575-.088,.828-.264,.252-.176,.383-.497,.393-.962v-.518c-.088,.055-.177,.1-.266,.134-.09,.034-.213,.066-.369,.095l-.312,.059c-.293,.052-.503,.116-.63,.19-.215,.127-.322,.324-.322,.591,0,.238,.067,.409,.2,.513Z"/><path class="cls-3" d="M704.277,186.224c-.472,0-.796,.2-.972,.601-.091,.211-.137,.482-.137,.811v2.881h-1.387v-5.312h1.343v.776c.18-.273,.349-.47,.508-.591,.287-.215,.649-.322,1.089-.322,.551,0,1,.144,1.351,.432,.35,.288,.524,.766,.524,1.433v3.584h-1.426v-3.237c0-.28-.037-.495-.112-.645-.137-.273-.396-.41-.781-.41Z"/><path class="cls-3" d="M712.485,187.103h-1.426c-.025-.199-.093-.377-.2-.537-.156-.215-.398-.322-.728-.322-.469,0-.789,.233-.962,.698-.091,.248-.137,.576-.137,.986,0,.391,.046,.705,.137,.942,.166,.443,.479,.664,.938,.664,.326,0,.557-.088,.693-.264s.22-.404,.249-.684h1.421c-.032,.423-.186,.824-.459,1.201-.436,.609-1.082,.913-1.938,.913s-1.485-.254-1.89-.762c-.403-.508-.605-1.167-.605-1.978,0-.915,.224-1.626,.669-2.134,.446-.508,1.062-.762,1.846-.762,.668,0,1.214,.15,1.639,.449s.676,.829,.754,1.587Z"/><path class="cls-3" d="M717.998,188.954c-.035,.316-.2,.636-.493,.962-.455,.518-1.094,.776-1.914,.776-.677,0-1.274-.218-1.792-.654s-.776-1.146-.776-2.129c0-.921,.233-1.627,.701-2.119,.467-.492,1.073-.737,1.818-.737,.443,0,.842,.083,1.196,.249,.355,.166,.648,.428,.879,.786,.209,.316,.344,.682,.405,1.099,.036,.244,.051,.596,.044,1.055h-3.643c.02,.534,.188,.908,.503,1.123,.192,.133,.424,.2,.693,.2,.287,0,.52-.082,.698-.244,.098-.088,.185-.21,.259-.366h1.421Zm-1.377-1.631c-.022-.368-.134-.647-.334-.837s-.448-.286-.745-.286c-.322,0-.572,.101-.749,.303-.178,.202-.289,.475-.335,.82h2.163Z"/><path class="cls-3" d="M726.22,185.868c.449,.563,.674,1.229,.674,1.997,0,.781-.225,1.449-.674,2.004s-1.131,.833-2.046,.833-1.597-.277-2.046-.833-.674-1.223-.674-2.004c0-.768,.225-1.434,.674-1.997s1.132-.845,2.046-.845,1.597,.282,2.046,.845Zm-2.051,.332c-.406,0-.72,.144-.939,.432s-.33,.699-.33,1.233,.11,.946,.33,1.235,.533,.435,.939,.435,.72-.145,.938-.435c.219-.29,.327-.702,.327-1.235s-.108-.945-.327-1.233c-.218-.288-.53-.432-.938-.432Z"/><path class="cls-3" d="M730.386,183.275v1.133c-.078-.01-.209-.017-.393-.022-.185-.005-.312,.036-.381,.122-.07,.086-.105,.182-.105,.286v.449h.913v.981h-.913v4.292h-1.387v-4.292h-.776v-.981h.762v-.342c0-.57,.097-.962,.288-1.177,.202-.319,.688-.479,1.46-.479,.088,0,.168,.002,.239,.007,.072,.005,.17,.012,.293,.022Z"/><path class="cls-3" d="M736.435,189.525v1.04l-.659,.024c-.657,.023-1.106-.091-1.348-.342-.156-.16-.234-.405-.234-.737v-3.276h-.742v-.991h.742v-1.484h1.377v1.484h.864v.991h-.864v2.812c0,.218,.028,.354,.083,.408,.056,.054,.225,.081,.508,.081,.043,0,.087,0,.135-.002,.047-.001,.094-.004,.139-.007Z"/><path class="cls-3" d="M742.138,187.391v3.125h-1.421v-3.237c0-.287-.049-.518-.146-.693-.127-.248-.367-.371-.723-.371-.367,0-.646,.123-.837,.369s-.286,.597-.286,1.052v2.881h-1.387v-7.173h1.387v2.544c.202-.309,.436-.525,.701-.647,.265-.122,.544-.183,.837-.183,.329,0,.628,.057,.896,.171s.489,.288,.661,.522c.146,.199,.236,.403,.269,.613,.033,.21,.049,.553,.049,1.028Z"/><path class="cls-3" d="M747.993,188.954c-.035,.316-.2,.636-.493,.962-.455,.518-1.094,.776-1.914,.776-.677,0-1.274-.218-1.792-.654s-.776-1.146-.776-2.129c0-.921,.233-1.627,.701-2.119,.467-.492,1.073-.737,1.818-.737,.443,0,.842,.083,1.196,.249,.355,.166,.648,.428,.879,.786,.209,.316,.344,.682,.405,1.099,.036,.244,.051,.596,.044,1.055h-3.643c.02,.534,.188,.908,.503,1.123,.192,.133,.424,.2,.693,.2,.287,0,.52-.082,.698-.244,.098-.088,.185-.21,.259-.366h1.421Zm-1.377-1.631c-.022-.368-.134-.647-.334-.837s-.448-.286-.745-.286c-.322,0-.572,.101-.749,.303-.178,.202-.289,.475-.335,.82h2.163Z"/><path class="cls-3" d="M754.946,187.928h-1.528v2.588h-1.494v-7.197h3.135c.723,0,1.299,.186,1.729,.557s.645,.946,.645,1.724c0,.85-.215,1.45-.645,1.802s-1.043,.527-1.841,.527Zm.703-1.499c.195-.172,.293-.446,.293-.82s-.099-.641-.295-.801c-.197-.16-.473-.239-.828-.239h-1.401v2.119h1.401c.355,0,.632-.086,.83-.259Z"/><path class="cls-3" d="M761.123,186.478c-.56,0-.936,.182-1.128,.547-.107,.205-.161,.521-.161,.947v2.544h-1.401v-5.322h1.328v.928c.215-.355,.402-.597,.562-.728,.261-.218,.6-.327,1.016-.327,.026,0,.048,0,.066,.002,.018,.001,.058,.004,.119,.007v1.426c-.088-.01-.166-.016-.234-.02s-.123-.005-.166-.005Z"/><path class="cls-3" d="M766.777,185.868c.449,.563,.674,1.229,.674,1.997,0,.781-.225,1.449-.674,2.004s-1.131,.833-2.046,.833-1.597-.277-2.046-.833-.674-1.223-.674-2.004c0-.768,.225-1.434,.674-1.997s1.132-.845,2.046-.845,1.597,.282,2.046,.845Zm-2.051,.332c-.406,0-.72,.144-.939,.432s-.33,.699-.33,1.233,.11,.946,.33,1.235,.533,.435,.939,.435,.72-.145,.938-.435c.219-.29,.327-.702,.327-1.235s-.108-.945-.327-1.233c-.218-.288-.53-.432-.938-.432Z"/><path class="cls-3" d="M771.338,190.658c-.439,0-.792-.088-1.06-.264-.159-.104-.332-.287-.518-.547v.669h-1.362v-7.188h1.387v2.559c.176-.248,.37-.436,.581-.566,.251-.163,.57-.244,.957-.244,.7,0,1.248,.252,1.644,.757s.593,1.156,.593,1.953c0,.827-.195,1.512-.586,2.056s-.936,.815-1.636,.815Zm.762-2.725c0-.377-.049-.69-.146-.938-.186-.469-.527-.703-1.025-.703-.504,0-.851,.229-1.04,.688-.098,.244-.146,.56-.146,.947,0,.456,.102,.833,.303,1.133,.202,.299,.51,.449,.923,.449,.358,0,.637-.145,.835-.435,.199-.29,.298-.67,.298-1.143Z"/><path class="cls-3" d="M774.585,183.319h1.392v7.197h-1.392v-7.197Z"/><path class="cls-3" d="M781.889,188.954c-.035,.316-.2,.636-.493,.962-.455,.518-1.094,.776-1.914,.776-.677,0-1.274-.218-1.792-.654s-.776-1.146-.776-2.129c0-.921,.233-1.627,.701-2.119,.467-.492,1.073-.737,1.818-.737,.443,0,.842,.083,1.196,.249,.355,.166,.648,.428,.879,.786,.209,.316,.344,.682,.405,1.099,.036,.244,.051,.596,.044,1.055h-3.643c.02,.534,.188,.908,.503,1.123,.192,.133,.424,.2,.693,.2,.287,0,.52-.082,.698-.244,.098-.088,.185-.21,.259-.366h1.421Zm-1.377-1.631c-.022-.368-.134-.647-.334-.837s-.448-.286-.745-.286c-.322,0-.572,.101-.749,.303-.178,.202-.289,.475-.335,.82h2.163Z"/><path class="cls-3" d="M785.884,186.659c-.117-.257-.347-.386-.688-.386-.396,0-.664,.128-.801,.386-.074,.146-.112,.365-.112,.654v3.203h-1.411v-5.312h1.353v.776c.173-.277,.336-.474,.488-.591,.271-.208,.62-.312,1.05-.312,.407,0,.736,.089,.986,.269,.202,.166,.355,.379,.459,.64,.183-.312,.409-.542,.679-.688,.287-.146,.605-.22,.957-.22,.234,0,.466,.045,.693,.137,.229,.091,.435,.25,.62,.479,.15,.186,.251,.414,.303,.684,.033,.179,.049,.441,.049,.786l-.01,3.354h-1.426v-3.389c0-.202-.032-.368-.098-.498-.123-.248-.352-.371-.684-.371-.384,0-.649,.16-.796,.479-.074,.169-.112,.373-.112,.61v3.169h-1.401v-3.169c0-.316-.032-.545-.098-.688Z"/><path class="cls-3" d="M798.603,190.516l-.835-3.877-.845,3.877h-1.445l-1.494-5.322h1.494l.83,3.818,.767-3.818h1.411l.811,3.833,.83-3.833h1.45l-1.543,5.322h-1.431Z"/><path class="cls-3" d="M803.774,183.275v1.284h-1.411v-1.284h1.411Zm0,1.919v5.322h-1.411v-5.322h1.411Z"/><path class="cls-3" d="M807.558,189.525v1.04l-.659,.024c-.657,.023-1.106-.091-1.348-.342-.156-.16-.234-.405-.234-.737v-3.276h-.742v-.991h.742v-1.484h1.377v1.484h.864v.991h-.864v2.812c0,.218,.028,.354,.083,.408,.056,.054,.225,.081,.508,.081,.043,0,.087,0,.135-.002,.047-.001,.094-.004,.139-.007Z"/><path class="cls-3" d="M813.261,187.391v3.125h-1.421v-3.237c0-.287-.049-.518-.146-.693-.127-.248-.368-.371-.723-.371-.368,0-.647,.123-.837,.369-.19,.246-.286,.597-.286,1.052v2.881h-1.387v-7.173h1.387v2.544c.202-.309,.436-.525,.7-.647,.266-.122,.545-.183,.838-.183,.329,0,.627,.057,.896,.171,.268,.114,.488,.288,.661,.522,.146,.199,.236,.403,.269,.613s.049,.553,.049,1.028Z"/><path class="cls-3" d="M819.775,189.525v1.04l-.659,.024c-.657,.023-1.106-.091-1.348-.342-.156-.16-.234-.405-.234-.737v-3.276h-.742v-.991h.742v-1.484h1.377v1.484h.864v.991h-.864v2.812c0,.218,.027,.354,.083,.408s.225,.081,.508,.081c.042,0,.087,0,.135-.002,.047-.001,.093-.004,.139-.007Z"/><path class="cls-3" d="M825.478,187.391v3.125h-1.421v-3.237c0-.287-.049-.518-.146-.693-.127-.248-.368-.371-.723-.371-.368,0-.647,.123-.837,.369-.191,.246-.286,.597-.286,1.052v2.881h-1.387v-7.173h1.387v2.544c.202-.309,.436-.525,.7-.647,.266-.122,.545-.183,.838-.183,.329,0,.627,.057,.896,.171,.268,.114,.488,.288,.661,.522,.146,.199,.236,.403,.269,.613s.049,.553,.049,1.028Z"/><path class="cls-3" d="M831.333,188.954c-.036,.316-.2,.636-.493,.962-.456,.518-1.094,.776-1.914,.776-.677,0-1.274-.218-1.792-.654s-.776-1.146-.776-2.129c0-.921,.233-1.627,.7-2.119,.468-.492,1.074-.737,1.819-.737,.442,0,.842,.083,1.196,.249s.647,.428,.879,.786c.208,.316,.344,.682,.405,1.099,.036,.244,.051,.596,.044,1.055h-3.643c.02,.534,.188,.908,.503,1.123,.192,.133,.423,.2,.693,.2,.286,0,.52-.082,.698-.244,.098-.088,.184-.21,.259-.366h1.421Zm-1.377-1.631c-.022-.368-.135-.647-.334-.837-.201-.19-.449-.286-.745-.286-.322,0-.572,.101-.749,.303-.178,.202-.289,.475-.335,.82h2.163Z"/><path class="cls-3" d="M667.27,202.516v-3.213h-2.812v3.213h-1.489v-7.197h1.489v2.744h2.812v-2.744h1.494v7.197h-1.494Z"/><path class="cls-3" d="M674.643,200.954c-.035,.316-.2,.636-.493,.962-.455,.518-1.094,.776-1.914,.776-.677,0-1.274-.218-1.792-.654s-.776-1.146-.776-2.129c0-.921,.233-1.627,.701-2.119,.467-.492,1.073-.737,1.818-.737,.443,0,.842,.083,1.196,.249,.355,.166,.648,.428,.879,.786,.209,.316,.344,.682,.405,1.099,.036,.244,.051,.596,.044,1.055h-3.643c.02,.534,.188,.908,.503,1.123,.192,.133,.424,.2,.693,.2,.287,0,.52-.082,.698-.244,.098-.088,.185-.21,.259-.366h1.421Zm-1.377-1.631c-.022-.368-.134-.647-.334-.837s-.448-.286-.745-.286c-.322,0-.572,.101-.749,.303-.178,.202-.289,.475-.335,.82h2.163Z"/><path class="cls-3" d="M675.678,195.319h1.392v7.197h-1.392v-7.197Z"/><path class="cls-3" d="M682.886,197.765c.43,.459,.645,1.133,.645,2.021,0,.938-.211,1.652-.632,2.144-.422,.492-.965,.737-1.629,.737-.423,0-.774-.106-1.055-.317-.152-.117-.303-.288-.449-.513v2.773h-1.377v-7.417h1.333v.786c.15-.231,.31-.414,.479-.547,.31-.238,.678-.356,1.104-.356,.622,0,1.149,.229,1.582,.688Zm-.791,2.09c0-.41-.094-.773-.28-1.089-.188-.316-.491-.474-.911-.474-.504,0-.851,.239-1.04,.718-.098,.254-.146,.576-.146,.967,0,.619,.165,1.053,.493,1.304,.195,.146,.427,.22,.693,.22,.388,0,.683-.15,.887-.449,.203-.299,.305-.698,.305-1.196Z"/><path class="cls-3" d="M691.753,197.868c.449,.563,.674,1.229,.674,1.997,0,.781-.225,1.449-.674,2.004s-1.131,.833-2.046,.833-1.597-.277-2.046-.833-.674-1.223-.674-2.004c0-.768,.225-1.434,.674-1.997s1.132-.845,2.046-.845,1.597,.282,2.046,.845Zm-2.051,.332c-.406,0-.72,.144-.939,.432s-.33,.699-.33,1.233,.11,.946,.33,1.235,.533,.435,.939,.435,.72-.145,.938-.435c.219-.29,.327-.702,.327-1.235s-.108-.945-.327-1.233c-.218-.288-.53-.432-.938-.432Z"/><path class="cls-3" d="M695.918,195.275v1.133c-.078-.01-.209-.017-.393-.022-.185-.005-.312,.036-.381,.122-.07,.086-.105,.182-.105,.286v.449h.913v.981h-.913v4.292h-1.387v-4.292h-.776v-.981h.762v-.342c0-.57,.097-.962,.288-1.177,.202-.319,.688-.479,1.46-.479,.088,0,.168,.002,.239,.007,.072,.005,.17,.012,.293,.022Z"/><path class="cls-3" d="M699.731,197.77c.368-.469,1-.703,1.895-.703,.583,0,1.101,.116,1.553,.347,.453,.231,.679,.667,.679,1.309v2.441c0,.169,.004,.375,.01,.615,.01,.182,.038,.306,.083,.371,.046,.065,.114,.119,.205,.161v.205h-1.514c-.042-.107-.071-.208-.088-.303-.016-.094-.029-.202-.039-.322-.191,.208-.413,.386-.664,.532-.299,.172-.638,.259-1.016,.259-.481,0-.88-.138-1.193-.413-.314-.275-.472-.665-.472-1.169,0-.654,.253-1.128,.757-1.421,.277-.16,.684-.273,1.221-.342l.474-.059c.258-.033,.441-.073,.552-.122,.199-.084,.298-.216,.298-.396,0-.218-.075-.369-.227-.452s-.374-.125-.667-.125c-.328,0-.562,.082-.698,.244-.098,.121-.162,.283-.195,.488h-1.343c.029-.465,.16-.848,.391-1.147Zm1.035,3.74c.131,.107,.29,.161,.479,.161,.3,0,.575-.088,.828-.264,.252-.176,.383-.497,.393-.962v-.518c-.088,.055-.177,.1-.266,.134-.09,.034-.213,.066-.369,.095l-.312,.059c-.293,.052-.503,.116-.63,.19-.215,.127-.322,.324-.322,.591,0,.238,.067,.409,.2,.513Z"/><path class="cls-3" d="M709.36,202.516h-1.401v-7.197h2.188l1.309,5.659,1.299-5.659h2.163v7.197h-1.401v-4.868c0-.14,.002-.336,.005-.588,.004-.252,.005-.447,.005-.583l-1.362,6.04h-1.46l-1.353-6.04c0,.137,.002,.331,.005,.583,.004,.252,.005,.448,.005,.588v4.868Z"/><path class="cls-3" d="M720.757,200.954c-.035,.316-.2,.636-.493,.962-.455,.518-1.094,.776-1.914,.776-.677,0-1.274-.218-1.792-.654s-.776-1.146-.776-2.129c0-.921,.233-1.627,.701-2.119,.467-.492,1.073-.737,1.818-.737,.443,0,.842,.083,1.196,.249,.355,.166,.648,.428,.879,.786,.209,.316,.344,.682,.405,1.099,.036,.244,.051,.596,.044,1.055h-3.643c.02,.534,.188,.908,.503,1.123,.192,.133,.424,.2,.693,.2,.287,0,.52-.082,.698-.244,.098-.088,.185-.21,.259-.366h1.421Zm-1.377-1.631c-.022-.368-.134-.647-.334-.837s-.448-.286-.745-.286c-.322,0-.572,.101-.749,.303-.178,.202-.289,.475-.335,.82h2.163Z"/><path class="cls-3" d="M724.267,198.224c-.472,0-.796,.2-.972,.601-.091,.211-.137,.482-.137,.811v2.881h-1.387v-5.312h1.343v.776c.18-.273,.349-.47,.508-.591,.287-.215,.649-.322,1.089-.322,.551,0,1,.144,1.351,.432,.35,.288,.524,.766,.524,1.433v3.584h-1.426v-3.237c0-.28-.037-.495-.112-.645-.137-.273-.396-.41-.781-.41Z"/><path class="cls-3" d="M730.307,201.525v1.04l-.659,.024c-.657,.023-1.106-.091-1.348-.342-.156-.16-.234-.405-.234-.737v-3.276h-.742v-.991h.742v-1.484h1.377v1.484h.864v.991h-.864v2.812c0,.218,.028,.354,.083,.408,.056,.054,.225,.081,.508,.081,.043,0,.087,0,.135-.002,.047-.001,.094-.004,.139-.007Z"/><path class="cls-3" d="M735.639,197.868c.449,.563,.674,1.229,.674,1.997,0,.781-.225,1.449-.674,2.004s-1.131,.833-2.046,.833-1.597-.277-2.046-.833-.674-1.223-.674-2.004c0-.768,.225-1.434,.674-1.997s1.132-.845,2.046-.845,1.597,.282,2.046,.845Zm-2.051,.332c-.406,0-.72,.144-.939,.432s-.33,.699-.33,1.233,.11,.946,.33,1.235,.533,.435,.939,.435,.72-.145,.938-.435c.219-.29,.327-.702,.327-1.235s-.108-.945-.327-1.233c-.218-.288-.53-.432-.938-.432Z"/><path class="cls-3" d="M739.985,198.478c-.56,0-.936,.182-1.128,.547-.107,.205-.161,.521-.161,.947v2.544h-1.401v-5.322h1.328v.928c.215-.355,.402-.597,.562-.728,.261-.218,.6-.327,1.016-.327,.026,0,.048,0,.066,.002,.018,.001,.058,.004,.119,.007v1.426c-.088-.01-.166-.016-.234-.02s-.123-.005-.166-.005Z"/><path class="cls-5" d="M663.455,207.343l1.352,5.828,1.622-5.828h1.05l1.625,5.838,1.353-5.838h1.065l-1.885,7.173h-1.021l-1.655-5.947-1.665,5.947h-1.021l-1.875-7.173h1.055Z"/><path class="cls-5" d="M674.736,211.351c.202-.026,.337-.11,.405-.253,.039-.078,.059-.191,.059-.338,0-.301-.106-.519-.319-.654-.213-.136-.517-.204-.913-.204-.458,0-.783,.125-.975,.373-.107,.137-.177,.342-.21,.613h-.82c.017-.646,.226-1.096,.627-1.349s.867-.379,1.397-.379c.614,0,1.113,.117,1.497,.352,.38,.234,.57,.599,.57,1.094v3.013c0,.091,.019,.165,.057,.22,.037,.055,.116,.083,.236,.083,.039,0,.083-.002,.132-.007s.102-.012,.156-.022v.649c-.137,.039-.24,.063-.312,.073-.071,.01-.169,.015-.293,.015-.303,0-.522-.107-.659-.322-.071-.114-.122-.275-.151-.483-.179,.234-.436,.438-.771,.61-.335,.172-.704,.259-1.108,.259-.484,0-.881-.147-1.188-.441-.308-.294-.462-.662-.462-1.104,0-.484,.151-.86,.454-1.126s.7-.431,1.191-.493l1.401-.176Zm-1.851,2.375c.186,.146,.405,.219,.659,.219,.31,0,.609-.071,.898-.214,.488-.237,.732-.625,.732-1.165v-.707c-.107,.068-.245,.125-.414,.171s-.335,.078-.497,.098l-.531,.068c-.318,.042-.558,.109-.718,.2-.272,.153-.408,.396-.408,.731,0,.253,.093,.453,.278,.599Z"/><path class="cls-5" d="M677.495,209.287h.835v.742c.248-.306,.51-.526,.786-.659,.277-.133,.585-.2,.923-.2,.742,0,1.244,.259,1.504,.776,.144,.283,.215,.688,.215,1.216v3.354h-.894v-3.296c0-.319-.047-.576-.142-.771-.156-.326-.439-.488-.85-.488-.208,0-.379,.021-.513,.063-.24,.072-.452,.215-.635,.43-.146,.172-.241,.351-.285,.535s-.066,.447-.066,.789v2.739h-.879v-5.229Z"/><path class="cls-5" d="M683.232,207.827h.889v1.46h.835v.718h-.835v3.413c0,.182,.062,.304,.186,.366,.068,.036,.183,.054,.342,.054,.043,0,.088,0,.137-.003,.049-.002,.106-.007,.171-.016v.698c-.101,.029-.206,.05-.314,.063-.109,.013-.228,.02-.354,.02-.41,0-.688-.105-.835-.315s-.22-.482-.22-.818v-3.462h-.708v-.718h.708v-1.46Z"/><path class="cls-5" d="M685.835,207.343h.894v.996h-.894v-.996Zm0,1.968h.894v5.205h-.894v-5.205Z"/><path class="cls-5" d="M688.056,209.287h.835v.742c.248-.306,.51-.526,.786-.659,.277-.133,.585-.2,.923-.2,.742,0,1.244,.259,1.504,.776,.144,.283,.215,.688,.215,1.216v3.354h-.894v-3.296c0-.319-.047-.576-.142-.771-.156-.326-.439-.488-.85-.488-.208,0-.379,.021-.513,.063-.24,.072-.452,.215-.635,.43-.146,.172-.241,.351-.285,.535s-.066,.447-.066,.789v2.739h-.879v-5.229Z"/><path class="cls-5" d="M696.525,209.497c.166,.114,.334,.28,.506,.498v-.659h.811v4.756c0,.664-.097,1.188-.292,1.572-.363,.709-1.05,1.064-2.059,1.064-.561,0-1.033-.126-1.416-.378s-.597-.647-.643-1.184h.894c.042,.234,.126,.415,.253,.542,.197,.195,.508,.293,.933,.293,.67,0,1.108-.238,1.315-.713,.123-.28,.18-.78,.17-1.499-.175,.267-.386,.465-.632,.596-.247,.13-.572,.195-.978,.195-.564,0-1.059-.201-1.481-.603s-.635-1.067-.635-1.995c0-.875,.214-1.559,.64-2.051,.427-.492,.941-.737,1.544-.737,.409,0,.766,.101,1.07,.303Zm.107,.942c-.266-.312-.604-.469-1.015-.469-.615,0-1.037,.29-1.264,.869-.119,.309-.18,.714-.18,1.216,0,.589,.119,1.038,.357,1.345s.558,.461,.959,.461c.629,0,1.07-.285,1.326-.854,.143-.322,.214-.698,.214-1.128,0-.648-.133-1.128-.398-1.44Z"/><path class="cls-5" d="M702.134,207.827h.889v1.46h.835v.718h-.835v3.413c0,.182,.062,.304,.186,.366,.068,.036,.183,.054,.342,.054,.043,0,.088,0,.137-.003,.049-.002,.106-.007,.171-.016v.698c-.101,.029-.206,.05-.314,.063-.109,.013-.228,.02-.354,.02-.41,0-.688-.105-.835-.315s-.22-.482-.22-.818v-3.462h-.708v-.718h.708v-1.46Z"/><path class="cls-5" d="M708.525,209.809c.463,.449,.693,1.109,.693,1.98,0,.842-.203,1.539-.61,2.088-.407,.549-1.04,.824-1.896,.824-.714,0-1.281-.243-1.701-.729-.421-.486-.631-1.139-.631-1.958,0-.878,.222-1.578,.664-2.098,.443-.521,1.038-.781,1.785-.781,.669,0,1.234,.225,1.696,.673Zm-.546,3.476c.215-.44,.321-.931,.321-1.471,0-.487-.077-.884-.231-1.19-.245-.481-.666-.722-1.265-.722-.531,0-.918,.205-1.159,.615s-.362,.904-.362,1.482c0,.556,.121,1.019,.362,1.39s.624,.556,1.149,.556c.576,0,.971-.22,1.185-.661Z"/><path class="cls-5" d="M713.076,207.319h.879v2.676c.209-.264,.396-.449,.562-.557,.283-.186,.637-.278,1.06-.278,.759,0,1.273,.265,1.543,.796,.146,.29,.22,.692,.22,1.206v3.354h-.903v-3.296c0-.384-.049-.666-.146-.845-.159-.287-.459-.43-.898-.43-.364,0-.694,.125-.991,.376-.296,.25-.444,.724-.444,1.421v2.773h-.879v-7.197Z"/><path class="cls-5" d="M721.868,209.431c.346,.174,.609,.399,.791,.676,.175,.264,.291,.571,.35,.923,.052,.241,.077,.625,.077,1.152h-3.804c.017,.532,.141,.959,.373,1.28,.232,.322,.593,.482,1.081,.482,.455,0,.818-.152,1.09-.456,.151-.177,.259-.381,.322-.613h.864c-.022,.192-.099,.406-.227,.642-.129,.236-.272,.429-.431,.579-.265,.26-.593,.436-.983,.527-.21,.052-.447,.078-.713,.078-.646,0-1.195-.237-1.645-.71-.45-.474-.675-1.137-.675-1.99,0-.84,.227-1.522,.68-2.046s1.045-.786,1.776-.786c.368,0,.726,.087,1.072,.261Zm.314,2.053c-.035-.381-.117-.685-.247-.913-.238-.423-.637-.635-1.195-.635-.4,0-.736,.146-1.008,.437-.271,.292-.414,.662-.431,1.111h2.881Z"/><path class="cls-5" d="M724.223,207.343h.879v7.173h-.879v-7.173Z"/><path class="cls-5" d="M726.347,209.311h.859v.693c.177-.238,.369-.421,.578-.552,.297-.195,.646-.293,1.048-.293,.594,0,1.098,.227,1.513,.681,.414,.454,.621,1.103,.621,1.946,0,1.139-.299,1.953-.896,2.441-.38,.309-.82,.464-1.324,.464-.396,0-.727-.086-.995-.259-.156-.098-.331-.265-.524-.503v2.671h-.879v-7.29Zm3.307,4.099c.273-.343,.409-.857,.409-1.541,0-.417-.061-.775-.181-1.074-.229-.576-.647-.864-1.255-.864s-1.028,.304-1.254,.913c-.121,.326-.182,.739-.182,1.24,0,.404,.061,.747,.182,1.03,.229,.541,.646,.811,1.254,.811,.412,0,.754-.172,1.026-.515Z"/><path class="cls-5" d="M734.761,207.319h.879v2.676c.209-.264,.396-.449,.562-.557,.283-.186,.637-.278,1.06-.278,.759,0,1.273,.265,1.543,.796,.146,.29,.22,.692,.22,1.206v3.354h-.903v-3.296c0-.384-.049-.666-.146-.845-.159-.287-.459-.43-.898-.43-.364,0-.694,.125-.991,.376-.296,.25-.444,.724-.444,1.421v2.773h-.879v-7.197Z"/><path class="cls-5" d="M743.553,209.431c.346,.174,.609,.399,.791,.676,.175,.264,.291,.571,.35,.923,.052,.241,.077,.625,.077,1.152h-3.804c.017,.532,.141,.959,.373,1.28,.232,.322,.593,.482,1.081,.482,.455,0,.818-.152,1.09-.456,.151-.177,.259-.381,.322-.613h.864c-.022,.192-.099,.406-.227,.642-.129,.236-.272,.429-.431,.579-.265,.26-.593,.436-.983,.527-.21,.052-.447,.078-.713,.078-.646,0-1.195-.237-1.645-.71-.45-.474-.675-1.137-.675-1.99,0-.84,.227-1.522,.68-2.046s1.045-.786,1.776-.786c.368,0,.726,.087,1.072,.261Zm.314,2.053c-.035-.381-.117-.685-.247-.913-.238-.423-.637-.635-1.195-.635-.4,0-.736,.146-1.008,.437-.271,.292-.414,.662-.431,1.111h2.881Z"/><path class="cls-5" d="M745.908,209.287h.835v.903c.068-.176,.236-.39,.503-.642,.268-.252,.575-.378,.923-.378,.017,0,.044,.001,.083,.005s.106,.01,.2,.02v.928c-.052-.01-.1-.016-.144-.02s-.092-.005-.145-.005c-.442,0-.782,.143-1.021,.427-.237,.285-.356,.613-.356,.984v3.008h-.879v-5.229Z"/><path class="cls-5" d="M751.992,209.287h.869v.742c.209-.257,.397-.444,.566-.562,.29-.199,.619-.298,.986-.298,.417,0,.752,.103,1.006,.308,.144,.117,.273,.29,.391,.518,.195-.28,.425-.487,.688-.623s.561-.203,.889-.203c.703,0,1.182,.254,1.436,.762,.137,.273,.205,.641,.205,1.104v3.481h-.913v-3.633c0-.348-.087-.587-.261-.718-.175-.13-.387-.195-.638-.195-.345,0-.642,.116-.891,.347s-.374,.617-.374,1.157v3.042h-.894v-3.413c0-.355-.042-.614-.127-.776-.133-.244-.382-.366-.747-.366-.332,0-.634,.128-.905,.386-.272,.257-.408,.723-.408,1.396v2.773h-.879v-5.229Z"/><path class="cls-5" d="M764.111,209.809c.463,.449,.693,1.109,.693,1.98,0,.842-.203,1.539-.61,2.088-.407,.549-1.04,.824-1.896,.824-.714,0-1.281-.243-1.701-.729-.421-.486-.631-1.139-.631-1.958,0-.878,.222-1.578,.664-2.098,.443-.521,1.038-.781,1.785-.781,.669,0,1.234,.225,1.696,.673Zm-.546,3.476c.215-.44,.321-.931,.321-1.471,0-.487-.077-.884-.231-1.19-.245-.481-.666-.722-1.265-.722-.531,0-.918,.205-1.159,.615s-.362,.904-.362,1.482c0,.556,.121,1.019,.362,1.39s.624,.556,1.149,.556c.576,0,.971-.22,1.185-.661Z"/><path class="cls-5" d="M765.884,209.287h.869v.742c.209-.257,.397-.444,.566-.562,.29-.199,.619-.298,.986-.298,.417,0,.752,.103,1.006,.308,.144,.117,.273,.29,.391,.518,.195-.28,.425-.487,.688-.623s.561-.203,.889-.203c.703,0,1.182,.254,1.436,.762,.137,.273,.205,.641,.205,1.104v3.481h-.913v-3.633c0-.348-.087-.587-.261-.718-.175-.13-.387-.195-.638-.195-.345,0-.642,.116-.891,.347s-.374,.617-.374,1.157v3.042h-.894v-3.413c0-.355-.042-.614-.127-.776-.133-.244-.382-.366-.747-.366-.332,0-.634,.128-.905,.386-.272,.257-.408,.723-.408,1.396v2.773h-.879v-5.229Z"/><path class="cls-5" d="M779.899,209.497c.166,.114,.334,.28,.506,.498v-.659h.811v4.756c0,.664-.097,1.188-.292,1.572-.363,.709-1.05,1.064-2.059,1.064-.561,0-1.033-.126-1.416-.378s-.597-.647-.643-1.184h.894c.042,.234,.126,.415,.253,.542,.197,.195,.508,.293,.933,.293,.67,0,1.108-.238,1.315-.713,.123-.28,.18-.78,.17-1.499-.175,.267-.386,.465-.632,.596-.247,.13-.572,.195-.978,.195-.564,0-1.059-.201-1.481-.603s-.635-1.067-.635-1.995c0-.875,.214-1.559,.64-2.051,.427-.492,.941-.737,1.544-.737,.409,0,.766,.101,1.07,.303Zm.107,.942c-.266-.312-.604-.469-1.015-.469-.615,0-1.037,.29-1.264,.869-.119,.309-.18,.714-.18,1.216,0,.589,.119,1.038,.357,1.345s.558,.461,.959,.461c.629,0,1.07-.285,1.326-.854,.143-.322,.214-.698,.214-1.128,0-.648-.133-1.128-.398-1.44Z"/><path class="cls-5" d="M785.784,209.431c.346,.174,.609,.399,.791,.676,.175,.264,.291,.571,.35,.923,.052,.241,.077,.625,.077,1.152h-3.804c.017,.532,.141,.959,.373,1.28,.232,.322,.593,.482,1.081,.482,.455,0,.818-.152,1.09-.456,.151-.177,.259-.381,.322-.613h.864c-.022,.192-.099,.406-.227,.642-.129,.236-.272,.429-.431,.579-.265,.26-.593,.436-.983,.527-.21,.052-.447,.078-.713,.078-.646,0-1.195-.237-1.645-.71-.45-.474-.675-1.137-.675-1.99,0-.84,.227-1.522,.68-2.046s1.045-.786,1.776-.786c.368,0,.726,.087,1.072,.261Zm.314,2.053c-.035-.381-.117-.685-.247-.913-.238-.423-.637-.635-1.195-.635-.4,0-.736,.146-1.008,.437-.271,.292-.414,.662-.431,1.111h2.881Z"/><path class="cls-5" d="M788.291,207.827h.889v1.46h.835v.718h-.835v3.413c0,.182,.062,.304,.186,.366,.068,.036,.183,.054,.342,.054,.043,0,.088,0,.137-.003,.049-.002,.106-.007,.171-.016v.698c-.101,.029-.206,.05-.314,.063-.109,.013-.228,.02-.354,.02-.41,0-.688-.105-.835-.315s-.22-.482-.22-.818v-3.462h-.708v-.718h.708v-1.46Z"/><path class="cls-5" d="M793.672,207.343h.894v.996h-.894v-.996Zm0,1.968h.894v5.205h-.894v-5.205Z"/><path class="cls-5" d="M795.893,209.287h.835v.742c.248-.306,.51-.526,.786-.659,.277-.133,.585-.2,.923-.2,.742,0,1.244,.259,1.504,.776,.144,.283,.215,.688,.215,1.216v3.354h-.894v-3.296c0-.319-.047-.576-.142-.771-.156-.326-.439-.488-.85-.488-.208,0-.379,.021-.513,.063-.24,.072-.452,.215-.635,.43-.146,.172-.241,.351-.285,.535s-.066,.447-.066,.789v2.739h-.879v-5.229Z"/><path class="cls-5" d="M801.887,209.287l1.396,4.258,1.455-4.258h.962l-1.969,5.229h-.937l-1.929-5.229h1.021Z"/><path class="cls-5" d="M810.244,209.809c.463,.449,.693,1.109,.693,1.98,0,.842-.203,1.539-.611,2.088-.406,.549-1.039,.824-1.896,.824-.714,0-1.281-.243-1.701-.729-.421-.486-.631-1.139-.631-1.958,0-.878,.222-1.578,.664-2.098,.443-.521,1.038-.781,1.785-.781,.669,0,1.234,.225,1.696,.673Zm-.546,3.476c.215-.44,.321-.931,.321-1.471,0-.487-.077-.884-.231-1.19-.245-.481-.666-.722-1.265-.722-.531,0-.918,.205-1.159,.615s-.362,.904-.362,1.482c0,.556,.121,1.019,.362,1.39s.624,.556,1.149,.556c.576,0,.971-.22,1.185-.661Z"/><path class="cls-5" d="M812.041,207.343h.879v7.173h-.879v-7.173Z"/><path class="cls-5" d="M814.67,209.287l1.396,4.258,1.455-4.258h.963l-1.969,5.229h-.938l-1.928-5.229h1.02Z"/><path class="cls-5" d="M822.469,209.431c.346,.174,.609,.399,.791,.676,.175,.264,.291,.571,.349,.923,.052,.241,.078,.625,.078,1.152h-3.804c.017,.532,.141,.959,.373,1.28,.232,.322,.593,.482,1.08,.482,.456,0,.819-.152,1.091-.456,.151-.177,.259-.381,.322-.613h.864c-.022,.192-.099,.406-.227,.642-.129,.236-.272,.429-.431,.579-.265,.26-.593,.436-.983,.527-.211,.052-.448,.078-.713,.078-.646,0-1.195-.237-1.645-.71-.45-.474-.675-1.137-.675-1.99,0-.84,.227-1.522,.68-2.046,.452-.524,1.045-.786,1.775-.786,.369,0,.727,.087,1.073,.261Zm.314,2.053c-.035-.381-.118-.685-.247-.913-.239-.423-.638-.635-1.196-.635-.399,0-.735,.146-1.007,.437-.271,.292-.415,.662-.431,1.111h2.881Z"/><path class="cls-5" d="M827.673,209.448c.155,.098,.332,.269,.53,.513v-2.642h.845v7.197h-.791v-.728c-.204,.322-.446,.555-.725,.698-.279,.143-.599,.215-.958,.215-.581,0-1.083-.245-1.509-.735-.424-.49-.637-1.142-.637-1.956,0-.762,.193-1.422,.581-1.98s.941-.837,1.661-.837c.399,0,.732,.084,1.002,.254Zm-1.962,3.921c.236,.377,.615,.566,1.137,.566,.405,0,.737-.175,.999-.525,.26-.35,.391-.852,.391-1.506,0-.661-.135-1.15-.403-1.467s-.601-.476-.996-.476c-.44,0-.797,.169-1.071,.508-.273,.338-.41,.836-.41,1.494,0,.56,.118,1.029,.354,1.406Z"/><path class="cls-5" d="M833.139,207.343h.894v.996h-.894v-.996Zm0,1.968h.894v5.205h-.894v-5.205Z"/><path class="cls-5" d="M835.361,209.287h.835v.742c.247-.306,.51-.526,.786-.659s.584-.2,.923-.2c.742,0,1.243,.259,1.504,.776,.144,.283,.215,.688,.215,1.216v3.354h-.894v-3.296c0-.319-.047-.576-.142-.771-.156-.326-.439-.488-.85-.488-.208,0-.379,.021-.513,.063-.241,.072-.452,.215-.635,.43-.146,.172-.242,.351-.285,.535-.045,.184-.066,.447-.066,.789v2.739h-.879v-5.229Z"/><path class="cls-5" d="M843.877,207.827h.889v1.46h.835v.718h-.835v3.413c0,.182,.062,.304,.186,.366,.068,.036,.183,.054,.342,.054,.042,0,.088,0,.137-.003,.049-.002,.105-.007,.171-.016v.698c-.101,.029-.206,.05-.315,.063-.108,.013-.227,.02-.354,.02-.41,0-.688-.105-.835-.315s-.22-.482-.22-.818v-3.462h-.708v-.718h.708v-1.46Z"/><path class="cls-5" d="M846.479,207.319h.879v2.676c.208-.264,.396-.449,.562-.557,.283-.186,.637-.278,1.06-.278,.759,0,1.272,.265,1.543,.796,.146,.29,.22,.692,.22,1.206v3.354h-.903v-3.296c0-.384-.049-.666-.146-.845-.159-.287-.459-.43-.898-.43-.364,0-.695,.125-.991,.376s-.444,.724-.444,1.421v2.773h-.879v-7.197Z"/><path class="cls-5" d="M855.271,209.431c.346,.174,.609,.399,.791,.676,.175,.264,.291,.571,.349,.923,.052,.241,.078,.625,.078,1.152h-3.804c.017,.532,.141,.959,.373,1.28,.232,.322,.593,.482,1.08,.482,.456,0,.819-.152,1.091-.456,.151-.177,.259-.381,.322-.613h.864c-.022,.192-.099,.406-.227,.642-.129,.236-.272,.429-.431,.579-.265,.26-.593,.436-.983,.527-.211,.052-.448,.078-.713,.078-.646,0-1.195-.237-1.645-.71-.45-.474-.675-1.137-.675-1.99,0-.84,.227-1.522,.68-2.046,.452-.524,1.045-.786,1.775-.786,.369,0,.727,.087,1.073,.261Zm.314,2.053c-.035-.381-.118-.685-.247-.913-.239-.423-.638-.635-1.196-.635-.399,0-.735,.146-1.007,.437-.271,.292-.415,.662-.431,1.111h2.881Z"/><path class="cls-5" d="M666.092,221.431c.346,.174,.609,.399,.791,.676,.175,.264,.291,.571,.35,.923,.052,.241,.077,.625,.077,1.152h-3.804c.017,.532,.141,.959,.373,1.28,.232,.322,.593,.482,1.081,.482,.455,0,.818-.152,1.09-.456,.151-.177,.259-.381,.322-.613h.864c-.022,.192-.099,.406-.227,.642-.129,.236-.272,.429-.431,.579-.265,.26-.593,.436-.983,.527-.21,.052-.447,.078-.713,.078-.646,0-1.195-.237-1.645-.71-.45-.474-.675-1.137-.675-1.99,0-.84,.227-1.522,.68-2.046s1.045-.786,1.776-.786c.368,0,.726,.087,1.072,.261Zm.314,2.053c-.035-.381-.117-.685-.247-.913-.238-.423-.637-.635-1.195-.635-.4,0-.736,.146-1.008,.437-.271,.292-.414,.662-.431,1.111h2.881Z"/><path class="cls-5" d="M668.447,219.343h.879v7.173h-.879v-7.173Z"/><path class="cls-5" d="M673.875,221.431c.346,.174,.609,.399,.791,.676,.175,.264,.291,.571,.35,.923,.052,.241,.077,.625,.077,1.152h-3.804c.017,.532,.141,.959,.373,1.28,.232,.322,.593,.482,1.081,.482,.455,0,.818-.152,1.09-.456,.151-.177,.259-.381,.322-.613h.864c-.022,.192-.099,.406-.227,.642-.129,.236-.272,.429-.431,.579-.265,.26-.593,.436-.983,.527-.21,.052-.447,.078-.713,.078-.646,0-1.195-.237-1.645-.71-.45-.474-.675-1.137-.675-1.99,0-.84,.227-1.522,.68-2.046s1.045-.786,1.776-.786c.368,0,.726,.087,1.072,.261Zm.314,2.053c-.035-.381-.117-.685-.247-.913-.238-.423-.637-.635-1.195-.635-.4,0-.736,.146-1.008,.437-.271,.292-.414,.662-.431,1.111h2.881Z"/><path class="cls-5" d="M679.661,221.565c.369,.287,.592,.78,.666,1.479h-.854c-.052-.322-.171-.59-.356-.803s-.483-.32-.894-.32c-.56,0-.96,.273-1.201,.819-.156,.354-.234,.792-.234,1.312,0,.523,.111,.964,.332,1.321,.222,.358,.57,.537,1.045,.537,.365,0,.653-.111,.867-.333,.213-.222,.36-.526,.441-.912h.854c-.098,.693-.342,1.2-.732,1.521s-.89,.481-1.499,.481c-.684,0-1.229-.25-1.636-.75-.406-.5-.61-1.124-.61-1.873,0-.918,.224-1.632,.669-2.144,.446-.511,1.015-.767,1.704-.767,.59,0,1.068,.143,1.438,.43Z"/><path class="cls-5" d="M681.382,219.827h.889v1.46h.835v.718h-.835v3.413c0,.182,.062,.304,.186,.366,.068,.036,.183,.054,.342,.054,.043,0,.088,0,.137-.003,.049-.002,.106-.007,.171-.016v.698c-.101,.029-.206,.05-.314,.063-.109,.013-.228,.02-.354,.02-.41,0-.688-.105-.835-.315s-.22-.482-.22-.818v-3.462h-.708v-.718h.708v-1.46Z"/><path class="cls-5" d="M683.984,219.343h.894v.996h-.894v-.996Zm0,1.968h.894v5.205h-.894v-5.205Z"/><path class="cls-5" d="M689.995,221.809c.463,.449,.693,1.109,.693,1.98,0,.842-.203,1.539-.61,2.088-.407,.549-1.04,.824-1.896,.824-.714,0-1.281-.243-1.701-.729-.421-.486-.631-1.139-.631-1.958,0-.878,.222-1.578,.664-2.098,.443-.521,1.038-.781,1.785-.781,.669,0,1.234,.225,1.696,.673Zm-.546,3.476c.215-.44,.321-.931,.321-1.471,0-.487-.077-.884-.231-1.19-.245-.481-.666-.722-1.265-.722-.531,0-.918,.205-1.159,.615s-.362,.904-.362,1.482c0,.556,.121,1.019,.362,1.39s.624,.556,1.149,.556c.576,0,.971-.22,1.185-.661Z"/><path class="cls-5" d="M691.767,221.287h.835v.742c.248-.306,.51-.526,.786-.659,.277-.133,.585-.2,.923-.2,.742,0,1.244,.259,1.504,.776,.144,.283,.215,.688,.215,1.216v3.354h-.894v-3.296c0-.319-.047-.576-.142-.771-.156-.326-.439-.488-.85-.488-.208,0-.379,.021-.513,.063-.24,.072-.452,.215-.635,.43-.146,.172-.241,.351-.285,.535s-.066,.447-.066,.789v2.739h-.879v-5.229Z"/><path class="cls-5" d="M700.034,221.311h.859v.693c.177-.238,.369-.421,.578-.552,.297-.195,.646-.293,1.048-.293,.594,0,1.098,.227,1.513,.681,.414,.454,.621,1.103,.621,1.946,0,1.139-.299,1.953-.896,2.441-.38,.309-.82,.464-1.324,.464-.396,0-.727-.086-.995-.259-.156-.098-.331-.265-.524-.503v2.671h-.879v-7.29Zm3.307,4.099c.273-.343,.409-.857,.409-1.541,0-.417-.061-.775-.181-1.074-.229-.576-.647-.864-1.255-.864s-1.028,.304-1.254,.913c-.121,.326-.182,.739-.182,1.24,0,.404,.061,.747,.182,1.03,.229,.541,.646,.811,1.254,.811,.412,0,.754-.172,1.026-.515Z"/><path class="cls-5" d="M705.693,221.287h.835v.903c.068-.176,.236-.39,.503-.642,.268-.252,.575-.378,.923-.378,.017,0,.044,.001,.083,.005s.106,.01,.2,.02v.928c-.052-.01-.1-.016-.144-.02s-.092-.005-.145-.005c-.442,0-.782,.143-1.021,.427-.237,.285-.356,.613-.356,.984v3.008h-.879v-5.229Z"/><path class="cls-5" d="M712.788,221.809c.463,.449,.693,1.109,.693,1.98,0,.842-.203,1.539-.61,2.088-.407,.549-1.04,.824-1.896,.824-.714,0-1.281-.243-1.701-.729-.421-.486-.631-1.139-.631-1.958,0-.878,.222-1.578,.664-2.098,.443-.521,1.038-.781,1.785-.781,.669,0,1.234,.225,1.696,.673Zm-.546,3.476c.215-.44,.321-.931,.321-1.471,0-.487-.077-.884-.231-1.19-.245-.481-.666-.722-1.265-.722-.531,0-.918,.205-1.159,.615s-.362,.904-.362,1.482c0,.556,.121,1.019,.362,1.39s.624,.556,1.149,.556c.576,0,.971-.22,1.185-.661Z"/><path class="cls-5" d="M718.015,221.565c.369,.287,.592,.78,.666,1.479h-.854c-.052-.322-.171-.59-.356-.803s-.483-.32-.894-.32c-.56,0-.96,.273-1.201,.819-.156,.354-.234,.792-.234,1.312,0,.523,.111,.964,.332,1.321,.222,.358,.57,.537,1.045,.537,.365,0,.653-.111,.867-.333,.213-.222,.36-.526,.441-.912h.854c-.098,.693-.342,1.2-.732,1.521s-.89,.481-1.499,.481c-.684,0-1.229-.25-1.636-.75-.406-.5-.61-1.124-.61-1.873,0-.918,.224-1.632,.669-2.144,.446-.511,1.015-.767,1.704-.767,.59,0,1.068,.143,1.438,.43Z"/><path class="cls-5" d="M722.791,221.431c.346,.174,.609,.399,.791,.676,.175,.264,.291,.571,.35,.923,.052,.241,.077,.625,.077,1.152h-3.804c.017,.532,.141,.959,.373,1.28,.232,.322,.593,.482,1.081,.482,.455,0,.818-.152,1.09-.456,.151-.177,.259-.381,.322-.613h.864c-.022,.192-.099,.406-.227,.642-.129,.236-.272,.429-.431,.579-.265,.26-.593,.436-.983,.527-.21,.052-.447,.078-.713,.078-.646,0-1.195-.237-1.645-.71-.45-.474-.675-1.137-.675-1.99,0-.84,.227-1.522,.68-2.046s1.045-.786,1.776-.786c.368,0,.726,.087,1.072,.261Zm.314,2.053c-.035-.381-.117-.685-.247-.913-.238-.423-.637-.635-1.195-.635-.4,0-.736,.146-1.008,.437-.271,.292-.414,.662-.431,1.111h2.881Z"/><path class="cls-5" d="M725.644,224.876c.026,.293,.102,.518,.225,.674,.226,.283,.618,.425,1.176,.425,.332,0,.625-.071,.877-.212,.253-.142,.379-.36,.379-.657,0-.225-.101-.396-.303-.513-.129-.072-.384-.155-.764-.249l-.71-.176c-.453-.111-.787-.234-1.002-.371-.384-.238-.576-.566-.576-.986,0-.495,.181-.895,.542-1.201s.847-.459,1.457-.459c.799,0,1.374,.231,1.728,.693,.221,.293,.328,.609,.321,.947h-.83c-.017-.197-.088-.377-.215-.539-.206-.23-.564-.345-1.074-.345-.34,0-.598,.063-.772,.19s-.263,.293-.263,.501c0,.227,.115,.409,.345,.545,.133,.081,.329,.152,.587,.214l.593,.142c.644,.153,1.074,.301,1.293,.444,.342,.225,.513,.578,.513,1.06,0,.465-.179,.868-.536,1.206s-.902,.508-1.634,.508c-.788,0-1.346-.177-1.674-.53-.327-.353-.503-.79-.526-1.311h.845Z"/><path class="cls-5" d="M730.644,224.876c.026,.293,.102,.518,.225,.674,.226,.283,.618,.425,1.176,.425,.332,0,.625-.071,.877-.212,.253-.142,.379-.36,.379-.657,0-.225-.101-.396-.303-.513-.129-.072-.384-.155-.764-.249l-.71-.176c-.453-.111-.787-.234-1.002-.371-.384-.238-.576-.566-.576-.986,0-.495,.181-.895,.542-1.201s.847-.459,1.457-.459c.799,0,1.374,.231,1.728,.693,.221,.293,.328,.609,.321,.947h-.83c-.017-.197-.088-.377-.215-.539-.206-.23-.564-.345-1.074-.345-.34,0-.598,.063-.772,.19s-.263,.293-.263,.501c0,.227,.115,.409,.345,.545,.133,.081,.329,.152,.587,.214l.593,.142c.644,.153,1.074,.301,1.293,.444,.342,.225,.513,.578,.513,1.06,0,.465-.179,.868-.536,1.206s-.902,.508-1.634,.508c-.788,0-1.346-.177-1.674-.53-.327-.353-.503-.79-.526-1.311h.845Z"/><path class="cls-5" d="M740.703,223.351c.202-.026,.337-.11,.405-.253,.039-.078,.059-.191,.059-.338,0-.301-.106-.519-.319-.654-.213-.136-.517-.204-.913-.204-.458,0-.783,.125-.975,.373-.107,.137-.177,.342-.21,.613h-.82c.017-.646,.226-1.096,.627-1.349s.867-.379,1.397-.379c.614,0,1.113,.117,1.497,.352,.38,.234,.57,.599,.57,1.094v3.013c0,.091,.019,.165,.057,.22,.037,.055,.116,.083,.236,.083,.039,0,.083-.002,.132-.007s.102-.012,.156-.022v.649c-.137,.039-.24,.063-.312,.073-.071,.01-.169,.015-.293,.015-.303,0-.522-.107-.659-.322-.071-.114-.122-.275-.151-.483-.179,.234-.436,.438-.771,.61-.335,.172-.704,.259-1.108,.259-.484,0-.881-.147-1.188-.441-.308-.294-.462-.662-.462-1.104,0-.484,.151-.86,.454-1.126s.7-.431,1.191-.493l1.401-.176Zm-1.851,2.375c.186,.146,.405,.219,.659,.219,.31,0,.609-.071,.898-.214,.488-.237,.732-.625,.732-1.165v-.707c-.107,.068-.245,.125-.414,.171s-.335,.078-.497,.098l-.531,.068c-.318,.042-.558,.109-.718,.2-.272,.153-.408,.396-.408,.731,0,.253,.093,.453,.278,.599Z"/><path class="cls-5" d="M743.462,221.287h.835v.742c.248-.306,.51-.526,.786-.659,.277-.133,.585-.2,.923-.2,.742,0,1.244,.259,1.504,.776,.144,.283,.215,.688,.215,1.216v3.354h-.894v-3.296c0-.319-.047-.576-.142-.771-.156-.326-.439-.488-.85-.488-.208,0-.379,.021-.513,.063-.24,.072-.452,.215-.635,.43-.146,.172-.241,.351-.285,.535s-.066,.447-.066,.789v2.739h-.879v-5.229Z"/><path class="cls-5" d="M751.896,221.448c.156,.098,.333,.269,.53,.513v-2.642h.845v7.197h-.791v-.728c-.204,.322-.445,.555-.725,.698s-.599,.215-.958,.215c-.581,0-1.083-.245-1.508-.735s-.638-1.142-.638-1.956c0-.762,.194-1.422,.581-1.98,.388-.558,.941-.837,1.661-.837,.399,0,.733,.084,1.002,.254Zm-1.962,3.921c.236,.377,.616,.566,1.138,.566,.404,0,.737-.175,.998-.525s.391-.852,.391-1.506c0-.661-.134-1.15-.403-1.467-.269-.317-.601-.476-.995-.476-.441,0-.798,.169-1.071,.508-.274,.338-.411,.836-.411,1.494,0,.56,.118,1.029,.354,1.406Z"/><path class="cls-5" d="M760.166,223.351c.202-.026,.337-.11,.405-.253,.039-.078,.059-.191,.059-.338,0-.301-.106-.519-.319-.654-.213-.136-.517-.204-.913-.204-.458,0-.783,.125-.975,.373-.107,.137-.177,.342-.21,.613h-.82c.017-.646,.226-1.096,.627-1.349s.867-.379,1.397-.379c.614,0,1.113,.117,1.497,.352,.38,.234,.57,.599,.57,1.094v3.013c0,.091,.019,.165,.057,.22,.037,.055,.116,.083,.236,.083,.039,0,.083-.002,.132-.007s.102-.012,.156-.022v.649c-.137,.039-.24,.063-.312,.073-.071,.01-.169,.015-.293,.015-.303,0-.522-.107-.659-.322-.071-.114-.122-.275-.151-.483-.179,.234-.436,.438-.771,.61-.335,.172-.704,.259-1.108,.259-.484,0-.881-.147-1.188-.441-.308-.294-.462-.662-.462-1.104,0-.484,.151-.86,.454-1.126s.7-.431,1.191-.493l1.401-.176Zm-1.851,2.375c.186,.146,.405,.219,.659,.219,.31,0,.609-.071,.898-.214,.488-.237,.732-.625,.732-1.165v-.707c-.107,.068-.245,.125-.414,.171s-.335,.078-.497,.098l-.531,.068c-.318,.042-.558,.109-.718,.2-.272,.153-.408,.396-.408,.731,0,.253,.093,.453,.278,.599Z"/><path class="cls-5" d="M763.357,221.287l1.396,4.258,1.455-4.258h.962l-1.969,5.229h-.937l-1.929-5.229h1.021Z"/><path class="cls-5" d="M771.714,221.809c.463,.449,.693,1.109,.693,1.98,0,.842-.203,1.539-.61,2.088-.407,.549-1.04,.824-1.896,.824-.714,0-1.281-.243-1.701-.729-.421-.486-.631-1.139-.631-1.958,0-.878,.222-1.578,.664-2.098,.443-.521,1.038-.781,1.785-.781,.669,0,1.234,.225,1.696,.673Zm-.546,3.476c.215-.44,.321-.931,.321-1.471,0-.487-.077-.884-.231-1.19-.245-.481-.666-.722-1.265-.722-.531,0-.918,.205-1.159,.615s-.362,.904-.362,1.482c0,.556,.121,1.019,.362,1.39s.624,.556,1.149,.556c.576,0,.971-.22,1.185-.661Z"/><path class="cls-5" d="M773.486,219.343h.894v.996h-.894v-.996Zm0,1.968h.894v5.205h-.894v-5.205Z"/><path class="cls-5" d="M778.581,221.448c.156,.098,.333,.269,.53,.513v-2.642h.845v7.197h-.791v-.728c-.204,.322-.445,.555-.725,.698s-.599,.215-.958,.215c-.581,0-1.083-.245-1.508-.735s-.638-1.142-.638-1.956c0-.762,.194-1.422,.581-1.98,.388-.558,.941-.837,1.661-.837,.399,0,.733,.084,1.002,.254Zm-1.962,3.921c.236,.377,.616,.566,1.138,.566,.404,0,.737-.175,.998-.525s.391-.852,.391-1.506c0-.661-.134-1.15-.403-1.467-.269-.317-.601-.476-.995-.476-.441,0-.798,.169-1.071,.508-.274,.338-.411,.836-.411,1.494,0,.56,.118,1.029,.354,1.406Z"/><path class="cls-5" d="M784.458,219.69c.205-.299,.601-.449,1.187-.449,.056,0,.112,.001,.171,.005s.126,.008,.2,.015v.801c-.092-.006-.158-.011-.2-.012-.041-.001-.079-.002-.115-.002-.271,0-.432,.069-.484,.208s-.079,.491-.079,1.057h.879v.693h-.879v4.512h-.869v-4.512h-.728v-.693h.728v-.82c.014-.365,.077-.631,.19-.801Z"/><path class="cls-5" d="M789.629,223.351c.202-.026,.337-.11,.405-.253,.039-.078,.059-.191,.059-.338,0-.301-.106-.519-.319-.654-.213-.136-.517-.204-.913-.204-.458,0-.783,.125-.975,.373-.107,.137-.177,.342-.21,.613h-.82c.017-.646,.226-1.096,.627-1.349s.867-.379,1.397-.379c.614,0,1.113,.117,1.497,.352,.38,.234,.57,.599,.57,1.094v3.013c0,.091,.019,.165,.057,.22,.037,.055,.116,.083,.236,.083,.039,0,.083-.002,.132-.007s.102-.012,.156-.022v.649c-.137,.039-.24,.063-.312,.073-.071,.01-.169,.015-.293,.015-.303,0-.522-.107-.659-.322-.071-.114-.122-.275-.151-.483-.179,.234-.436,.438-.771,.61-.335,.172-.704,.259-1.108,.259-.484,0-.881-.147-1.188-.441-.308-.294-.462-.662-.462-1.104,0-.484,.151-.86,.454-1.126s.7-.431,1.191-.493l1.401-.176Zm-1.851,2.375c.186,.146,.405,.219,.659,.219,.31,0,.609-.071,.898-.214,.488-.237,.732-.625,.732-1.165v-.707c-.107,.068-.245,.125-.414,.171s-.335,.078-.497,.098l-.531,.068c-.318,.042-.558,.109-.718,.2-.272,.153-.408,.396-.408,.731,0,.253,.093,.453,.278,.599Z"/><path class="cls-5" d="M792.368,219.343h.845v4.165l2.254-2.221h1.123l-2.01,1.944,2.122,3.285h-1.122l-1.646-2.661-.722,.698v1.963h-.845v-7.173Z"/><path class="cls-5" d="M800.618,221.431c.346,.174,.609,.399,.791,.676,.175,.264,.291,.571,.35,.923,.052,.241,.077,.625,.077,1.152h-3.804c.017,.532,.141,.959,.373,1.28,.232,.322,.593,.482,1.081,.482,.455,0,.818-.152,1.09-.456,.151-.177,.259-.381,.322-.613h.864c-.022,.192-.099,.406-.227,.642-.129,.236-.272,.429-.431,.579-.265,.26-.593,.436-.983,.527-.21,.052-.447,.078-.713,.078-.646,0-1.195-.237-1.645-.71-.45-.474-.675-1.137-.675-1.99,0-.84,.227-1.522,.68-2.046s1.045-.786,1.776-.786c.368,0,.726,.087,1.072,.261Zm.314,2.053c-.035-.381-.117-.685-.247-.913-.238-.423-.637-.635-1.195-.635-.4,0-.736,.146-1.008,.437-.271,.292-.414,.662-.431,1.111h2.881Z"/><path class="cls-5" d="M805.727,221.287h.835v.742c.248-.306,.51-.526,.786-.659,.277-.133,.585-.2,.923-.2,.742,0,1.244,.259,1.504,.776,.144,.283,.215,.688,.215,1.216v3.354h-.894v-3.296c0-.319-.047-.576-.142-.771-.156-.326-.439-.488-.85-.488-.208,0-.379,.021-.513,.063-.24,.072-.452,.215-.635,.43-.146,.172-.241,.351-.285,.535s-.066,.447-.066,.789v2.739h-.879v-5.229Z"/><path class="cls-5" d="M814.519,221.431c.346,.174,.609,.399,.791,.676,.175,.264,.291,.571,.349,.923,.052,.241,.078,.625,.078,1.152h-3.804c.017,.532,.141,.959,.373,1.28,.232,.322,.593,.482,1.08,.482,.456,0,.819-.152,1.091-.456,.151-.177,.259-.381,.322-.613h.864c-.022,.192-.099,.406-.227,.642-.129,.236-.272,.429-.431,.579-.265,.26-.593,.436-.983,.527-.211,.052-.448,.078-.713,.078-.646,0-1.195-.237-1.645-.71-.45-.474-.675-1.137-.675-1.99,0-.84,.227-1.522,.68-2.046,.452-.524,1.045-.786,1.775-.786,.369,0,.727,.087,1.073,.261Zm.314,2.053c-.035-.381-.118-.685-.247-.913-.239-.423-.638-.635-1.196-.635-.399,0-.735,.146-1.007,.437-.271,.292-.415,.662-.431,1.111h2.881Z"/><path class="cls-5" d="M817.259,221.287l1.006,4.121,1.02-4.121h.986l1.025,4.097,1.07-4.097h.879l-1.52,5.229h-.912l-1.064-4.048-1.031,4.048h-.912l-1.51-5.229h.963Z"/><path class="cls-5" d="M824.594,224.876c.026,.293,.102,.518,.225,.674,.226,.283,.617,.425,1.176,.425,.332,0,.625-.071,.877-.212,.253-.142,.379-.36,.379-.657,0-.225-.101-.396-.303-.513-.129-.072-.384-.155-.765-.249l-.709-.176c-.453-.111-.787-.234-1.003-.371-.384-.238-.575-.566-.575-.986,0-.495,.181-.895,.542-1.201s.847-.459,1.457-.459c.799,0,1.374,.231,1.727,.693,.222,.293,.329,.609,.322,.947h-.83c-.017-.197-.088-.377-.215-.539-.207-.23-.565-.345-1.075-.345-.34,0-.597,.063-.771,.19s-.263,.293-.263,.501c0,.227,.115,.409,.345,.545,.133,.081,.328,.152,.587,.214l.592,.142c.644,.153,1.075,.301,1.294,.444,.342,.225,.513,.578,.513,1.06,0,.465-.179,.868-.536,1.206s-.902,.508-1.634,.508c-.788,0-1.346-.177-1.674-.53s-.503-.79-.526-1.311h.845Z"/><path class="cls-5" d="M829.258,227.542c.225-.039,.383-.198,.474-.476,.049-.147,.073-.29,.073-.427,0-.023,0-.043-.002-.061-.002-.018-.006-.039-.013-.062h-.532v-1.064h1.045v.986c0,.387-.078,.728-.234,1.021s-.427,.474-.811,.542v-.459Z"/><path class="cls-5" d="M836.284,219.343h1.099l2.603,7.173h-1.064l-.728-2.148h-2.837l-.776,2.148h-.996l2.7-7.173Zm1.597,4.233l-1.089-3.169-1.157,3.169h2.246Z"/><path class="cls-5" d="M840.752,221.287h.835v.742c.247-.306,.51-.526,.786-.659s.584-.2,.923-.2c.742,0,1.243,.259,1.504,.776,.144,.283,.215,.688,.215,1.216v3.354h-.894v-3.296c0-.319-.047-.576-.142-.771-.156-.326-.439-.488-.85-.488-.208,0-.379,.021-.513,.063-.241,.072-.452,.215-.635,.43-.146,.172-.242,.351-.285,.535-.045,.184-.066,.447-.066,.789v2.739h-.879v-5.229Z"/><path class="cls-5" d="M846.313,221.287h.835v.742c.247-.306,.51-.526,.786-.659s.584-.2,.923-.2c.742,0,1.243,.259,1.504,.776,.144,.283,.215,.688,.215,1.216v3.354h-.894v-3.296c0-.319-.047-.576-.142-.771-.156-.326-.439-.488-.85-.488-.208,0-.379,.021-.513,.063-.241,.072-.452,.215-.635,.43-.146,.172-.242,.351-.285,.535-.045,.184-.066,.447-.066,.789v2.739h-.879v-5.229Z"/><path class="cls-5" d="M855.105,221.431c.346,.174,.609,.399,.791,.676,.175,.264,.291,.571,.349,.923,.052,.241,.078,.625,.078,1.152h-3.804c.017,.532,.141,.959,.373,1.28,.232,.322,.593,.482,1.08,.482,.456,0,.819-.152,1.091-.456,.151-.177,.259-.381,.322-.613h.864c-.022,.192-.099,.406-.227,.642-.129,.236-.272,.429-.431,.579-.265,.26-.593,.436-.983,.527-.211,.052-.448,.078-.713,.078-.646,0-1.195-.237-1.645-.71-.45-.474-.675-1.137-.675-1.99,0-.84,.227-1.522,.68-2.046,.452-.524,1.045-.786,1.775-.786,.369,0,.727,.087,1.073,.261Zm.314,2.053c-.035-.381-.118-.685-.247-.913-.239-.423-.638-.635-1.196-.635-.399,0-.735,.146-1.007,.437-.271,.292-.415,.662-.431,1.111h2.881Z"/><path class="cls-5" d="M857.622,221.428c.181-.029,.317-.13,.411-.303s.141-.371,.141-.596c0-.023,0-.043-.003-.061,0-.018-.005-.038-.012-.061h-.537v-1.064h1.045v.981c0,.417-.086,.771-.259,1.062s-.435,.458-.786,.5v-.459Z"/><path class="cls-5" d="M860.005,224.876c.026,.293,.102,.518,.225,.674,.226,.283,.617,.425,1.176,.425,.332,0,.625-.071,.877-.212,.253-.142,.379-.36,.379-.657,0-.225-.101-.396-.303-.513-.129-.072-.384-.155-.765-.249l-.709-.176c-.453-.111-.787-.234-1.003-.371-.384-.238-.575-.566-.575-.986,0-.495,.181-.895,.542-1.201s.847-.459,1.457-.459c.799,0,1.374,.231,1.727,.693,.222,.293,.329,.609,.322,.947h-.83c-.017-.197-.088-.377-.215-.539-.207-.23-.565-.345-1.075-.345-.34,0-.597,.063-.771,.19s-.263,.293-.263,.501c0,.227,.115,.409,.345,.545,.133,.081,.328,.152,.587,.214l.592,.142c.644,.153,1.075,.301,1.294,.444,.342,.225,.513,.578,.513,1.06,0,.465-.179,.868-.536,1.206s-.902,.508-1.634,.508c-.788,0-1.346-.177-1.674-.53s-.503-.79-.526-1.311h.845Z"/><path class="cls-5" d="M665.734,233.448c.156,.098,.333,.269,.53,.513v-2.642h.845v7.197h-.791v-.728c-.204,.322-.445,.555-.725,.698s-.599,.215-.958,.215c-.581,0-1.083-.245-1.508-.735s-.638-1.142-.638-1.956c0-.762,.194-1.422,.581-1.98,.388-.558,.941-.837,1.661-.837,.399,0,.733,.084,1.002,.254Zm-1.962,3.921c.236,.377,.616,.566,1.138,.566,.404,0,.737-.175,.998-.525s.391-.852,.391-1.506c0-.661-.134-1.15-.403-1.467-.269-.317-.601-.476-.995-.476-.441,0-.798,.169-1.071,.508-.274,.338-.411,.836-.411,1.494,0,.56,.118,1.029,.354,1.406Z"/><path class="cls-5" d="M671.225,235.351c.202-.026,.337-.11,.405-.253,.039-.078,.059-.191,.059-.338,0-.301-.106-.519-.319-.654-.213-.136-.517-.204-.913-.204-.458,0-.783,.125-.975,.373-.107,.137-.177,.342-.21,.613h-.82c.017-.646,.226-1.096,.627-1.349s.867-.379,1.397-.379c.614,0,1.113,.117,1.497,.352,.38,.234,.57,.599,.57,1.094v3.013c0,.091,.019,.165,.057,.22,.037,.055,.116,.083,.236,.083,.039,0,.083-.002,.132-.007s.102-.012,.156-.022v.649c-.137,.039-.24,.063-.312,.073-.071,.01-.169,.015-.293,.015-.303,0-.522-.107-.659-.322-.071-.114-.122-.275-.151-.483-.179,.234-.436,.438-.771,.61-.335,.172-.704,.259-1.108,.259-.484,0-.881-.147-1.188-.441-.308-.294-.462-.662-.462-1.104,0-.484,.151-.86,.454-1.126s.7-.431,1.191-.493l1.401-.176Zm-1.851,2.375c.186,.146,.405,.219,.659,.219,.31,0,.609-.071,.898-.214,.488-.237,.732-.625,.732-1.165v-.707c-.107,.068-.245,.125-.414,.171s-.335,.078-.497,.098l-.531,.068c-.318,.042-.558,.109-.718,.2-.272,.153-.408,.396-.408,.731,0,.253,.093,.453,.278,.599Z"/><path class="cls-5" d="M674.863,233.287v3.472c0,.267,.041,.485,.124,.654,.152,.312,.436,.469,.852,.469,.596,0,1.001-.273,1.217-.82,.117-.293,.176-.695,.176-1.206v-2.568h.879v5.229h-.83l.01-.771c-.111,.199-.251,.366-.417,.503-.329,.273-.728,.41-1.197,.41-.731,0-1.23-.249-1.495-.747-.144-.267-.216-.624-.216-1.069v-3.555h.898Z"/><path class="cls-5" d="M682.453,233.497c.166,.114,.334,.28,.506,.498v-.659h.811v4.756c0,.664-.097,1.188-.292,1.572-.363,.709-1.05,1.064-2.059,1.064-.561,0-1.033-.126-1.416-.378s-.597-.647-.643-1.184h.894c.042,.234,.126,.415,.253,.542,.197,.195,.508,.293,.933,.293,.67,0,1.108-.238,1.315-.713,.123-.28,.18-.78,.17-1.499-.175,.267-.386,.465-.632,.596-.247,.13-.572,.195-.978,.195-.564,0-1.059-.201-1.481-.603s-.635-1.067-.635-1.995c0-.875,.214-1.559,.64-2.051,.427-.492,.941-.737,1.544-.737,.409,0,.766,.101,1.07,.303Zm.107,.942c-.266-.312-.604-.469-1.015-.469-.615,0-1.037,.29-1.264,.869-.119,.309-.18,.714-.18,1.216,0,.589,.119,1.038,.357,1.345s.558,.461,.959,.461c.629,0,1.07-.285,1.326-.854,.143-.322,.214-.698,.214-1.128,0-.648-.133-1.128-.398-1.44Z"/><path class="cls-5" d="M685.107,231.319h.879v2.676c.209-.264,.396-.449,.562-.557,.283-.186,.637-.278,1.06-.278,.759,0,1.273,.265,1.543,.796,.146,.29,.22,.692,.22,1.206v3.354h-.903v-3.296c0-.384-.049-.666-.146-.845-.159-.287-.459-.43-.898-.43-.364,0-.694,.125-.991,.376-.296,.25-.444,.724-.444,1.421v2.773h-.879v-7.197Z"/><path class="cls-5" d="M690.844,231.827h.889v1.46h.835v.718h-.835v3.413c0,.182,.062,.304,.186,.366,.068,.036,.183,.054,.342,.054,.043,0,.088,0,.137-.003,.049-.002,.106-.007,.171-.016v.698c-.101,.029-.206,.05-.314,.063-.109,.013-.228,.02-.354,.02-.41,0-.688-.105-.835-.315s-.22-.482-.22-.818v-3.462h-.708v-.718h.708v-1.46Z"/><path class="cls-5" d="M696.678,233.431c.346,.174,.609,.399,.791,.676,.175,.264,.291,.571,.35,.923,.052,.241,.077,.625,.077,1.152h-3.804c.017,.532,.141,.959,.373,1.28,.232,.322,.593,.482,1.081,.482,.455,0,.818-.152,1.09-.456,.151-.177,.259-.381,.322-.613h.864c-.022,.192-.099,.406-.227,.642-.129,.236-.272,.429-.431,.579-.265,.26-.593,.436-.983,.527-.21,.052-.447,.078-.713,.078-.646,0-1.195-.237-1.645-.71-.45-.474-.675-1.137-.675-1.99,0-.84,.227-1.522,.68-2.046s1.045-.786,1.776-.786c.368,0,.726,.087,1.072,.261Zm.314,2.053c-.035-.381-.117-.685-.247-.913-.238-.423-.637-.635-1.195-.635-.4,0-.736,.146-1.008,.437-.271,.292-.414,.662-.431,1.111h2.881Z"/><path class="cls-5" d="M699.033,233.287h.835v.903c.068-.176,.236-.39,.503-.642,.268-.252,.575-.378,.923-.378,.017,0,.044,.001,.083,.005s.106,.01,.2,.02v.928c-.052-.01-.1-.016-.144-.02s-.092-.005-.145-.005c-.442,0-.782,.143-1.021,.427-.237,.285-.356,.613-.356,.984v3.008h-.879v-5.229Z"/><path class="cls-5" d="M707.99,233.448c.156,.098,.333,.269,.53,.513v-2.642h.845v7.197h-.791v-.728c-.204,.322-.445,.555-.725,.698s-.599,.215-.958,.215c-.581,0-1.083-.245-1.508-.735s-.638-1.142-.638-1.956c0-.762,.194-1.422,.581-1.98,.388-.558,.941-.837,1.661-.837,.399,0,.733,.084,1.002,.254Zm-1.962,3.921c.236,.377,.616,.566,1.138,.566,.404,0,.737-.175,.998-.525s.391-.852,.391-1.506c0-.661-.134-1.15-.403-1.467-.269-.317-.601-.476-.995-.476-.441,0-.798,.169-1.071,.508-.274,.338-.411,.836-.411,1.494,0,.56,.118,1.029,.354,1.406Z"/><path class="cls-5" d="M714.468,233.809c.463,.449,.693,1.109,.693,1.98,0,.842-.203,1.539-.61,2.088-.407,.549-1.04,.824-1.896,.824-.714,0-1.281-.243-1.701-.729-.421-.486-.631-1.139-.631-1.958,0-.878,.222-1.578,.664-2.098,.443-.521,1.038-.781,1.785-.781,.669,0,1.234,.225,1.696,.673Zm-.546,3.476c.215-.44,.321-.931,.321-1.471,0-.487-.077-.884-.231-1.19-.245-.481-.666-.722-1.265-.722-.531,0-.918,.205-1.159,.615s-.362,.904-.362,1.482c0,.556,.121,1.019,.362,1.39s.624,.556,1.149,.556c.576,0,.971-.22,1.185-.661Z"/><path class="cls-5" d="M716.648,233.287l1.006,4.121,1.021-4.121h.986l1.025,4.097,1.069-4.097h.879l-1.519,5.229h-.913l-1.064-4.048-1.03,4.048h-.913l-1.509-5.229h.962Z"/><path class="cls-5" d="M723.462,233.287h.835v.742c.248-.306,.51-.526,.786-.659,.277-.133,.585-.2,.923-.2,.742,0,1.244,.259,1.504,.776,.144,.283,.215,.688,.215,1.216v3.354h-.894v-3.296c0-.319-.047-.576-.142-.771-.156-.326-.439-.488-.85-.488-.208,0-.379,.021-.513,.063-.24,.072-.452,.215-.635,.43-.146,.172-.241,.351-.285,.535s-.066,.447-.066,.789v2.739h-.879v-5.229Z"/><path class="cls-5" d="M729.048,231.343h.879v7.173h-.879v-7.173Z"/><path class="cls-5" d="M735.034,233.809c.463,.449,.693,1.109,.693,1.98,0,.842-.203,1.539-.61,2.088-.407,.549-1.04,.824-1.896,.824-.714,0-1.281-.243-1.701-.729-.421-.486-.631-1.139-.631-1.958,0-.878,.222-1.578,.664-2.098,.443-.521,1.038-.781,1.785-.781,.669,0,1.234,.225,1.696,.673Zm-.546,3.476c.215-.44,.321-.931,.321-1.471,0-.487-.077-.884-.231-1.19-.245-.481-.666-.722-1.265-.722-.531,0-.918,.205-1.159,.615s-.362,.904-.362,1.482c0,.556,.121,1.019,.362,1.39s.624,.556,1.149,.556c.576,0,.971-.22,1.185-.661Z"/><path class="cls-5" d="M739.609,235.351c.202-.026,.337-.11,.405-.253,.039-.078,.059-.191,.059-.338,0-.301-.106-.519-.319-.654-.213-.136-.517-.204-.913-.204-.458,0-.783,.125-.975,.373-.107,.137-.177,.342-.21,.613h-.82c.017-.646,.226-1.096,.627-1.349s.867-.379,1.397-.379c.614,0,1.113,.117,1.497,.352,.38,.234,.57,.599,.57,1.094v3.013c0,.091,.019,.165,.057,.22,.037,.055,.116,.083,.236,.083,.039,0,.083-.002,.132-.007s.102-.012,.156-.022v.649c-.137,.039-.24,.063-.312,.073-.071,.01-.169,.015-.293,.015-.303,0-.522-.107-.659-.322-.071-.114-.122-.275-.151-.483-.179,.234-.436,.438-.771,.61-.335,.172-.704,.259-1.108,.259-.484,0-.881-.147-1.188-.441-.308-.294-.462-.662-.462-1.104,0-.484,.151-.86,.454-1.126s.7-.431,1.191-.493l1.401-.176Zm-1.851,2.375c.186,.146,.405,.219,.659,.219,.31,0,.609-.071,.898-.214,.488-.237,.732-.625,.732-1.165v-.707c-.107,.068-.245,.125-.414,.171s-.335,.078-.497,.098l-.531,.068c-.318,.042-.558,.109-.718,.2-.272,.153-.408,.396-.408,.731,0,.253,.093,.453,.278,.599Z"/><path class="cls-5" d="M745.241,233.448c.156,.098,.333,.269,.53,.513v-2.642h.845v7.197h-.791v-.728c-.204,.322-.445,.555-.725,.698s-.599,.215-.958,.215c-.581,0-1.083-.245-1.508-.735s-.638-1.142-.638-1.956c0-.762,.194-1.422,.581-1.98,.388-.558,.941-.837,1.661-.837,.399,0,.733,.084,1.002,.254Zm-1.962,3.921c.236,.377,.616,.566,1.138,.566,.404,0,.737-.175,.998-.525s.391-.852,.391-1.506c0-.661-.134-1.15-.403-1.467-.269-.317-.601-.476-.995-.476-.441,0-.798,.169-1.071,.508-.274,.338-.411,.836-.411,1.494,0,.56,.118,1.029,.354,1.406Z"/><path class="cls-5" d="M748.452,236.876c.026,.293,.102,.518,.225,.674,.226,.283,.618,.425,1.176,.425,.332,0,.625-.071,.877-.212,.253-.142,.379-.36,.379-.657,0-.225-.101-.396-.303-.513-.129-.072-.384-.155-.764-.249l-.71-.176c-.453-.111-.787-.234-1.002-.371-.384-.238-.576-.566-.576-.986,0-.495,.181-.895,.542-1.201s.847-.459,1.457-.459c.799,0,1.374,.231,1.728,.693,.221,.293,.328,.609,.321,.947h-.83c-.017-.197-.088-.377-.215-.539-.206-.23-.564-.345-1.074-.345-.34,0-.598,.063-.772,.19s-.263,.293-.263,.501c0,.227,.115,.409,.345,.545,.133,.081,.329,.152,.587,.214l.593,.142c.644,.153,1.074,.301,1.293,.444,.342,.225,.513,.578,.513,1.06,0,.465-.179,.868-.536,1.206s-.902,.508-1.634,.508c-.788,0-1.346-.177-1.674-.53-.327-.353-.503-.79-.526-1.311h.845Z"/><path class="cls-5" d="M756.394,231.343l2.061,6.108,2.036-6.108h1.089l-2.617,7.173h-1.03l-2.612-7.173h1.074Z"/><path class="cls-5" d="M765.62,233.809c.463,.449,.693,1.109,.693,1.98,0,.842-.203,1.539-.61,2.088-.407,.549-1.04,.824-1.896,.824-.714,0-1.281-.243-1.701-.729-.421-.486-.631-1.139-.631-1.958,0-.878,.222-1.578,.664-2.098,.443-.521,1.038-.781,1.785-.781,.669,0,1.234,.225,1.696,.673Zm-.546,3.476c.215-.44,.321-.931,.321-1.471,0-.487-.077-.884-.231-1.19-.245-.481-.666-.722-1.265-.722-.531,0-.918,.205-1.159,.615s-.362,.904-.362,1.482c0,.556,.121,1.019,.362,1.39s.624,.556,1.149,.556c.576,0,.971-.22,1.185-.661Z"/><path class="cls-5" d="M767.568,231.827h.889v1.46h.835v.718h-.835v3.413c0,.182,.062,.304,.186,.366,.068,.036,.183,.054,.342,.054,.043,0,.088,0,.137-.003,.049-.002,.106-.007,.171-.016v.698c-.101,.029-.206,.05-.314,.063-.109,.013-.228,.02-.354,.02-.41,0-.688-.105-.835-.315s-.22-.482-.22-.818v-3.462h-.708v-.718h.708v-1.46Z"/><path class="cls-5" d="M773.401,233.431c.346,.174,.609,.399,.791,.676,.175,.264,.291,.571,.35,.923,.052,.241,.077,.625,.077,1.152h-3.804c.017,.532,.141,.959,.373,1.28,.232,.322,.593,.482,1.081,.482,.455,0,.818-.152,1.09-.456,.151-.177,.259-.381,.322-.613h.864c-.022,.192-.099,.406-.227,.642-.129,.236-.272,.429-.431,.579-.265,.26-.593,.436-.983,.527-.21,.052-.447,.078-.713,.078-.646,0-1.195-.237-1.645-.71-.45-.474-.675-1.137-.675-1.99,0-.84,.227-1.522,.68-2.046s1.045-.786,1.776-.786c.368,0,.726,.087,1.072,.261Zm.314,2.053c-.035-.381-.117-.685-.247-.913-.238-.423-.637-.635-1.195-.635-.4,0-.736,.146-1.008,.437-.271,.292-.414,.662-.431,1.111h2.881Z"/><path class="cls-5" d="M775.757,233.287h.835v.903c.068-.176,.236-.39,.503-.642,.268-.252,.575-.378,.923-.378,.017,0,.044,.001,.083,.005s.106,.01,.2,.02v.928c-.052-.01-.1-.016-.144-.02s-.092-.005-.145-.005c-.442,0-.782,.143-1.021,.427-.237,.285-.356,.613-.356,.984v3.008h-.879v-5.229Z"/><path class="cls-5" d="M785.63,233.809c.463,.449,.693,1.109,.693,1.98,0,.842-.203,1.539-.61,2.088-.407,.549-1.04,.824-1.896,.824-.714,0-1.281-.243-1.701-.729-.421-.486-.631-1.139-.631-1.958,0-.878,.222-1.578,.664-2.098,.443-.521,1.038-.781,1.785-.781,.669,0,1.234,.225,1.696,.673Zm-.546,3.476c.215-.44,.321-.931,.321-1.471,0-.487-.077-.884-.231-1.19-.245-.481-.666-.722-1.265-.722-.531,0-.918,.205-1.159,.615s-.362,.904-.362,1.482c0,.556,.121,1.019,.362,1.39s.624,.556,1.149,.556c.576,0,.971-.22,1.185-.661Z"/><path class="cls-5" d="M787.402,233.287h.835v.742c.248-.306,.51-.526,.786-.659,.277-.133,.585-.2,.923-.2,.742,0,1.244,.259,1.504,.776,.144,.283,.215,.688,.215,1.216v3.354h-.894v-3.296c0-.319-.047-.576-.142-.771-.156-.326-.439-.488-.85-.488-.208,0-.379,.021-.513,.063-.24,.072-.452,.215-.635,.43-.146,.172-.241,.351-.285,.535s-.066,.447-.066,.789v2.739h-.879v-5.229Z"/><path class="cls-5" d="M795.742,231.319h.879v2.676c.209-.264,.396-.449,.562-.557,.283-.186,.637-.278,1.06-.278,.759,0,1.273,.265,1.543,.796,.146,.29,.22,.692,.22,1.206v3.354h-.903v-3.296c0-.384-.049-.666-.146-.845-.159-.287-.459-.43-.898-.43-.364,0-.694,.125-.991,.376-.296,.25-.444,.724-.444,1.421v2.773h-.879v-7.197Z"/><path class="cls-5" d="M804.534,233.431c.346,.174,.609,.399,.791,.676,.175,.264,.291,.571,.35,.923,.052,.241,.077,.625,.077,1.152h-3.804c.017,.532,.141,.959,.373,1.28,.232,.322,.593,.482,1.081,.482,.455,0,.818-.152,1.09-.456,.151-.177,.259-.381,.322-.613h.864c-.022,.192-.099,.406-.227,.642-.129,.236-.272,.429-.431,.579-.265,.26-.593,.436-.983,.527-.21,.052-.447,.078-.713,.078-.646,0-1.195-.237-1.645-.71-.45-.474-.675-1.137-.675-1.99,0-.84,.227-1.522,.68-2.046s1.045-.786,1.776-.786c.368,0,.726,.087,1.072,.261Zm.314,2.053c-.035-.381-.117-.685-.247-.913-.238-.423-.637-.635-1.195-.635-.4,0-.736,.146-1.008,.437-.271,.292-.414,.662-.431,1.111h2.881Z"/><path class="cls-5" d="M806.889,233.287h.835v.903c.068-.176,.236-.39,.503-.642,.268-.252,.575-.378,.923-.378,.017,0,.044,.001,.083,.005s.106,.01,.2,.02v.928c-.052-.01-.1-.016-.144-.02s-.092-.005-.145-.005c-.442,0-.782,.143-1.021,.427-.237,.285-.356,.613-.356,.984v3.008h-.879v-5.229Z"/><path class="cls-5" d="M812.973,233.287h.869v.742c.208-.257,.397-.444,.566-.562,.29-.199,.618-.298,.986-.298,.417,0,.752,.103,1.006,.308,.144,.117,.273,.29,.391,.518,.195-.28,.425-.487,.688-.623s.56-.203,.889-.203c.703,0,1.182,.254,1.436,.762,.137,.273,.205,.641,.205,1.104v3.481h-.913v-3.633c0-.348-.087-.587-.262-.718-.174-.13-.386-.195-.637-.195-.345,0-.643,.116-.891,.347-.25,.231-.374,.617-.374,1.157v3.042h-.894v-3.413c0-.355-.042-.614-.127-.776-.134-.244-.383-.366-.747-.366-.332,0-.634,.128-.905,.386-.272,.257-.408,.723-.408,1.396v2.773h-.879v-5.229Z"/><path class="cls-5" d="M825.093,233.809c.462,.449,.693,1.109,.693,1.98,0,.842-.204,1.539-.611,2.088-.407,.549-1.039,.824-1.896,.824-.714,0-1.281-.243-1.702-.729-.42-.486-.63-1.139-.63-1.958,0-.878,.222-1.578,.664-2.098,.443-.521,1.038-.781,1.784-.781,.669,0,1.235,.225,1.697,.673Zm-.546,3.476c.214-.44,.321-.931,.321-1.471,0-.487-.077-.884-.231-1.19-.245-.481-.667-.722-1.266-.722-.531,0-.917,.205-1.158,.615s-.362,.904-.362,1.482c0,.556,.121,1.019,.362,1.39s.624,.556,1.149,.556c.575,0,.971-.22,1.185-.661Z"/><path class="cls-5" d="M826.865,233.287h.869v.742c.208-.257,.397-.444,.566-.562,.29-.199,.618-.298,.986-.298,.417,0,.752,.103,1.006,.308,.144,.117,.273,.29,.391,.518,.195-.28,.425-.487,.688-.623s.56-.203,.889-.203c.703,0,1.182,.254,1.436,.762,.137,.273,.205,.641,.205,1.104v3.481h-.913v-3.633c0-.348-.087-.587-.262-.718-.174-.13-.386-.195-.637-.195-.345,0-.643,.116-.891,.347-.25,.231-.374,.617-.374,1.157v3.042h-.894v-3.413c0-.355-.042-.614-.127-.776-.134-.244-.383-.366-.747-.366-.332,0-.634,.128-.905,.386-.272,.257-.408,.723-.408,1.396v2.773h-.879v-5.229Z"/><path class="cls-5" d="M835.381,233.428c.181-.029,.317-.13,.411-.303s.141-.371,.141-.596c0-.023,0-.043-.003-.061,0-.018-.005-.038-.012-.061h-.537v-1.064h1.045v.981c0,.417-.086,.771-.259,1.062s-.435,.458-.786,.5v-.459Z"/><path class="cls-5" d="M837.763,236.876c.026,.293,.102,.518,.225,.674,.226,.283,.617,.425,1.176,.425,.332,0,.625-.071,.877-.212,.253-.142,.379-.36,.379-.657,0-.225-.101-.396-.303-.513-.129-.072-.384-.155-.765-.249l-.709-.176c-.453-.111-.787-.234-1.003-.371-.384-.238-.575-.566-.575-.986,0-.495,.181-.895,.542-1.201s.847-.459,1.457-.459c.799,0,1.374,.231,1.727,.693,.222,.293,.329,.609,.322,.947h-.83c-.017-.197-.088-.377-.215-.539-.207-.23-.565-.345-1.075-.345-.34,0-.597,.063-.771,.19s-.263,.293-.263,.501c0,.227,.115,.409,.345,.545,.133,.081,.328,.152,.587,.214l.592,.142c.644,.153,1.075,.301,1.294,.444,.342,.225,.513,.578,.513,1.06,0,.465-.179,.868-.536,1.206s-.902,.508-1.634,.508c-.788,0-1.346-.177-1.674-.53s-.503-.79-.526-1.311h.845Z"/><path class="cls-5" d="M662.788,245.311h.859v.693c.177-.238,.369-.421,.578-.552,.297-.195,.646-.293,1.048-.293,.594,0,1.098,.227,1.513,.681,.414,.454,.621,1.103,.621,1.946,0,1.139-.299,1.953-.896,2.441-.38,.309-.82,.464-1.324,.464-.396,0-.727-.086-.995-.259-.156-.098-.331-.265-.524-.503v2.671h-.879v-7.29Zm3.307,4.099c.273-.343,.409-.857,.409-1.541,0-.417-.061-.775-.181-1.074-.229-.576-.647-.864-1.255-.864s-1.028,.304-1.254,.913c-.121,.326-.182,.739-.182,1.24,0,.404,.061,.747,.182,1.03,.229,.541,.646,.811,1.254,.811,.412,0,.754-.172,1.026-.515Z"/><path class="cls-5" d="M668.423,243.319h.879v2.676c.209-.264,.396-.449,.562-.557,.283-.186,.637-.278,1.06-.278,.759,0,1.273,.265,1.543,.796,.146,.29,.22,.692,.22,1.206v3.354h-.903v-3.296c0-.384-.049-.666-.146-.845-.159-.287-.459-.43-.898-.43-.364,0-.694,.125-.991,.376-.296,.25-.444,.724-.444,1.421v2.773h-.879v-7.197Z"/><path class="cls-5" d="M677.773,245.809c.463,.449,.693,1.109,.693,1.98,0,.842-.203,1.539-.61,2.088-.407,.549-1.04,.824-1.896,.824-.714,0-1.281-.243-1.701-.729-.421-.486-.631-1.139-.631-1.958,0-.878,.222-1.578,.664-2.098,.443-.521,1.038-.781,1.785-.781,.669,0,1.234,.225,1.696,.673Zm-.546,3.476c.215-.44,.321-.931,.321-1.471,0-.487-.077-.884-.231-1.19-.245-.481-.666-.722-1.265-.722-.531,0-.918,.205-1.159,.615s-.362,.904-.362,1.482c0,.556,.121,1.019,.362,1.39s.624,.556,1.149,.556c.576,0,.971-.22,1.185-.661Z"/><path class="cls-5" d="M679.546,245.287h.835v.742c.248-.306,.51-.526,.786-.659,.277-.133,.585-.2,.923-.2,.742,0,1.244,.259,1.504,.776,.144,.283,.215,.688,.215,1.216v3.354h-.894v-3.296c0-.319-.047-.576-.142-.771-.156-.326-.439-.488-.85-.488-.208,0-.379,.021-.513,.063-.24,.072-.452,.215-.635,.43-.146,.172-.241,.351-.285,.535s-.066,.447-.066,.789v2.739h-.879v-5.229Z"/><path class="cls-5" d="M688.338,245.431c.346,.174,.609,.399,.791,.676,.175,.264,.291,.571,.35,.923,.052,.241,.077,.625,.077,1.152h-3.804c.017,.532,.141,.959,.373,1.28,.232,.322,.593,.482,1.081,.482,.455,0,.818-.152,1.09-.456,.151-.177,.259-.381,.322-.613h.864c-.022,.192-.099,.406-.227,.642-.129,.236-.272,.429-.431,.579-.265,.26-.593,.436-.983,.527-.21,.052-.447,.078-.713,.078-.646,0-1.195-.237-1.645-.71-.45-.474-.675-1.137-.675-1.99,0-.84,.227-1.522,.68-2.046s1.045-.786,1.776-.786c.368,0,.726,.087,1.072,.261Zm.314,2.053c-.035-.381-.117-.685-.247-.913-.238-.423-.637-.635-1.195-.635-.4,0-.736,.146-1.008,.437-.271,.292-.414,.662-.431,1.111h2.881Z"/><path class="cls-5" d="M690.879,249.452h1.021v1.064h-1.021v-1.064Z"/></g><text class="cls-20" transform="translate(662.217 368.157)"><tspan class="cls-14"><tspan class="cls-19" x="0" y="0">T</tspan><tspan x="5.562" y="0">ransition to a Special </tspan><tspan class="cls-2" x="108.921" y="0">W</tspan><tspan x="118.184" y="0">orld</tspan></tspan><tspan class="cls-7"><tspan x="0" y="12">She selects the five political issues most </tspan></tspan><tspan class="cls-7"><tspan x="0" y="24">important to her and answers more detailed </tspan></tspan><tspan class="cls-7"><tspan x="0" y="36">belief questions in the Political Leanings </tspan></tspan><tspan class="cls-7"><tspan x="0" y="48">Inventor</tspan><tspan class="cls-18" x="36.133" y="48">y</tspan><tspan x="40.396" y="48">. Her choices will match her with </tspan></tspan><tspan class="cls-7"><tspan x="0" y="60">similar minded candidates.</tspan></tspan></text><text class="cls-20" transform="translate(679.091 272.791)"><tspan class="cls-4"><tspan x="0" y="0">Decision to</tspan><tspan class="cls-1" x="53.896" y="0"> </tspan><tspan x="56.309" y="0">Act</tspan></tspan><tspan class="cls-7"><tspan x="0" y="12">Anne opens up </tspan><tspan class="cls-19" x="70.059" y="12">V</tspan><tspan x="76.182" y="12">oter for the first time before </tspan></tspan><tspan class="cls-7"><tspan x="0" y="24">bed. She remembers her daughter saying it </tspan></tspan><tspan class="cls-7"><tspan x="0" y="36">helps plan out your election ballot e</tspan><tspan class="cls-2" x="156.772" y="36">f</tspan><tspan x="159.375" y="36">ficientl</tspan><tspan class="cls-18" x="187.72" y="36">y</tspan><tspan x="191.982" y="36">, </tspan></tspan><tspan class="cls-7"><tspan x="0" y="48">providing all the info you need in one app. She </tspan></tspan><tspan class="cls-7"><tspan x="0" y="60">begins signing up, entering her zip code so </tspan></tspan><tspan class="cls-7"><tspan class="cls-19" x="0" y="72">V</tspan><tspan x="6.123" y="72">oter can find which races she will be voting in.</tspan></tspan></text><text class="cls-20" transform="translate(32.258 438.22)"><tspan class="cls-14"><tspan class="cls-19" x="0" y="0">T</tspan><tspan x="5.562" y="0">ransformation by Reward</tspan></tspan><tspan class="cls-7"><tspan class="cls-19" x="0" y="12">V</tspan><tspan x="6.123" y="12">oter provides</tspan><tspan class="cls-19" x="63.931" y="12"> </tspan><tspan x="66.162" y="12">Anne with the reminders and </tspan></tspan><tspan class="cls-7"><tspan x="0" y="24">guidance she needs to register to vote. She even </tspan></tspan><tspan class="cls-7"><tspan x="0" y="36">has the opportunity to brush up on her history of </tspan></tspan><tspan class="cls-7"><tspan x="0" y="48">the electoral college with a swipe-through </tspan></tspan><tspan class="cls-7"><tspan x="0" y="60">education module!</tspan></tspan></text><text class="cls-20" transform="translate(.442 283.627)"><tspan class="cls-4"><tspan x="0" y="0">Return Home</tspan></tspan><tspan class="cls-7"><tspan x="0" y="12">Anne finalizes her ballot and shares it with </tspan></tspan><tspan class="cls-7"><tspan x="0" y="24">her daughter through text.</tspan><tspan class="cls-2" x="115.078" y="24"> </tspan><tspan x="117.681" y="24">They debate </tspan></tspan><tspan class="cls-7"><tspan x="0" y="36">and listen to each othe</tspan><tspan class="cls-17" x="100.63" y="36">r</tspan><tspan class="cls-2" x="104.331" y="36"></tspan><tspan x="106.377" y="36">s opinions, citing </tspan></tspan><tspan class="cls-7"><tspan x="0" y="48">the research they did via </tspan><tspan class="cls-19" x="111.729" y="48">V</tspan><tspan x="117.852" y="48">ote</tspan><tspan class="cls-19" x="131.753" y="48">r</tspan><tspan x="134.536" y="48">.</tspan></tspan></text><text class="cls-20" transform="translate(15.487 187.367)"><tspan class="cls-4"><tspan x="0" y="0">Fulfillment of Deficiency by Elixir</tspan></tspan><tspan class="cls-7"><tspan x="0" y="12">Anne continues to read/watch what </tspan></tspan><tspan class="cls-7"><tspan x="0" y="24">candidates are saying about the election </tspan></tspan><tspan class="cls-7"><tspan x="0" y="36">topics most important to he</tspan><tspan class="cls-19" x="120.054" y="36">r</tspan><tspan x="122.837" y="36">, especially </tspan></tspan><tspan class="cls-7"><tspan x="0" y="48">healthcare.</tspan><tspan class="cls-2" x="49.478" y="48"> </tspan><tspan x="52.08" y="48">These issue-specific election </tspan></tspan><tspan class="cls-7"><tspan x="0" y="60">update stories are conveniently accessible </tspan></tspan><tspan class="cls-7"><tspan x="0" y="72">via her </tspan><tspan class="cls-19" x="32.793" y="72">V</tspan><tspan x="38.916" y="72">oter homepage.</tspan></tspan></text><text class="cls-20" transform="translate(59.813 115.032)"><tspan class="cls-4"><tspan x="0" y="0">Resolution of the Problematic Situation</tspan></tspan><tspan class="cls-7"><tspan x="0" y="12">With a ballot prepared of researched </tspan></tspan><tspan class="cls-7"><tspan x="0" y="24">candidate decisions, election day goes </tspan></tspan><tspan class="cls-7"><tspan x="0" y="36">smoothl</tspan><tspan class="cls-18" x="35.015" y="36">y</tspan><tspan x="39.277" y="36">.</tspan><tspan class="cls-19" x="42.056" y="36"> </tspan><tspan x="44.287" y="36">Anne has done her civic duty and </tspan></tspan><tspan class="cls-7"><tspan x="0" y="48">her voice has been heard!</tspan></tspan></text><text class="cls-20" transform="translate(614.211 453.19)"><tspan class="cls-14"><tspan x="0" y="0">Barriers and Challenges</tspan></tspan><tspan class="cls-7"><tspan x="0" y="12">After creating her profile, she scans through all </tspan></tspan><tspan class="cls-7"><tspan x="0" y="24">the federal, state, and local races she will be </tspan></tspan><tspan class="cls-7"><tspan x="0" y="36">voting for and takes note of the candidates.</tspan></tspan></text><text class="cls-20" transform="translate(538.608 513.792)"><tspan class="cls-14"><tspan x="0" y="0">Desire for</tspan><tspan class="cls-1" x="46.685" y="0"> </tspan><tspan x="49.097" y="0">Access</tspan></tspan><tspan class="cls-7"><tspan x="0" y="12">Anne asks her daughter to help her figure out </tspan></tspan><tspan class="cls-7"><tspan x="0" y="24">how to compare the candidates in each race. </tspan></tspan><tspan class="cls-7"><tspan x="0" y="36">She starts by looking at the top priorities of </tspan></tspan><tspan class="cls-7"><tspan x="0" y="48">each candidate. She swipes left on the side bar </tspan></tspan><tspan class="cls-7"><tspan x="0" y="60">for full screen mode.</tspan></tspan></text><text class="cls-20" transform="translate(346.479 554.713)"><tspan class="cls-14"><tspan class="cls-2" x="0" y="0">V</tspan><tspan x="6.494" y="0">ictory Over the Ordeal</tspan></tspan><tspan class="cls-7"><tspan x="0" y="12">She notices that each candidate has a </tspan></tspan><tspan class="cls-7"><tspan x="0" y="24">di</tspan><tspan class="cls-2" x="7.783" y="24">f</tspan><tspan x="10.386" y="24">ferent percent match score for each </tspan></tspan><tspan class="cls-7"><tspan x="0" y="36">issue she scrolls through.</tspan><tspan class="cls-2" x="112.832" y="36"> </tspan><tspan x="115.435" y="36">This helps </tspan></tspan><tspan class="cls-7"><tspan x="0" y="48">determine at a glance which candidates </tspan></tspan><tspan class="cls-7"><tspan x="0" y="60">agree the most with her on each issue.</tspan></tspan></text><g><path class="cls-15" d="M430.504,118.258v183.179H247.342c0-101.16,82.002-183.179,183.162-183.179Z"/><path class="cls-16" d="M430.512,484.467v-183.179h183.162c0,101.16-82.002,183.179-183.162,183.179Z"/><path class="cls-15" d="M613.683,301.428h-183.179V118.266c101.16,0,183.179,82.002,183.179,183.162Z"/><path class="cls-16" d="M247.333,301.296h183.179v183.162c-101.16,0-183.179-82.002-183.179-183.162Z"/></g><line class="cls-9" x1="615.664" y1="301.362" x2="245.566" y2="301.362"/><text class="cls-10" transform="translate(311.061 208.396)"><tspan x="0" y="0">Community </tspan><tspan x="2.334" y="16.8">Resolution</tspan></text><text class="cls-10" transform="translate(471.034 218.678)"><tspan x="0" y="0">Deficiency</tspan></text><text class="cls-11" transform="translate(472.6 403.401)"><tspan x="0" y="0">Challenge</tspan></text><text class="cls-11" transform="translate(319.993 394.861)"><tspan x="0" y="0">Personal </tspan><tspan x="5.072" y="16.8">Growth</tspan></text><polygon class="cls-6" points="356.422 81.209 360.971 93.95 372.343 82.193 356.422 81.209"/><line class="cls-9" x1="430.504" y1="118.266" x2="430.504" y2="484.459"/><text class="cls-10" transform="translate(321.546 293.623)"><tspan x="0" y="0">Ordinary </tspan><tspan class="cls-2" x="62.241" y="0">W</tspan><tspan x="75.209" y="0" xml:space="preserve">orld    Everyday</tspan></text><text class="cls-11" transform="translate(330.655 319.864)"><tspan x="0" y="0">Special </tspan><tspan class="cls-2" x="52.917" y="0">W</tspan><tspan x="65.885" y="0" xml:space="preserve">orld    Service</tspan></text><g><circle class="cls-8" cx="431.147" cy="77.737" r="10.117"/><text class="cls-12" transform="translate(427.81 81.875)"><tspan x="0" y="0">1</tspan></text></g><g><circle class="cls-8" cx="278.265" cy="136.739" r="10.117"/><text class="cls-12" transform="translate(271.591 140.693)"><tspan x="0" y="0">13</tspan></text></g><g><circle class="cls-8" cx="524.85" cy="98.979" r="10.117"/><text class="cls-12" transform="translate(521.513 103.045)"><tspan x="0" y="0">2</tspan></text></g><g><circle class="cls-8" cx="595.094" cy="149.861" r="10.117"/><text class="cls-12" transform="translate(591.758 154.047)"><tspan x="0" y="0">3</tspan></text></g><g><circle class="cls-8" cx="638.833" cy="219.444" r="10.117"/><text class="cls-12" transform="translate(635.113 223.398)"><tspan x="0" y="0">4</tspan></text></g><g><circle class="cls-8" cx="655.091" cy="301.518" r="10.117"/><text class="cls-12" transform="translate(651.88 305.69)"><tspan x="0" y="0">5</tspan></text></g><g><circle class="cls-8" cx="593.124" cy="461.208" r="10.117"/><text class="cls-13" transform="translate(590.235 465.653)"><tspan x="0" y="0">7</tspan></text></g><g><circle class="cls-8" cx="640.342" cy="381.378" r="10.117"/><text class="cls-13" transform="translate(637.006 385.454)"><tspan x="0" y="0">6</tspan></text></g><g><circle class="cls-8" cx="517.727" cy="507.607" r="10.117"/><text class="cls-13" transform="translate(514.397 511.616)"><tspan x="0" y="0">8</tspan></text></g><g><circle class="cls-8" cx="431.147" cy="525.876" r="10.117"/><text class="cls-13" transform="translate(427.81 530.247)"><tspan x="0" y="0">9</tspan></text></g><g><circle class="cls-8" cx="271.238" cy="459.261" r="10.117"/><text class="cls-13" transform="translate(264.301 463.551)"><tspan x="0" y="0">10</tspan></text></g><g><circle class="cls-8" cx="207.078" cy="301.362" r="10.117"/><text class="cls-12" transform="translate(200.732 305.556)"><tspan class="cls-19" x="0" y="0">1</tspan><tspan x="6.018" y="0">1</tspan></text></g><g><circle class="cls-8" cx="223.799" cy="216.088" r="10.117"/><text class="cls-12" transform="translate(216.659 220.028)"><tspan x="0" y="0">12</tspan></text></g></svg>