<?xml version="1.0" encoding="utf-8"?>
<!-- Generator: Adobe Illustrator 27.0.1, SVG Export Plug-In . SVG Version: 6.00 Build 0)  -->
<svg version="1.1" id="Layer_1" xmlns="http://www.w3.org/2000/svg" xmlns:xlink="http://www.w3.org/1999/xlink" x="0px" y="0px"
	 viewBox="0 0 688.1 204.6" style="enable-background:new 0 0 688.1 204.6;" xml:space="preserve">
<style type="text/css">
	.st0{fill:#6363D3;}
	.st1{fill:#D35353;}
</style>
<g>
	<g>
		<path class="st0" d="M68.7,156.1h0.7L95.7,25.5h36.9L92,202.2H46.2L5.6,25.5h38.1L68.7,156.1L68.7,156.1z"/>
		<path class="st0" d="M428.4,54.7h-38.6v147.4h-35.6V54.7h-38.6V25.5h112.8C428.4,25.5,428.4,54.7,428.4,54.7z"/>
		<path class="st0" d="M542.4,54.7h-63.1v41.6h59.4v29.2h-59.4V173h65.6v29.2H443.7V25.5h98.7V54.7z"/>
		<path class="st0" d="M628.5,25.5c14.8,0,26.4,3.8,34.6,11.3c8.2,7.5,12.4,18.9,12.4,34.3c0,11.9-2.4,21.6-7.2,29.1
			s-12.2,12.3-22.3,14.5v0.5c8.9,1.3,15.4,4.2,19.5,8.7s6.7,11.6,7.7,21.5c0.3,3.3,0.6,6.9,0.7,10.8c0.2,3.9,0.3,8.2,0.5,13
			c0.3,9.4,0.8,16.6,1.5,21.5c1,4.9,3.1,8.3,6.4,10.1v1.5h-38.6c-1.8-2.5-3-5.3-3.5-8.5c-0.5-3.2-0.8-6.6-1-10l-1-33.9
			c-0.3-6.9-2.1-12.4-5.2-16.3c-3.1-4-8.4-5.9-15.8-5.9h-19v74.7h-35.6V25.5H628.5L628.5,25.5z M613.2,102.7c8.6,0,15.2-2,19.8-6.1
			c4.6-4,6.9-10.8,6.9-20.4c0-16.3-8.2-24.5-24.7-24.5h-16.8v51H613.2L613.2,102.7z"/>
	</g>
	<path class="st0" d="M224.4,25.3c-48.7,0-88.2,39.5-88.2,88.2s39.5,88.2,88.2,88.2s88.2-39.5,88.2-88.2S273.1,25.3,224.4,25.3z
		 M224.4,169.1c-30.5,0-55.2-24.7-55.2-55.2s24.7-55.2,55.2-55.2s55.2,24.7,55.2,55.2S254.9,169.1,224.4,169.1L224.4,169.1z"/>
	<path class="st1" d="M146.1,101.9c-3.7,2.3-6,5.2-2,6.8c10.5,4.3,22.2,10.2,33.9,18.4c30.4,21.3,46.5,47.7,54.7,65.4
		c1.5,3.2,6.6,2.7,7.2-0.8c3.6-18.5,9.9-39,23.9-80.5C278,68.9,305.8,23.7,323,8.3c1.2-1.1,4-3.1,3-5.1c-0.3-0.6-1.3-1.6-1.6-1.7
		C321.9,0,318.1,2,316.1,3c-8.6,4.4-24.7,18.3-27,20.3c-23.3,21.1-35.5,43.1-43.1,59c-5.9,12.2-13,29.8-17.5,52
		c-0.6,2.8-4.2,3.9-6.4,1.9c-8.5-8-31.3-24.3-50.9-31.8C158.8,99.6,153.5,97.2,146.1,101.9L146.1,101.9z"/>
</g>
</svg>
