<?xml version="1.0" encoding="UTF-8"?><svg id="Layer_1" xmlns="http://www.w3.org/2000/svg" viewBox="0 0 688.087 207.82"><defs><style>.cls-1{fill:#d35353;}.cls-2{fill:#6363d3;}</style></defs><g><path class="cls-2" d="M68.719,158.495h.742L95.682,27.883h36.858l-40.569,176.621H46.209L5.64,27.883H43.734l24.985,130.611Z"/><path class="cls-2" d="M428.404,57.073h-38.59V204.504h-35.621V57.073h-38.589V27.883h112.8v29.19Z"/><path class="cls-2" d="M542.439,57.073h-63.079v41.557h59.369v29.19h-59.369v47.495h65.553v29.19h-101.174V27.883h98.7v29.19Z"/><path class="cls-2" d="M628.521,27.883c14.842,0,26.384,3.754,34.632,11.256,8.244,7.506,12.368,18.923,12.368,34.26,0,11.874-2.392,21.564-7.174,29.066-4.785,7.506-12.206,12.33-22.262,14.471v.495c8.905,1.322,15.418,4.205,19.541,8.657,4.12,4.452,6.679,11.626,7.669,21.522,.329,3.3,.575,6.887,.742,10.76,.162,3.876,.329,8.205,.494,12.986,.329,9.4,.824,16.574,1.485,21.522,.99,4.947,3.131,8.329,6.432,10.142v1.484h-38.59c-1.816-2.473-2.969-5.318-3.463-8.535-.494-3.215-.828-6.554-.99-10.018l-.99-33.889c-.332-6.927-2.064-12.369-5.194-16.326-3.134-3.958-8.411-5.937-15.832-5.937h-19.047v74.705h-35.621V27.883h65.8Zm-15.337,77.179c8.573,0,15.171-2.017,19.789-6.06,4.616-4.039,6.927-10.841,6.927-20.408,0-16.326-8.249-24.489-24.737-24.489h-16.822v50.958h14.842Z"/></g><path class="cls-2" d="M224.428,27.656c-48.705,0-88.188,39.483-88.188,88.188s39.483,88.189,88.188,88.189,88.189-39.483,88.189-88.189S273.134,27.656,224.428,27.656Zm0,143.776c-30.507,0-55.237-24.731-55.237-55.237s24.73-55.237,55.237-55.237,55.238,24.731,55.238,55.237-24.731,55.237-55.238,55.237Z"/><path class="cls-1" d="M146.119,104.255c-3.651,2.337-6.041,5.203-1.983,6.846,10.522,4.259,22.171,10.154,33.906,18.367,30.362,21.251,46.472,47.651,54.711,65.397,1.507,3.247,6.579,2.678,7.249-.807,3.554-18.499,9.931-39.018,23.872-80.485,14.209-42.265,42.003-87.457,59.244-102.91,1.218-1.092,3.989-3.129,2.965-5.112-.32-.62-1.34-1.58-1.564-1.708-2.529-1.455-6.344,.453-8.285,1.453-8.619,4.438-24.704,18.342-27.014,20.348-23.384,21.146-35.608,43.128-43.257,58.956-5.882,12.174-13,29.764-17.507,52.041-.567,2.8-4.245,3.877-6.403,1.869-8.549-7.954-31.292-24.295-50.918-31.82-12.346-4.733-17.674-7.136-25.015-2.436Z"/></svg>