<?xml version="1.0" encoding="UTF-8"?><svg id="Layer_1" xmlns="http://www.w3.org/2000/svg" viewBox="0 0 687.598 268.18"><defs><style>.cls-1{fill:#d35353;}.cls-2{fill:#6363d3;}</style></defs><path class="cls-2" d="M184.626,137.787c1.232-11.249,3.942-20.901,8.132-28.951,4.188-8.046,10.224-14.329,18.11-18.849,7.884-4.515,18.48-6.776,31.785-6.776s23.9,2.26,31.784,6.776c7.885,4.521,13.922,10.803,18.111,18.849,4.188,8.05,6.898,17.703,8.13,28.951,1.232,11.254,1.848,23.531,1.848,36.837,0,13.471-.616,25.79-1.848,36.959-1.232,11.172-3.942,20.781-8.13,28.828-4.19,8.05-10.226,14.21-18.111,18.48-7.884,4.269-18.48,6.406-31.784,6.406s-23.901-2.137-31.785-6.406c-7.885-4.269-13.922-10.429-18.11-18.48-4.19-8.046-6.9-17.656-8.132-28.828-1.232-11.169-1.848-23.489-1.848-36.959,0-13.306,.616-25.583,1.848-36.837Zm34.495,67.02c.573,8.297,1.724,15.03,3.45,20.204,1.724,5.174,4.188,8.955,7.392,11.334,3.202,2.383,7.43,3.574,12.69,3.574s9.486-1.191,12.688-3.574c3.204-2.379,5.668-6.16,7.392-11.334,1.726-5.174,2.872-11.907,3.45-20.204,.573-8.294,.862-18.357,.862-30.183s-.289-21.846-.862-30.061c-.577-8.211-1.724-14.945-3.45-20.204-1.724-5.255-4.188-9.075-7.392-11.458-3.202-2.379-7.433-3.572-12.688-3.572s-9.487,1.193-12.69,3.572c-3.204,2.383-5.668,6.202-7.392,11.458-1.726,5.259-2.876,11.993-3.45,20.204-.577,8.215-.862,18.233-.862,30.061s.285,21.89,.862,30.183Z"/><path class="cls-2" d="M426.463,115.736h-38.439v146.851h-35.48V115.736h-38.439v-29.075h112.357v29.075Z"/><path class="cls-2" d="M540.049,115.736h-62.831v41.394h59.135v29.075h-59.135v47.307h65.295v29.075h-100.776V86.661h98.312v29.075Z"/><path class="cls-2" d="M620.885,86.929c14.761,0,26.24,3.734,34.442,11.196,8.2,7.465,12.301,18.819,12.301,34.073,0,11.808-2.378,21.445-7.133,28.907-4.759,7.465-12.14,12.262-22.142,14.391v.493c8.856,1.314,15.333,4.183,19.434,8.611,4.099,4.428,6.643,11.563,7.628,21.404,.327,3.282,.572,6.85,.738,10.701,.161,3.856,.327,8.161,.493,12.916,.327,9.351,.819,16.484,1.475,21.404,.985,4.92,3.114,8.284,6.398,10.088v1.475h-38.38c-1.807-2.46-2.953-5.29-3.443-8.488-.493-3.198-.824-6.518-.985-9.963l-.985-33.705c-.329-6.888-2.052-12.301-5.165-16.236-3.118-3.938-8.366-5.905-15.746-5.905h-18.941v74.298h-35.428V86.929h65.44Zm-15.251,76.758c8.524,0,15.088-2.006,19.681-6.028,4.589-4.017,6.888-10.782,6.888-20.296,0-16.236-8.205-24.354-24.602-24.354h-16.729v50.679h14.761Z"/><path class="cls-1" d="M157.341,2.883h37.431L122.433,265.297h-46.477L13.079,132.157H49.693l45.41,101.403L157.341,2.883Z"/></svg>