<?xml version="1.0" encoding="UTF-8"?><svg id="Layer_1" xmlns="http://www.w3.org/2000/svg" viewBox="0 0 687.6 451.704"><defs><style>.cls-1{fill:#002679;}.cls-2{fill:#e22b25;}</style></defs><g><path class="cls-1" d="M43.637,77.038L2.784,1.946H37.996l24.901,49.218L87.408,1.946h27.236l-40.659,75.092v54.666h-30.348v-54.666Z"/><path class="cls-1" d="M111.919,66.339c0-18.481,5.254-35.407,14.59-47.469C136.043,6.615,150.438,0,167.752,0c17.509,0,30.932,6.226,40.075,18.87,9.533,13.034,14.786,30.155,14.786,48.83,0,16.925-5.447,35.018-14.395,47.078-8.95,12.062-23.929,18.87-41.438,18.87-16.925,0-30.543-6.42-39.88-18.675-9.727-12.839-14.981-29.765-14.981-48.635Zm78.985,.584c0-28.208-7.782-42.215-23.345-42.215-8.561,0-14.59,3.696-18.288,11.283-3.501,7.392-5.641,18.87-5.641,30.737,0,28.208,7.976,42.215,23.929,42.215,15.758,0,23.345-13.811,23.345-42.02Z"/><path class="cls-1" d="M344.586,82.874c0,21.205-2.917,30.543-12.06,38.714-9.145,7.976-22.179,12.06-39.298,12.06-18.286,0-31.516-4.28-40.659-13.034-8.171-7.976-11.478-18.675-11.478-37.74V1.946h32.878V82.874c0,10.506,.972,14.981,3.696,18.87,3.307,4.67,10.116,7.198,18.286,7.198,8.366,0,15.758-2.724,19.065-7.003,2.917-3.696,3.696-7.976,3.696-19.065V1.946h25.873V82.874Z"/><path class="cls-1" d="M368.706,1.946h57.001c16.73,0,25.873,2.333,33.654,8.755,8.366,6.808,13.618,18.48,13.618,30.153,0,9.338-3.501,18.675-9.727,25.29-3.112,3.307-6.031,5.252-12.644,8.366l23.927,57.194h-33.654l-19.844-51.358h-21.787v51.358h-30.543V1.946Zm49.218,56.222c10.116,0,12.451-.389,16.146-2.724,4.475-2.724,7.587-8.559,7.587-14.202,0-5.059-2.335-9.922-6.224-12.839-3.698-2.919-6.031-3.307-18.288-3.307h-17.896V58.168h18.675Z"/><path class="cls-2" d="M5.895,175.221H56.685l40.693,145.943,42.528-145.943h40.082l-61.5,204.077h-51.401L5.895,175.221Z"/><path class="cls-2" d="M185.489,276.495c0-29.067,8.262-55.686,22.948-74.657,14.993-19.274,37.633-29.678,64.864-29.678,27.537,0,48.648,9.791,63.028,29.678,14.993,20.5,23.253,47.426,23.253,76.798,0,26.618-8.566,55.073-22.64,74.042-14.074,18.97-37.633,29.68-65.17,29.68-26.619,0-48.037-10.098-62.722-29.372-15.298-20.195-23.561-46.813-23.561-76.491Zm124.222,.917c0-44.365-12.238-66.394-36.716-66.394-13.463,0-22.948,5.813-28.761,17.746-5.506,11.627-8.872,29.678-8.872,48.343,0,44.364,12.544,66.394,37.633,66.394,24.784,0,36.716-21.723,36.716-66.088Z"/><path class="cls-2" d="M368.76,176.194v40.376h50.792v77.006h48.334v-77.006h50.492v-40.376h-149.618Z"/><path class="cls-2" d="M538.87,175.221h145.945v38.858h-97.297v41.916h76.491v38.246h-76.491v44.669h97.297v40.388h-145.945V175.221Z"/><polygon class="cls-1" points="472.131 322.185 472.131 340.55 489.727 340.55 489.727 349.898 413.238 349.898 397.481 349.898 397.481 340.55 415.007 340.55 415.007 322.185 373.464 322.185 373.464 373.685 413.238 373.685 516.609 373.685 516.609 322.185 472.131 322.185"/><rect class="cls-1" x="373.464" y="378.513" width="143.145" height="68.088"/></g><rect class="cls-2" x="419.402" y="297.97" width="48.334" height="47.552"/></svg>