<?xml version="1.0" encoding="UTF-8"?><svg id="Layer_1" xmlns="http://www.w3.org/2000/svg" viewBox="0 0 687.6 451.704"><defs><style>.cls-1{fill:#e22b25;}</style></defs><g><path class="cls-1" d="M11.992,39.412l27.348-.01,20.489,32.596c1.211-2.696,1.482-3.234,3.904-7.143l16.292-25.467,27.08-.009-35.953,50.129,.015,44.997-23.441,.008-.016-44.324L11.992,39.412Z"/><path class="cls-1" d="M151.759,137.171c-30.178,.01-47.297-23.155-47.305-50.638-.009-25.733,16.285-50.123,46.866-50.133,5.659-.003,11.587,.804,17.38,2.822,29.103,10.094,31.001,41.753,31.004,48.22,.005,16.435-7.535,31.257-18.04,39.748-9.293,7.683-20.069,9.977-29.903,9.98Zm16.41-73.967c-4.043-4.309-10.242-7.002-16.707-6.999-14.416,.004-23.572,12.67-23.566,29.915,.008,22.632,12.675,30.982,23.858,30.977,11.316-.004,23.438-8.091,24.104-28.03,.402-9.97-2.296-20.073-7.688-25.863Z"/><path class="cls-1" d="M295.064,39.313l.018,53.081c-.132,9.162-.262,18.322-5.514,26.946-10.232,16.44-31.383,17.254-35.425,17.256-7.141,.002-15.628-1.747-22.096-5.113-18.324-9.423-18.33-26.128-18.201-39.062l-.018-53.08,23.98-.008,.02,59.277c.003,4.849,.138,8.891,1.757,11.853,2.964,4.985,9.432,6.463,15.359,6.462,16.166-.006,16.163-11.053,16.295-18.461l-.02-59.144,23.845-.008Z"/><path class="cls-1" d="M318.364,39.306l42.841-.015c9.971,.132,22.365,.262,31.125,9.69,4.447,4.983,7.549,12.527,7.552,21.148,.007,19.13-13.059,23.85-19.525,26.278l21.973,37.984-26.272,.009-18.871-33.944-14.955,.006,.012,33.95-23.846,.008-.033-95.113Zm23.852,17.775l.01,25.731,19.67-.007c3.368-.135,14.28-.409,14.276-13.072-.005-12.124-8.761-12.526-13.747-12.658l-20.208,.007Z"/></g><path class="cls-1" d="M105.059,160.571l40.047-.971-55.716,175.813-38.343,.931L3.025,163.047l40.048-.972,28.592,123.358,33.395-124.861Z"/><path class="cls-1" d="M243.757,377.108c-56.272,7.248-92.214-39.899-97.001-100.692-4.482-56.918,21.666-114.772,78.694-122.118,10.551-1.359,21.745-.993,32.9,2.086,56.022,15.361,65.054,84.938,66.18,99.242,2.863,36.357-8.624,70.949-26.742,92.248-15.996,19.217-35.693,26.872-54.031,29.233Zm17.763-167.552c-8.288-8.564-20.313-13.033-32.37-11.48-26.88,3.461-41.756,33.673-38.754,71.816,3.943,50.065,29.013,65.499,49.864,62.813,21.102-2.717,42.302-23.508,40.087-67.775-.983-22.15-7.768-43.854-18.827-55.374Z"/><path class="cls-1" d="M327.509,151.98l149.627-.055,.014,38.506-50.335,.018,3.445,244.091-48.681,.018-3.445-244.091-50.608,.019-.015-38.506Z"/><path class="cls-1" d="M497.73,151.99l176.286-.065,.016,46.268-116.845,.042,.014,43.226,109.081-.04,.018,45.254-109.081,.04,.021,56.737,127.316-.047,.018,46.941-186.757,.07-.088-238.426Z"/></svg>