<svg id="Layer_1" data-name="Layer 1" xmlns="http://www.w3.org/2000/svg" viewBox="0 0 1103.34 630.6"><defs><style>.cls-1,.cls-29{fill:#cbcbcb;}.cls-1,.cls-10,.cls-11,.cls-12,.cls-2,.cls-3,.cls-4,.cls-5,.cls-6,.cls-7,.cls-8{stroke:#fff;stroke-miterlimit:10;stroke-width:3px;}.cls-2,.cls-23{fill:#2ca02c;}.cls-22,.cls-3{fill:#12deff;}.cls-24,.cls-4{fill:#9467bd;}.cls-28,.cls-5{fill:#bcbd22;}.cls-25,.cls-6{fill:#8c564b;}.cls-27,.cls-7{fill:#00c4a3;}.cls-8{fill:#d62728;}.cls-9{fill:#899328;}.cls-10{fill:#758900;}.cls-11,.cls-19{fill:#1f77b4;}.cls-12,.cls-26{fill:#c408a1;}.cls-13,.cls-16{fill:none;}.cls-13{stroke:#8e8e8e;}.cls-14,.cls-17,.cls-18,.cls-20,.cls-21,.cls-30{isolation:isolate;}.cls-14{font-size:14.24px;font-family:Helvetica;}.cls-15{letter-spacing:-0.07em;}.cls-16{stroke:#000;}.cls-17{font-size:17px;}.cls-17,.cls-18,.cls-30{fill:#7b7b7b;font-family:Arial-BoldMT, Arial;}.cls-17,.cls-18,.cls-30,.cls-31,.cls-32,.cls-34{font-weight:700;}.cls-18{font-size:16px;}.cls-21{font-size:13.22px;font-family:ArialMT, Arial;}.cls-30{font-size:15.26px;}.cls-31{opacity:0.75;}.cls-31,.cls-32,.cls-34{font-size:22.38px;fill:#fff;font-family:Helvetica-Bold, Helvetica;}.cls-32{opacity:0.8;}.cls-33{letter-spacing:-0.05em;}.cls-34{opacity:0.85;}</style></defs><g id="White"><rect class="cls-1" x="57.13" y="266.16" width="38.06" height="322.12"/><rect class="cls-1" x="105.08" y="330.58" width="38.06" height="257.69"/><rect class="cls-1" x="153.04" y="169.52" width="38.06" height="418.75"/><rect class="cls-1" x="200.99" y="266.16" width="38.06" height="322.12"/><rect class="cls-1" x="248.95" y="233.95" width="38.06" height="354.33"/><rect class="cls-1" x="296.91" y="201.73" width="38.06" height="386.54"/><rect class="cls-1" x="344.86" y="137.31" width="38.06" height="450.96"/><rect class="cls-1" x="392.82" y="298.37" width="38.06" height="289.9"/><rect class="cls-1" x="440.77" y="330.58" width="38.06" height="257.69"/><rect class="cls-1" x="488.73" y="233.95" width="38.06" height="354.33"/><rect class="cls-1" x="536.68" y="298.37" width="38.06" height="289.9"/><rect class="cls-1" x="584.64" y="137.31" width="38.06" height="450.96"/><rect class="cls-1" x="632.59" y="169.52" width="38.06" height="418.75"/><rect class="cls-1" x="680.55" y="266.16" width="38.06" height="322.12"/><rect class="cls-1" x="728.5" y="137.31" width="38.06" height="450.96"/><rect class="cls-1" x="776.46" y="362.79" width="38.06" height="225.48"/><rect class="cls-1" x="824.41" y="233.95" width="38.06" height="354.33"/><rect class="cls-1" x="872.37" y="266.16" width="38.06" height="322.12"/><rect class="cls-1" x="920.32" y="298.37" width="38.06" height="289.9"/><rect class="cls-1" x="968.28" y="233.95" width="38.06" height="354.33"/></g><g id="Black"><rect class="cls-2" x="57.13" y="201.73" width="38.06" height="64.42"/><rect class="cls-2" x="105.08" y="298.37" width="38.06" height="32.21"/><rect class="cls-2" x="153.04" y="137.31" width="38.06" height="32.21"/><rect class="cls-2" x="200.99" y="233.95" width="38.06" height="32.21"/><rect class="cls-2" x="248.95" y="169.52" width="38.06" height="64.42"/><rect class="cls-2" x="296.91" y="169.52" width="38.06" height="32.21"/><rect class="cls-2" x="344.86" y="105.1" width="38.06" height="32.21"/><rect class="cls-2" x="392.82" y="233.95" width="38.06" height="64.42"/><rect class="cls-2" x="440.77" y="298.37" width="38.06" height="32.21"/><rect class="cls-2" x="488.73" y="201.73" width="38.06" height="32.21"/><rect class="cls-2" x="536.68" y="201.73" width="38.06" height="96.63"/><rect class="cls-2" x="584.64" y="105.1" width="38.06" height="32.21"/><rect class="cls-2" x="632.59" y="105.1" width="38.06" height="64.42"/><rect class="cls-2" x="680.55" y="169.52" width="38.06" height="96.63"/><rect class="cls-2" x="728.5" y="105.1" width="38.06" height="32.21"/><rect class="cls-2" x="776.46" y="298.37" width="38.06" height="64.42"/><rect class="cls-2" x="824.41" y="201.73" width="38.06" height="32.21"/><rect class="cls-2" x="872.37" y="201.73" width="38.06" height="64.42"/><rect class="cls-2" x="920.32" y="233.95" width="38.06" height="64.42"/><rect class="cls-2" x="968.28" y="137.31" width="38.06" height="96.63"/></g><g id="Asian"><polygon class="cls-3" points="57.13 201.73 95.19 201.73 95.19 201.73 57.13 201.73"/><rect class="cls-3" x="105.08" y="201.73" width="38.06" height="64.42"/><polygon class="cls-3" points="153.04 137.31 191.1 137.31 191.1 137.31 153.04 137.31"/><polygon class="cls-3" points="201 169.52 239.05 169.52 239.05 169.52 201 169.52"/><polygon class="cls-3" points="248.95 169.52 287.01 169.52 287.01 169.52 248.95 169.52"/><polygon class="cls-3" points="296.9 137.31 334.96 137.31 334.96 137.31 296.9 137.31"/><polygon class="cls-3" points="344.86 72.89 382.92 72.89 382.92 72.89 344.86 72.89"/><rect class="cls-3" x="392.82" y="201.73" width="38.06" height="32.21"/><polygon class="cls-3" points="440.77 233.95 478.83 233.95 478.83 233.95 440.77 233.95"/><polygon class="cls-3" points="488.73 169.52 526.78 169.52 526.78 169.52 488.73 169.52"/><rect class="cls-3" x="536.68" y="137.31" width="38.06" height="32.21"/><polygon class="cls-3" points="584.64 72.89 622.69 72.89 622.69 72.89 584.64 72.89"/><rect class="cls-3" x="632.59" y="72.89" width="38.06" height="32.21"/><rect class="cls-3" x="680.55" y="137.31" width="38.06" height="32.21"/><rect class="cls-3" x="728.5" y="40.68" width="38.06" height="32.21"/><rect class="cls-3" x="776.46" y="105.1" width="38.06" height="64.42"/><rect class="cls-3" x="824.41" y="72.89" width="38.06" height="32.21"/><rect class="cls-3" x="872.37" y="137.31" width="38.06" height="32.21"/><rect class="cls-3" x="920.32" y="137.31" width="38.06" height="64.42"/><polygon class="cls-3" points="968.28 137.31 1006.33 137.31 1006.33 137.31 968.28 137.31"/></g><g id="Latinx"><polygon class="cls-4" points="57.13 201.73 95.19 201.73 95.19 201.73 57.13 201.73"/><rect class="cls-4" x="105.08" y="266.16" width="38.06" height="32.21"/><polygon class="cls-4" points="153.04 137.31 191.1 137.31 191.1 137.31 153.04 137.31"/><rect class="cls-4" x="200.99" y="169.52" width="38.06" height="64.42"/><polygon class="cls-4" points="248.95 169.52 287.01 169.52 287.01 169.52 248.95 169.52"/><rect class="cls-4" x="296.91" y="137.31" width="38.06" height="32.21"/><rect class="cls-4" x="344.86" y="72.89" width="38.06" height="32.21"/><rect class="cls-4" x="440.77" y="233.95" width="38.06" height="64.42"/><rect class="cls-4" x="488.73" y="169.52" width="38.06" height="32.21"/><rect class="cls-4" x="536.68" y="169.52" width="38.06" height="32.21"/><rect class="cls-4" x="584.64" y="72.89" width="38.06" height="32.21"/><polygon class="cls-4" points="680.55 169.52 718.6 169.52 718.6 169.52 680.55 169.52"/><rect class="cls-4" x="728.5" y="72.89" width="38.06" height="32.21"/><rect class="cls-4" x="776.46" y="169.52" width="38.06" height="128.85"/><rect class="cls-4" x="824.41" y="105.1" width="38.06" height="96.63"/><rect class="cls-4" x="872.37" y="169.52" width="38.06" height="32.21"/><rect class="cls-4" x="920.32" y="201.73" width="38.06" height="32.21"/><polygon class="cls-4" points="968.28 137.31 1006.33 137.31 1006.33 137.31 968.28 137.31"/></g><g id="Unknown"><polygon class="cls-5" points="57.13 201.73 95.19 201.73 95.19 201.73 57.13 201.73"/><rect class="cls-5" x="105.08" y="169.52" width="38.06" height="32.21"/><polygon class="cls-5" points="153.04 137.31 191.1 137.31 191.1 137.31 153.04 137.31"/><polygon class="cls-5" points="201 137.31 239.05 137.31 239.05 137.31 201 137.31"/><polygon class="cls-5" points="248.95 137.31 287.01 137.31 287.01 137.31 248.95 137.31"/><polygon class="cls-5" points="296.9 137.31 334.96 137.31 334.96 137.31 296.9 137.31"/><polygon class="cls-5" points="344.86 72.89 382.92 72.89 382.92 72.89 344.86 72.89"/><polygon class="cls-5" points="392.81 201.73 430.87 201.73 430.87 201.73 392.81 201.73"/><polygon class="cls-5" points="440.77 201.73 478.83 201.73 478.83 201.73 440.77 201.73"/><polygon class="cls-5" points="488.73 169.52 526.78 169.52 526.78 169.52 488.73 169.52"/><polygon class="cls-5" points="536.68 137.31 574.74 137.31 574.74 137.31 536.68 137.31"/><polygon class="cls-5" points="584.64 72.89 622.69 72.89 622.69 72.89 584.64 72.89"/><polygon class="cls-5" points="632.59 72.89 670.65 72.89 670.65 72.89 632.59 72.89"/><rect class="cls-5" x="680.55" y="72.89" width="38.06" height="32.21"/><polygon class="cls-5" points="728.5 40.68 766.56 40.68 766.56 40.68 728.5 40.68"/><polygon class="cls-5" points="776.46 105.1 814.51 105.1 814.51 105.1 776.46 105.1"/><polygon class="cls-5" points="824.41 72.89 862.47 72.89 862.47 72.89 824.41 72.89"/><polygon class="cls-5" points="872.37 105.1 910.42 105.1 910.42 105.1 872.37 105.1"/><rect class="cls-5" x="920.32" y="72.89" width="38.06" height="64.42"/><polygon class="cls-5" points="968.28 105.1 1006.33 105.1 1006.33 105.1 968.28 105.1"/></g><g id="Middle_Eastern" data-name="Middle Eastern"><polygon class="cls-6" points="57.13 201.73 95.19 201.73 95.19 201.73 57.13 201.73"/><polygon class="cls-6" points="105.08 201.73 143.14 201.73 143.14 201.73 105.08 201.73"/><polygon class="cls-6" points="153.04 137.31 191.1 137.31 191.1 137.31 153.04 137.31"/><rect class="cls-6" x="200.99" y="137.31" width="38.06" height="32.21"/><rect class="cls-6" x="248.95" y="137.31" width="38.06" height="32.21"/><polygon class="cls-6" points="296.9 137.31 334.96 137.31 334.96 137.31 296.9 137.31"/><polygon class="cls-6" points="344.86 72.89 382.92 72.89 382.92 72.89 344.86 72.89"/><polygon class="cls-6" points="392.81 201.73 430.87 201.73 430.87 201.73 392.81 201.73"/><rect class="cls-6" x="440.77" y="201.73" width="38.06" height="32.21"/><polygon class="cls-6" points="488.73 169.52 526.78 169.52 526.78 169.52 488.73 169.52"/><polygon class="cls-6" points="536.68 137.31 574.74 137.31 574.74 137.31 536.68 137.31"/><polygon class="cls-6" points="584.64 72.89 622.69 72.89 622.69 72.89 584.64 72.89"/><polygon class="cls-6" points="632.59 72.89 670.65 72.89 670.65 72.89 632.59 72.89"/><rect class="cls-6" x="680.55" y="105.1" width="38.06" height="32.21"/><polygon class="cls-6" points="728.5 40.68 766.56 40.68 766.56 40.68 728.5 40.68"/><polygon class="cls-6" points="776.46 105.1 814.51 105.1 814.51 105.1 776.46 105.1"/><polygon class="cls-6" points="824.41 72.89 862.47 72.89 862.47 72.89 824.41 72.89"/><rect class="cls-6" x="872.37" y="105.1" width="38.06" height="32.21"/><polygon class="cls-6" points="920.32 137.31 958.38 137.31 958.38 137.31 920.32 137.31"/><rect class="cls-6" x="968.28" y="105.1" width="38.06" height="32.21"/></g><g id="Portuguese"><polygon class="cls-7" points="57.13 201.73 95.19 201.73 95.19 201.73 57.13 201.73"/><polygon class="cls-7" points="105.08 169.52 143.14 169.52 143.14 169.52 105.08 169.52"/><polygon class="cls-7" points="153.04 137.31 191.1 137.31 191.1 137.31 153.04 137.31"/><polygon class="cls-7" points="201 137.31 239.05 137.31 239.05 137.31 201 137.31"/><polygon class="cls-7" points="248.95 137.31 287.01 137.31 287.01 137.31 248.95 137.31"/><polygon class="cls-7" points="296.9 137.31 334.96 137.31 334.96 137.31 296.9 137.31"/><polygon class="cls-7" points="344.86 72.89 382.92 72.89 382.92 72.89 344.86 72.89"/><rect class="cls-7" x="392.82" y="169.52" width="38.06" height="32.21"/><polygon class="cls-7" points="440.77 169.52 478.83 169.52 478.83 169.52 440.77 169.52"/><polygon class="cls-7" points="488.73 169.52 526.78 169.52 526.78 169.52 488.73 169.52"/><polygon class="cls-7" points="536.68 137.31 574.74 137.31 574.74 137.31 536.68 137.31"/><polygon class="cls-7" points="584.64 72.89 622.69 72.89 622.69 72.89 584.64 72.89"/><polygon class="cls-7" points="632.59 72.89 670.65 72.89 670.65 72.89 632.59 72.89"/><polygon class="cls-7" points="680.55 72.89 718.6 72.89 718.6 72.89 680.55 72.89"/><polygon class="cls-7" points="728.5 40.68 766.56 40.68 766.56 40.68 728.5 40.68"/><polygon class="cls-7" points="776.46 72.89 814.51 72.89 814.51 72.89 776.46 72.89"/><polygon class="cls-7" points="824.41 40.68 862.47 40.68 862.47 40.68 824.41 40.68"/><polygon class="cls-7" points="872.37 72.89 910.42 72.89 910.42 72.89 872.37 72.89"/><polygon class="cls-7" points="920.32 72.89 958.38 72.89 958.38 72.89 920.32 72.89"/><polygon class="cls-7" points="968.28 72.89 1006.33 72.89 1006.33 72.89 968.28 72.89"/></g><g id="Black_Asian" data-name="Black/Asian"><polygon class="cls-8" points="57.13 201.73 95.19 201.73 95.19 201.73 57.13 201.73"/><polygon class="cls-8" points="105.08 169.52 143.14 169.52 143.14 169.52 105.08 169.52"/><polygon class="cls-8" points="153.04 137.31 191.1 137.31 191.1 137.31 153.04 137.31"/><polygon class="cls-8" points="201 137.31 239.05 137.31 239.05 137.31 201 137.31"/><polygon class="cls-8" points="248.95 137.31 287.01 137.31 287.01 137.31 248.95 137.31"/><polygon class="cls-8" points="296.9 137.31 334.96 137.31 334.96 137.31 296.9 137.31"/><polygon class="cls-8" points="344.86 72.89 382.92 72.89 382.92 72.89 344.86 72.89"/><polygon class="cls-8" points="392.81 201.73 430.87 201.73 430.87 201.73 392.81 201.73"/><rect class="cls-9" x="442.38" y="171.01" width="34.83" height="29.02"/><polygon class="cls-8" points="488.73 169.52 526.78 169.52 526.78 169.52 488.73 169.52"/><polygon class="cls-8" points="536.68 137.31 574.74 137.31 574.74 137.31 536.68 137.31"/><polygon class="cls-8" points="584.64 72.89 622.69 72.89 622.69 72.89 584.64 72.89"/><polygon class="cls-8" points="632.59 72.89 670.65 72.89 670.65 72.89 632.59 72.89"/><polygon class="cls-8" points="680.55 72.89 718.6 72.89 718.6 72.89 680.55 72.89"/><polygon class="cls-8" points="728.5 40.68 766.56 40.68 766.56 40.68 728.5 40.68"/><polygon class="cls-8" points="776.46 72.89 814.51 72.89 814.51 72.89 776.46 72.89"/><polygon class="cls-8" points="824.41 40.68 862.47 40.68 862.47 40.68 824.41 40.68"/><polygon class="cls-8" points="872.37 105.1 910.42 105.1 910.42 105.1 872.37 105.1"/><polygon class="cls-8" points="920.32 72.89 958.38 72.89 958.38 72.89 920.32 72.89"/><rect class="cls-10" x="968.28" y="72.89" width="38.06" height="32.21"/></g><g id="Armenian"><rect class="cls-11" x="776.46" y="72.89" width="38.06" height="32.21"/><rect class="cls-11" x="824.41" y="40.68" width="38.06" height="32.21"/></g><g id="Pacific_Islander" data-name="Pacific Islander"><rect class="cls-12" x="872.37" y="72.89" width="38.06" height="32.21"/></g><g id="xAxis"><path class="cls-13" d="M47.73,588.78h969"/><line class="cls-13" x1="76.16" y1="588.27" x2="76.16" y2="594.38"/><text class="cls-14" transform="translate(72.38 609.74) scale(0.98 1)">3</text><line class="cls-13" x1="124.11" y1="588.27" x2="124.11" y2="594.38"/><text class="cls-14" transform="translate(120.33 609.74) scale(0.98 1)">4</text><line class="cls-13" x1="172.07" y1="588.27" x2="172.07" y2="594.38"/><text class="cls-14" transform="translate(168.29 609.74) scale(0.98 1)">5</text><line class="cls-13" x1="220.02" y1="588.27" x2="220.02" y2="594.38"/><text class="cls-14" transform="translate(216.24 609.74) scale(0.98 1)">6</text><line class="cls-13" x1="267.98" y1="588.27" x2="267.98" y2="594.38"/><text class="cls-14" transform="translate(264.2 609.74) scale(0.98 1)">7</text><line class="cls-13" x1="315.93" y1="588.27" x2="315.93" y2="594.38"/><text class="cls-14" transform="translate(312.15 609.74) scale(0.98 1)">8</text><line class="cls-13" x1="363.89" y1="588.27" x2="363.89" y2="594.38"/><text class="cls-14" transform="translate(360.11 609.74) scale(0.98 1)">9</text><line class="cls-13" x1="411.84" y1="588.27" x2="411.84" y2="594.38"/><text class="cls-14" transform="translate(405.28 609.74) scale(0.98 1)">10</text><line class="cls-13" x1="459.8" y1="588.27" x2="459.8" y2="594.38"/><text class="cls-14" transform="translate(453.61 609.74) scale(0.98 1)"><tspan class="cls-15">1</tspan><tspan x="6.87" y="0">1</tspan></text><line class="cls-13" x1="507.75" y1="588.27" x2="507.75" y2="594.38"/><text class="cls-14" transform="translate(501.19 609.74) scale(0.98 1)">12</text><line class="cls-13" x1="555.71" y1="588.27" x2="555.71" y2="594.38"/><text class="cls-14" transform="translate(549.15 609.74) scale(0.98 1)">13</text><line class="cls-13" x1="603.66" y1="588.27" x2="603.66" y2="594.38"/><text class="cls-14" transform="translate(597.1 609.74) scale(0.98 1)">14</text><line class="cls-13" x1="651.62" y1="588.27" x2="651.62" y2="594.38"/><text class="cls-14" transform="translate(645.06 609.74) scale(0.98 1)">15</text><line class="cls-13" x1="699.57" y1="588.27" x2="699.57" y2="594.38"/><text class="cls-14" transform="translate(693.01 609.74) scale(0.98 1)">16</text><line class="cls-13" x1="747.53" y1="588.27" x2="747.53" y2="594.38"/><text class="cls-14" transform="translate(740.97 609.74) scale(0.98 1)">17</text><line class="cls-13" x1="795.48" y1="588.27" x2="795.48" y2="594.38"/><text class="cls-14" transform="translate(788.92 609.74) scale(0.98 1)">18</text><line class="cls-13" x1="843.44" y1="588.27" x2="843.44" y2="594.38"/><text class="cls-14" transform="translate(836.88 609.74) scale(0.98 1)">19</text><line class="cls-13" x1="891.39" y1="588.27" x2="891.39" y2="594.38"/><text class="cls-14" transform="translate(884.83 609.74) scale(0.98 1)">20</text><line class="cls-13" x1="939.35" y1="588.27" x2="939.35" y2="594.38"/><text class="cls-14" transform="translate(932.79 609.74) scale(0.98 1)">21</text><line class="cls-13" x1="987.31" y1="588.27" x2="987.31" y2="594.38"/><text class="cls-14" transform="translate(980.74 609.74) scale(0.98 1)">22</text></g><path class="cls-13" d="M47.73,588.78V9"/><line class="cls-13" x1="47.73" y1="588.78" x2="41.23" y2="588.78"/><text class="cls-14" transform="translate(28.67 592.04) scale(0.98 1)">0</text><line class="cls-13" x1="47.23" y1="524.36" x2="41.23" y2="524.36"/><text class="cls-14" transform="translate(28.67 527.61) scale(0.98 1)">2</text><line class="cls-16" x1="47.23" y1="459.94" x2="41.23" y2="459.94"/><text class="cls-14" transform="translate(28.67 463.19) scale(0.98 1)">4</text><line class="cls-13" x1="47.23" y1="395.51" x2="41.23" y2="395.51"/><text class="cls-14" transform="translate(28.67 398.77) scale(0.98 1)">6</text><line class="cls-13" x1="47.23" y1="331.09" x2="41.23" y2="331.09"/><text class="cls-14" transform="translate(28.67 334.34) scale(0.98 1)">8</text><line class="cls-13" x1="47.23" y1="266.67" x2="41.23" y2="266.67"/><text class="cls-14" transform="translate(21.11 269.92) scale(0.98 1)">10</text><line class="cls-13" x1="47.23" y1="202.24" x2="41.23" y2="202.24"/><text class="cls-14" transform="translate(21.11 205.5) scale(0.98 1)">12</text><line class="cls-13" x1="47.23" y1="137.82" x2="41.23" y2="137.82"/><text class="cls-14" transform="translate(21.11 141.07) scale(0.98 1)">14</text><line class="cls-13" x1="47.23" y1="73.4" x2="41.23" y2="73.4"/><text class="cls-14" transform="translate(21.11 76.65) scale(0.98 1)">16</text><line class="cls-13" x1="48.23" y1="8.97" x2="41.23" y2="8.97"/><text class="cls-14" transform="translate(21.11 12.23) scale(0.98 1)">18</text><text class="cls-17" transform="translate(494.55 629.23)">Season #</text><text class="cls-18" transform="translate(3.47 258.84) rotate(90)"># of Players</text><rect class="cls-19" x="1018.23" y="31.88" width="15" height="15.26"/><g class="cls-20"><text class="cls-21" transform="translate(1036.23 43.57) scale(0.98 1)">Armenian</text></g><rect class="cls-22" x="1018.23" y="53.25" width="15" height="15.26"/><g class="cls-20"><text class="cls-21" transform="translate(1036.23 64.95) scale(0.98 1)">Asian</text></g><rect class="cls-23" x="1018.23" y="74.63" width="15" height="15.26"/><g class="cls-20"><text class="cls-21" transform="translate(1036.23 86.33) scale(0.98 1)">Black</text></g><rect class="cls-9" x="1018.23" y="96.01" width="15" height="15.26"/><g class="cls-20"><text class="cls-21" transform="translate(1036.23 107.71) scale(0.98 1)">Black/Asian</text></g><rect class="cls-24" x="1018.23" y="117.39" width="15" height="15.26"/><g class="cls-20"><text class="cls-21" transform="translate(1036.23 129.08) scale(0.98 1)">Latinx</text></g><rect class="cls-25" x="1018.23" y="138.76" width="15" height="15.26"/><g class="cls-20"><text class="cls-21" transform="translate(1036.23 150.46) scale(0.98 1)">Middle</text><text class="cls-21" transform="translate(1036.23 162.67) scale(0.98 1)">Eastern</text></g><rect class="cls-26" x="1018.23" y="172.95" width="15" height="15.26"/><g class="cls-20"><text class="cls-21" transform="translate(1036.23 184.65) scale(0.98 1)">Pacific</text><text class="cls-21" transform="translate(1036.23 196.85) scale(0.98 1)">Islander</text></g><rect class="cls-27" x="1018.23" y="207.14" width="15" height="15.26"/><g class="cls-20"><text class="cls-21" transform="translate(1036.23 218.84) scale(0.98 1)">Portuguese</text></g><rect class="cls-28" x="1018.23" y="228.52" width="15" height="15.26"/><g class="cls-20"><text class="cls-21" transform="translate(1036.23 240.21) scale(0.98 1)">Unknown</text></g><rect class="cls-29" x="1018.23" y="249.89" width="15" height="15.26"/><g class="cls-20"><text class="cls-21" transform="translate(1036.23 261.59) scale(0.98 1)">White</text></g><text class="cls-30" transform="translate(1016.48 21.69) scale(0.98 1)">Colors</text><text class="cls-31" transform="translate(70.04 241.79) scale(0.98 1)">2</text><text class="cls-32" transform="translate(63.92 564.71) scale(0.98 1)">10</text><text class="cls-32" transform="translate(118 563.5) scale(0.98 1)">8</text><text class="cls-32" transform="translate(159.83 563.5) scale(0.98 1)">13</text><text class="cls-32" transform="translate(207.09 563.5) scale(0.98 1)">10</text><text class="cls-32" transform="translate(255.65 563.5) scale(0.98 1)"><tspan class="cls-33">1</tspan><tspan x="11.22" y="0">1</tspan></text><text class="cls-32" transform="translate(303 563.5) scale(0.98 1)">12</text><text class="cls-32" transform="translate(350.96 563.5) scale(0.98 1)">14</text><text class="cls-32" transform="translate(405.03 563.5) scale(0.98 1)">9</text><text class="cls-32" transform="translate(453.68 563.5) scale(0.98 1)">8</text><text class="cls-32" transform="translate(495.42 563.5) scale(0.98 1)"><tspan class="cls-33">1</tspan><tspan x="11.22" y="0">1</tspan></text><text class="cls-32" transform="translate(548.89 563.5) scale(0.98 1)">9</text><text class="cls-32" transform="translate(590.73 563.5) scale(0.98 1)">14</text><text class="cls-32" transform="translate(639.38 563.5) scale(0.98 1)">13</text><text class="cls-32" transform="translate(688.04 563.5) scale(0.98 1)">10</text><text class="cls-32" transform="translate(735.99 563.5) scale(0.98 1)">14</text><text class="cls-32" transform="translate(790.07 563.5) scale(0.98 1)">7</text><text class="cls-32" transform="translate(831.11 564.11) scale(0.98 1)"><tspan class="cls-33">1</tspan><tspan x="11.22" y="0">1</tspan></text><text class="cls-32" transform="translate(879.86 563.5) scale(0.98 1)">10</text><text class="cls-32" transform="translate(933.93 563.5) scale(0.98 1)">9</text><text class="cls-32" transform="translate(976.37 563.5) scale(0.98 1)"><tspan class="cls-33">1</tspan><tspan x="11.22" y="0">1</tspan></text><text class="cls-34" transform="translate(118 241.79) scale(0.98 1)">2</text><text class="cls-31" transform="translate(261.86 209.78) scale(0.98 1)">2</text><text class="cls-31" transform="translate(405.73 274.2) scale(0.98 1)">2</text><text class="cls-31" transform="translate(453.68 274.2) scale(0.98 1)">2</text><text class="cls-31" transform="translate(645.5 145.36) scale(0.98 1)">2</text><text class="cls-34" transform="translate(789.37 145.36) scale(0.98 1)">2</text><text class="cls-31" transform="translate(789.37 338.63) scale(0.98 1)">2</text><text class="cls-31" transform="translate(885.28 241.99) scale(0.98 1)">2</text><text class="cls-32" transform="translate(933.23 113.14) scale(0.98 1)">2</text><text class="cls-31" transform="translate(933.23 274.2) scale(0.98 1)">2</text><text class="cls-34" transform="translate(933.23 178.28) scale(0.98 1)">2</text><text class="cls-31" transform="translate(981.19 193.8) scale(0.98 1)">3</text><text class="cls-31" transform="translate(837.32 159.91) scale(0.98 1)">3</text><text class="cls-31" transform="translate(789.37 241.99) scale(0.98 1)">4</text><text class="cls-31" transform="translate(693.46 225.88) scale(0.98 1)">3</text><text class="cls-31" transform="translate(549.59 258.1) scale(0.98 1)">3</text><text class="cls-31" transform="translate(453.68 322.46) scale(0.98 1)">1</text><text class="cls-31" transform="translate(118 322.46) scale(0.98 1)">1</text><text class="cls-31" transform="translate(118 290.31) scale(0.98 1)">1</text><text class="cls-32" transform="translate(118 193.26) scale(0.98 1)">1</text><text class="cls-31" transform="translate(166.65 161.5) scale(0.98 1)">1</text><text class="cls-31" transform="translate(213.91 161.46) scale(0.98 1)">1</text><text class="cls-31" transform="translate(261.86 161.46) scale(0.98 1)">1</text><text class="cls-31" transform="translate(213.91 257.41) scale(0.98 1)">1</text><text class="cls-31" transform="translate(309.82 162.52) scale(0.98 1)">1</text><text class="cls-31" transform="translate(309.82 194.29) scale(0.98 1)">1</text><text class="cls-31" transform="translate(357.77 129.25) scale(0.98 1)">1</text><text class="cls-31" transform="translate(357.77 97.04) scale(0.98 1)">1</text><text class="cls-31" transform="translate(597.55 97.04) scale(0.98 1)">1</text><text class="cls-34" transform="translate(645.5 97.04) scale(0.98 1)">1</text><text class="cls-32" transform="translate(693.46 96.98) scale(0.98 1)">1</text><text class="cls-31" transform="translate(693.46 128.5) scale(0.98 1)">1</text><text class="cls-34" transform="translate(693.46 161.46) scale(0.98 1)">1</text><text class="cls-31" transform="translate(741.41 128.5) scale(0.98 1)">1</text><text class="cls-31" transform="translate(741.41 97.04) scale(0.98 1)">1</text><text class="cls-34" transform="translate(741.41 64.83) scale(0.98 1)">1</text><text class="cls-31" transform="translate(789.37 97.04) scale(0.98 1)">1</text><text class="cls-31" transform="translate(837.32 64.83) scale(0.98 1)">1</text><text class="cls-34" transform="translate(837.32 97.04) scale(0.98 1)">1</text><text class="cls-32" transform="translate(885.28 97.04) scale(0.98 1)">1</text><text class="cls-31" transform="translate(885.28 129.25) scale(0.98 1)">1</text><text class="cls-34" transform="translate(885.28 161.46) scale(0.98 1)">1</text><text class="cls-31" transform="translate(885.28 193.67) scale(0.98 1)">1</text><text class="cls-31" transform="translate(837.32 226.6) scale(0.98 1)">1</text><text class="cls-31" transform="translate(981.19 97.54) scale(0.98 1)">1</text><text class="cls-31" transform="translate(981.19 129.25) scale(0.98 1)">1</text><text class="cls-31" transform="translate(933.23 225.88) scale(0.98 1)">1</text><text class="cls-31" transform="translate(213.91 207.88) scale(0.98 1)">2</text><text class="cls-31" transform="translate(502.34 225.88) scale(0.98 1)">1</text><text class="cls-31" transform="translate(453.68 225.88) scale(0.98 1)">1</text><text class="cls-34" transform="translate(405.73 225.88) scale(0.98 1)">1</text><text class="cls-32" transform="translate(405.73 193.67) scale(0.98 1)">1</text><text class="cls-31" transform="translate(597.55 129.25) scale(0.98 1)">1</text><text class="cls-34" transform="translate(549.59 161.56) scale(0.98 1)">1</text><text class="cls-31" transform="translate(549.59 193.67) scale(0.98 1)">1</text><text class="cls-31" transform="translate(502.34 193.67) scale(0.98 1)">1</text><text class="cls-31" transform="translate(453.68 193.67) scale(0.98 1)">1</text></svg>