<svg id="Layer_1" data-name="Layer 1" xmlns="http://www.w3.org/2000/svg" viewBox="0 0 904.86 621.49"><defs><style>.cls-1,.cls-3{isolation:isolate;}.cls-1{font-size:13px;fill:#7b7b7b;}.cls-1,.cls-15,.cls-16,.cls-17,.cls-18,.cls-19{font-family:Arial-BoldMT, Arial;font-weight:700;}.cls-2{fill:none;stroke:#8e8e8e;}.cls-3{font-size:14px;font-family:Helvetica;}.cls-4{font-size:12px;}.cls-5{fill:#cbcbcb;}.cls-15,.cls-6{fill:#686868;}.cls-7{fill:#2ca02c;}.cls-16,.cls-8{fill:#174c17;}.cls-9{fill:#12deff;}.cls-10,.cls-17{fill:#0f727c;}.cls-11{fill:#9467bd;}.cls-12,.cls-18{fill:#3b2c4c;}.cls-13{fill:#bcbd22;}.cls-14,.cls-19{fill:#605e17;}.cls-15,.cls-16,.cls-17,.cls-18,.cls-19{font-size:15px;}</style></defs><text class="cls-1" transform="translate(1.66 207.43) rotate(90)">Percent Placement in Season</text><text class="cls-1" transform="translate(442.92 616.31)">Ethnicity</text><g id="viz"><g id="y_axis" data-name="y axis"><path class="cls-2" d="M41.81,563.11h6.65v-530H41.81"/><line class="cls-2" x1="47.95" y1="563.11" x2="41.81" y2="563.11"/><text class="cls-3" transform="translate(17.36 567.31) scale(1.02 1)">0<tspan class="cls-4" x="7.79" y="0">%</tspan></text><line class="cls-2" x1="47.95" y1="510.11" x2="41.81" y2="510.11"/><text class="cls-3" transform="translate(17.36 514.31) scale(1.02 1)">10</text><line class="cls-2" x1="47.95" y1="457.11" x2="41.81" y2="457.11"/><text class="cls-3" transform="translate(17.36 461.31) scale(1.02 1)">20</text><line class="cls-2" x1="47.95" y1="404.11" x2="41.81" y2="404.11"/><text class="cls-3" transform="translate(17.36 408.31) scale(1.02 1)">30</text><line class="cls-2" x1="47.95" y1="351.11" x2="41.81" y2="351.11"/><text class="cls-3" transform="translate(17.36 355.31) scale(1.02 1)">40</text><line class="cls-2" x1="47.95" y1="298.11" x2="41.81" y2="298.11"/><text class="cls-3" transform="translate(17.36 302.31) scale(1.02 1)">50</text><line class="cls-2" x1="47.95" y1="245.11" x2="41.81" y2="245.11"/><text class="cls-3" transform="translate(17.36 249.31) scale(1.02 1)">60</text><line class="cls-2" x1="47.95" y1="192.11" x2="41.81" y2="192.11"/><text class="cls-3" transform="translate(17.36 196.31) scale(1.02 1)">70</text><line class="cls-2" x1="47.95" y1="139.11" x2="41.81" y2="139.11"/><text class="cls-3" transform="translate(17.36 143.31) scale(1.02 1)">80</text><line class="cls-2" x1="47.95" y1="86.11" x2="41.81" y2="86.11"/><text class="cls-3" transform="translate(17.36 90.31) scale(1.02 1)">90</text><line class="cls-2" x1="47.95" y1="33.11" x2="41.81" y2="33.11"/><text class="cls-3" transform="translate(-1 38.56) scale(1.02 1)">100<tspan class="cls-4" x="23.36" y="0">%</tspan></text></g><g id="x_axis" data-name="x axis"><path class="cls-2" d="M48.46,568.61v-5.5H892.27v5.5"/><line class="cls-2" x1="146.44" y1="562.61" x2="146.44" y2="568.61"/></g><g id="shapes"><g id="white"><path class="cls-5" d="M146.44,588.11c15.4-17.67,30.8-35.34,39.8-53s11.62-35.34,11.71-53-2.35-35.34,2.34-53,16.51-35.34,9.36-53-33.26-35.34-32.77-53,27.57-35.34,32.77-53-11.47-35.34-18.73-53-5.1-35.34-2.34-53,6.15-35.34,11.71-53,13.29-35.34,4.68-53-33.57-35.34-58.53-53h0c-25,17.66-49.92,35.33-58.53,53s-.87,35.33,4.68,53,8.94,35.33,11.71,53,4.92,35.33-2.34,53-23.94,35.33-18.73,53,32.29,35.33,32.78,53-25.63,35.33-32.78,53,4.67,35.33,9.36,53,2.26,35.33,2.35,53,2.7,35.33,11.7,53S131,570.44,146.44,588.11Z"/><ellipse class="cls-6" cx="146.44" cy="519.21" rx="3.07" ry="3"/><ellipse class="cls-6" cx="146.44" cy="524.51" rx="3.07" ry="3"/><ellipse class="cls-6" cx="146.44" cy="524.51" rx="3.07" ry="3"/><ellipse class="cls-6" cx="146.44" cy="524.51" rx="3.07" ry="3"/><ellipse class="cls-6" cx="146.44" cy="524.51" rx="3.07" ry="3"/><ellipse class="cls-6" cx="146.44" cy="529.81" rx="3.07" ry="3"/><ellipse class="cls-6" cx="146.44" cy="519.21" rx="3.07" ry="3"/><ellipse class="cls-6" cx="146.44" cy="519.21" rx="3.07" ry="3"/><ellipse class="cls-6" cx="146.44" cy="519.21" rx="3.07" ry="3"/><ellipse class="cls-6" cx="146.44" cy="524.51" rx="3.07" ry="3"/><ellipse class="cls-6" cx="146.44" cy="529.81" rx="3.07" ry="3"/><ellipse class="cls-6" cx="146.44" cy="529.81" rx="3.07" ry="3"/><ellipse class="cls-6" cx="146.44" cy="529.81" rx="3.07" ry="3"/><ellipse class="cls-6" cx="146.44" cy="529.81" rx="3.07" ry="3"/><ellipse class="cls-6" cx="146.44" cy="529.81" rx="3.07" ry="3"/><ellipse class="cls-6" cx="146.44" cy="529.81" rx="3.07" ry="3"/><ellipse class="cls-6" cx="146.44" cy="529.81" rx="3.07" ry="3"/><ellipse class="cls-6" cx="146.44" cy="482.11" rx="3.07" ry="3"/><ellipse class="cls-6" cx="146.44" cy="487.41" rx="3.07" ry="3"/><ellipse class="cls-6" cx="146.44" cy="487.41" rx="3.07" ry="3"/><ellipse class="cls-6" cx="146.44" cy="487.41" rx="3.07" ry="3"/><ellipse class="cls-6" cx="146.44" cy="492.71" rx="3.07" ry="3"/><ellipse class="cls-6" cx="146.44" cy="460.91" rx="3.07" ry="3"/><ellipse class="cls-6" cx="146.44" cy="482.11" rx="3.07" ry="3"/><ellipse class="cls-6" cx="146.44" cy="482.11" rx="3.07" ry="3"/><ellipse class="cls-6" cx="146.44" cy="487.41" rx="3.07" ry="3"/><ellipse class="cls-6" cx="146.44" cy="492.71" rx="3.07" ry="3"/><ellipse class="cls-6" cx="146.44" cy="460.91" rx="3.07" ry="3"/><ellipse class="cls-6" cx="146.44" cy="492.71" rx="3.07" ry="3"/><ellipse class="cls-6" cx="146.44" cy="460.91" rx="3.07" ry="3"/><ellipse class="cls-6" cx="146.44" cy="492.71" rx="3.07" ry="3"/><ellipse class="cls-6" cx="146.44" cy="498.01" rx="3.07" ry="3"/><ellipse class="cls-6" cx="146.44" cy="466.21" rx="3.07" ry="3"/><ellipse class="cls-6" cx="146.44" cy="466.21" rx="3.07" ry="3"/><ellipse class="cls-6" cx="146.44" cy="492.71" rx="3.07" ry="3"/><ellipse class="cls-6" cx="146.44" cy="492.71" rx="3.07" ry="3"/><ellipse class="cls-6" cx="146.44" cy="460.91" rx="3.07" ry="3"/><ellipse class="cls-6" cx="146.44" cy="460.91" rx="3.07" ry="3"/><ellipse class="cls-6" cx="146.44" cy="492.71" rx="3.07" ry="3"/><ellipse class="cls-6" cx="146.44" cy="429.11" rx="3.07" ry="3"/><ellipse class="cls-6" cx="146.44" cy="450.31" rx="3.07" ry="3"/><ellipse class="cls-6" cx="146.44" cy="407.91" rx="3.07" ry="3"/><ellipse class="cls-6" cx="146.44" cy="450.31" rx="3.07" ry="3"/><ellipse class="cls-6" cx="146.44" cy="407.91" rx="3.07" ry="3"/><ellipse class="cls-6" cx="146.44" cy="450.31" rx="3.07" ry="3"/><ellipse class="cls-6" cx="146.44" cy="407.91" rx="3.07" ry="3"/><ellipse class="cls-6" cx="146.44" cy="450.31" rx="3.07" ry="3"/><ellipse class="cls-6" cx="146.44" cy="429.11" rx="3.07" ry="3"/><ellipse class="cls-6" cx="146.44" cy="439.71" rx="3.07" ry="3"/><ellipse class="cls-6" cx="146.44" cy="439.71" rx="3.07" ry="3"/><ellipse class="cls-6" cx="146.44" cy="450.31" rx="3.07" ry="3"/><ellipse class="cls-6" cx="146.44" cy="407.91" rx="3.07" ry="3"/><ellipse class="cls-6" cx="146.44" cy="429.11" rx="3.07" ry="3"/><ellipse class="cls-6" cx="146.44" cy="429.11" rx="3.07" ry="3"/><ellipse class="cls-6" cx="146.44" cy="429.11" rx="3.07" ry="3"/><ellipse class="cls-6" cx="146.44" cy="434.41" rx="3.07" ry="3"/><ellipse class="cls-6" cx="146.44" cy="407.91" rx="3.07" ry="3"/><ellipse class="cls-6" cx="146.44" cy="429.11" rx="3.07" ry="3"/><ellipse class="cls-6" cx="146.44" cy="434.41" rx="3.07" ry="3"/><ellipse class="cls-6" cx="146.44" cy="429.11" rx="3.07" ry="3"/><ellipse class="cls-6" cx="146.44" cy="429.11" rx="3.07" ry="3"/><ellipse class="cls-6" cx="146.44" cy="429.11" rx="3.07" ry="3"/><ellipse class="cls-6" cx="146.44" cy="386.71" rx="3.07" ry="3"/><ellipse class="cls-6" cx="146.44" cy="397.31" rx="3.07" ry="3"/><ellipse class="cls-6" cx="146.44" cy="370.81" rx="3.07" ry="3"/><ellipse class="cls-6" cx="146.44" cy="370.81" rx="3.07" ry="3"/><ellipse class="cls-6" cx="146.44" cy="370.81" rx="3.07" ry="3"/><ellipse class="cls-6" cx="146.44" cy="370.81" rx="3.07" ry="3"/><ellipse class="cls-6" cx="146.44" cy="397.31" rx="3.07" ry="3"/><ellipse class="cls-6" cx="146.44" cy="360.21" rx="3.07" ry="3"/><ellipse class="cls-6" cx="146.44" cy="397.31" rx="3.07" ry="3"/><ellipse class="cls-6" cx="146.44" cy="360.21" rx="3.07" ry="3"/><ellipse class="cls-6" cx="146.44" cy="397.31" rx="3.07" ry="3"/><ellipse class="cls-6" cx="146.44" cy="360.21" rx="3.07" ry="3"/><ellipse class="cls-6" cx="146.44" cy="397.31" rx="3.07" ry="3"/><ellipse class="cls-6" cx="146.44" cy="360.21" rx="3.07" ry="3"/><ellipse class="cls-6" cx="146.44" cy="360.21" rx="3.07" ry="3"/><ellipse class="cls-6" cx="146.44" cy="397.31" rx="3.07" ry="3"/><ellipse class="cls-6" cx="146.44" cy="360.21" rx="3.07" ry="3"/><ellipse class="cls-6" cx="146.44" cy="397.31" rx="3.07" ry="3"/><ellipse class="cls-6" cx="146.44" cy="360.21" rx="3.07" ry="3"/><ellipse class="cls-6" cx="146.44" cy="376.11" rx="3.07" ry="3"/><ellipse class="cls-6" cx="146.44" cy="376.11" rx="3.07" ry="3"/><ellipse class="cls-6" cx="146.44" cy="397.31" rx="3.07" ry="3"/><ellipse class="cls-6" cx="146.44" cy="360.21" rx="3.07" ry="3"/><ellipse class="cls-6" cx="146.44" cy="397.31" rx="3.07" ry="3"/><ellipse class="cls-6" cx="146.44" cy="360.21" rx="3.07" ry="3"/><ellipse class="cls-6" cx="146.44" cy="360.21" rx="3.07" ry="3"/><ellipse class="cls-6" cx="146.44" cy="397.31" rx="3.07" ry="3"/><ellipse class="cls-6" cx="146.44" cy="317.81" rx="3.07" ry="3"/><ellipse class="cls-6" cx="146.44" cy="333.71" rx="3.07" ry="3"/><ellipse class="cls-6" cx="146.44" cy="328.41" rx="3.07" ry="3"/><ellipse class="cls-6" cx="146.44" cy="333.71" rx="3.07" ry="3"/><ellipse class="cls-6" cx="146.44" cy="328.41" rx="3.07" ry="3"/><ellipse class="cls-6" cx="146.44" cy="328.41" rx="3.07" ry="3"/><ellipse class="cls-6" cx="146.44" cy="328.41" rx="3.07" ry="3"/><ellipse class="cls-6" cx="146.44" cy="312.51" rx="3.07" ry="3"/><ellipse class="cls-6" cx="146.44" cy="328.41" rx="3.07" ry="3"/><ellipse class="cls-6" cx="146.44" cy="344.31" rx="3.07" ry="3"/><ellipse class="cls-6" cx="146.44" cy="312.51" rx="3.07" ry="3"/><ellipse class="cls-6" cx="146.44" cy="328.41" rx="3.07" ry="3"/><ellipse class="cls-6" cx="146.44" cy="328.41" rx="3.07" ry="3"/><ellipse class="cls-6" cx="146.44" cy="296.61" rx="3.07" ry="3"/><ellipse class="cls-6" cx="146.44" cy="254.21" rx="3.07" ry="3"/><ellipse class="cls-6" cx="146.44" cy="275.41" rx="3.07" ry="3"/><ellipse class="cls-6" cx="146.44" cy="296.61" rx="3.07" ry="3"/><ellipse class="cls-6" cx="146.44" cy="259.51" rx="3.07" ry="3"/><ellipse class="cls-6" cx="146.44" cy="296.61" rx="3.07" ry="3"/><ellipse class="cls-6" cx="146.44" cy="259.51" rx="3.07" ry="3"/><ellipse class="cls-6" cx="146.44" cy="296.61" rx="3.07" ry="3"/><ellipse class="cls-6" cx="146.44" cy="259.51" rx="3.07" ry="3"/><ellipse class="cls-6" cx="146.44" cy="296.61" rx="3.07" ry="3"/><ellipse class="cls-6" cx="146.44" cy="259.51" rx="3.07" ry="3"/><ellipse class="cls-6" cx="146.44" cy="296.61" rx="3.07" ry="3"/><ellipse class="cls-6" cx="146.44" cy="264.81" rx="3.07" ry="3"/><ellipse class="cls-6" cx="146.44" cy="275.41" rx="3.07" ry="3"/><ellipse class="cls-6" cx="146.44" cy="296.61" rx="3.07" ry="3"/><ellipse class="cls-6" cx="146.44" cy="259.51" rx="3.07" ry="3"/><ellipse class="cls-6" cx="146.44" cy="296.61" rx="3.07" ry="3"/><ellipse class="cls-6" cx="146.44" cy="264.81" rx="3.07" ry="3"/><ellipse class="cls-6" cx="146.44" cy="296.61" rx="3.07" ry="3"/><ellipse class="cls-6" cx="146.44" cy="296.61" rx="3.07" ry="3"/><ellipse class="cls-6" cx="146.44" cy="264.81" rx="3.07" ry="3"/><ellipse class="cls-6" cx="146.44" cy="280.71" rx="3.07" ry="3"/><ellipse class="cls-6" cx="146.44" cy="296.61" rx="3.07" ry="3"/><ellipse class="cls-6" cx="146.44" cy="280.71" rx="3.07" ry="3"/><ellipse class="cls-6" cx="146.44" cy="248.91" rx="3.07" ry="3"/><ellipse class="cls-6" cx="146.44" cy="296.61" rx="3.07" ry="3"/><ellipse class="cls-6" cx="146.44" cy="296.61" rx="3.07" ry="3"/><ellipse class="cls-6" cx="146.44" cy="206.51" rx="3.07" ry="3"/><ellipse class="cls-6" cx="146.44" cy="233.01" rx="3.07" ry="3"/><ellipse class="cls-6" cx="146.44" cy="222.41" rx="3.07" ry="3"/><ellipse class="cls-6" cx="146.44" cy="222.41" rx="3.07" ry="3"/><ellipse class="cls-6" cx="146.44" cy="227.71" rx="3.07" ry="3"/><ellipse class="cls-6" cx="146.44" cy="195.91" rx="3.07" ry="3"/><ellipse class="cls-6" cx="146.44" cy="233.01" rx="3.07" ry="3"/><ellipse class="cls-6" cx="146.44" cy="195.91" rx="3.07" ry="3"/><ellipse class="cls-6" cx="146.44" cy="233.01" rx="3.07" ry="3"/><ellipse class="cls-6" cx="146.44" cy="195.91" rx="3.07" ry="3"/><ellipse class="cls-6" cx="146.44" cy="227.71" rx="3.07" ry="3"/><ellipse class="cls-6" cx="146.44" cy="195.91" rx="3.07" ry="3"/><ellipse class="cls-6" cx="146.44" cy="227.71" rx="3.07" ry="3"/><ellipse class="cls-6" cx="146.44" cy="227.71" rx="3.07" ry="3"/><ellipse class="cls-6" cx="146.44" cy="217.11" rx="3.07" ry="3"/><ellipse class="cls-6" cx="146.44" cy="217.11" rx="3.07" ry="3"/><ellipse class="cls-6" cx="146.44" cy="227.71" rx="3.07" ry="3"/><ellipse class="cls-6" cx="146.44" cy="227.71" rx="3.07" ry="3"/><ellipse class="cls-6" cx="146.44" cy="195.91" rx="3.07" ry="3"/><ellipse class="cls-6" cx="146.44" cy="164.11" rx="3.07" ry="3"/><ellipse class="cls-6" cx="146.44" cy="153.51" rx="3.07" ry="3"/><ellipse class="cls-6" cx="146.44" cy="185.31" rx="3.07" ry="3"/><ellipse class="cls-6" cx="146.44" cy="142.91" rx="3.07" ry="3"/><ellipse class="cls-6" cx="146.44" cy="142.91" rx="3.07" ry="3"/><ellipse class="cls-6" cx="146.44" cy="142.91" rx="3.07" ry="3"/><ellipse class="cls-6" cx="146.44" cy="185.31" rx="3.07" ry="3"/><ellipse class="cls-6" cx="146.44" cy="142.91" rx="3.07" ry="3"/><ellipse class="cls-6" cx="146.44" cy="164.11" rx="3.07" ry="3"/><ellipse class="cls-6" cx="146.44" cy="153.51" rx="3.07" ry="3"/><ellipse class="cls-6" cx="146.44" cy="153.51" rx="3.07" ry="3"/><ellipse class="cls-6" cx="146.44" cy="153.51" rx="3.07" ry="3"/><ellipse class="cls-6" cx="146.44" cy="164.11" rx="3.07" ry="3"/><ellipse class="cls-6" cx="146.44" cy="185.31" rx="3.07" ry="3"/><ellipse class="cls-6" cx="146.44" cy="158.81" rx="3.07" ry="3"/><ellipse class="cls-6" cx="146.44" cy="164.11" rx="3.07" ry="3"/><ellipse class="cls-6" cx="146.44" cy="164.11" rx="3.07" ry="3"/><ellipse class="cls-6" cx="146.44" cy="164.11" rx="3.07" ry="3"/><ellipse class="cls-6" cx="146.44" cy="121.71" rx="3.07" ry="3"/><ellipse class="cls-6" cx="146.44" cy="111.11" rx="3.07" ry="3"/><ellipse class="cls-6" cx="146.44" cy="105.81" rx="3.07" ry="3"/><ellipse class="cls-6" cx="146.44" cy="105.81" rx="3.07" ry="3"/><ellipse class="cls-6" cx="146.44" cy="105.81" rx="3.07" ry="3"/><ellipse class="cls-6" cx="146.44" cy="105.81" rx="3.07" ry="3"/><ellipse class="cls-6" cx="146.44" cy="132.31" rx="3.07" ry="3"/><ellipse class="cls-6" cx="146.44" cy="111.11" rx="3.07" ry="3"/><ellipse class="cls-6" cx="146.44" cy="111.11" rx="3.07" ry="3"/><ellipse class="cls-6" cx="146.44" cy="105.81" rx="3.07" ry="3"/><ellipse class="cls-6" cx="146.44" cy="132.31" rx="3.07" ry="3"/><ellipse class="cls-6" cx="146.44" cy="95.21" rx="3.07" ry="3"/><ellipse class="cls-6" cx="146.44" cy="132.31" rx="3.07" ry="3"/><ellipse class="cls-6" cx="146.44" cy="95.21" rx="3.07" ry="3"/><ellipse class="cls-6" cx="146.44" cy="132.31" rx="3.07" ry="3"/><ellipse class="cls-6" cx="146.44" cy="127.01" rx="3.07" ry="3"/><ellipse class="cls-6" cx="146.44" cy="95.21" rx="3.07" ry="3"/><ellipse class="cls-6" cx="146.44" cy="132.31" rx="3.07" ry="3"/><ellipse class="cls-6" cx="146.44" cy="95.21" rx="3.07" ry="3"/><ellipse class="cls-6" cx="146.44" cy="95.21" rx="3.07" ry="3"/><ellipse class="cls-6" cx="146.44" cy="132.31" rx="3.07" ry="3"/><ellipse class="cls-6" cx="146.44" cy="95.21" rx="3.07" ry="3"/><ellipse class="cls-6" cx="146.44" cy="95.21" rx="3.07" ry="3"/><ellipse class="cls-6" cx="146.44" cy="74.01" rx="3.07" ry="3"/><ellipse class="cls-6" cx="146.44" cy="31.61" rx="3.07" ry="3"/><ellipse class="cls-6" cx="146.44" cy="31.61" rx="3.07" ry="3"/><ellipse class="cls-6" cx="146.44" cy="68.71" rx="3.07" ry="3"/><ellipse class="cls-6" cx="146.44" cy="31.61" rx="3.07" ry="3"/><ellipse class="cls-6" cx="146.44" cy="68.71" rx="3.07" ry="3"/><ellipse class="cls-6" cx="146.44" cy="31.61" rx="3.07" ry="3"/><ellipse class="cls-6" cx="146.44" cy="68.71" rx="3.07" ry="3"/><ellipse class="cls-6" cx="146.44" cy="31.61" rx="3.07" ry="3"/><ellipse class="cls-6" cx="146.44" cy="68.71" rx="3.07" ry="3"/><ellipse class="cls-6" cx="146.44" cy="31.61" rx="3.07" ry="3"/><ellipse class="cls-6" cx="146.44" cy="74.01" rx="3.07" ry="3"/><ellipse class="cls-6" cx="146.44" cy="31.61" rx="3.07" ry="3"/><ellipse class="cls-6" cx="146.44" cy="74.01" rx="3.07" ry="3"/><ellipse class="cls-6" cx="146.44" cy="31.61" rx="3.07" ry="3"/><ellipse class="cls-6" cx="146.44" cy="31.61" rx="3.07" ry="3"/><ellipse class="cls-6" cx="146.44" cy="31.61" rx="3.07" ry="3"/><ellipse class="cls-6" cx="146.44" cy="63.41" rx="3.07" ry="3"/><ellipse class="cls-6" cx="146.44" cy="63.41" rx="3.07" ry="3"/><ellipse class="cls-6" cx="146.44" cy="31.61" rx="3.07" ry="3"/><ellipse class="cls-6" cx="146.44" cy="31.61" rx="3.07" ry="3"/><ellipse class="cls-6" cx="146.44" cy="63.41" rx="3.07" ry="3"/><ellipse class="cls-6" cx="146.44" cy="31.61" rx="3.07" ry="3"/><ellipse class="cls-6" cx="146.44" cy="31.61" rx="3.07" ry="3"/><ellipse class="cls-6" cx="146.44" cy="63.41" rx="3.07" ry="3"/></g><g id="black"><path class="cls-7" d="M308.15,588.11c-.24-17.67-.47-35.34,0-53s1.65-35.34,2.34-53,.89-35.34,0-53-2.88-35.34,0-53,10.6-35.34,9.36-53-11.43-35.34-9.36-53,16.42-35.34,18.73-53-7.42-35.34-11.71-53-3.13-35.34,0-53,8.26-35.34,7-53-8.81-35.34-16.39-53h0c-7.58,17.66-15.16,35.33-16.39,53s3.89,35.33,7,53,4.29,35.33,0,53-14,35.33-11.7,53,16.65,35.33,18.73,53-8.13,35.33-9.37,53,6.49,35.33,9.37,53,.89,35.33,0,53-.69,35.33,0,53,1.87,35.33,2.34,53S308.38,570.44,308.15,588.11Z"/><ellipse class="cls-8" cx="308.15" cy="471.51" rx="3.07" ry="3"/><ellipse class="cls-8" cx="308.15" cy="407.91" rx="3.07" ry="3"/><ellipse class="cls-8" cx="308.15" cy="370.81" rx="3.07" ry="3"/><ellipse class="cls-8" cx="308.15" cy="339.01" rx="3.07" ry="3"/><ellipse class="cls-8" cx="308.15" cy="333.71" rx="3.07" ry="3"/><ellipse class="cls-8" cx="308.15" cy="333.71" rx="3.07" ry="3"/><ellipse class="cls-8" cx="308.15" cy="333.71" rx="3.07" ry="3"/><ellipse class="cls-8" cx="308.15" cy="317.81" rx="3.07" ry="3"/><ellipse class="cls-8" cx="308.15" cy="296.61" rx="3.07" ry="3"/><ellipse class="cls-8" cx="308.15" cy="222.41" rx="3.07" ry="3"/><ellipse class="cls-8" cx="308.15" cy="195.91" rx="3.07" ry="3"/><ellipse class="cls-8" cx="308.15" cy="233.01" rx="3.07" ry="3"/><ellipse class="cls-8" cx="308.15" cy="195.91" rx="3.07" ry="3"/><ellipse class="cls-8" cx="308.15" cy="195.91" rx="3.07" ry="3"/><ellipse class="cls-8" cx="308.15" cy="227.71" rx="3.07" ry="3"/><ellipse class="cls-8" cx="308.15" cy="195.91" rx="3.07" ry="3"/><ellipse class="cls-8" cx="308.15" cy="195.91" rx="3.07" ry="3"/><ellipse class="cls-8" cx="308.15" cy="227.71" rx="3.07" ry="3"/><ellipse class="cls-8" cx="308.15" cy="185.31" rx="3.07" ry="3"/><ellipse class="cls-8" cx="308.15" cy="164.11" rx="3.07" ry="3"/><ellipse class="cls-8" cx="308.15" cy="164.11" rx="3.07" ry="3"/><ellipse class="cls-8" cx="308.15" cy="164.11" rx="3.07" ry="3"/><ellipse class="cls-8" cx="308.15" cy="95.21" rx="3.07" ry="3"/><ellipse class="cls-8" cx="308.15" cy="95.21" rx="3.07" ry="3"/><ellipse class="cls-8" cx="308.15" cy="127.01" rx="3.07" ry="3"/><ellipse class="cls-8" cx="308.15" cy="95.21" rx="3.07" ry="3"/><ellipse class="cls-8" cx="308.15" cy="74.01" rx="3.07" ry="3"/><ellipse class="cls-8" cx="308.15" cy="74.01" rx="3.07" ry="3"/><ellipse class="cls-8" cx="308.15" cy="68.71" rx="3.07" ry="3"/><ellipse class="cls-8" cx="308.15" cy="31.61" rx="3.07" ry="3"/><ellipse class="cls-8" cx="308.15" cy="63.41" rx="3.07" ry="3"/><ellipse class="cls-8" cx="308.15" cy="63.41" rx="3.07" ry="3"/><ellipse class="cls-8" cx="308.15" cy="31.61" rx="3.07" ry="3"/></g><g id="asian"><path class="cls-9" d="M469.85,588.11c2.24-17.67,4.49-35.34,4.68-53s-1.64-35.34-2.34-53-.24-35.34,0-53,.26-35.34,0-53-.8-35.34,0-53,2.94-35.34,2.34-53-3.93-35.34-4.68-53,1.11-35.34,2.34-53,1.87-35.34,2.34-53,.81-35.34,0-53-2.74-35.34-4.68-53h0c-1.94,17.66-3.88,35.33-4.68,53s-.48,35.33,0,53,1.1,35.33,2.34,53,3.09,35.33,2.34,53-4.08,35.33-4.68,53,1.54,35.33,2.34,53,.26,35.33,0,53-.24,35.33,0,53,.7,35.33,0,53-2.54,35.33-2.34,53S467.61,570.44,469.85,588.11Z"/><ellipse class="cls-10" cx="469.85" cy="519.21" rx="3.07" ry="3"/><ellipse class="cls-10" cx="469.85" cy="529.81" rx="3.07" ry="3"/><ellipse class="cls-10" cx="469.85" cy="460.91" rx="3.07" ry="3"/><ellipse class="cls-10" cx="469.85" cy="407.91" rx="3.07" ry="3"/><ellipse class="cls-10" cx="469.85" cy="360.21" rx="3.07" ry="3"/><ellipse class="cls-10" cx="469.85" cy="344.31" rx="3.07" ry="3"/><ellipse class="cls-10" cx="469.85" cy="264.81" rx="3.07" ry="3"/><ellipse class="cls-10" cx="469.85" cy="264.81" rx="3.07" ry="3"/><ellipse class="cls-10" cx="469.85" cy="142.91" rx="3.07" ry="3"/><ellipse class="cls-10" cx="469.85" cy="111.11" rx="3.07" ry="3"/><ellipse class="cls-10" cx="469.85" cy="132.31" rx="3.07" ry="3"/><ellipse class="cls-10" cx="469.85" cy="63.41" rx="3.07" ry="3"/><ellipse class="cls-10" cx="469.85" cy="63.41" rx="3.07" ry="3"/></g><g id="latinx"><path class="cls-11" d="M631.56,588.11c.27-17.67.54-35.34,2.34-53s5.1-35.34,4.68-53-4.58-35.34-4.68-53,3.87-35.34,4.68-53-1.52-35.34-2.34-53-.11-35.34,0-53-.37-35.34,0-53,1.6-35.34,0-53-6-35.34-4.68-53,8.4-35.34,9.36-53-4.2-35.34-9.36-53h0c-5.16,17.66-10.33,35.33-9.37,53s8,35.33,9.37,53-3.09,35.33-4.69,53-.37,35.33,0,53-.11,35.33,0,53,.82,35.33,0,53-3.15,35.33-2.34,53,4.78,35.33,4.69,53-4.26,35.33-4.69,53,2.89,35.33,4.69,53S631.28,570.44,631.56,588.11Z"/><ellipse class="cls-12" cx="631.56" cy="529.81" rx="3.07" ry="3"/><ellipse class="cls-12" cx="631.56" cy="487.41" rx="3.07" ry="3"/><ellipse class="cls-12" cx="631.56" cy="482.11" rx="3.07" ry="3"/><ellipse class="cls-12" cx="631.56" cy="460.91" rx="3.07" ry="3"/><ellipse class="cls-12" cx="631.56" cy="439.71" rx="3.07" ry="3"/><ellipse class="cls-12" cx="631.56" cy="397.31" rx="3.07" ry="3"/><ellipse class="cls-12" cx="631.56" cy="397.31" rx="3.07" ry="3"/><ellipse class="cls-12" cx="631.56" cy="360.21" rx="3.07" ry="3"/><ellipse class="cls-12" cx="631.56" cy="317.81" rx="3.07" ry="3"/><ellipse class="cls-12" cx="631.56" cy="328.41" rx="3.07" ry="3"/><ellipse class="cls-12" cx="631.56" cy="275.41" rx="3.07" ry="3"/><ellipse class="cls-12" cx="631.56" cy="248.91" rx="3.07" ry="3"/><ellipse class="cls-12" cx="631.56" cy="222.41" rx="3.07" ry="3"/><ellipse class="cls-12" cx="631.56" cy="222.41" rx="3.07" ry="3"/><ellipse class="cls-12" cx="631.56" cy="185.31" rx="3.07" ry="3"/><ellipse class="cls-12" cx="631.56" cy="158.81" rx="3.07" ry="3"/><ellipse class="cls-12" cx="631.56" cy="31.61" rx="3.07" ry="3"/><ellipse class="cls-12" cx="631.56" cy="63.41" rx="3.07" ry="3"/><ellipse class="cls-12" cx="631.56" cy="63.41" rx="3.07" ry="3"/><ellipse class="cls-12" cx="631.56" cy="31.61" rx="3.07" ry="3"/></g><g id="other"><path class="cls-13" d="M793.26,588.11c-.92-17.67-1.83-35.34,0-53s6.43-35.34,7-53-2.81-35.34-4.69-53-2.23-35.34-2.34-53,0-35.34,2.34-53,6.72-35.34,7-53-3.52-35.34-4.69-53,.32-35.34,0-53-2.42-35.34-2.34-53,2.37-35.34,2.34-53-2.35-35.34-4.68-53h0c-2.33,17.66-4.66,35.33-4.68,53s2.26,35.33,2.34,53-2,35.33-2.34,53,1.17,35.33,0,53-5,35.33-4.68,53,4.73,35.33,7,53,2.45,35.33,2.34,53-.46,35.33-2.34,53-5.28,35.33-4.68,53,5.19,35.33,7,53S794.18,570.44,793.26,588.11Z"/><ellipse class="cls-14" cx="793.26" cy="460.91" rx="3.07" ry="3"/><ellipse class="cls-14" cx="793.26" cy="492.71" rx="3.07" ry="3"/><ellipse class="cls-14" cx="793.26" cy="498.01" rx="3.07" ry="3"/><ellipse class="cls-14" cx="793.26" cy="439.71" rx="3.07" ry="3"/><ellipse class="cls-14" cx="793.26" cy="317.81" rx="3.07" ry="3"/><ellipse class="cls-14" cx="793.26" cy="275.41" rx="3.07" ry="3"/><ellipse class="cls-14" cx="793.26" cy="264.81" rx="3.07" ry="3"/><ellipse class="cls-14" cx="793.26" cy="264.81" rx="3.07" ry="3"/><ellipse class="cls-14" cx="793.26" cy="264.81" rx="3.07" ry="3"/><ellipse class="cls-14" cx="793.26" cy="195.91" rx="3.07" ry="3"/><ellipse class="cls-14" cx="793.26" cy="195.91" rx="3.07" ry="3"/><ellipse class="cls-14" cx="793.26" cy="185.31" rx="3.07" ry="3"/><ellipse class="cls-14" cx="793.26" cy="185.31" rx="3.07" ry="3"/><ellipse class="cls-14" cx="793.26" cy="132.31" rx="3.07" ry="3"/><ellipse class="cls-14" cx="793.26" cy="31.61" rx="3.07" ry="3"/><ellipse class="cls-14" cx="793.26" cy="31.61" rx="3.07" ry="3"/></g></g></g><text class="cls-15" transform="translate(124.11 600.88)">White</text><text class="cls-16" transform="translate(289.6 600.88)">Black</text><text class="cls-17" transform="translate(448.29 600.88)">Asian</text><text class="cls-18" transform="translate(608.72 600.88)">Latinx</text><text class="cls-19" transform="translate(772.9 600.88)">Other</text></svg>