<svg id="Layer_1" data-name="Layer 1" xmlns="http://www.w3.org/2000/svg" viewBox="0 0 897.59 621.49"><defs><style>.cls-1,.cls-3{isolation:isolate;}.cls-1{font-size:13px;fill:#7b7b7b;}.cls-1,.cls-15,.cls-16,.cls-17,.cls-18,.cls-19{font-family:Arial-BoldMT, Arial;font-weight:700;}.cls-2{fill:none;stroke:#8e8e8e;}.cls-3{font-size:14px;font-family:Helvetica;}.cls-4{fill:#cbcbcb;}.cls-15,.cls-5{fill:#686868;}.cls-6{fill:#2ca02c;}.cls-16,.cls-7{fill:#174c17;}.cls-8{fill:#12deff;}.cls-17,.cls-9{fill:#0f727c;}.cls-10{fill:#9467bd;}.cls-11,.cls-18{fill:#3b2c4c;}.cls-12{fill:#bcbd22;}.cls-13,.cls-19{fill:#605e17;}.cls-14{letter-spacing:-0.01em;}.cls-15,.cls-16,.cls-17,.cls-18,.cls-19{font-size:15px;}</style></defs><text class="cls-1" transform="translate(434.85 616.31)">Ethnicity</text><g id="viz"><g id="y_axis" data-name="y axis"><path class="cls-2" d="M31.46,563.11h6.65v-530H31.46"/><line class="cls-2" x1="37.59" y1="563.11" x2="31.46" y2="563.11"/><text class="cls-3" transform="translate(18.61 567.31) scale(1.02 1)">0</text><line class="cls-2" x1="37.59" y1="510.11" x2="31.46" y2="510.11"/><text class="cls-3" transform="translate(18.61 514.31) scale(1.02 1)">1</text><line class="cls-2" x1="37.59" y1="457.11" x2="31.46" y2="457.11"/><text class="cls-3" transform="translate(19.06 461.31) scale(1.02 1)">2</text><line class="cls-2" x1="37.59" y1="404.11" x2="31.46" y2="404.11"/><text class="cls-3" transform="translate(18.61 408.31) scale(1.02 1)">3</text><line class="cls-2" x1="37.59" y1="351.11" x2="31.46" y2="351.11"/><text class="cls-3" transform="translate(18.61 355.31) scale(1.02 1)">4</text><line class="cls-2" x1="37.59" y1="298.11" x2="31.46" y2="298.11"/><text class="cls-3" transform="translate(18.61 302.31) scale(1.02 1)">5</text><line class="cls-2" x1="37.59" y1="245.11" x2="31.46" y2="245.11"/><text class="cls-3" transform="translate(18.61 249.31) scale(1.02 1)">6</text><line class="cls-2" x1="37.59" y1="192.11" x2="31.46" y2="192.11"/><text class="cls-3" transform="translate(18.61 196.31) scale(1.02 1)">7</text><line class="cls-2" x1="37.59" y1="139.11" x2="31.46" y2="139.11"/><text class="cls-3" transform="translate(18.61 143.31) scale(1.02 1)">8</text><line class="cls-2" x1="37.59" y1="86.11" x2="31.46" y2="86.11"/><text class="cls-3" transform="translate(18.61 90.31) scale(1.02 1)">9</text><line class="cls-2" x1="37.59" y1="33.11" x2="31.46" y2="33.11"/><text class="cls-3" transform="translate(10.88 37.31) scale(1.02 1)">10</text></g><g id="x_axis" data-name="x axis"><path class="cls-2" d="M38.11,568.61v-5.5H887v5.5"/></g><g id="shapes"><g id="white"><path class="cls-4" d="M130.47,589.11l12.15-8.84c12.16-8.83,36.46-26.5,44.3-44.16s-.79-35.34-5.49-53-5.49-35.34-8.43-53-8-35.34-12.15-53a384.76,384.76,0,0,1-8.82-53c-1.57-17.67-1.57-35.34-3.33-53s-5.29-35.34-8-53-4.7-35.34-6.07-53-2.16-35.34-2.16-53,.79-35.34.59-53-1.37-35.34-2-44.17l-.59-8.83h0l-.58,8.83c-.59,8.83-1.77,26.5-2,44.17s.58,35.33.58,53-.78,35.33-2.15,53-3.33,35.33-6.08,53-6.27,35.33-8,53-1.77,35.33-3.33,53a384.76,384.76,0,0,1-8.82,53c-4.12,17.66-9.21,35.33-12.15,53s-3.73,35.33-8.43,53-13.33,35.33-5.49,53,32.14,35.33,44.29,44.16Z"/><ellipse class="cls-5" cx="130.47" cy="562.61" rx="3.07" ry="3"/><ellipse class="cls-5" cx="130.47" cy="562.61" rx="3.07" ry="3"/><ellipse class="cls-5" cx="130.47" cy="562.61" rx="3.07" ry="3"/><ellipse class="cls-5" cx="130.47" cy="562.61" rx="3.07" ry="3"/><ellipse class="cls-5" cx="130.47" cy="562.61" rx="3.07" ry="3"/><ellipse class="cls-5" cx="130.47" cy="562.61" rx="3.07" ry="3"/><ellipse class="cls-5" cx="130.47" cy="562.61" rx="3.07" ry="3"/><ellipse class="cls-5" cx="130.47" cy="562.61" rx="3.07" ry="3"/><ellipse class="cls-5" cx="130.47" cy="562.61" rx="3.07" ry="3"/><ellipse class="cls-5" cx="130.47" cy="562.61" rx="3.07" ry="3"/><ellipse class="cls-5" cx="130.47" cy="562.61" rx="3.07" ry="3"/><ellipse class="cls-5" cx="130.47" cy="562.61" rx="3.07" ry="3"/><ellipse class="cls-5" cx="130.47" cy="562.61" rx="3.07" ry="3"/><ellipse class="cls-5" cx="130.47" cy="562.61" rx="3.07" ry="3"/><ellipse class="cls-5" cx="130.47" cy="562.61" rx="3.07" ry="3"/><ellipse class="cls-5" cx="130.47" cy="562.61" rx="3.07" ry="3"/><ellipse class="cls-5" cx="130.47" cy="562.61" rx="3.07" ry="3"/><ellipse class="cls-5" cx="130.47" cy="562.61" rx="3.07" ry="3"/><ellipse class="cls-5" cx="130.47" cy="562.61" rx="3.07" ry="3"/><ellipse class="cls-5" cx="130.47" cy="562.61" rx="3.07" ry="3"/><ellipse class="cls-5" cx="130.47" cy="562.61" rx="3.07" ry="3"/><ellipse class="cls-5" cx="130.47" cy="562.61" rx="3.07" ry="3"/><ellipse class="cls-5" cx="130.47" cy="562.61" rx="3.07" ry="3"/><ellipse class="cls-5" cx="130.47" cy="562.61" rx="3.07" ry="3"/><ellipse class="cls-5" cx="130.47" cy="562.61" rx="3.07" ry="3"/><ellipse class="cls-5" cx="130.47" cy="562.61" rx="3.07" ry="3"/><ellipse class="cls-5" cx="130.47" cy="562.61" rx="3.07" ry="3"/><ellipse class="cls-5" cx="130.47" cy="562.61" rx="3.07" ry="3"/><ellipse class="cls-5" cx="130.47" cy="562.61" rx="3.07" ry="3"/><ellipse class="cls-5" cx="130.47" cy="562.61" rx="3.07" ry="3"/><ellipse class="cls-5" cx="130.47" cy="562.61" rx="3.07" ry="3"/><ellipse class="cls-5" cx="130.47" cy="562.61" rx="3.07" ry="3"/><ellipse class="cls-5" cx="130.47" cy="562.61" rx="3.07" ry="3"/><ellipse class="cls-5" cx="130.47" cy="562.61" rx="3.07" ry="3"/><ellipse class="cls-5" cx="130.47" cy="562.61" rx="3.07" ry="3"/><ellipse class="cls-5" cx="130.47" cy="562.61" rx="3.07" ry="3"/><ellipse class="cls-5" cx="130.47" cy="562.61" rx="3.07" ry="3"/><ellipse class="cls-5" cx="130.47" cy="562.61" rx="3.07" ry="3"/><ellipse class="cls-5" cx="130.47" cy="562.61" rx="3.07" ry="3"/><ellipse class="cls-5" cx="130.47" cy="562.61" rx="3.07" ry="3"/><ellipse class="cls-5" cx="130.47" cy="562.61" rx="3.07" ry="3"/><ellipse class="cls-5" cx="130.47" cy="562.61" rx="3.07" ry="3"/><ellipse class="cls-5" cx="130.47" cy="562.61" rx="3.07" ry="3"/><ellipse class="cls-5" cx="130.47" cy="562.61" rx="3.07" ry="3"/><ellipse class="cls-5" cx="130.47" cy="562.61" rx="3.07" ry="3"/><ellipse class="cls-5" cx="130.47" cy="562.61" rx="3.07" ry="3"/><ellipse class="cls-5" cx="130.47" cy="562.61" rx="3.07" ry="3"/><ellipse class="cls-5" cx="130.47" cy="562.61" rx="3.07" ry="3"/><ellipse class="cls-5" cx="130.47" cy="562.61" rx="3.07" ry="3"/><ellipse class="cls-5" cx="130.47" cy="562.61" rx="3.07" ry="3"/><ellipse class="cls-5" cx="130.47" cy="562.61" rx="3.07" ry="3"/><ellipse class="cls-5" cx="130.47" cy="562.61" rx="3.07" ry="3"/><ellipse class="cls-5" cx="130.47" cy="562.61" rx="3.07" ry="3"/><ellipse class="cls-5" cx="130.47" cy="562.61" rx="3.07" ry="3"/><ellipse class="cls-5" cx="130.47" cy="562.61" rx="3.07" ry="3"/><ellipse class="cls-5" cx="130.47" cy="562.61" rx="3.07" ry="3"/><ellipse class="cls-5" cx="130.47" cy="562.61" rx="3.07" ry="3"/><ellipse class="cls-5" cx="130.47" cy="562.61" rx="3.07" ry="3"/><ellipse class="cls-5" cx="130.47" cy="562.61" rx="3.07" ry="3"/><ellipse class="cls-5" cx="130.47" cy="562.61" rx="3.07" ry="3"/><ellipse class="cls-5" cx="130.47" cy="562.61" rx="3.07" ry="3"/><ellipse class="cls-5" cx="130.47" cy="562.61" rx="3.07" ry="3"/><ellipse class="cls-5" cx="130.47" cy="509.61" rx="3.07" ry="3"/><ellipse class="cls-5" cx="130.47" cy="509.61" rx="3.07" ry="3"/><ellipse class="cls-5" cx="130.47" cy="509.61" rx="3.07" ry="3"/><ellipse class="cls-5" cx="130.47" cy="509.61" rx="3.07" ry="3"/><ellipse class="cls-5" cx="130.47" cy="509.61" rx="3.07" ry="3"/><ellipse class="cls-5" cx="130.47" cy="509.61" rx="3.07" ry="3"/><ellipse class="cls-5" cx="130.47" cy="509.61" rx="3.07" ry="3"/><ellipse class="cls-5" cx="130.47" cy="509.61" rx="3.07" ry="3"/><ellipse class="cls-5" cx="130.47" cy="509.61" rx="3.07" ry="3"/><ellipse class="cls-5" cx="130.47" cy="509.61" rx="3.07" ry="3"/><ellipse class="cls-5" cx="130.47" cy="509.61" rx="3.07" ry="3"/><ellipse class="cls-5" cx="130.47" cy="509.61" rx="3.07" ry="3"/><ellipse class="cls-5" cx="130.47" cy="509.61" rx="3.07" ry="3"/><ellipse class="cls-5" cx="130.47" cy="509.61" rx="3.07" ry="3"/><ellipse class="cls-5" cx="130.47" cy="509.61" rx="3.07" ry="3"/><ellipse class="cls-5" cx="130.47" cy="509.61" rx="3.07" ry="3"/><ellipse class="cls-5" cx="130.47" cy="509.61" rx="3.07" ry="3"/><ellipse class="cls-5" cx="130.47" cy="509.61" rx="3.07" ry="3"/><ellipse class="cls-5" cx="130.47" cy="509.61" rx="3.07" ry="3"/><ellipse class="cls-5" cx="130.47" cy="509.61" rx="3.07" ry="3"/><ellipse class="cls-5" cx="130.47" cy="509.61" rx="3.07" ry="3"/><ellipse class="cls-5" cx="130.47" cy="509.61" rx="3.07" ry="3"/><ellipse class="cls-5" cx="130.47" cy="509.61" rx="3.07" ry="3"/><ellipse class="cls-5" cx="130.47" cy="509.61" rx="3.07" ry="3"/><ellipse class="cls-5" cx="130.47" cy="509.61" rx="3.07" ry="3"/><ellipse class="cls-5" cx="130.47" cy="509.61" rx="3.07" ry="3"/><ellipse class="cls-5" cx="130.47" cy="509.61" rx="3.07" ry="3"/><ellipse class="cls-5" cx="130.47" cy="509.61" rx="3.07" ry="3"/><ellipse class="cls-5" cx="130.47" cy="509.61" rx="3.07" ry="3"/><ellipse class="cls-5" cx="130.47" cy="509.61" rx="3.07" ry="3"/><ellipse class="cls-5" cx="130.47" cy="509.61" rx="3.07" ry="3"/><ellipse class="cls-5" cx="130.47" cy="509.61" rx="3.07" ry="3"/><ellipse class="cls-5" cx="130.47" cy="509.61" rx="3.07" ry="3"/><ellipse class="cls-5" cx="130.47" cy="509.61" rx="3.07" ry="3"/><ellipse class="cls-5" cx="130.47" cy="509.61" rx="3.07" ry="3"/><ellipse class="cls-5" cx="130.47" cy="509.61" rx="3.07" ry="3"/><ellipse class="cls-5" cx="130.47" cy="509.61" rx="3.07" ry="3"/><ellipse class="cls-5" cx="130.47" cy="509.61" rx="3.07" ry="3"/><ellipse class="cls-5" cx="130.47" cy="509.61" rx="3.07" ry="3"/><ellipse class="cls-5" cx="130.47" cy="509.61" rx="3.07" ry="3"/><ellipse class="cls-5" cx="130.47" cy="456.61" rx="3.07" ry="3"/><ellipse class="cls-5" cx="130.47" cy="456.61" rx="3.07" ry="3"/><ellipse class="cls-5" cx="130.47" cy="456.61" rx="3.07" ry="3"/><ellipse class="cls-5" cx="130.47" cy="456.61" rx="3.07" ry="3"/><ellipse class="cls-5" cx="130.47" cy="456.61" rx="3.07" ry="3"/><ellipse class="cls-5" cx="130.47" cy="456.61" rx="3.07" ry="3"/><ellipse class="cls-5" cx="130.47" cy="456.61" rx="3.07" ry="3"/><ellipse class="cls-5" cx="130.47" cy="456.61" rx="3.07" ry="3"/><ellipse class="cls-5" cx="130.47" cy="456.61" rx="3.07" ry="3"/><ellipse class="cls-5" cx="130.47" cy="456.61" rx="3.07" ry="3"/><ellipse class="cls-5" cx="130.47" cy="456.61" rx="3.07" ry="3"/><ellipse class="cls-5" cx="130.47" cy="456.61" rx="3.07" ry="3"/><ellipse class="cls-5" cx="130.47" cy="456.61" rx="3.07" ry="3"/><ellipse class="cls-5" cx="130.47" cy="456.61" rx="3.07" ry="3"/><ellipse class="cls-5" cx="130.47" cy="456.61" rx="3.07" ry="3"/><ellipse class="cls-5" cx="130.47" cy="456.61" rx="3.07" ry="3"/><ellipse class="cls-5" cx="130.47" cy="456.61" rx="3.07" ry="3"/><ellipse class="cls-5" cx="130.47" cy="456.61" rx="3.07" ry="3"/><ellipse class="cls-5" cx="130.47" cy="456.61" rx="3.07" ry="3"/><ellipse class="cls-5" cx="130.47" cy="456.61" rx="3.07" ry="3"/><ellipse class="cls-5" cx="130.47" cy="456.61" rx="3.07" ry="3"/><ellipse class="cls-5" cx="130.47" cy="456.61" rx="3.07" ry="3"/><ellipse class="cls-5" cx="130.47" cy="456.61" rx="3.07" ry="3"/><ellipse class="cls-5" cx="130.47" cy="456.61" rx="3.07" ry="3"/><ellipse class="cls-5" cx="130.47" cy="456.61" rx="3.07" ry="3"/><ellipse class="cls-5" cx="130.47" cy="456.61" rx="3.07" ry="3"/><ellipse class="cls-5" cx="130.47" cy="456.61" rx="3.07" ry="3"/><ellipse class="cls-5" cx="130.47" cy="456.61" rx="3.07" ry="3"/><ellipse class="cls-5" cx="130.47" cy="456.61" rx="3.07" ry="3"/><ellipse class="cls-5" cx="130.47" cy="456.61" rx="3.07" ry="3"/><ellipse class="cls-5" cx="130.47" cy="456.61" rx="3.07" ry="3"/><ellipse class="cls-5" cx="130.47" cy="456.61" rx="3.07" ry="3"/><ellipse class="cls-5" cx="130.47" cy="456.61" rx="3.07" ry="3"/><ellipse class="cls-5" cx="130.47" cy="456.61" rx="3.07" ry="3"/><ellipse class="cls-5" cx="130.47" cy="456.61" rx="3.07" ry="3"/><ellipse class="cls-5" cx="130.47" cy="456.61" rx="3.07" ry="3"/><ellipse class="cls-5" cx="130.47" cy="456.61" rx="3.07" ry="3"/><ellipse class="cls-5" cx="130.47" cy="456.61" rx="3.07" ry="3"/><ellipse class="cls-5" cx="130.47" cy="403.61" rx="3.07" ry="3"/><ellipse class="cls-5" cx="130.47" cy="403.61" rx="3.07" ry="3"/><ellipse class="cls-5" cx="130.47" cy="403.61" rx="3.07" ry="3"/><ellipse class="cls-5" cx="130.47" cy="403.61" rx="3.07" ry="3"/><ellipse class="cls-5" cx="130.47" cy="403.61" rx="3.07" ry="3"/><ellipse class="cls-5" cx="130.47" cy="403.61" rx="3.07" ry="3"/><ellipse class="cls-5" cx="130.47" cy="403.61" rx="3.07" ry="3"/><ellipse class="cls-5" cx="130.47" cy="403.61" rx="3.07" ry="3"/><ellipse class="cls-5" cx="130.47" cy="403.61" rx="3.07" ry="3"/><ellipse class="cls-5" cx="130.47" cy="403.61" rx="3.07" ry="3"/><ellipse class="cls-5" cx="130.47" cy="403.61" rx="3.07" ry="3"/><ellipse class="cls-5" cx="130.47" cy="403.61" rx="3.07" ry="3"/><ellipse class="cls-5" cx="130.47" cy="403.61" rx="3.07" ry="3"/><ellipse class="cls-5" cx="130.47" cy="403.61" rx="3.07" ry="3"/><ellipse class="cls-5" cx="130.47" cy="403.61" rx="3.07" ry="3"/><ellipse class="cls-5" cx="130.47" cy="403.61" rx="3.07" ry="3"/><ellipse class="cls-5" cx="130.47" cy="403.61" rx="3.07" ry="3"/><ellipse class="cls-5" cx="130.47" cy="403.61" rx="3.07" ry="3"/><ellipse class="cls-5" cx="130.47" cy="403.61" rx="3.07" ry="3"/><ellipse class="cls-5" cx="130.47" cy="403.61" rx="3.07" ry="3"/><ellipse class="cls-5" cx="130.47" cy="403.61" rx="3.07" ry="3"/><ellipse class="cls-5" cx="130.47" cy="403.61" rx="3.07" ry="3"/><ellipse class="cls-5" cx="130.47" cy="403.61" rx="3.07" ry="3"/><ellipse class="cls-5" cx="130.47" cy="403.61" rx="3.07" ry="3"/><ellipse class="cls-5" cx="130.47" cy="403.61" rx="3.07" ry="3"/><ellipse class="cls-5" cx="130.47" cy="350.61" rx="3.07" ry="3"/><ellipse class="cls-5" cx="130.47" cy="350.61" rx="3.07" ry="3"/><ellipse class="cls-5" cx="130.47" cy="350.61" rx="3.07" ry="3"/><ellipse class="cls-5" cx="130.47" cy="350.61" rx="3.07" ry="3"/><ellipse class="cls-5" cx="130.47" cy="350.61" rx="3.07" ry="3"/><ellipse class="cls-5" cx="130.47" cy="350.61" rx="3.07" ry="3"/><ellipse class="cls-5" cx="130.47" cy="350.61" rx="3.07" ry="3"/><ellipse class="cls-5" cx="130.47" cy="350.61" rx="3.07" ry="3"/><ellipse class="cls-5" cx="130.47" cy="350.61" rx="3.07" ry="3"/><ellipse class="cls-5" cx="130.47" cy="350.61" rx="3.07" ry="3"/><ellipse class="cls-5" cx="130.47" cy="350.61" rx="3.07" ry="3"/><ellipse class="cls-5" cx="130.47" cy="350.61" rx="3.07" ry="3"/><ellipse class="cls-5" cx="130.47" cy="350.61" rx="3.07" ry="3"/><ellipse class="cls-5" cx="130.47" cy="350.61" rx="3.07" ry="3"/><ellipse class="cls-5" cx="130.47" cy="350.61" rx="3.07" ry="3"/><ellipse class="cls-5" cx="130.47" cy="350.61" rx="3.07" ry="3"/><ellipse class="cls-5" cx="130.47" cy="350.61" rx="3.07" ry="3"/><ellipse class="cls-5" cx="130.47" cy="297.61" rx="3.07" ry="3"/><ellipse class="cls-5" cx="130.47" cy="297.61" rx="3.07" ry="3"/><ellipse class="cls-5" cx="130.47" cy="297.61" rx="3.07" ry="3"/><ellipse class="cls-5" cx="130.47" cy="297.61" rx="3.07" ry="3"/><ellipse class="cls-5" cx="130.47" cy="297.61" rx="3.07" ry="3"/><ellipse class="cls-5" cx="130.47" cy="297.61" rx="3.07" ry="3"/><ellipse class="cls-5" cx="130.47" cy="297.61" rx="3.07" ry="3"/><ellipse class="cls-5" cx="130.47" cy="297.61" rx="3.07" ry="3"/><ellipse class="cls-5" cx="130.47" cy="297.61" rx="3.07" ry="3"/><ellipse class="cls-5" cx="130.47" cy="297.61" rx="3.07" ry="3"/><ellipse class="cls-5" cx="130.47" cy="297.61" rx="3.07" ry="3"/><ellipse class="cls-5" cx="130.47" cy="297.61" rx="3.07" ry="3"/><ellipse class="cls-5" cx="130.47" cy="297.61" rx="3.07" ry="3"/><ellipse class="cls-5" cx="130.47" cy="297.61" rx="3.07" ry="3"/><ellipse class="cls-5" cx="130.47" cy="297.61" rx="3.07" ry="3"/><ellipse class="cls-5" cx="130.47" cy="297.61" rx="3.07" ry="3"/><ellipse class="cls-5" cx="130.47" cy="297.61" rx="3.07" ry="3"/><ellipse class="cls-5" cx="130.47" cy="244.61" rx="3.07" ry="3"/><ellipse class="cls-5" cx="130.47" cy="244.61" rx="3.07" ry="3"/><ellipse class="cls-5" cx="130.47" cy="244.61" rx="3.07" ry="3"/><ellipse class="cls-5" cx="130.47" cy="244.61" rx="3.07" ry="3"/><ellipse class="cls-5" cx="130.47" cy="244.61" rx="3.07" ry="3"/><ellipse class="cls-5" cx="130.47" cy="244.61" rx="3.07" ry="3"/><ellipse class="cls-5" cx="130.47" cy="244.61" rx="3.07" ry="3"/><ellipse class="cls-5" cx="130.47" cy="244.61" rx="3.07" ry="3"/><ellipse class="cls-5" cx="130.47" cy="191.61" rx="3.07" ry="3"/><ellipse class="cls-5" cx="130.47" cy="191.61" rx="3.07" ry="3"/><ellipse class="cls-5" cx="130.47" cy="191.61" rx="3.07" ry="3"/><ellipse class="cls-5" cx="130.47" cy="138.61" rx="3.07" ry="3"/><ellipse class="cls-5" cx="130.47" cy="85.61" rx="3.07" ry="3"/><ellipse class="cls-5" cx="130.47" cy="85.61" rx="3.07" ry="3"/><ellipse class="cls-5" cx="130.47" cy="32.61" rx="3.07" ry="3"/></g><g id="black"><path class="cls-6" d="M296.26,589.11l3.72-8.84c3.72-8.83,11.17-26.5,12.54-44.16s-3.33-35.34-6.07-53-3.53-35.34-4.51-53-2.15-35.34-3.13-53-1.77-35.34-2.16-53-.39-35.34-.39-53V6.11h0v265c0,17.66,0,35.33-.39,53s-1.18,35.33-2.16,53-2.16,35.33-3.14,53-1.76,35.33-4.5,53-7.45,35.33-6.08,53,8.82,35.33,12.54,44.16Z"/><ellipse cx="296.26" cy="562.61" rx="3.07" ry="3"/><ellipse cx="296.26" cy="562.61" rx="3.07" ry="3"/><ellipse cx="296.26" cy="562.61" rx="3.07" ry="3"/><ellipse cx="296.26" cy="562.61" rx="3.07" ry="3"/><ellipse cx="296.26" cy="562.61" rx="3.07" ry="3"/><ellipse cx="296.26" cy="562.61" rx="3.07" ry="3"/><ellipse cx="296.26" cy="562.61" rx="3.07" ry="3"/><ellipse cx="296.26" cy="562.61" rx="3.07" ry="3"/><ellipse cx="296.26" cy="562.61" rx="3.07" ry="3"/><ellipse cx="296.26" cy="562.61" rx="3.07" ry="3"/><ellipse cx="296.26" cy="562.61" rx="3.07" ry="3"/><ellipse cx="296.26" cy="562.61" rx="3.07" ry="3"/><ellipse cx="296.26" cy="562.61" rx="3.07" ry="3"/><ellipse cx="296.26" cy="562.61" rx="3.07" ry="3"/><ellipse cx="296.26" cy="562.61" rx="3.07" ry="3"/><ellipse cx="296.26" cy="562.61" rx="3.07" ry="3"/><ellipse cx="296.26" cy="562.61" rx="3.07" ry="3"/><ellipse cx="296.26" cy="562.61" rx="3.07" ry="3"/><ellipse class="cls-7" cx="296.26" cy="562.61" rx="3.07" ry="3"/><ellipse cx="296.26" cy="509.61" rx="3.07" ry="3"/><ellipse cx="296.26" cy="509.61" rx="3.07" ry="3"/><ellipse cx="296.26" cy="509.61" rx="3.07" ry="3"/><ellipse cx="296.26" cy="509.61" rx="3.07" ry="3"/><ellipse cx="296.26" cy="509.61" rx="3.07" ry="3"/><ellipse cx="296.26" cy="509.61" rx="3.07" ry="3"/><ellipse class="cls-7" cx="296.26" cy="509.61" rx="3.07" ry="3"/><ellipse cx="296.26" cy="456.61" rx="3.07" ry="3"/><ellipse cx="296.26" cy="456.61" rx="3.07" ry="3"/><ellipse cx="296.26" cy="456.61" rx="3.07" ry="3"/><ellipse cx="296.26" cy="456.61" rx="3.07" ry="3"/><ellipse class="cls-7" cx="296.26" cy="456.61" rx="3.07" ry="3"/><ellipse cx="296.26" cy="403.61" rx="3.07" ry="3"/><ellipse class="cls-7" cx="296.26" cy="403.61" rx="3.07" ry="3"/></g><g id="asian"><path class="cls-8" d="M462,589.11l.59-8.84c.59-8.83,1.76-26.5,2.55-44.16s1.17-35.34,1-53-1-35.34-1.57-53-1-35.34-1.18-53-.19-35.34-.39-53-.59-35.34-.59-53,.4-35.34.59-53,.2-35.34,0-53-.59-35.34-.78-53-.2-35.34-.2-53v-53h0v53c0,17.66,0,35.33-.19,53s-.59,35.33-.79,53-.19,35.33,0,53,.59,35.33.59,53-.39,35.33-.59,53-.19,35.33-.39,53-.59,35.33-1.18,53-1.37,35.33-1.56,53,.19,35.33,1,53,2,35.33,2.54,44.16Z"/><ellipse class="cls-9" cx="462.04" cy="562.61" rx="3.07" ry="3"/><ellipse class="cls-9" cx="462.04" cy="562.61" rx="3.07" ry="3"/><ellipse class="cls-9" cx="462.04" cy="562.61" rx="3.07" ry="3"/><ellipse class="cls-9" cx="462.04" cy="509.61" rx="3.07" ry="3"/><ellipse class="cls-9" cx="462.04" cy="509.61" rx="3.07" ry="3"/><ellipse class="cls-9" cx="462.04" cy="509.61" rx="3.07" ry="3"/><ellipse class="cls-9" cx="462.04" cy="509.61" rx="3.07" ry="3"/><ellipse class="cls-9" cx="462.04" cy="456.61" rx="3.07" ry="3"/><ellipse class="cls-9" cx="462.04" cy="456.61" rx="3.07" ry="3"/><ellipse class="cls-9" cx="462.04" cy="403.61" rx="3.07" ry="3"/><ellipse class="cls-9" cx="462.04" cy="350.61" rx="3.07" ry="3"/><ellipse class="cls-9" cx="462.04" cy="244.61" rx="3.07" ry="3"/><ellipse class="cls-9" cx="462.04" cy="191.61" rx="3.07" ry="3"/></g><g id="latinx"><path class="cls-10" d="M627.83,589.11l1.37-8.84c1.37-8.83,4.11-26.5,4.9-44.16s-.39-35.34-1.18-53-1.17-35.34-1.37-53-.2-35.34-.39-53-.59-35.34-1-53l-1.18-53c-.39-17.67-.78-35.34-1-53s-.19-35.34-.19-53V6.11h0v159c0,17.66,0,35.33-.2,53s-.59,35.33-1,53-.78,35.33-1.18,53-.78,35.33-1,53-.19,35.33-.39,53-.59,35.33-1.37,53-2,35.33-1.18,53,3.53,35.33,4.9,44.16Z"/><ellipse cx="627.83" cy="562.61" rx="3.07" ry="3"/><ellipse cx="627.83" cy="562.61" rx="3.07" ry="3"/><ellipse cx="627.83" cy="562.61" rx="3.07" ry="3"/><ellipse cx="627.83" cy="562.61" rx="3.07" ry="3"/><ellipse cx="627.83" cy="562.61" rx="3.07" ry="3"/><ellipse cx="627.83" cy="562.61" rx="3.07" ry="3"/><ellipse class="cls-11" cx="627.83" cy="562.61" rx="3.07" ry="3"/><ellipse cx="627.83" cy="509.61" rx="3.07" ry="3"/><ellipse cx="627.83" cy="509.61" rx="3.07" ry="3"/><ellipse cx="627.83" cy="509.61" rx="3.07" ry="3"/><ellipse class="cls-11" cx="627.83" cy="509.61" rx="3.07" ry="3"/><ellipse cx="627.83" cy="456.61" rx="3.07" ry="3"/><ellipse cx="627.83" cy="456.61" rx="3.07" ry="3"/><ellipse class="cls-11" cx="627.83" cy="456.61" rx="3.07" ry="3"/><ellipse cx="627.83" cy="403.61" rx="3.07" ry="3"/><ellipse cx="627.83" cy="403.61" rx="3.07" ry="3"/><ellipse class="cls-11" cx="627.83" cy="403.61" rx="3.07" ry="3"/><ellipse cx="627.83" cy="350.61" rx="3.07" ry="3"/><ellipse class="cls-11" cx="627.83" cy="350.61" rx="3.07" ry="3"/><ellipse class="cls-11" cx="627.83" cy="297.61" rx="3.07" ry="3"/></g><g id="other"><path class="cls-12" d="M793.61,589.11l.59-8.84c.59-8.83,1.76-26.5,2.55-44.16s1.17-35.34,1.37-53,.19-35.34,0-53-.59-35.34-1.37-53-2-35.34-2.55-53-.59-35.34-.39-53,.58-35.34.58-53-.39-35.34-.39-53,.39-35.34.39-53-.39-35.34-.58-53-.2-35.34-.2-44.17V6.11h0v8.83c0,8.83,0,26.5-.2,44.17s-.58,35.33-.58,53,.39,35.33.39,53-.39,35.33-.39,53,.39,35.33.58,53,.2,35.33-.39,53-1.76,35.33-2.55,53-1.17,35.33-1.37,53-.19,35.33,0,53,.59,35.33,1.37,53,2,35.33,2.55,44.16Z"/><ellipse class="cls-13" cx="793.61" cy="562.61" rx="3.07" ry="3"/><ellipse class="cls-13" cx="793.61" cy="562.61" rx="3.07" ry="3"/><ellipse class="cls-13" cx="793.61" cy="562.61" rx="3.07" ry="3"/><ellipse class="cls-13" cx="793.61" cy="509.61" rx="3.07" ry="3"/><ellipse class="cls-13" cx="793.61" cy="509.61" rx="3.07" ry="3"/><ellipse class="cls-13" cx="793.61" cy="509.61" rx="3.07" ry="3"/><ellipse class="cls-13" cx="793.61" cy="509.61" rx="3.07" ry="3"/><ellipse class="cls-13" cx="793.61" cy="456.61" rx="3.07" ry="3"/><ellipse class="cls-13" cx="793.61" cy="456.61" rx="3.07" ry="3"/><ellipse class="cls-13" cx="793.61" cy="456.61" rx="3.07" ry="3"/><ellipse class="cls-13" cx="793.61" cy="456.61" rx="3.07" ry="3"/><ellipse class="cls-13" cx="793.61" cy="403.61" rx="3.07" ry="3"/><ellipse class="cls-13" cx="793.61" cy="403.61" rx="3.07" ry="3"/><ellipse class="cls-13" cx="793.61" cy="403.61" rx="3.07" ry="3"/><ellipse class="cls-13" cx="793.61" cy="244.61" rx="3.07" ry="3"/><ellipse class="cls-13" cx="793.61" cy="138.61" rx="3.07" ry="3"/></g></g></g><text class="cls-1" transform="translate(3.66 229.06) rotate(90)"># of Competition <tspan class="cls-14" x="106.16" y="0">W</tspan><tspan x="118.31" y="0">ins</tspan></text><text class="cls-15" transform="translate(110.4 600.88)">White</text><text class="cls-16" transform="translate(275.89 600.88)">Black</text><text class="cls-17" transform="translate(441.58 600.88)">Asian</text><text class="cls-18" transform="translate(605.01 600.88)">Latinx</text><text class="cls-19" transform="translate(774.19 600.88)">Other</text></svg>