<?xml version="1.0" encoding="UTF-8"?><svg id="Layer_1" xmlns="http://www.w3.org/2000/svg" viewBox="0 0 564.51 500.02"><defs><style>.cls-1{fill:#3a6998;}</style></defs><g id="Group_4"><g id="Group_1"><g id="Icon_ionic-ios-checkmark-circle-outline"><path class="cls-1" d="M240.99,372.78c-7.04,0-14.08-2.69-19.45-8.05l-82.26-82.26c-10.74-10.74-10.74-28.15,0-38.89,10.74-10.74,28.15-10.74,38.89,0l62.81,62.81,146.5-146.5c10.74-10.74,28.15-10.74,38.89,0,10.74,10.74,10.74,28.15,0,38.89l-165.95,165.95c-5.37,5.37-12.41,8.05-19.45,8.05Z"/></g></g><g id="Ellipse_2"><path class="cls-1" d="M282.26,493c-64.9,0-125.92-25.27-171.82-71.17-45.89-45.89-71.17-106.91-71.17-171.82s25.27-125.92,71.17-171.82C156.33,32.3,217.35,7.02,282.26,7.02s125.92,25.28,171.82,71.17c45.89,45.89,71.17,106.91,71.17,171.82s-25.27,125.92-71.17,171.82c-45.89,45.89-106.91,71.17-171.82,71.17Zm0-450.98c-114.69,0-207.99,93.3-207.99,207.99s93.3,207.99,207.99,207.99,207.99-93.3,207.99-207.99S396.94,42.02,282.26,42.02Z"/></g></g></svg>