<?xml version="1.0" encoding="UTF-8"?><svg id="Layer_1" xmlns="http://www.w3.org/2000/svg" viewBox="0 0 564.51 500.02"><defs><style>.cls-1{fill:none;}.cls-2{fill:#cc403f;}.cls-3{fill:#cc413f;}</style></defs><g id="Group_3"><g id="Group_2"><path class="cls-2" d="M282.38,338.26c-15.19,0-27.5-12.31-27.5-27.5V177.74c0-15.19,12.31-27.5,27.5-27.5s27.5,12.31,27.5,27.5v133.02c0,15.19-12.31,27.5-27.5,27.5Z"/><circle id="Ellipse_1" class="cls-2" cx="282.26" cy="387.45" r="27.85"/><g id="Polygon_1"><path class="cls-1" d="M265.43,18.28c5.37-9.29,17.25-12.47,26.54-7.11,2.95,1.7,5.4,4.16,7.11,7.11l255.83,443c5.37,9.29,2.18,21.18-7.11,26.54-2.95,1.7-6.3,2.6-9.71,2.6H26.42c-10.73,0-19.43-8.71-19.42-19.44,0-3.41,.9-6.76,2.6-9.71L265.43,18.28Z"/><g><path class="cls-2" d="M282.26,53.9L48.86,458.04h466.8L282.26,53.9m0-45.33c6.54,0,13.09,3.24,16.83,9.71l255.84,443c7.48,12.95-1.87,29.15-16.83,29.15H26.42c-14.96,0-24.31-16.19-16.83-29.15L265.43,18.28c3.74-6.48,10.28-9.71,16.83-9.71Z"/><path class="cls-3" d="M538.1,491.93H26.42c-7.57,0-14.34-3.91-18.13-10.47-3.78-6.55-3.78-14.38,0-20.93L264.13,17.53c3.78-6.55,10.56-10.46,18.12-10.46s14.34,3.91,18.12,10.46l255.84,443c3.78,6.55,3.79,14.38,0,20.93-3.78,6.55-10.56,10.47-18.13,10.47ZM282.26,10.07c-6.48,0-12.28,3.35-15.53,8.96L10.89,462.03c-3.24,5.61-3.24,12.32,0,17.93,3.24,5.61,9.05,8.97,15.53,8.97h511.68c6.48,0,12.29-3.35,15.53-8.97s3.24-12.32,0-17.93L297.78,19.03c-3.24-5.61-9.05-8.96-15.53-8.96Zm236,449.48H46.26l1.3-2.25L282.26,50.9l236,408.64Zm-466.8-3h461.61L282.26,56.9,51.45,456.54Z"/></g></g></g></g></svg>