<?xml version="1.0" encoding="utf-8"?>
<!-- Generator: Adobe Illustrator 26.5.0, SVG Export Plug-In . SVG Version: 6.00 Build 0)  -->
<svg version="1.1" id="Layer_1" xmlns="http://www.w3.org/2000/svg" xmlns:xlink="http://www.w3.org/1999/xlink" x="0px" y="0px"
	 viewBox="0 0 298 64" style="enable-background:new 0 0 298 64;" xml:space="preserve">
<style type="text/css">
	.st0{fill:#F4F4F3;}
	.st1{fill:url(#SVGID_1_);}
	.st2{fill:url(#SVGID_00000126324516058656580410000015653693996311835040_);}
	.st3{fill:url(#SVGID_00000131355219708599102900000014680519091607263394_);}
	.st4{fill:#5B5B5B;fill-opacity:0.2;}
	.st5{fill-rule:evenodd;clip-rule:evenodd;fill:url(#SVGID_00000077283048492315904730000014974415294694599829_);}
	.st6{fill:url(#SVGID_00000049181047685187764070000003997203739424831108_);}
</style>
<path class="st0" d="M4.1,48V10.2h13.8c2.4,0,4.5,0.3,6,0.8c1.6,0.6,2.9,1.3,3.8,2.3c0.9,1,1.6,2.1,1.9,3.4c0.4,1.3,0.6,2.6,0.6,4
	c0,2.1-0.4,3.8-1.3,5.2c-0.8,1.4-1.9,2.4-3.3,3.3c-1.4,0.8-2.9,1.3-4.7,1.6c-1.7,0.3-3.4,0.5-5.2,0.5H7.7V48H4.1z M15.9,28.3
	c1.7,0,3.2-0.1,4.5-0.3c1.3-0.2,2.4-0.6,3.4-1.2c0.9-0.6,1.7-1.4,2.2-2.4c0.5-1,0.8-2.3,0.8-3.9c0-2.4-0.8-4.2-2.4-5.4
	c-1.5-1.2-4-1.8-7.4-1.8H7.7v15H15.9z M58.2,32.5c0-1.3-0.2-2.6-0.6-3.7c-0.3-1.2-0.9-2.2-1.6-3c-0.7-0.9-1.6-1.6-2.7-2
	c-1.1-0.5-2.3-0.8-3.7-0.8s-2.6,0.3-3.7,0.8c-1,0.5-2,1.2-2.7,2.1c-0.7,0.9-1.3,1.9-1.8,3c-0.5,1.2-0.8,2.4-0.9,3.7H58.2z
	 M40.4,35.1c0,1.5,0.2,2.9,0.6,4.2c0.4,1.3,0.9,2.4,1.7,3.4c0.8,0.9,1.7,1.7,2.9,2.3c1.2,0.6,2.5,0.8,4,0.8c2.1,0,3.8-0.5,5.3-1.6
	c1.5-1.1,2.4-2.6,2.9-4.6h3.5c-0.4,1.3-0.9,2.5-1.5,3.6c-0.6,1.1-1.4,2-2.4,2.9c-0.9,0.8-2.1,1.4-3.4,1.9c-1.3,0.5-2.8,0.7-4.5,0.7
	c-2.2,0-4-0.4-5.6-1.1c-1.6-0.7-2.9-1.7-3.9-3c-1-1.3-1.8-2.8-2.3-4.5c-0.5-1.7-0.7-3.6-0.7-5.6c0-2,0.3-3.9,0.8-5.6
	c0.6-1.7,1.4-3.3,2.5-4.6c1.1-1.3,2.4-2.4,3.9-3.1c1.5-0.8,3.3-1.2,5.2-1.2c3.7,0,6.7,1.3,8.8,3.9c2.1,2.6,3.2,6.3,3.1,11.2H40.4z
	 M73.6,48h-3.1V20.8h3.1v5.1h0.1c0.9-2.2,2-3.7,3.4-4.5c1.4-0.9,3.2-1.3,5.5-1.3v3.4c-1.8,0-3.3,0.2-4.4,0.8
	c-1.2,0.6-2.1,1.4-2.8,2.4c-0.7,1-1.1,2.2-1.4,3.6c-0.2,1.4-0.4,2.8-0.4,4.3V48z M161.8,32.5c0-1.3-0.2-2.6-0.6-3.7
	c-0.4-1.2-0.9-2.2-1.6-3c-0.7-0.9-1.6-1.6-2.7-2c-1.1-0.5-2.3-0.8-3.7-0.8c-1.4,0-2.6,0.3-3.7,0.8c-1,0.5-2,1.2-2.7,2.1
	c-0.7,0.9-1.3,1.9-1.8,3c-0.5,1.2-0.8,2.4-0.9,3.7H161.8z M144,35.1c0,1.5,0.2,2.9,0.6,4.2c0.4,1.3,0.9,2.4,1.7,3.4
	c0.8,0.9,1.7,1.7,2.9,2.3c1.2,0.6,2.5,0.8,4,0.8c2.1,0,3.8-0.5,5.3-1.6c1.5-1.1,2.5-2.6,2.9-4.6h3.5c-0.4,1.3-0.9,2.5-1.5,3.6
	c-0.6,1.1-1.4,2-2.4,2.9c-0.9,0.8-2.1,1.4-3.4,1.9c-1.3,0.5-2.8,0.7-4.5,0.7c-2.2,0-4-0.4-5.6-1.1c-1.6-0.7-2.9-1.7-3.9-3
	c-1-1.3-1.8-2.8-2.3-4.5c-0.5-1.7-0.7-3.6-0.7-5.6c0-2,0.3-3.9,0.8-5.6c0.6-1.7,1.4-3.3,2.5-4.6c1.1-1.3,2.4-2.4,3.9-3.1
	c1.5-0.8,3.3-1.2,5.2-1.2c3.7,0,6.7,1.3,8.8,3.9c2.1,2.6,3.2,6.3,3.1,11.2H144z M177.4,34.5c0,1.5,0.2,3,0.6,4.4
	c0.4,1.4,1,2.6,1.8,3.6c0.8,1,1.8,1.8,2.9,2.5c1.2,0.6,2.4,0.9,3.9,0.9c1.6,0,3-0.3,4.2-0.9c1.2-0.7,2.2-1.6,3-2.7
	c0.8-1.1,1.3-2.4,1.7-3.9c0.4-1.5,0.5-3.1,0.4-4.8c0-1.7-0.2-3.2-0.7-4.5c-0.5-1.3-1.1-2.4-1.9-3.4c-0.8-0.9-1.8-1.6-2.9-2
	c-1.1-0.5-2.3-0.7-3.7-0.7c-1.5,0-2.8,0.3-3.9,0.9c-1.2,0.6-2.1,1.4-2.9,2.5c-0.8,1-1.4,2.2-1.8,3.7
	C177.6,31.3,177.4,32.9,177.4,34.5z M177.4,58.7h-3.2V20.8h3.2v4.8h0.1c0.5-0.9,1-1.7,1.7-2.4c0.7-0.7,1.5-1.3,2.4-1.7
	c0.9-0.5,1.8-0.8,2.7-1c0.9-0.2,1.8-0.4,2.7-0.4c2.2,0,4.1,0.4,5.6,1.1c1.5,0.7,2.8,1.7,3.8,3c1,1.3,1.7,2.8,2.2,4.5
	c0.5,1.7,0.7,3.6,0.7,5.6c0,1.9-0.2,3.7-0.7,5.5s-1.2,3.3-2.3,4.6c-1,1.3-2.2,2.3-3.8,3.1c-1.5,0.8-3.3,1.2-5.4,1.2
	c-1.9,0-3.8-0.4-5.6-1.3c-1.7-0.9-3.1-2.2-4.1-3.8V58.7z M218.1,48.1c-0.4,0.1-0.9,0.2-1.5,0.4c-0.6,0.2-1.3,0.3-2.1,0.3
	c-1.6,0-2.8-0.4-3.6-1.2c-0.8-0.8-1.2-2.2-1.2-4.3V23.4h-3.8v-2.6h3.8v-7.6h3.1v7.6h5.1v2.6h-5.1v18.6c0,0.7,0,1.2,0.1,1.7
	c0,0.5,0.1,0.9,0.3,1.2c0.2,0.3,0.4,0.5,0.8,0.7c0.4,0.1,0.9,0.2,1.6,0.2c0.4,0,0.8,0,1.3-0.1c0.5-0.1,0.9-0.2,1.3-0.3V48.1z
	 M225.4,48V20.8h3.1V48H225.4z M225.2,14.9v-4.7h3.5v4.7H225.2z M250,48.7c-1.8,0-3.4-0.3-4.9-0.9c-1.5-0.6-2.8-1.5-4-2.7
	c-1.1-1.2-2-2.7-2.7-4.5c-0.7-1.8-1-3.9-1-6.2c0-2,0.3-3.8,0.8-5.6c0.5-1.7,1.3-3.3,2.4-4.6c1-1.3,2.4-2.3,3.9-3
	c1.6-0.8,3.4-1.2,5.5-1.2c2.1,0,4,0.4,5.6,1.2c1.6,0.7,2.9,1.7,3.9,3c1,1.3,1.8,2.8,2.3,4.5c0.5,1.7,0.8,3.6,0.8,5.6
	c0,2.2-0.3,4.1-0.9,5.9c-0.6,1.7-1.5,3.3-2.6,4.5c-1.1,1.3-2.4,2.2-4,2.9C253.6,48.4,251.9,48.7,250,48.7z M259.2,34.4
	c0-1.6-0.2-3.1-0.5-4.5c-0.3-1.4-0.9-2.6-1.6-3.6c-0.7-1-1.7-1.9-2.8-2.5c-1.2-0.6-2.6-0.9-4.3-0.9c-1.6,0-3.1,0.3-4.3,1
	c-1.2,0.6-2.1,1.5-2.8,2.6c-0.7,1-1.3,2.3-1.6,3.7c-0.4,1.4-0.5,2.8-0.5,4.3c0,1.7,0.2,3.2,0.6,4.7c0.4,1.4,1,2.6,1.8,3.6
	c0.8,1,1.7,1.8,2.9,2.4c1.2,0.6,2.5,0.8,4,0.8c1.6,0,3-0.3,4.2-0.9c1.2-0.7,2.2-1.5,2.9-2.6c0.7-1.1,1.3-2.3,1.6-3.7
	C259,37.3,259.2,35.9,259.2,34.4z M274.1,48h-3.1V20.8h3.1v3.8c1.3-1.3,2.6-2.4,3.9-3.3c1.4-0.8,3-1.3,4.9-1.3
	c1.7,0,3.2,0.3,4.7,0.9c1.4,0.6,2.6,1.6,3.6,3c0.7,1,1,2,1.2,3c0.1,1,0.2,2.1,0.2,3.2V48h-3.1V30.3c0-2.4-0.5-4.3-1.6-5.5
	c-1.1-1.2-2.9-1.8-5.4-1.8c-1,0-1.9,0.2-2.7,0.5c-0.8,0.3-1.5,0.7-2.2,1.2c-0.6,0.5-1.2,1-1.6,1.7c-0.5,0.6-0.8,1.3-1.1,2
	c-0.3,0.9-0.5,1.7-0.6,2.5c-0.1,0.8-0.1,1.7-0.1,2.6V48z"/>
<radialGradient id="SVGID_1_" cx="48.8685" cy="131.2859" r="1" gradientTransform="matrix(47.1584 28.5259 24.9687 -41.2777 -5497.9331 4039.9451)" gradientUnits="userSpaceOnUse">
	<stop  offset="5.097380e-02" style="stop-color:#20AAEA"/>
	<stop  offset="0.5746" style="stop-color:#7520B9"/>
</radialGradient>
<path class="st1" d="M97.5,10.5v11.2l13.8,14V24.6L97.5,10.5z"/>
<linearGradient id="SVGID_00000069365938493235660640000008541632437927347335_" gradientUnits="userSpaceOnUse" x1="100.6223" y1="46.2111" x2="96.2053" y2="10.588" gradientTransform="matrix(1 0 0 -1 0 66)">
	<stop  offset="8.338640e-02" style="stop-color:#20AAEA"/>
	<stop  offset="1" style="stop-color:#7520B9"/>
</linearGradient>
<path style="fill:url(#SVGID_00000069365938493235660640000008541632437927347335_);" d="M92.9,35.2v11.2l9.4,5.7V40.9L92.9,35.2z"
	/>
<linearGradient id="SVGID_00000183934866442027646240000001190066165538105246_" gradientUnits="userSpaceOnUse" x1="76.2518" y1="34.5332" x2="128.4463" y2="21.5707" gradientTransform="matrix(1 0 0 -1 0 66)">
	<stop  offset="0.4707" style="stop-color:#20AAEA"/>
	<stop  offset="0.7993" style="stop-color:#B366FF"/>
	<stop  offset="1" style="stop-color:#FF80A1"/>
</linearGradient>
<path style="fill:url(#SVGID_00000183934866442027646240000001190066165538105246_);" d="M102.4,40.9v11.1L120.7,63v0l4.8-2.8
	l-13.7-13.7L130,35.6V24.3L102.4,40.9z"/>
<path class="st4" d="M102.4,40.9v11.1L120.7,63v0l4.8-2.8l-13.7-13.7L130,35.6V24.3L102.4,40.9z"/>
<linearGradient id="SVGID_00000137852776089475945650000002458596356261068475_" gradientUnits="userSpaceOnUse" x1="142.8979" y1="86.4804" x2="96.8477" y2="26.5977" gradientTransform="matrix(1 0 0 -1 0 66)">
	<stop  offset="0.5315" style="stop-color:#FF80A1"/>
	<stop  offset="0.784" style="stop-color:#B37DE8"/>
	<stop  offset="1" style="stop-color:#20AAEA"/>
</linearGradient>
<path style="fill-rule:evenodd;clip-rule:evenodd;fill:url(#SVGID_00000137852776089475945650000002458596356261068475_);" d="
	M120.6,18.6L102.4,7.7l-4.8,2.9L111,24.3L92.9,35.2l9.4,5.7L130,24.3L120.6,18.6L120.6,18.6z"/>
<linearGradient id="SVGID_00000105398955284282805920000009563834573300776126_" gradientUnits="userSpaceOnUse" x1="93.4984" y1="32.6156" x2="137.3437" y2="7.5161" gradientTransform="matrix(1 0 0 -1 0 66)">
	<stop  offset="0.4042" style="stop-color:#7520B9"/>
	<stop  offset="0.8854" style="stop-color:#20AAEA"/>
</linearGradient>
<path style="fill:url(#SVGID_00000105398955284282805920000009563834573300776126_);" d="M125.5,60.2l-4.3-19.4l-9.6,5.7L125.5,60.2
	z"/>
</svg>
